<svg width="1440" height="2960" viewBox="0 0 1440 2960" fill="none" xmlns="http://www.w3.org/2000/svg">
<g clip-path="url(#clip0)">
<rect width="1440" height="2960" fill="url(#paint0_linear)"/>
<ellipse cx="-248.063" cy="491.896" rx="520.937" ry="511.971" fill="url(#paint1_linear)"/>
<ellipse cx="543.762" cy="1047.75" rx="297.678" ry="292.555" fill="url(#paint2_linear)"/>
<ellipse cx="490.18" cy="159.847" rx="186.049" ry="182.847" fill="url(#paint3_linear)"/>
<ellipse cx="664.32" cy="1925.41" rx="186.049" ry="182.847" fill="url(#paint4_linear)"/>
<ellipse cx="-17.3621" cy="1286.18" rx="148.839" ry="146.277" fill="url(#paint5_linear)"/>
<ellipse cx="1517.17" cy="426.072" rx="409.307" ry="402.263" fill="url(#paint6_linear)"/>
<ellipse cx="452.968" cy="2574.89" rx="409.307" ry="402.263" fill="url(#paint7_linear)"/>
<ellipse cx="415.759" cy="619.158" rx="74.4195" ry="73.1387" fill="url(#paint8_linear)"/>
<ellipse cx="1451.68" cy="1511.45" rx="558.147" ry="548.54" fill="url(#paint9_linear)"/>
<ellipse cx="1197.16" cy="2355.47" rx="223.259" ry="219.416" fill="url(#paint10_linear)"/>
<ellipse cx="826.555" cy="515.301" rx="223.259" ry="219.416" fill="url(#paint11_linear)"/>
<ellipse cx="661.343" cy="1526.08" rx="74.4195" ry="73.1387" fill="url(#paint12_linear)"/>
<ellipse cx="21.3356" cy="1938.58" rx="260.468" ry="255.985" fill="url(#paint13_linear)"/>
<ellipse cx="961.998" cy="110.112" rx="111.629" ry="109.708" fill="url(#paint14_linear)"/>
<ellipse cx="1064.7" cy="872.218" rx="74.4195" ry="73.1387" fill="url(#paint15_linear)"/>
<ellipse cx="304.131" cy="1569.96" rx="111.629" ry="109.708" fill="url(#paint16_linear)"/>
<ellipse cx="1152.51" cy="2868.9" rx="74.4195" ry="73.1387" fill="url(#paint17_linear)"/>
<path d="M460 1590C515.228 1590 560 1545.23 560 1490C560 1434.77 515.228 1390 460 1390C404.772 1390 360 1434.77 360 1490C360 1545.23 404.772 1590 460 1590Z" fill="white"/>
<path d="M407.473 1437.47H512.529V1542.53H407.473V1437.47Z" fill="url(#paint18_linear)"/>
<path d="M385.715 1490L460.001 1415.71L534.286 1490L460.001 1564.29L385.715 1490Z" fill="url(#paint19_linear)"/>
<path d="M460 1530C482.091 1530 500 1512.09 500 1490C500 1467.91 482.091 1450 460 1450C437.909 1450 420 1467.91 420 1490C420 1512.09 437.909 1530 460 1530Z" fill="white"/>
<path d="M662.174 1524.8H654.134V1513.64C648.294 1521.48 640.814 1525.4 631.694 1525.4C626.174 1525.4 621.094 1524.04 616.454 1521.32C611.814 1518.6 608.134 1514.92 605.414 1510.28C602.694 1505.56 601.334 1500.48 601.334 1495.04C601.334 1489.6 602.694 1484.56 605.414 1479.92C608.134 1475.2 611.814 1471.48 616.454 1468.76C621.094 1466.04 626.174 1464.68 631.694 1464.68C641.134 1464.68 648.614 1468.4 654.134 1475.84V1445.12H662.174V1524.8ZM653.894 1495.04C653.894 1491.04 652.894 1487.36 650.894 1484C648.894 1480.64 646.174 1477.96 642.734 1475.96C639.374 1473.96 635.694 1472.96 631.694 1472.96C627.694 1472.96 624.014 1473.96 620.654 1475.96C617.294 1477.96 614.614 1480.64 612.614 1484C610.614 1487.36 609.614 1491.04 609.614 1495.04C609.614 1499.04 610.614 1502.76 612.614 1506.2C614.614 1509.56 617.294 1512.24 620.654 1514.24C624.014 1516.24 627.694 1517.24 631.694 1517.24C635.694 1517.24 639.374 1516.24 642.734 1514.24C646.174 1512.24 648.894 1509.56 650.894 1506.2C652.894 1502.76 653.894 1499.04 653.894 1495.04ZM736.295 1466.36V1524.8H728.015V1513.76C722.495 1521.52 715.135 1525.4 705.935 1525.4C700.415 1525.4 695.335 1524.08 690.695 1521.44C686.055 1518.72 682.375 1515.04 679.655 1510.4C677.015 1505.76 675.695 1500.72 675.695 1495.28C675.695 1489.76 677.015 1484.68 679.655 1480.04C682.375 1475.4 686.055 1471.76 690.695 1469.12C695.335 1466.4 700.415 1465.04 705.935 1465.04C711.615 1465.04 716.255 1466.24 719.855 1468.64C723.535 1470.96 726.255 1473.48 728.015 1476.2V1466.36H736.295ZM705.935 1517.24C709.935 1517.24 713.615 1516.28 716.975 1514.36C720.335 1512.36 722.975 1509.68 724.895 1506.32C726.895 1502.96 727.895 1499.28 727.895 1495.28C727.895 1491.28 726.895 1487.6 724.895 1484.24C722.975 1480.8 720.335 1478.12 716.975 1476.2C713.615 1474.2 709.935 1473.2 705.935 1473.2C701.935 1473.2 698.215 1474.2 694.775 1476.2C691.415 1478.12 688.735 1480.8 686.735 1484.24C684.815 1487.6 683.855 1491.28 683.855 1495.28C683.855 1499.28 684.815 1502.96 686.735 1506.32C688.735 1509.68 691.415 1512.36 694.775 1514.36C698.215 1516.28 701.935 1517.24 705.935 1517.24ZM774.903 1464.32C779.223 1464.32 783.183 1465.4 786.783 1467.56C790.463 1469.64 793.343 1472.52 795.423 1476.2C797.583 1479.8 798.663 1483.76 798.663 1488.08V1524.8H790.383V1488.08C790.383 1485.28 789.663 1482.68 788.223 1480.28C786.863 1477.88 784.983 1476 782.583 1474.64C780.263 1473.2 777.703 1472.48 774.903 1472.48C772.103 1472.48 769.503 1473.2 767.103 1474.64C764.703 1476 762.783 1477.88 761.343 1480.28C759.983 1482.68 759.303 1485.28 759.303 1488.08V1524.8H751.023V1444.76H759.303V1471.04C761.223 1468.8 763.503 1467.12 766.143 1466C768.863 1464.88 771.783 1464.32 774.903 1464.32ZM821.591 1445V1524.8H813.431V1445H821.591ZM841.747 1448.12C843.187 1448.12 844.427 1448.64 845.467 1449.68C846.507 1450.72 847.027 1451.96 847.027 1453.4C847.027 1454.92 846.507 1456.2 845.467 1457.24C844.427 1458.28 843.187 1458.8 841.747 1458.8C840.227 1458.8 838.947 1458.28 837.907 1457.24C836.867 1456.2 836.347 1454.92 836.347 1453.4C836.347 1451.96 836.867 1450.72 837.907 1449.68C838.947 1448.64 840.227 1448.12 841.747 1448.12ZM845.827 1464.8V1524.8H837.547V1464.8H845.827ZM917.609 1466.36V1524.8H909.329V1513.76C903.809 1521.52 896.449 1525.4 887.249 1525.4C881.729 1525.4 876.649 1524.08 872.009 1521.44C867.369 1518.72 863.689 1515.04 860.969 1510.4C858.329 1505.76 857.009 1500.72 857.009 1495.28C857.009 1489.76 858.329 1484.68 860.969 1480.04C863.689 1475.4 867.369 1471.76 872.009 1469.12C876.649 1466.4 881.729 1465.04 887.249 1465.04C892.929 1465.04 897.569 1466.24 901.169 1468.64C904.849 1470.96 907.569 1473.48 909.329 1476.2V1466.36H917.609ZM887.249 1517.24C891.249 1517.24 894.929 1516.28 898.289 1514.36C901.649 1512.36 904.289 1509.68 906.209 1506.32C908.209 1502.96 909.209 1499.28 909.209 1495.28C909.209 1491.28 908.209 1487.6 906.209 1484.24C904.289 1480.8 901.649 1478.12 898.289 1476.2C894.929 1474.2 891.249 1473.2 887.249 1473.2C883.249 1473.2 879.529 1474.2 876.089 1476.2C872.729 1478.12 870.049 1480.8 868.049 1484.24C866.129 1487.6 865.169 1491.28 865.169 1495.28C865.169 1499.28 866.129 1502.96 868.049 1506.32C870.049 1509.68 872.729 1512.36 876.089 1514.36C879.529 1516.28 883.249 1517.24 887.249 1517.24ZM971.097 1525.4C963.817 1525.4 957.137 1523.6 951.057 1520C944.977 1516.4 940.137 1511.56 936.537 1505.48C932.937 1499.4 931.137 1492.72 931.137 1485.44C931.137 1478.16 932.937 1471.48 936.537 1465.4C940.137 1459.24 944.977 1454.36 951.057 1450.76C957.217 1447.16 963.897 1445.36 971.097 1445.36C978.297 1445.36 984.977 1447.16 991.137 1450.76C997.297 1454.36 1002.18 1459.24 1005.78 1465.4C1009.38 1471.56 1011.18 1478.24 1011.18 1485.44C1011.18 1492.64 1009.38 1499.32 1005.78 1505.48C1002.18 1511.56 997.297 1516.4 991.137 1520C985.057 1523.6 978.377 1525.4 971.097 1525.4ZM971.097 1517.24C976.857 1517.24 982.177 1515.84 987.057 1513.04C991.937 1510.16 995.777 1506.28 998.577 1501.4C1001.46 1496.52 1002.9 1491.2 1002.9 1485.44C1002.9 1479.68 1001.46 1474.36 998.577 1469.48C995.777 1464.6 991.937 1460.76 987.057 1457.96C982.177 1455.08 976.857 1453.64 971.097 1453.64C965.337 1453.64 960.017 1455.08 955.137 1457.96C950.257 1460.76 946.377 1464.6 943.497 1469.48C940.697 1474.36 939.297 1479.68 939.297 1485.44C939.297 1491.2 940.697 1496.52 943.497 1501.4C946.377 1506.28 950.257 1510.16 955.137 1513.04C960.017 1515.84 965.337 1517.24 971.097 1517.24ZM1067.28 1468.16C1066.88 1465.12 1065.92 1462.48 1064.4 1460.24C1061.28 1455.44 1056.12 1453.04 1048.92 1453.04C1042.92 1453.04 1038.56 1454.4 1035.84 1457.12C1033.36 1459.68 1032.12 1463.16 1032.12 1467.56C1032.12 1472.44 1033.48 1475.8 1036.2 1477.64C1038.92 1479.48 1042.72 1480.6 1047.6 1481C1052.24 1481.4 1056.16 1482.04 1059.36 1482.92C1062.56 1483.72 1065.24 1484.84 1067.4 1486.28C1073.08 1489.8 1075.92 1495.32 1075.92 1502.84C1075.92 1505.8 1075.32 1508.6 1074.12 1511.24C1073 1513.88 1071.36 1516.24 1069.2 1518.32C1064.32 1523.12 1057.64 1525.52 1049.16 1525.52C1040.6 1525.52 1033.84 1523.16 1028.88 1518.44C1024.64 1514.52 1022.08 1509.24 1021.2 1502.6H1029.48C1030.2 1506.6 1031.88 1509.88 1034.52 1512.44C1037.96 1515.64 1042.88 1517.24 1049.28 1517.24C1054.72 1517.24 1059.12 1515.92 1062.48 1513.28C1065.92 1510.56 1067.64 1507.08 1067.64 1502.84C1067.64 1500.12 1067.08 1497.88 1065.96 1496.12C1064.92 1494.28 1062.88 1492.8 1059.84 1491.68C1056.8 1490.56 1052.48 1489.76 1046.88 1489.28C1031.52 1487.92 1023.84 1480.68 1023.84 1467.56C1023.84 1464.28 1024.36 1461.28 1025.4 1458.56C1026.52 1455.76 1028.08 1453.36 1030.08 1451.36C1034.48 1446.96 1040.72 1444.76 1048.8 1444.76H1048.92C1057.16 1444.84 1063.44 1447.12 1067.76 1451.6C1072.16 1456 1074.76 1461.56 1075.56 1468.28H1067.28V1468.16Z" fill="white"/>
<path d="M662.173 1524.8V1526H663.373V1524.8H662.173ZM654.133 1524.8H652.933V1526H654.133V1524.8ZM654.133 1513.64H655.333V1510.02L653.17 1512.92L654.133 1513.64ZM616.453 1521.32L617.059 1520.28L616.453 1521.32ZM605.413 1510.28L604.373 1510.88L604.375 1510.88L604.378 1510.89L605.413 1510.28ZM605.413 1479.92L606.447 1480.53L606.45 1480.52L606.453 1480.52L605.413 1479.92ZM616.453 1468.76L617.059 1469.8L616.453 1468.76ZM654.133 1475.84L653.169 1476.56L655.333 1479.47V1475.84H654.133ZM654.133 1445.12V1443.92H652.933V1445.12H654.133ZM662.173 1445.12H663.373V1443.92H662.173V1445.12ZM650.893 1484L649.862 1484.61L650.893 1484ZM642.733 1475.96L642.119 1476.99L642.125 1476.99L642.13 1477L642.733 1475.96ZM620.653 1475.96L621.266 1476.99L620.653 1475.96ZM612.613 1484L613.643 1484.61L612.613 1484ZM612.613 1506.2L611.575 1506.8L611.578 1506.81L611.582 1506.81L612.613 1506.2ZM620.653 1514.24L620.039 1515.27L620.653 1514.24ZM642.733 1514.24L642.13 1513.2L642.125 1513.21L642.119 1513.21L642.733 1514.24ZM650.893 1506.2L651.923 1506.81L651.927 1506.81L651.93 1506.8L650.893 1506.2ZM662.173 1523.6H654.133V1526H662.173V1523.6ZM655.333 1524.8V1513.64H652.933V1524.8H655.333ZM653.17 1512.92C647.538 1520.48 640.403 1524.2 631.693 1524.2V1526.6C641.222 1526.6 649.047 1522.48 655.095 1514.36L653.17 1512.92ZM631.693 1524.2C626.381 1524.2 621.51 1522.89 617.059 1520.28L615.846 1522.36C620.675 1525.19 625.965 1526.6 631.693 1526.6V1524.2ZM617.059 1520.28C612.597 1517.67 609.065 1514.14 606.447 1509.67L604.378 1510.89C607.201 1515.7 611.029 1519.53 615.846 1522.36L617.059 1520.28ZM606.453 1509.68C603.837 1505.14 602.533 1500.27 602.533 1495.04H600.133C600.133 1500.69 601.549 1505.98 604.373 1510.88L606.453 1509.68ZM602.533 1495.04C602.533 1489.81 603.837 1484.98 606.447 1480.53L604.378 1479.31C601.549 1484.14 600.133 1489.39 600.133 1495.04H602.533ZM606.453 1480.52C609.07 1475.98 612.602 1472.41 617.059 1469.8L615.846 1467.72C611.023 1470.55 607.195 1474.42 604.373 1479.32L606.453 1480.52ZM617.059 1469.8C621.51 1467.19 626.381 1465.88 631.693 1465.88V1463.48C625.965 1463.48 620.675 1464.89 615.846 1467.72L617.059 1469.8ZM631.693 1465.88C640.761 1465.88 647.881 1469.43 653.169 1476.56L655.097 1475.12C649.345 1467.37 641.505 1463.48 631.693 1463.48V1465.88ZM655.333 1475.84V1445.12H652.933V1475.84H655.333ZM654.133 1446.32H662.173V1443.92H654.133V1446.32ZM660.973 1445.12V1524.8H663.373V1445.12H660.973ZM655.093 1495.04C655.093 1490.83 654.037 1486.94 651.923 1483.39L649.862 1484.61C651.749 1487.78 652.693 1491.25 652.693 1495.04H655.093ZM651.923 1483.39C649.818 1479.85 646.949 1477.02 643.335 1474.92L642.13 1477C645.397 1478.9 647.967 1481.43 649.862 1484.61L651.923 1483.39ZM643.346 1474.93C639.797 1472.82 635.903 1471.76 631.693 1471.76V1474.16C635.482 1474.16 638.949 1475.1 642.119 1476.99L643.346 1474.93ZM631.693 1471.76C627.482 1471.76 623.589 1472.82 620.039 1474.93L621.266 1476.99C624.437 1475.1 627.903 1474.16 631.693 1474.16V1471.76ZM620.039 1474.93C616.507 1477.03 613.683 1479.85 611.582 1483.39L613.643 1484.61C615.542 1481.43 618.078 1478.89 621.266 1476.99L620.039 1474.93ZM611.582 1483.39C609.469 1486.94 608.413 1490.83 608.413 1495.04H610.813C610.813 1491.25 611.757 1487.78 613.643 1484.61L611.582 1483.39ZM608.413 1495.04C608.413 1499.25 609.469 1503.18 611.575 1506.8L613.65 1505.6C611.757 1502.34 610.813 1498.83 610.813 1495.04H608.413ZM611.582 1506.81C613.683 1510.35 616.507 1513.17 620.039 1515.27L621.266 1513.21C618.078 1511.31 615.542 1508.77 613.643 1505.59L611.582 1506.81ZM620.039 1515.27C623.589 1517.38 627.482 1518.44 631.693 1518.44V1516.04C627.903 1516.04 624.437 1515.1 621.266 1513.21L620.039 1515.27ZM631.693 1518.44C635.903 1518.44 639.797 1517.38 643.346 1515.27L642.119 1513.21C638.949 1515.1 635.482 1516.04 631.693 1516.04V1518.44ZM643.335 1515.28C646.949 1513.18 649.818 1510.35 651.923 1506.81L649.862 1505.59C647.967 1508.77 645.397 1511.3 642.13 1513.2L643.335 1515.28ZM651.93 1506.8C654.037 1503.18 655.093 1499.25 655.093 1495.04H652.693C652.693 1498.83 651.749 1502.34 649.855 1505.6L651.93 1506.8ZM736.294 1466.36H737.494V1465.16H736.294V1466.36ZM736.294 1524.8V1526H737.494V1524.8H736.294ZM728.014 1524.8H726.814V1526H728.014V1524.8ZM728.014 1513.76H729.214V1510L727.037 1513.06L728.014 1513.76ZM690.694 1521.44L690.087 1522.48L690.094 1522.48L690.101 1522.48L690.694 1521.44ZM679.654 1510.4L678.611 1510.99L678.615 1511L678.619 1511.01L679.654 1510.4ZM679.654 1480.04L678.619 1479.43L678.615 1479.44L678.611 1479.45L679.654 1480.04ZM690.694 1469.12L691.287 1470.16L691.294 1470.16L691.301 1470.16L690.694 1469.12ZM719.854 1468.64L719.189 1469.64L719.201 1469.65L719.214 1469.66L719.854 1468.64ZM728.014 1476.2L727.007 1476.85L729.214 1480.26V1476.2H728.014ZM728.014 1466.36V1465.16H726.814V1466.36H728.014ZM716.974 1514.36L717.57 1515.4L717.579 1515.4L717.589 1515.39L716.974 1514.36ZM724.894 1506.32L723.863 1505.71L723.858 1505.72L723.853 1505.72L724.894 1506.32ZM724.894 1484.24L723.846 1484.82L723.854 1484.84L723.863 1484.85L724.894 1484.24ZM716.974 1476.2L716.361 1477.23L716.37 1477.24L716.379 1477.24L716.974 1476.2ZM694.774 1476.2L695.37 1477.24L695.374 1477.24L695.378 1477.24L694.774 1476.2ZM686.734 1484.24L685.697 1483.64L685.694 1483.64L685.693 1483.64L686.734 1484.24ZM686.734 1506.32L685.693 1506.92L685.698 1506.92L685.703 1506.93L686.734 1506.32ZM694.774 1514.36L694.161 1515.39L694.175 1515.4L694.19 1515.41L694.774 1514.36ZM735.094 1466.36V1524.8H737.494V1466.36H735.094ZM736.294 1523.6H728.014V1526H736.294V1523.6ZM729.214 1524.8V1513.76H726.814V1524.8H729.214ZM727.037 1513.06C721.733 1520.52 714.73 1524.2 705.934 1524.2V1526.6C715.538 1526.6 723.257 1522.52 728.993 1514.46L727.037 1513.06ZM705.934 1524.2C700.615 1524.2 695.741 1522.93 691.287 1520.4L690.101 1522.48C694.927 1525.23 700.214 1526.6 705.934 1526.6V1524.2ZM691.301 1520.4C686.838 1517.79 683.306 1514.26 680.69 1509.79L678.619 1511.01C681.443 1515.82 685.27 1519.65 690.087 1522.48L691.301 1520.4ZM680.697 1509.81C678.162 1505.35 676.894 1500.52 676.894 1495.28H674.494C674.494 1500.92 675.866 1506.17 678.611 1510.99L680.697 1509.81ZM676.894 1495.28C676.894 1489.96 678.163 1485.09 680.697 1480.63L678.611 1479.45C675.865 1484.27 674.494 1489.56 674.494 1495.28H676.894ZM680.69 1480.65C683.303 1476.19 686.833 1472.7 691.287 1470.16L690.101 1468.08C685.277 1470.82 681.445 1474.61 678.619 1479.43L680.69 1480.65ZM691.301 1470.16C695.753 1467.55 700.622 1466.24 705.934 1466.24V1463.84C700.207 1463.84 694.917 1465.25 690.087 1468.08L691.301 1470.16ZM705.934 1466.24C711.45 1466.24 715.839 1467.41 719.189 1469.64L720.519 1467.64C716.67 1465.07 711.778 1463.84 705.934 1463.84V1466.24ZM719.214 1469.66C722.795 1471.91 725.369 1474.32 727.007 1476.85L729.022 1475.55C727.141 1472.64 724.274 1470.01 720.494 1467.62L719.214 1469.66ZM729.214 1476.2V1466.36H726.814V1476.2H729.214ZM728.014 1467.56H736.294V1465.16H728.014V1467.56ZM705.934 1518.44C710.135 1518.44 714.022 1517.43 717.57 1515.4L716.379 1513.32C713.206 1515.13 709.733 1516.04 705.934 1516.04V1518.44ZM717.589 1515.39C721.123 1513.29 723.913 1510.46 725.937 1506.92L723.853 1505.72C722.037 1508.9 719.545 1511.43 716.361 1513.33L717.589 1515.39ZM725.926 1506.93C728.038 1503.38 729.094 1499.49 729.094 1495.28H726.694C726.694 1499.07 725.75 1502.54 723.863 1505.71L725.926 1506.93ZM729.094 1495.28C729.094 1491.07 728.038 1487.18 725.926 1483.63L723.863 1484.85C725.75 1488.02 726.694 1491.49 726.694 1495.28H729.094ZM725.942 1483.66C723.918 1480.03 721.123 1477.19 717.57 1475.16L716.379 1477.24C719.546 1479.05 722.031 1481.57 723.846 1484.82L725.942 1483.66ZM717.589 1475.17C714.038 1473.06 710.145 1472 705.934 1472V1474.4C709.723 1474.4 713.19 1475.34 716.361 1477.23L717.589 1475.17ZM705.934 1472C701.723 1472 697.795 1473.06 694.171 1475.16L695.378 1477.24C698.633 1475.34 702.145 1474.4 705.934 1474.4V1472ZM694.179 1475.16C690.63 1477.19 687.799 1480.02 685.697 1483.64L687.771 1484.84C689.669 1481.58 692.198 1479.05 695.37 1477.24L694.179 1475.16ZM685.693 1483.64C683.665 1487.19 682.654 1491.08 682.654 1495.28H685.054C685.054 1491.48 685.963 1488.01 687.777 1484.84L685.693 1483.64ZM682.654 1495.28C682.654 1499.48 683.665 1503.37 685.693 1506.92L687.777 1505.72C685.963 1502.55 685.054 1499.08 685.054 1495.28H682.654ZM685.703 1506.93C687.805 1510.47 690.629 1513.29 694.161 1515.39L695.389 1513.33C692.199 1511.43 689.663 1508.89 687.766 1505.71L685.703 1506.93ZM694.19 1515.41C697.811 1517.43 701.733 1518.44 705.934 1518.44V1516.04C702.135 1516.04 698.618 1515.13 695.359 1513.31L694.19 1515.41ZM786.782 1467.56L786.165 1468.59L786.178 1468.6L786.191 1468.6L786.782 1467.56ZM795.422 1476.2L794.377 1476.79L794.385 1476.8L794.393 1476.82L795.422 1476.2ZM798.662 1524.8V1526H799.862V1524.8H798.662ZM790.382 1524.8H789.182V1526H790.382V1524.8ZM788.222 1480.28L787.178 1480.87L787.185 1480.88L787.193 1480.9L788.222 1480.28ZM782.582 1474.64L781.949 1475.66L781.969 1475.67L781.99 1475.68L782.582 1474.64ZM767.102 1474.64L767.693 1475.68L767.706 1475.68L767.719 1475.67L767.102 1474.64ZM761.342 1480.28L760.313 1479.66L760.305 1479.68L760.298 1479.69L761.342 1480.28ZM759.302 1524.8V1526H760.502V1524.8H759.302ZM751.022 1524.8H749.822V1526H751.022V1524.8ZM751.022 1444.76V1443.56H749.822V1444.76H751.022ZM759.302 1444.76H760.502V1443.56H759.302V1444.76ZM759.302 1471.04H758.102V1474.28L760.213 1471.82L759.302 1471.04ZM766.142 1466L765.685 1464.89L765.678 1464.89L765.673 1464.9L766.142 1466ZM774.902 1465.52C779.01 1465.52 782.757 1466.54 786.165 1468.59L787.399 1466.53C783.607 1464.26 779.433 1463.12 774.902 1463.12V1465.52ZM786.191 1468.6C789.681 1470.58 792.405 1473.3 794.377 1476.79L796.466 1475.61C794.279 1471.74 791.242 1468.7 787.371 1466.52L786.191 1468.6ZM794.393 1476.82C796.437 1480.23 797.462 1483.97 797.462 1488.08H799.862C799.862 1483.55 798.726 1479.37 796.45 1475.58L794.393 1476.82ZM797.462 1488.08V1524.8H799.862V1488.08H797.462ZM798.662 1523.6H790.382V1526H798.662V1523.6ZM791.582 1524.8V1488.08H789.182V1524.8H791.582ZM791.582 1488.08C791.582 1485.06 790.802 1482.25 789.25 1479.66L787.193 1480.9C788.521 1483.11 789.182 1485.5 789.182 1488.08H791.582ZM789.266 1479.69C787.798 1477.1 785.762 1475.06 783.173 1473.6L781.99 1475.68C784.201 1476.94 785.925 1478.66 787.178 1480.87L789.266 1479.69ZM783.214 1473.62C780.699 1472.06 777.919 1471.28 774.902 1471.28V1473.68C777.483 1473.68 779.823 1474.34 781.949 1475.66L783.214 1473.62ZM774.902 1471.28C771.885 1471.28 769.07 1472.06 766.485 1473.61L767.719 1475.67C769.933 1474.34 772.319 1473.68 774.902 1473.68V1471.28ZM766.51 1473.6C763.927 1475.06 761.858 1477.09 760.313 1479.66L762.37 1480.9C763.706 1478.67 765.475 1476.94 767.693 1475.68L766.51 1473.6ZM760.298 1479.69C758.834 1482.27 758.102 1485.08 758.102 1488.08H760.502C760.502 1485.48 761.129 1483.09 762.386 1480.87L760.298 1479.69ZM758.102 1488.08V1524.8H760.502V1488.08H758.102ZM759.302 1523.6H751.022V1526H759.302V1523.6ZM752.222 1524.8V1444.76H749.822V1524.8H752.222ZM751.022 1445.96H759.302V1443.56H751.022V1445.96ZM758.102 1444.76V1471.04H760.502V1444.76H758.102ZM760.213 1471.82C762.015 1469.72 764.146 1468.15 766.61 1467.1L765.673 1464.9C762.857 1466.09 760.427 1467.88 758.39 1470.26L760.213 1471.82ZM766.598 1467.11C769.165 1466.05 771.929 1465.52 774.902 1465.52V1463.12C771.634 1463.12 768.558 1463.71 765.685 1464.89L766.598 1467.11ZM821.59 1445H822.79V1443.8H821.59V1445ZM821.59 1524.8V1526H822.79V1524.8H821.59ZM813.43 1524.8H812.23V1526H813.43V1524.8ZM813.43 1445V1443.8H812.23V1445H813.43ZM820.39 1445V1524.8H822.79V1445H820.39ZM821.59 1523.6H813.43V1526H821.59V1523.6ZM814.63 1524.8V1445H812.23V1524.8H814.63ZM813.43 1446.2H821.59V1443.8H813.43V1446.2ZM845.466 1449.68L844.618 1450.53L845.466 1449.68ZM845.466 1457.24L844.618 1456.39L845.466 1457.24ZM837.906 1457.24L837.058 1458.09L837.906 1457.24ZM837.906 1449.68L837.058 1448.83L837.906 1449.68ZM845.826 1464.8H847.026V1463.6H845.826V1464.8ZM845.826 1524.8V1526H847.026V1524.8H845.826ZM837.546 1524.8H836.346V1526H837.546V1524.8ZM837.546 1464.8V1463.6H836.346V1464.8H837.546ZM841.746 1449.32C842.861 1449.32 843.797 1449.71 844.618 1450.53L846.314 1448.83C845.055 1447.57 843.511 1446.92 841.746 1446.92V1449.32ZM844.618 1450.53C845.438 1451.35 845.826 1452.29 845.826 1453.4H848.226C848.226 1451.63 847.574 1450.09 846.314 1448.83L844.618 1450.53ZM845.826 1453.4C845.826 1454.61 845.425 1455.58 844.618 1456.39L846.314 1458.09C847.587 1456.82 848.226 1455.23 848.226 1453.4H845.826ZM844.618 1456.39C843.797 1457.21 842.861 1457.6 841.746 1457.6V1460C843.511 1460 845.055 1459.35 846.314 1458.09L844.618 1456.39ZM841.746 1457.6C840.533 1457.6 839.561 1457.2 838.754 1456.39L837.058 1458.09C838.331 1459.36 839.919 1460 841.746 1460V1457.6ZM838.754 1456.39C837.947 1455.58 837.546 1454.61 837.546 1453.4H835.146C835.146 1455.23 835.785 1456.82 837.058 1458.09L838.754 1456.39ZM837.546 1453.4C837.546 1452.29 837.934 1451.35 838.754 1450.53L837.058 1448.83C835.798 1450.09 835.146 1451.63 835.146 1453.4H837.546ZM838.754 1450.53C839.561 1449.72 840.533 1449.32 841.746 1449.32V1446.92C839.919 1446.92 838.331 1447.56 837.058 1448.83L838.754 1450.53ZM844.626 1464.8V1524.8H847.026V1464.8H844.626ZM845.826 1523.6H837.546V1526H845.826V1523.6ZM838.746 1524.8V1464.8H836.346V1524.8H838.746ZM837.546 1466H845.826V1463.6H837.546V1466ZM917.607 1466.36H918.807V1465.16H917.607V1466.36ZM917.607 1524.8V1526H918.807V1524.8H917.607ZM909.327 1524.8H908.127V1526H909.327V1524.8ZM909.327 1513.76H910.527V1510L908.35 1513.06L909.327 1513.76ZM872.007 1521.44L871.401 1522.48L871.407 1522.48L871.414 1522.48L872.007 1521.44ZM860.967 1510.4L859.925 1510.99L859.929 1511L859.933 1511.01L860.967 1510.4ZM860.967 1480.04L859.933 1479.43L859.929 1479.44L859.925 1479.45L860.967 1480.04ZM872.007 1469.12L872.601 1470.16L872.607 1470.16L872.614 1470.16L872.007 1469.12ZM901.167 1468.64L900.502 1469.64L900.515 1469.65L900.527 1469.66L901.167 1468.64ZM909.327 1476.2L908.321 1476.85L910.527 1480.26V1476.2H909.327ZM909.327 1466.36V1465.16H908.127V1466.36H909.327ZM898.287 1514.36L898.883 1515.4L898.893 1515.4L898.902 1515.39L898.287 1514.36ZM906.207 1506.32L905.177 1505.71L905.171 1505.72L905.166 1505.72L906.207 1506.32ZM906.207 1484.24L905.159 1484.82L905.167 1484.84L905.177 1484.85L906.207 1484.24ZM898.287 1476.2L897.674 1477.23L897.683 1477.24L897.693 1477.24L898.287 1476.2ZM876.087 1476.2L876.683 1477.24L876.687 1477.24L876.691 1477.24L876.087 1476.2ZM868.047 1484.24L867.01 1483.64L867.009 1483.64L867.006 1483.64L868.047 1484.24ZM868.047 1506.32L867.006 1506.92L867.011 1506.92L867.017 1506.93L868.047 1506.32ZM876.087 1514.36L875.474 1515.39L875.489 1515.4L875.503 1515.41L876.087 1514.36ZM916.407 1466.36V1524.8H918.807V1466.36H916.407ZM917.607 1523.6H909.327V1526H917.607V1523.6ZM910.527 1524.8V1513.76H908.127V1524.8H910.527ZM908.35 1513.06C903.046 1520.52 896.043 1524.2 887.247 1524.2V1526.6C896.851 1526.6 904.57 1522.52 910.306 1514.46L908.35 1513.06ZM887.247 1524.2C881.929 1524.2 877.054 1522.93 872.601 1520.4L871.414 1522.48C876.242 1525.23 881.527 1526.6 887.247 1526.6V1524.2ZM872.614 1520.4C868.151 1517.79 864.619 1514.26 862.003 1509.79L859.933 1511.01C862.757 1515.82 866.583 1519.65 871.401 1522.48L872.614 1520.4ZM862.01 1509.81C859.475 1505.35 858.207 1500.52 858.207 1495.28H855.807C855.807 1500.92 857.179 1506.17 859.925 1510.99L862.01 1509.81ZM858.207 1495.28C858.207 1489.96 859.477 1485.09 862.01 1480.63L859.925 1479.45C857.178 1484.27 855.807 1489.56 855.807 1495.28H858.207ZM862.003 1480.65C864.617 1476.19 868.146 1472.7 872.601 1470.16L871.414 1468.08C866.59 1470.82 862.758 1474.61 859.933 1479.43L862.003 1480.65ZM872.614 1470.16C877.066 1467.55 881.935 1466.24 887.247 1466.24V1463.84C881.521 1463.84 876.23 1465.25 871.401 1468.08L872.614 1470.16ZM887.247 1466.24C892.763 1466.24 897.153 1467.41 900.502 1469.64L901.833 1467.64C897.983 1465.07 893.091 1463.84 887.247 1463.84V1466.24ZM900.527 1469.66C904.109 1471.91 906.682 1474.32 908.321 1476.85L910.335 1475.55C908.454 1472.64 905.587 1470.01 901.807 1467.62L900.527 1469.66ZM910.527 1476.2V1466.36H908.127V1476.2H910.527ZM909.327 1467.56H917.607V1465.16H909.327V1467.56ZM887.247 1518.44C891.449 1518.44 895.335 1517.43 898.883 1515.4L897.693 1513.32C894.519 1515.13 891.046 1516.04 887.247 1516.04V1518.44ZM898.902 1515.39C902.438 1513.29 905.226 1510.46 907.25 1506.92L905.166 1505.72C903.35 1508.9 900.858 1511.43 897.674 1513.33L898.902 1515.39ZM907.239 1506.93C909.351 1503.38 910.407 1499.49 910.407 1495.28H908.007C908.007 1499.07 907.063 1502.54 905.177 1505.71L907.239 1506.93ZM910.407 1495.28C910.407 1491.07 909.351 1487.18 907.239 1483.63L905.177 1484.85C907.063 1488.02 908.007 1491.49 908.007 1495.28H910.407ZM907.255 1483.66C905.231 1480.03 902.437 1477.19 898.883 1475.16L897.693 1477.24C900.859 1479.05 903.345 1481.57 905.159 1484.82L907.255 1483.66ZM898.902 1475.17C895.351 1473.06 891.458 1472 887.247 1472V1474.4C891.037 1474.4 894.503 1475.34 897.674 1477.23L898.902 1475.17ZM887.247 1472C883.037 1472 879.109 1473.06 875.485 1475.16L876.691 1477.24C879.946 1475.34 883.458 1474.4 887.247 1474.4V1472ZM875.493 1475.16C871.943 1477.19 869.113 1480.02 867.01 1483.64L869.085 1484.84C870.982 1481.58 873.511 1479.05 876.683 1477.24L875.493 1475.16ZM867.006 1483.64C864.978 1487.19 863.967 1491.08 863.967 1495.28H866.367C866.367 1491.48 867.277 1488.01 869.09 1484.84L867.006 1483.64ZM863.967 1495.28C863.967 1499.48 864.978 1503.37 867.006 1506.92L869.09 1505.72C867.277 1502.55 866.367 1499.08 866.367 1495.28H863.967ZM867.017 1506.93C869.119 1510.47 871.942 1513.29 875.474 1515.39L876.702 1513.33C873.513 1511.43 870.977 1508.89 869.079 1505.71L867.017 1506.93ZM875.503 1515.41C879.125 1517.43 883.046 1518.44 887.247 1518.44V1516.04C883.449 1516.04 879.931 1515.13 876.673 1513.31L875.503 1515.41ZM951.055 1520L951.666 1518.97L951.055 1520ZM936.535 1505.48L935.502 1506.09L936.535 1505.48ZM936.535 1465.4L937.567 1466.01L937.569 1466.01L937.571 1466.01L936.535 1465.4ZM951.055 1450.76L950.45 1449.72L950.446 1449.73L950.443 1449.73L951.055 1450.76ZM991.135 1450.76L990.53 1451.8L991.135 1450.76ZM1005.78 1465.4L1006.81 1464.79L1005.78 1465.4ZM1005.78 1505.48L1006.81 1506.09L1006.81 1506.09L1006.81 1506.09L1005.78 1505.48ZM991.135 1520L990.53 1518.96L990.526 1518.97L990.523 1518.97L991.135 1520ZM987.055 1513.04L987.653 1514.08L987.658 1514.08L987.665 1514.07L987.055 1513.04ZM998.575 1501.4L997.542 1500.79L997.538 1500.8L997.534 1500.8L998.575 1501.4ZM998.575 1469.48L997.534 1470.08L997.538 1470.08L997.542 1470.09L998.575 1469.48ZM987.055 1457.96L986.445 1458.99L986.451 1459L986.458 1459L987.055 1457.96ZM955.135 1457.96L955.733 1459L955.738 1459L955.745 1458.99L955.135 1457.96ZM943.495 1469.48L942.462 1468.87L942.458 1468.88L942.454 1468.88L943.495 1469.48ZM943.495 1501.4L942.454 1502L942.458 1502L942.462 1502.01L943.495 1501.4ZM955.135 1513.04L954.525 1514.07L954.531 1514.08L954.538 1514.08L955.135 1513.04ZM971.095 1524.2C964.023 1524.2 957.555 1522.45 951.666 1518.97L950.443 1521.03C956.714 1524.75 963.606 1526.6 971.095 1526.6V1524.2ZM951.666 1518.97C945.759 1515.47 941.065 1510.78 937.567 1504.87L935.502 1506.09C939.205 1512.35 944.19 1517.33 950.443 1521.03L951.666 1518.97ZM937.567 1504.87C934.081 1498.98 932.335 1492.51 932.335 1485.44H929.935C929.935 1492.93 931.789 1499.82 935.502 1506.09L937.567 1504.87ZM932.335 1485.44C932.335 1478.37 934.081 1471.9 937.567 1466.01L935.502 1464.79C931.789 1471.06 929.935 1477.95 929.935 1485.44H932.335ZM937.571 1466.01C941.069 1460.02 945.763 1455.29 951.666 1451.79L950.443 1449.73C944.186 1453.43 939.201 1458.46 935.499 1464.79L937.571 1466.01ZM951.661 1451.8C957.635 1448.3 964.106 1446.56 971.095 1446.56V1444.16C963.685 1444.16 956.795 1446.02 950.45 1449.72L951.661 1451.8ZM971.095 1446.56C978.085 1446.56 984.555 1448.3 990.53 1451.8L991.741 1449.72C985.395 1446.02 978.506 1444.16 971.095 1444.16V1446.56ZM990.53 1451.8C996.511 1455.29 1001.24 1460.02 1004.74 1466.01L1006.81 1464.79C1003.11 1458.46 998.078 1453.43 991.741 1449.72L990.53 1451.8ZM1004.74 1466.01C1008.23 1471.98 1009.98 1478.45 1009.98 1485.44H1012.38C1012.38 1478.03 1010.52 1471.14 1006.81 1464.79L1004.74 1466.01ZM1009.98 1485.44C1009.98 1492.43 1008.23 1498.9 1004.74 1504.87L1006.81 1506.09C1010.52 1499.74 1012.38 1492.85 1012.38 1485.44H1009.98ZM1004.74 1504.87C1001.25 1510.77 996.515 1515.47 990.53 1518.96L991.741 1521.04C998.075 1517.33 1003.1 1512.35 1006.81 1506.09L1004.74 1504.87ZM990.523 1518.97C984.634 1522.45 978.166 1524.2 971.095 1524.2V1526.6C978.583 1526.6 985.475 1524.75 991.746 1521.03L990.523 1518.97ZM971.095 1518.44C977.059 1518.44 982.586 1516.99 987.653 1514.08L986.458 1512C981.763 1514.69 976.65 1516.04 971.095 1516.04V1518.44ZM987.665 1514.07C992.722 1511.09 996.711 1507.06 999.615 1502L997.534 1500.8C994.838 1505.5 991.147 1509.23 986.445 1512.01L987.665 1514.07ZM999.609 1502.01C1002.6 1496.94 1004.1 1491.41 1004.1 1485.44H1001.7C1001.7 1490.99 1000.31 1496.1 997.542 1500.79L999.609 1502.01ZM1004.1 1485.44C1004.1 1479.47 1002.6 1473.94 999.609 1468.87L997.542 1470.09C1000.31 1474.78 1001.7 1479.89 1001.7 1485.44H1004.1ZM999.615 1468.88C996.71 1463.82 992.717 1459.83 987.653 1456.92L986.458 1459C991.153 1461.69 994.839 1465.38 997.534 1470.08L999.615 1468.88ZM987.665 1456.93C982.597 1453.94 977.066 1452.44 971.095 1452.44V1454.84C976.645 1454.84 981.753 1456.22 986.445 1458.99L987.665 1456.93ZM971.095 1452.44C965.125 1452.44 959.593 1453.94 954.525 1456.93L955.745 1458.99C960.437 1456.22 965.546 1454.84 971.095 1454.84V1452.44ZM954.538 1456.92C949.477 1459.82 945.446 1463.81 942.462 1468.87L944.529 1470.09C947.303 1465.39 951.034 1461.7 955.733 1459L954.538 1456.92ZM942.454 1468.88C939.547 1473.95 938.095 1479.48 938.095 1485.44H940.495C940.495 1479.88 941.842 1474.77 944.535 1470.08L942.454 1468.88ZM938.095 1485.44C938.095 1491.4 939.547 1496.93 942.454 1502L944.535 1500.8C941.842 1496.11 940.495 1491 940.495 1485.44H938.095ZM942.462 1502.01C945.445 1507.06 949.47 1511.09 954.525 1514.07L955.745 1512.01C951.039 1509.23 947.305 1505.5 944.529 1500.79L942.462 1502.01ZM954.538 1514.08C959.603 1516.99 965.13 1518.44 971.095 1518.44V1516.04C965.539 1516.04 960.426 1514.69 955.733 1512L954.538 1514.08ZM1067.28 1468.16H1068.48V1468.08L1068.47 1468L1067.28 1468.16ZM1064.4 1460.24L1063.39 1460.89L1063.4 1460.9L1063.41 1460.91L1064.4 1460.24ZM1035.84 1457.12L1034.99 1456.27L1034.98 1456.28L1034.98 1456.29L1035.84 1457.12ZM1036.2 1477.64L1035.53 1478.63L1036.2 1477.64ZM1047.6 1481L1047.7 1479.8L1047.7 1479.8L1047.7 1479.8L1047.6 1481ZM1059.36 1482.92L1059.04 1484.08L1059.06 1484.08L1059.07 1484.08L1059.36 1482.92ZM1067.4 1486.28L1066.73 1487.28L1066.75 1487.29L1066.77 1487.3L1067.4 1486.28ZM1074.12 1511.24L1073.03 1510.74L1073.02 1510.76L1073.02 1510.77L1074.12 1511.24ZM1069.2 1518.32L1068.37 1517.46L1068.36 1517.46L1068.36 1517.46L1069.2 1518.32ZM1028.88 1518.44L1029.71 1517.57L1029.7 1517.56L1029.69 1517.56L1028.88 1518.44ZM1021.2 1502.6V1501.4H1019.83L1020.01 1502.76L1021.2 1502.6ZM1029.48 1502.6L1030.66 1502.39L1030.48 1501.4H1029.48V1502.6ZM1034.52 1512.44L1033.68 1513.3L1033.69 1513.31L1033.7 1513.32L1034.52 1512.44ZM1062.48 1513.28L1063.22 1514.22L1063.22 1514.22L1063.22 1514.22L1062.48 1513.28ZM1065.96 1496.12L1064.92 1496.71L1064.93 1496.74L1064.95 1496.76L1065.96 1496.12ZM1059.84 1491.68L1060.25 1490.55L1059.84 1491.68ZM1046.88 1489.28L1046.77 1490.48L1046.78 1490.48L1046.78 1490.48L1046.88 1489.28ZM1025.4 1458.56L1024.29 1458.11L1024.28 1458.12L1024.28 1458.13L1025.4 1458.56ZM1030.08 1451.36L1029.23 1450.51L1030.08 1451.36ZM1048.92 1444.76L1048.93 1443.56H1048.93H1048.92V1444.76ZM1067.76 1451.6L1066.9 1452.43L1066.9 1452.44L1066.91 1452.45L1067.76 1451.6ZM1075.56 1468.28V1469.48H1076.91L1076.75 1468.14L1075.56 1468.28ZM1067.28 1468.28H1066.08V1469.48H1067.28V1468.28ZM1068.47 1468C1068.05 1464.8 1067.03 1461.98 1065.39 1459.57L1063.41 1460.91C1064.81 1462.98 1065.71 1465.44 1066.09 1468.32L1068.47 1468ZM1065.41 1459.59C1062.01 1454.36 1056.41 1451.84 1048.92 1451.84V1454.24C1055.83 1454.24 1060.55 1456.52 1063.39 1460.89L1065.41 1459.59ZM1048.92 1451.84C1042.77 1451.84 1038.03 1453.23 1034.99 1456.27L1036.69 1457.97C1039.08 1455.57 1043.06 1454.24 1048.92 1454.24V1451.84ZM1034.98 1456.29C1032.23 1459.12 1030.92 1462.93 1030.92 1467.56H1033.32C1033.32 1463.39 1034.49 1460.24 1036.7 1457.95L1034.98 1456.29ZM1030.92 1467.56C1030.92 1472.63 1032.34 1476.48 1035.53 1478.63L1036.87 1476.65C1034.62 1475.12 1033.32 1472.25 1033.32 1467.56H1030.92ZM1035.53 1478.63C1038.48 1480.63 1042.51 1481.79 1047.5 1482.2L1047.7 1479.8C1042.93 1479.41 1039.36 1478.33 1036.87 1476.65L1035.53 1478.63ZM1047.5 1482.2C1052.09 1482.59 1055.93 1483.22 1059.04 1484.08L1059.68 1481.76C1056.39 1480.86 1052.39 1480.21 1047.7 1479.8L1047.5 1482.2ZM1059.07 1484.08C1062.17 1484.86 1064.71 1485.93 1066.73 1487.28L1068.06 1485.28C1065.76 1483.75 1062.95 1482.58 1059.65 1481.76L1059.07 1484.08ZM1066.77 1487.3C1072.04 1490.57 1074.72 1495.67 1074.72 1502.84H1077.12C1077.12 1494.97 1074.11 1489.03 1068.03 1485.26L1066.77 1487.3ZM1074.72 1502.84C1074.72 1505.63 1074.16 1508.26 1073.03 1510.74L1075.21 1511.74C1076.48 1508.94 1077.12 1505.97 1077.12 1502.84H1074.72ZM1073.02 1510.77C1071.96 1513.26 1070.42 1515.48 1068.37 1517.46L1070.03 1519.18C1072.3 1517 1074.04 1514.5 1075.22 1511.71L1073.02 1510.77ZM1068.36 1517.46C1063.75 1521.99 1057.4 1524.32 1049.16 1524.32V1526.72C1057.88 1526.72 1064.89 1524.25 1070.04 1519.18L1068.36 1517.46ZM1049.16 1524.32C1040.83 1524.32 1034.39 1522.03 1029.71 1517.57L1028.05 1519.31C1033.29 1524.29 1040.37 1526.72 1049.16 1526.72V1524.32ZM1029.69 1517.56C1025.69 1513.86 1023.24 1508.85 1022.39 1502.44L1020.01 1502.76C1020.92 1509.63 1023.59 1515.18 1028.06 1519.32L1029.69 1517.56ZM1021.2 1503.8H1029.48V1501.4H1021.2V1503.8ZM1028.3 1502.81C1029.06 1507.03 1030.84 1510.55 1033.68 1513.3L1035.36 1511.58C1032.91 1509.21 1031.34 1506.17 1030.66 1502.39L1028.3 1502.81ZM1033.7 1513.32C1037.43 1516.79 1042.69 1518.44 1049.28 1518.44V1516.04C1043.07 1516.04 1038.48 1514.49 1035.34 1511.56L1033.7 1513.32ZM1049.28 1518.44C1054.91 1518.44 1059.6 1517.07 1063.22 1514.22L1061.74 1512.34C1058.64 1514.77 1054.52 1516.04 1049.28 1516.04V1518.44ZM1063.22 1514.22C1066.94 1511.28 1068.84 1507.46 1068.84 1502.84H1066.44C1066.44 1506.7 1064.9 1509.84 1061.74 1512.34L1063.22 1514.22ZM1068.84 1502.84C1068.84 1499.96 1068.25 1497.48 1066.97 1495.48L1064.95 1496.76C1065.91 1498.28 1066.44 1500.28 1066.44 1502.84H1068.84ZM1067 1495.53C1065.77 1493.34 1063.42 1491.72 1060.25 1490.55L1059.42 1492.81C1062.33 1493.88 1064.07 1495.22 1064.92 1496.71L1067 1495.53ZM1060.25 1490.55C1057.07 1489.38 1052.62 1488.57 1046.98 1488.08L1046.78 1490.48C1052.34 1490.95 1056.53 1491.74 1059.42 1492.81L1060.25 1490.55ZM1046.99 1488.08C1039.45 1487.42 1033.99 1485.32 1030.42 1481.96C1026.88 1478.62 1025.04 1473.88 1025.04 1467.56H1022.64C1022.64 1474.36 1024.64 1479.8 1028.78 1483.7C1032.88 1487.58 1038.94 1489.78 1046.77 1490.48L1046.99 1488.08ZM1025.04 1467.56C1025.04 1464.41 1025.54 1461.56 1026.52 1458.99L1024.28 1458.13C1023.18 1461 1022.64 1464.15 1022.64 1467.56H1025.04ZM1026.51 1459.01C1027.58 1456.35 1029.05 1454.09 1030.93 1452.21L1029.23 1450.51C1027.11 1452.63 1025.46 1455.17 1024.29 1458.11L1026.51 1459.01ZM1030.93 1452.21C1035.04 1448.1 1040.94 1445.96 1048.8 1445.96V1443.56C1040.5 1443.56 1033.92 1445.82 1029.23 1450.51L1030.93 1452.21ZM1048.8 1445.96H1048.92V1443.56H1048.8V1445.96ZM1048.91 1445.96C1056.93 1446.04 1062.86 1448.25 1066.9 1452.43L1068.62 1450.77C1064.01 1445.99 1057.38 1443.64 1048.93 1443.56L1048.91 1445.96ZM1066.91 1452.45C1071.1 1456.64 1073.6 1461.94 1074.37 1468.42L1076.75 1468.14C1075.92 1461.18 1073.22 1455.36 1068.61 1450.75L1066.91 1452.45ZM1075.56 1467.08H1067.28V1469.48H1075.56V1467.08ZM1068.48 1468.28V1468.16H1066.08V1468.28H1068.48Z" fill="white"/>
</g>
<defs>
<linearGradient id="paint0_linear" x1="0" y1="0" x2="1851.75" y2="285.035" gradientUnits="userSpaceOnUse">
<stop stop-color="#C00000"/>
<stop offset="1" stop-color="#FF4300"/>
</linearGradient>
<linearGradient id="paint1_linear" x1="-687.387" y1="80.613" x2="193.861" y2="932.112" gradientUnits="userSpaceOnUse">
<stop stop-color="#FF4300"/>
<stop offset="1" stop-color="#C00000"/>
</linearGradient>
<linearGradient id="paint2_linear" x1="292.72" y1="812.732" x2="796.29" y2="1299.3" gradientUnits="userSpaceOnUse">
<stop stop-color="#FF4300"/>
<stop offset="1" stop-color="#C00000"/>
</linearGradient>
<linearGradient id="paint3_linear" x1="333.279" y1="12.9599" x2="648.01" y2="317.067" gradientUnits="userSpaceOnUse">
<stop stop-color="#FF4300"/>
<stop offset="1" stop-color="#C00000"/>
</linearGradient>
<linearGradient id="paint4_linear" x1="507.419" y1="1778.53" x2="822.15" y2="2082.63" gradientUnits="userSpaceOnUse">
<stop stop-color="#FF4300"/>
<stop offset="1" stop-color="#C00000"/>
</linearGradient>
<linearGradient id="paint5_linear" x1="-142.883" y1="1168.67" x2="108.902" y2="1411.96" gradientUnits="userSpaceOnUse">
<stop stop-color="#FF4300"/>
<stop offset="1" stop-color="#C00000"/>
</linearGradient>
<linearGradient id="paint6_linear" x1="1171.99" y1="102.921" x2="1864.39" y2="771.955" gradientUnits="userSpaceOnUse">
<stop stop-color="#FF4300"/>
<stop offset="1" stop-color="#C00000"/>
</linearGradient>
<linearGradient id="paint7_linear" x1="107.785" y1="2251.73" x2="800.194" y2="2920.77" gradientUnits="userSpaceOnUse">
<stop stop-color="#FF4300"/>
<stop offset="1" stop-color="#C00000"/>
</linearGradient>
<linearGradient id="paint8_linear" x1="352.999" y1="560.403" x2="478.891" y2="682.046" gradientUnits="userSpaceOnUse">
<stop stop-color="#FF4300"/>
<stop offset="1" stop-color="#C00000"/>
</linearGradient>
<linearGradient id="paint9_linear" x1="980.976" y1="1070.79" x2="1925.17" y2="1983.11" gradientUnits="userSpaceOnUse">
<stop stop-color="#FF4300"/>
<stop offset="1" stop-color="#C00000"/>
</linearGradient>
<linearGradient id="paint10_linear" x1="1008.88" y1="2179.21" x2="1386.56" y2="2544.13" gradientUnits="userSpaceOnUse">
<stop stop-color="#FF4300"/>
<stop offset="1" stop-color="#C00000"/>
</linearGradient>
<linearGradient id="paint11_linear" x1="638.274" y1="339.037" x2="1015.95" y2="703.965" gradientUnits="userSpaceOnUse">
<stop stop-color="#FF4300"/>
<stop offset="1" stop-color="#C00000"/>
</linearGradient>
<linearGradient id="paint12_linear" x1="598.583" y1="1467.32" x2="724.475" y2="1588.97" gradientUnits="userSpaceOnUse">
<stop stop-color="#FF4300"/>
<stop offset="1" stop-color="#C00000"/>
</linearGradient>
<linearGradient id="paint13_linear" x1="-198.326" y1="1732.94" x2="242.298" y2="2158.69" gradientUnits="userSpaceOnUse">
<stop stop-color="#FF4300"/>
<stop offset="1" stop-color="#C00000"/>
</linearGradient>
<linearGradient id="paint14_linear" x1="867.858" y1="21.9802" x2="1056.7" y2="204.444" gradientUnits="userSpaceOnUse">
<stop stop-color="#FF4300"/>
<stop offset="1" stop-color="#C00000"/>
</linearGradient>
<linearGradient id="paint15_linear" x1="1001.94" y1="813.463" x2="1127.83" y2="935.105" gradientUnits="userSpaceOnUse">
<stop stop-color="#FF4300"/>
<stop offset="1" stop-color="#C00000"/>
</linearGradient>
<linearGradient id="paint16_linear" x1="209.991" y1="1481.83" x2="398.829" y2="1664.29" gradientUnits="userSpaceOnUse">
<stop stop-color="#FF4300"/>
<stop offset="1" stop-color="#C00000"/>
</linearGradient>
<linearGradient id="paint17_linear" x1="1089.75" y1="2810.15" x2="1215.65" y2="2931.79" gradientUnits="userSpaceOnUse">
<stop stop-color="#FF4300"/>
<stop offset="1" stop-color="#C00000"/>
</linearGradient>
<linearGradient id="paint18_linear" x1="400.405" y1="1430.6" x2="519.023" y2="1549.4" gradientUnits="userSpaceOnUse">
<stop stop-color="#C00000"/>
<stop offset="1" stop-color="#FF4300"/>
</linearGradient>
<linearGradient id="paint19_linear" x1="400.405" y1="1430.6" x2="519.023" y2="1549.4" gradientUnits="userSpaceOnUse">
<stop stop-color="#C00000"/>
<stop offset="1" stop-color="#FF4300"/>
</linearGradient>
<clipPath id="clip0">
<rect width="1440" height="2960" fill="white"/>
</clipPath>
</defs>
</svg>
