<svg width="1440" height="2960" viewBox="0 0 1440 2960" fill="none" xmlns="http://www.w3.org/2000/svg">
<g clip-path="url(#clip0)">
<rect width="1440" height="3001" fill="url(#paint0_linear)"/>
<path d="M460 1580C515.228 1580 560 1535.23 560 1480C560 1424.77 515.228 1380 460 1380C404.772 1380 360 1424.77 360 1480C360 1535.23 404.772 1580 460 1580Z" fill="white"/>
<path d="M407.472 1427.47H512.528V1532.53H407.472V1427.47Z" fill="url(#paint1_linear)"/>
<path d="M385.714 1480L460 1405.71L534.285 1480L460 1554.29L385.714 1480Z" fill="url(#paint2_linear)"/>
<path d="M460 1520C482.091 1520 500 1502.09 500 1480C500 1457.91 482.091 1440 460 1440C437.909 1440 420 1457.91 420 1480C420 1502.09 437.909 1520 460 1520Z" fill="white"/>
<path d="M662.173 1514.8H654.133V1503.64C648.293 1511.48 640.813 1515.4 631.693 1515.4C626.173 1515.4 621.093 1514.04 616.453 1511.32C611.813 1508.6 608.133 1504.92 605.413 1500.28C602.693 1495.56 601.333 1490.48 601.333 1485.04C601.333 1479.6 602.693 1474.56 605.413 1469.92C608.133 1465.2 611.813 1461.48 616.453 1458.76C621.093 1456.04 626.173 1454.68 631.693 1454.68C641.133 1454.68 648.613 1458.4 654.133 1465.84V1435.12H662.173V1514.8ZM653.893 1485.04C653.893 1481.04 652.893 1477.36 650.893 1474C648.893 1470.64 646.173 1467.96 642.733 1465.96C639.373 1463.96 635.693 1462.96 631.693 1462.96C627.693 1462.96 624.013 1463.96 620.653 1465.96C617.293 1467.96 614.613 1470.64 612.613 1474C610.613 1477.36 609.613 1481.04 609.613 1485.04C609.613 1489.04 610.613 1492.76 612.613 1496.2C614.613 1499.56 617.293 1502.24 620.653 1504.24C624.013 1506.24 627.693 1507.24 631.693 1507.24C635.693 1507.24 639.373 1506.24 642.733 1504.24C646.173 1502.24 648.893 1499.56 650.893 1496.2C652.893 1492.76 653.893 1489.04 653.893 1485.04ZM736.295 1456.36V1514.8H728.015V1503.76C722.495 1511.52 715.135 1515.4 705.935 1515.4C700.415 1515.4 695.335 1514.08 690.695 1511.44C686.055 1508.72 682.375 1505.04 679.655 1500.4C677.015 1495.76 675.695 1490.72 675.695 1485.28C675.695 1479.76 677.015 1474.68 679.655 1470.04C682.375 1465.4 686.055 1461.76 690.695 1459.12C695.335 1456.4 700.415 1455.04 705.935 1455.04C711.615 1455.04 716.255 1456.24 719.855 1458.64C723.535 1460.96 726.255 1463.48 728.015 1466.2V1456.36H736.295ZM705.935 1507.24C709.935 1507.24 713.615 1506.28 716.975 1504.36C720.335 1502.36 722.975 1499.68 724.895 1496.32C726.895 1492.96 727.895 1489.28 727.895 1485.28C727.895 1481.28 726.895 1477.6 724.895 1474.24C722.975 1470.8 720.335 1468.12 716.975 1466.2C713.615 1464.2 709.935 1463.2 705.935 1463.2C701.935 1463.2 698.215 1464.2 694.775 1466.2C691.415 1468.12 688.735 1470.8 686.735 1474.24C684.815 1477.6 683.855 1481.28 683.855 1485.28C683.855 1489.28 684.815 1492.96 686.735 1496.32C688.735 1499.68 691.415 1502.36 694.775 1504.36C698.215 1506.28 701.935 1507.24 705.935 1507.24ZM774.903 1454.32C779.223 1454.32 783.183 1455.4 786.783 1457.56C790.463 1459.64 793.343 1462.52 795.423 1466.2C797.583 1469.8 798.663 1473.76 798.663 1478.08V1514.8H790.383V1478.08C790.383 1475.28 789.663 1472.68 788.223 1470.28C786.863 1467.88 784.983 1466 782.583 1464.64C780.263 1463.2 777.703 1462.48 774.903 1462.48C772.103 1462.48 769.503 1463.2 767.103 1464.64C764.703 1466 762.783 1467.88 761.343 1470.28C759.983 1472.68 759.303 1475.28 759.303 1478.08V1514.8H751.023V1434.76H759.303V1461.04C761.223 1458.8 763.503 1457.12 766.143 1456C768.863 1454.88 771.783 1454.32 774.903 1454.32ZM821.591 1435V1514.8H813.431V1435H821.591ZM841.747 1438.12C843.187 1438.12 844.427 1438.64 845.467 1439.68C846.507 1440.72 847.027 1441.96 847.027 1443.4C847.027 1444.92 846.507 1446.2 845.467 1447.24C844.427 1448.28 843.187 1448.8 841.747 1448.8C840.227 1448.8 838.947 1448.28 837.907 1447.24C836.867 1446.2 836.347 1444.92 836.347 1443.4C836.347 1441.96 836.867 1440.72 837.907 1439.68C838.947 1438.64 840.227 1438.12 841.747 1438.12ZM845.827 1454.8V1514.8H837.547V1454.8H845.827ZM917.608 1456.36V1514.8H909.328V1503.76C903.808 1511.52 896.448 1515.4 887.248 1515.4C881.728 1515.4 876.648 1514.08 872.008 1511.44C867.368 1508.72 863.688 1505.04 860.968 1500.4C858.328 1495.76 857.008 1490.72 857.008 1485.28C857.008 1479.76 858.328 1474.68 860.968 1470.04C863.688 1465.4 867.368 1461.76 872.008 1459.12C876.648 1456.4 881.728 1455.04 887.248 1455.04C892.928 1455.04 897.568 1456.24 901.168 1458.64C904.848 1460.96 907.568 1463.48 909.328 1466.2V1456.36H917.608ZM887.248 1507.24C891.248 1507.24 894.928 1506.28 898.288 1504.36C901.648 1502.36 904.288 1499.68 906.208 1496.32C908.208 1492.96 909.208 1489.28 909.208 1485.28C909.208 1481.28 908.208 1477.6 906.208 1474.24C904.288 1470.8 901.648 1468.12 898.288 1466.2C894.928 1464.2 891.248 1463.2 887.248 1463.2C883.248 1463.2 879.528 1464.2 876.088 1466.2C872.728 1468.12 870.048 1470.8 868.048 1474.24C866.128 1477.6 865.168 1481.28 865.168 1485.28C865.168 1489.28 866.128 1492.96 868.048 1496.32C870.048 1499.68 872.728 1502.36 876.088 1504.36C879.528 1506.28 883.248 1507.24 887.248 1507.24ZM971.096 1515.4C963.816 1515.4 957.136 1513.6 951.056 1510C944.976 1506.4 940.136 1501.56 936.536 1495.48C932.936 1489.4 931.136 1482.72 931.136 1475.44C931.136 1468.16 932.936 1461.48 936.536 1455.4C940.136 1449.24 944.976 1444.36 951.056 1440.76C957.216 1437.16 963.896 1435.36 971.096 1435.36C978.296 1435.36 984.976 1437.16 991.136 1440.76C997.296 1444.36 1002.18 1449.24 1005.78 1455.4C1009.38 1461.56 1011.18 1468.24 1011.18 1475.44C1011.18 1482.64 1009.38 1489.32 1005.78 1495.48C1002.18 1501.56 997.296 1506.4 991.136 1510C985.056 1513.6 978.376 1515.4 971.096 1515.4ZM971.096 1507.24C976.856 1507.24 982.176 1505.84 987.056 1503.04C991.936 1500.16 995.776 1496.28 998.576 1491.4C1001.46 1486.52 1002.9 1481.2 1002.9 1475.44C1002.9 1469.68 1001.46 1464.36 998.576 1459.48C995.776 1454.6 991.936 1450.76 987.056 1447.96C982.176 1445.08 976.856 1443.64 971.096 1443.64C965.336 1443.64 960.016 1445.08 955.136 1447.96C950.256 1450.76 946.376 1454.6 943.496 1459.48C940.696 1464.36 939.296 1469.68 939.296 1475.44C939.296 1481.2 940.696 1486.52 943.496 1491.4C946.376 1496.28 950.256 1500.16 955.136 1503.04C960.016 1505.84 965.336 1507.24 971.096 1507.24ZM1067.28 1458.16C1066.88 1455.12 1065.92 1452.48 1064.4 1450.24C1061.28 1445.44 1056.12 1443.04 1048.92 1443.04C1042.92 1443.04 1038.56 1444.4 1035.84 1447.12C1033.36 1449.68 1032.12 1453.16 1032.12 1457.56C1032.12 1462.44 1033.48 1465.8 1036.2 1467.64C1038.92 1469.48 1042.72 1470.6 1047.6 1471C1052.24 1471.4 1056.16 1472.04 1059.36 1472.92C1062.56 1473.72 1065.24 1474.84 1067.4 1476.28C1073.08 1479.8 1075.92 1485.32 1075.92 1492.84C1075.92 1495.8 1075.32 1498.6 1074.12 1501.24C1073 1503.88 1071.36 1506.24 1069.2 1508.32C1064.32 1513.12 1057.64 1515.52 1049.16 1515.52C1040.6 1515.52 1033.84 1513.16 1028.88 1508.44C1024.64 1504.52 1022.08 1499.24 1021.2 1492.6H1029.48C1030.2 1496.6 1031.88 1499.88 1034.52 1502.44C1037.96 1505.64 1042.88 1507.24 1049.28 1507.24C1054.72 1507.24 1059.12 1505.92 1062.48 1503.28C1065.92 1500.56 1067.64 1497.08 1067.64 1492.84C1067.64 1490.12 1067.08 1487.88 1065.96 1486.12C1064.92 1484.28 1062.88 1482.8 1059.84 1481.68C1056.8 1480.56 1052.48 1479.76 1046.88 1479.28C1031.52 1477.92 1023.84 1470.68 1023.84 1457.56C1023.84 1454.28 1024.36 1451.28 1025.4 1448.56C1026.52 1445.76 1028.08 1443.36 1030.08 1441.36C1034.48 1436.96 1040.72 1434.76 1048.8 1434.76H1048.92C1057.16 1434.84 1063.44 1437.12 1067.76 1441.6C1072.16 1446 1074.76 1451.56 1075.56 1458.28H1067.28V1458.16Z" fill="white"/>
<path d="M662.173 1514.8V1516H663.373V1514.8H662.173ZM654.133 1514.8H652.933V1516H654.133V1514.8ZM654.133 1503.64H655.333V1500.02L653.171 1502.92L654.133 1503.64ZM616.453 1511.32L617.06 1510.28L616.453 1511.32ZM605.413 1500.28L604.373 1500.88L604.376 1500.88L604.379 1500.89L605.413 1500.28ZM605.413 1469.92L606.448 1470.53L606.451 1470.52L606.453 1470.52L605.413 1469.92ZM616.453 1458.76L617.06 1459.8L616.453 1458.76ZM654.133 1465.84L653.169 1466.56L655.333 1469.47V1465.84H654.133ZM654.133 1435.12V1433.92H652.933V1435.12H654.133ZM662.173 1435.12H663.373V1433.92H662.173V1435.12ZM650.893 1474L649.863 1474.61L650.893 1474ZM642.733 1465.96L642.12 1466.99L642.125 1466.99L642.131 1467L642.733 1465.96ZM620.653 1465.96L621.267 1466.99L620.653 1465.96ZM612.613 1474L613.644 1474.61L612.613 1474ZM612.613 1496.2L611.576 1496.8L611.579 1496.81L611.583 1496.81L612.613 1496.2ZM620.653 1504.24L620.04 1505.27L620.653 1504.24ZM642.733 1504.24L642.131 1503.2L642.125 1503.21L642.12 1503.21L642.733 1504.24ZM650.893 1496.2L651.924 1496.81L651.928 1496.81L651.931 1496.8L650.893 1496.2ZM662.173 1513.6H654.133V1516H662.173V1513.6ZM655.333 1514.8V1503.64H652.933V1514.8H655.333ZM653.171 1502.92C647.539 1510.48 640.404 1514.2 631.693 1514.2V1516.6C641.223 1516.6 649.048 1512.48 655.096 1504.36L653.171 1502.92ZM631.693 1514.2C626.381 1514.2 621.511 1512.89 617.06 1510.28L615.847 1512.36C620.676 1515.19 625.965 1516.6 631.693 1516.6V1514.2ZM617.06 1510.28C612.597 1507.67 609.065 1504.14 606.448 1499.67L604.379 1500.89C607.201 1505.7 611.029 1509.53 615.847 1512.36L617.06 1510.28ZM606.453 1499.68C603.837 1495.14 602.533 1490.27 602.533 1485.04H600.133C600.133 1490.69 601.549 1495.98 604.373 1500.88L606.453 1499.68ZM602.533 1485.04C602.533 1479.81 603.837 1474.98 606.448 1470.53L604.379 1469.31C601.549 1474.14 600.133 1479.39 600.133 1485.04H602.533ZM606.453 1470.52C609.071 1465.98 612.603 1462.41 617.06 1459.8L615.847 1457.72C611.024 1460.55 607.196 1464.42 604.373 1469.32L606.453 1470.52ZM617.06 1459.8C621.511 1457.19 626.381 1455.88 631.693 1455.88V1453.48C625.965 1453.48 620.676 1454.89 615.847 1457.72L617.06 1459.8ZM631.693 1455.88C640.761 1455.88 647.881 1459.43 653.169 1466.56L655.097 1465.12C649.345 1457.37 641.505 1453.48 631.693 1453.48V1455.88ZM655.333 1465.84V1435.12H652.933V1465.84H655.333ZM654.133 1436.32H662.173V1433.92H654.133V1436.32ZM660.973 1435.12V1514.8H663.373V1435.12H660.973ZM655.093 1485.04C655.093 1480.83 654.037 1476.94 651.924 1473.39L649.863 1474.61C651.749 1477.78 652.693 1481.25 652.693 1485.04H655.093ZM651.924 1473.39C649.819 1469.85 646.949 1467.02 643.336 1464.92L642.131 1467C645.397 1468.9 647.968 1471.43 649.863 1474.61L651.924 1473.39ZM643.347 1464.93C639.797 1462.82 635.904 1461.76 631.693 1461.76V1464.16C635.483 1464.16 638.949 1465.1 642.12 1466.99L643.347 1464.93ZM631.693 1461.76C627.483 1461.76 623.589 1462.82 620.04 1464.93L621.267 1466.99C624.437 1465.1 627.904 1464.16 631.693 1464.16V1461.76ZM620.04 1464.93C616.508 1467.03 613.684 1469.85 611.583 1473.39L613.644 1474.61C615.543 1471.43 618.079 1468.89 621.267 1466.99L620.04 1464.93ZM611.583 1473.39C609.469 1476.94 608.413 1480.83 608.413 1485.04H610.813C610.813 1481.25 611.757 1477.78 613.644 1474.61L611.583 1473.39ZM608.413 1485.04C608.413 1489.25 609.469 1493.18 611.576 1496.8L613.651 1495.6C611.757 1492.34 610.813 1488.83 610.813 1485.04H608.413ZM611.583 1496.81C613.684 1500.35 616.508 1503.17 620.04 1505.27L621.267 1503.21C618.079 1501.31 615.543 1498.77 613.644 1495.59L611.583 1496.81ZM620.04 1505.27C623.589 1507.38 627.483 1508.44 631.693 1508.44V1506.04C627.904 1506.04 624.437 1505.1 621.267 1503.21L620.04 1505.27ZM631.693 1508.44C635.904 1508.44 639.797 1507.38 643.347 1505.27L642.12 1503.21C638.949 1505.1 635.483 1506.04 631.693 1506.04V1508.44ZM643.336 1505.28C646.949 1503.18 649.819 1500.35 651.924 1496.81L649.863 1495.59C647.968 1498.77 645.397 1501.3 642.131 1503.2L643.336 1505.28ZM651.931 1496.8C654.037 1493.18 655.093 1489.25 655.093 1485.04H652.693C652.693 1488.83 651.749 1492.34 649.856 1495.6L651.931 1496.8ZM736.295 1456.36H737.495V1455.16H736.295V1456.36ZM736.295 1514.8V1516H737.495V1514.8H736.295ZM728.015 1514.8H726.815V1516H728.015V1514.8ZM728.015 1503.76H729.215V1500L727.037 1503.06L728.015 1503.76ZM690.695 1511.44L690.088 1512.48L690.095 1512.48L690.101 1512.48L690.695 1511.44ZM679.655 1500.4L678.612 1500.99L678.616 1501L678.62 1501.01L679.655 1500.4ZM679.655 1470.04L678.62 1469.43L678.616 1469.44L678.612 1469.45L679.655 1470.04ZM690.695 1459.12L691.288 1460.16L691.295 1460.16L691.301 1460.16L690.695 1459.12ZM719.855 1458.64L719.189 1459.64L719.201 1459.65L719.215 1459.66L719.855 1458.64ZM728.015 1466.2L727.008 1466.85L729.215 1470.26V1466.2H728.015ZM728.015 1456.36V1455.16H726.815V1456.36H728.015ZM716.975 1504.36L717.571 1505.4L717.58 1505.4L717.589 1505.39L716.975 1504.36ZM724.895 1496.32L723.864 1495.71L723.859 1495.72L723.853 1495.72L724.895 1496.32ZM724.895 1474.24L723.847 1474.82L723.855 1474.84L723.864 1474.85L724.895 1474.24ZM716.975 1466.2L716.361 1467.23L716.371 1467.24L716.38 1467.24L716.975 1466.2ZM694.775 1466.2L695.371 1467.24L695.375 1467.24L695.379 1467.24L694.775 1466.2ZM686.735 1474.24L685.697 1473.64L685.695 1473.64L685.693 1473.64L686.735 1474.24ZM686.735 1496.32L685.693 1496.92L685.699 1496.92L685.704 1496.93L686.735 1496.32ZM694.775 1504.36L694.161 1505.39L694.176 1505.4L694.191 1505.41L694.775 1504.36ZM735.095 1456.36V1514.8H737.495V1456.36H735.095ZM736.295 1513.6H728.015V1516H736.295V1513.6ZM729.215 1514.8V1503.76H726.815V1514.8H729.215ZM727.037 1503.06C721.733 1510.52 714.731 1514.2 705.935 1514.2V1516.6C715.539 1516.6 723.257 1512.52 728.993 1504.46L727.037 1503.06ZM705.935 1514.2C700.616 1514.2 695.741 1512.93 691.288 1510.4L690.101 1512.48C694.928 1515.23 700.215 1516.6 705.935 1516.6V1514.2ZM691.301 1510.4C686.839 1507.79 683.307 1504.26 680.691 1499.79L678.62 1501.01C681.444 1505.82 685.271 1509.65 690.088 1512.48L691.301 1510.4ZM680.697 1499.81C678.163 1495.35 676.895 1490.52 676.895 1485.28H674.495C674.495 1490.92 675.867 1496.17 678.612 1500.99L680.697 1499.81ZM676.895 1485.28C676.895 1479.96 678.164 1475.09 680.697 1470.63L678.612 1469.45C675.865 1474.27 674.495 1479.56 674.495 1485.28H676.895ZM680.691 1470.65C683.304 1466.19 686.833 1462.7 691.288 1460.16L690.101 1458.08C685.277 1460.82 681.445 1464.61 678.62 1469.43L680.691 1470.65ZM691.301 1460.16C695.753 1457.55 700.623 1456.24 705.935 1456.24V1453.84C700.208 1453.84 694.917 1455.25 690.088 1458.08L691.301 1460.16ZM705.935 1456.24C711.451 1456.24 715.84 1457.41 719.189 1459.64L720.52 1457.64C716.671 1455.07 711.779 1453.84 705.935 1453.84V1456.24ZM719.215 1459.66C722.796 1461.91 725.369 1464.32 727.008 1466.85L729.023 1465.55C727.141 1462.64 724.275 1460.01 720.495 1457.62L719.215 1459.66ZM729.215 1466.2V1456.36H726.815V1466.2H729.215ZM728.015 1457.56H736.295V1455.16H728.015V1457.56ZM705.935 1508.44C710.136 1508.44 714.023 1507.43 717.571 1505.4L716.38 1503.32C713.207 1505.13 709.733 1506.04 705.935 1506.04V1508.44ZM717.589 1505.39C721.124 1503.29 723.913 1500.46 725.937 1496.92L723.853 1495.72C722.037 1498.9 719.545 1501.43 716.361 1503.33L717.589 1505.39ZM725.927 1496.93C728.039 1493.38 729.095 1489.49 729.095 1485.28H726.695C726.695 1489.07 725.751 1492.54 723.864 1495.71L725.927 1496.93ZM729.095 1485.28C729.095 1481.07 728.039 1477.18 725.927 1473.63L723.864 1474.85C725.751 1478.02 726.695 1481.49 726.695 1485.28H729.095ZM725.943 1473.66C723.919 1470.03 721.124 1467.19 717.571 1465.16L716.38 1467.24C719.547 1469.05 722.032 1471.57 723.847 1474.82L725.943 1473.66ZM717.589 1465.17C714.039 1463.06 710.145 1462 705.935 1462V1464.4C709.724 1464.4 713.191 1465.34 716.361 1467.23L717.589 1465.17ZM705.935 1462C701.724 1462 697.796 1463.06 694.172 1465.16L695.379 1467.24C698.633 1465.34 702.145 1464.4 705.935 1464.4V1462ZM694.18 1465.16C690.631 1467.19 687.8 1470.02 685.697 1473.64L687.772 1474.84C689.669 1471.58 692.199 1469.05 695.371 1467.24L694.18 1465.16ZM685.693 1473.64C683.665 1477.19 682.655 1481.08 682.655 1485.28H685.055C685.055 1481.48 685.964 1478.01 687.777 1474.84L685.693 1473.64ZM682.655 1485.28C682.655 1489.48 683.665 1493.37 685.693 1496.92L687.777 1495.72C685.964 1492.55 685.055 1489.08 685.055 1485.28H682.655ZM685.704 1496.93C687.805 1500.47 690.629 1503.29 694.161 1505.39L695.389 1503.33C692.2 1501.43 689.664 1498.89 687.767 1495.71L685.704 1496.93ZM694.191 1505.41C697.812 1507.43 701.733 1508.44 705.935 1508.44V1506.04C702.136 1506.04 698.619 1505.13 695.36 1503.31L694.191 1505.41ZM786.783 1457.56L786.165 1458.59L786.179 1458.6L786.192 1458.6L786.783 1457.56ZM795.423 1466.2L794.377 1466.79L794.385 1466.8L794.393 1466.82L795.423 1466.2ZM798.663 1514.8V1516H799.863V1514.8H798.663ZM790.383 1514.8H789.183V1516H790.383V1514.8ZM788.223 1470.28L787.179 1470.87L787.185 1470.88L787.193 1470.9L788.223 1470.28ZM782.583 1464.64L781.949 1465.66L781.969 1465.67L781.991 1465.68L782.583 1464.64ZM767.103 1464.64L767.693 1465.68L767.707 1465.68L767.72 1465.67L767.103 1464.64ZM761.343 1470.28L760.313 1469.66L760.305 1469.68L760.299 1469.69L761.343 1470.28ZM759.303 1514.8V1516H760.503V1514.8H759.303ZM751.023 1514.8H749.823V1516H751.023V1514.8ZM751.023 1434.76V1433.56H749.823V1434.76H751.023ZM759.303 1434.76H760.503V1433.56H759.303V1434.76ZM759.303 1461.04H758.103V1464.28L760.213 1461.82L759.303 1461.04ZM766.143 1456L765.685 1454.89L765.679 1454.89L765.673 1454.9L766.143 1456ZM774.903 1455.52C779.011 1455.52 782.757 1456.54 786.165 1458.59L787.4 1456.53C783.608 1454.26 779.433 1453.12 774.903 1453.12V1455.52ZM786.192 1458.6C789.681 1460.58 792.405 1463.3 794.377 1466.79L796.467 1465.61C794.28 1461.74 791.243 1458.7 787.372 1456.52L786.192 1458.6ZM794.393 1466.82C796.437 1470.23 797.463 1473.97 797.463 1478.08H799.863C799.863 1473.55 798.727 1469.37 796.451 1465.58L794.393 1466.82ZM797.463 1478.08V1514.8H799.863V1478.08H797.463ZM798.663 1513.6H790.383V1516H798.663V1513.6ZM791.583 1514.8V1478.08H789.183V1514.8H791.583ZM791.583 1478.08C791.583 1475.06 790.803 1472.25 789.251 1469.66L787.193 1470.9C788.521 1473.11 789.183 1475.5 789.183 1478.08H791.583ZM789.267 1469.69C787.799 1467.1 785.763 1465.06 783.173 1463.6L781.991 1465.68C784.201 1466.94 785.925 1468.66 787.179 1470.87L789.267 1469.69ZM783.215 1463.62C780.7 1462.06 777.92 1461.28 774.903 1461.28V1463.68C777.484 1463.68 779.824 1464.34 781.949 1465.66L783.215 1463.62ZM774.903 1461.28C771.885 1461.28 769.071 1462.06 766.485 1463.61L767.72 1465.67C769.933 1464.34 772.32 1463.68 774.903 1463.68V1461.28ZM766.511 1463.6C763.928 1465.06 761.859 1467.09 760.313 1469.66L762.371 1470.9C763.707 1468.67 765.476 1466.94 767.693 1465.68L766.511 1463.6ZM760.299 1469.69C758.835 1472.27 758.103 1475.08 758.103 1478.08H760.503C760.503 1475.48 761.129 1473.09 762.387 1470.87L760.299 1469.69ZM758.103 1478.08V1514.8H760.503V1478.08H758.103ZM759.303 1513.6H751.023V1516H759.303V1513.6ZM752.223 1514.8V1434.76H749.823V1514.8H752.223ZM751.023 1435.96H759.303V1433.56H751.023V1435.96ZM758.103 1434.76V1461.04H760.503V1434.76H758.103ZM760.213 1461.82C762.016 1459.72 764.147 1458.15 766.611 1457.1L765.673 1454.9C762.857 1456.09 760.428 1457.88 758.391 1460.26L760.213 1461.82ZM766.599 1457.11C769.165 1456.05 771.929 1455.52 774.903 1455.52V1453.12C771.635 1453.12 768.559 1453.71 765.685 1454.89L766.599 1457.11ZM821.591 1435H822.791V1433.8H821.591V1435ZM821.591 1514.8V1516H822.791V1514.8H821.591ZM813.431 1514.8H812.231V1516H813.431V1514.8ZM813.431 1435V1433.8H812.231V1435H813.431ZM820.391 1435V1514.8H822.791V1435H820.391ZM821.591 1513.6H813.431V1516H821.591V1513.6ZM814.631 1514.8V1435H812.231V1514.8H814.631ZM813.431 1436.2H821.591V1433.8H813.431V1436.2ZM845.467 1439.68L844.619 1440.53L845.467 1439.68ZM845.467 1447.24L844.619 1446.39L845.467 1447.24ZM837.907 1447.24L837.059 1448.09L837.907 1447.24ZM837.907 1439.68L837.059 1438.83L837.907 1439.68ZM845.827 1454.8H847.027V1453.6H845.827V1454.8ZM845.827 1514.8V1516H847.027V1514.8H845.827ZM837.547 1514.8H836.347V1516H837.547V1514.8ZM837.547 1454.8V1453.6H836.347V1454.8H837.547ZM841.747 1439.32C842.861 1439.32 843.797 1439.71 844.619 1440.53L846.315 1438.83C845.056 1437.57 843.512 1436.92 841.747 1436.92V1439.32ZM844.619 1440.53C845.439 1441.35 845.827 1442.29 845.827 1443.4H848.227C848.227 1441.63 847.575 1440.09 846.315 1438.83L844.619 1440.53ZM845.827 1443.4C845.827 1444.61 845.425 1445.58 844.619 1446.39L846.315 1448.09C847.588 1446.82 848.227 1445.23 848.227 1443.4H845.827ZM844.619 1446.39C843.797 1447.21 842.861 1447.6 841.747 1447.6V1450C843.512 1450 845.056 1449.35 846.315 1448.09L844.619 1446.39ZM841.747 1447.6C840.533 1447.6 839.561 1447.2 838.755 1446.39L837.059 1448.09C838.332 1449.36 839.92 1450 841.747 1450V1447.6ZM838.755 1446.39C837.948 1445.58 837.547 1444.61 837.547 1443.4H835.147C835.147 1445.23 835.785 1446.82 837.059 1448.09L838.755 1446.39ZM837.547 1443.4C837.547 1442.29 837.935 1441.35 838.755 1440.53L837.059 1438.83C835.799 1440.09 835.147 1441.63 835.147 1443.4H837.547ZM838.755 1440.53C839.561 1439.72 840.533 1439.32 841.747 1439.32V1436.92C839.92 1436.92 838.332 1437.56 837.059 1438.83L838.755 1440.53ZM844.627 1454.8V1514.8H847.027V1454.8H844.627ZM845.827 1513.6H837.547V1516H845.827V1513.6ZM838.747 1514.8V1454.8H836.347V1514.8H838.747ZM837.547 1456H845.827V1453.6H837.547V1456ZM917.608 1456.36H918.808V1455.16H917.608V1456.36ZM917.608 1514.8V1516H918.808V1514.8H917.608ZM909.328 1514.8H908.128V1516H909.328V1514.8ZM909.328 1503.76H910.528V1500L908.351 1503.06L909.328 1503.76ZM872.008 1511.44L871.401 1512.48L871.408 1512.48L871.415 1512.48L872.008 1511.44ZM860.968 1500.4L859.925 1500.99L859.929 1501L859.933 1501.01L860.968 1500.4ZM860.968 1470.04L859.933 1469.43L859.929 1469.44L859.925 1469.45L860.968 1470.04ZM872.008 1459.12L872.601 1460.16L872.608 1460.16L872.615 1460.16L872.008 1459.12ZM901.168 1458.64L900.503 1459.64L900.516 1459.65L900.528 1459.66L901.168 1458.64ZM909.328 1466.2L908.321 1466.85L910.528 1470.26V1466.2H909.328ZM909.328 1456.36V1455.16H908.128V1456.36H909.328ZM898.288 1504.36L898.884 1505.4L898.893 1505.4L898.903 1505.39L898.288 1504.36ZM906.208 1496.32L905.177 1495.71L905.172 1495.72L905.167 1495.72L906.208 1496.32ZM906.208 1474.24L905.16 1474.82L905.168 1474.84L905.177 1474.85L906.208 1474.24ZM898.288 1466.2L897.675 1467.23L897.684 1467.24L897.693 1467.24L898.288 1466.2ZM876.088 1466.2L876.684 1467.24L876.688 1467.24L876.692 1467.24L876.088 1466.2ZM868.048 1474.24L867.011 1473.64L867.009 1473.64L867.007 1473.64L868.048 1474.24ZM868.048 1496.32L867.007 1496.92L867.012 1496.92L867.017 1496.93L868.048 1496.32ZM876.088 1504.36L875.475 1505.39L875.489 1505.4L875.504 1505.41L876.088 1504.36ZM916.408 1456.36V1514.8H918.808V1456.36H916.408ZM917.608 1513.6H909.328V1516H917.608V1513.6ZM910.528 1514.8V1503.76H908.128V1514.8H910.528ZM908.351 1503.06C903.047 1510.52 896.044 1514.2 887.248 1514.2V1516.6C896.852 1516.6 904.571 1512.52 910.307 1504.46L908.351 1503.06ZM887.248 1514.2C881.929 1514.2 877.055 1512.93 872.601 1510.4L871.415 1512.48C876.243 1515.23 881.528 1516.6 887.248 1516.6V1514.2ZM872.615 1510.4C868.152 1507.79 864.62 1504.26 862.004 1499.79L859.933 1501.01C862.757 1505.82 866.584 1509.65 871.401 1512.48L872.615 1510.4ZM862.011 1499.81C859.476 1495.35 858.208 1490.52 858.208 1485.28H855.808C855.808 1490.92 857.18 1496.17 859.925 1500.99L862.011 1499.81ZM858.208 1485.28C858.208 1479.96 859.477 1475.09 862.011 1470.63L859.925 1469.45C857.179 1474.27 855.808 1479.56 855.808 1485.28H858.208ZM862.004 1470.65C864.617 1466.19 868.147 1462.7 872.601 1460.16L871.415 1458.08C866.591 1460.82 862.759 1464.61 859.933 1469.43L862.004 1470.65ZM872.615 1460.16C877.067 1457.55 881.936 1456.24 887.248 1456.24V1453.84C881.521 1453.84 876.231 1455.25 871.401 1458.08L872.615 1460.16ZM887.248 1456.24C892.764 1456.24 897.153 1457.41 900.503 1459.64L901.833 1457.64C897.984 1455.07 893.092 1453.84 887.248 1453.84V1456.24ZM900.528 1459.66C904.109 1461.91 906.683 1464.32 908.321 1466.85L910.336 1465.55C908.455 1462.64 905.588 1460.01 901.808 1457.62L900.528 1459.66ZM910.528 1466.2V1456.36H908.128V1466.2H910.528ZM909.328 1457.56H917.608V1455.16H909.328V1457.56ZM887.248 1508.44C891.449 1508.44 895.336 1507.43 898.884 1505.4L897.693 1503.32C894.52 1505.13 891.047 1506.04 887.248 1506.04V1508.44ZM898.903 1505.39C902.439 1503.29 905.227 1500.46 907.251 1496.92L905.167 1495.72C903.351 1498.9 900.859 1501.43 897.675 1503.33L898.903 1505.39ZM907.24 1496.93C909.352 1493.38 910.408 1489.49 910.408 1485.28H908.008C908.008 1489.07 907.064 1492.54 905.177 1495.71L907.24 1496.93ZM910.408 1485.28C910.408 1481.07 909.352 1477.18 907.24 1473.63L905.177 1474.85C907.064 1478.02 908.008 1481.49 908.008 1485.28H910.408ZM907.256 1473.66C905.232 1470.03 902.437 1467.19 898.884 1465.16L897.693 1467.24C900.86 1469.05 903.345 1471.57 905.16 1474.82L907.256 1473.66ZM898.903 1465.17C895.352 1463.06 891.459 1462 887.248 1462V1464.4C891.037 1464.4 894.504 1465.34 897.675 1467.23L898.903 1465.17ZM887.248 1462C883.037 1462 879.109 1463.06 875.485 1465.16L876.692 1467.24C879.947 1465.34 883.459 1464.4 887.248 1464.4V1462ZM875.493 1465.16C871.944 1467.19 869.113 1470.02 867.011 1473.64L869.085 1474.84C870.983 1471.58 873.512 1469.05 876.684 1467.24L875.493 1465.16ZM867.007 1473.64C864.979 1477.19 863.968 1481.08 863.968 1485.28H866.368C866.368 1481.48 867.277 1478.01 869.091 1474.84L867.007 1473.64ZM863.968 1485.28C863.968 1489.48 864.979 1493.37 867.007 1496.92L869.091 1495.72C867.277 1492.55 866.368 1489.08 866.368 1485.28H863.968ZM867.017 1496.93C869.12 1500.47 871.943 1503.29 875.475 1505.39L876.703 1503.33C873.513 1501.43 870.977 1498.89 869.08 1495.71L867.017 1496.93ZM875.504 1505.41C879.125 1507.43 883.047 1508.44 887.248 1508.44V1506.04C883.449 1506.04 879.932 1505.13 876.673 1503.31L875.504 1505.41ZM951.056 1510L951.667 1508.97L951.056 1510ZM936.536 1495.48L935.503 1496.09L936.536 1495.48ZM936.536 1455.4L937.568 1456.01L937.569 1456.01L937.572 1456.01L936.536 1455.4ZM951.056 1440.76L950.451 1439.72L950.447 1439.73L950.444 1439.73L951.056 1440.76ZM991.136 1440.76L990.531 1441.8L991.136 1440.76ZM1005.78 1455.4L1006.81 1454.79L1005.78 1455.4ZM1005.78 1495.48L1006.81 1496.09L1006.81 1496.09L1006.81 1496.09L1005.78 1495.48ZM991.136 1510L990.531 1508.96L990.527 1508.97L990.524 1508.97L991.136 1510ZM987.056 1503.04L987.653 1504.08L987.659 1504.08L987.665 1504.07L987.056 1503.04ZM998.576 1491.4L997.543 1490.79L997.539 1490.8L997.535 1490.8L998.576 1491.4ZM998.576 1459.48L997.535 1460.08L997.539 1460.08L997.543 1460.09L998.576 1459.48ZM987.056 1447.96L986.445 1448.99L986.452 1449L986.459 1449L987.056 1447.96ZM955.136 1447.96L955.733 1449L955.739 1449L955.745 1448.99L955.136 1447.96ZM943.496 1459.48L942.463 1458.87L942.459 1458.88L942.455 1458.88L943.496 1459.48ZM943.496 1491.4L942.455 1492L942.459 1492L942.463 1492.01L943.496 1491.4ZM955.136 1503.04L954.525 1504.07L954.532 1504.08L954.539 1504.08L955.136 1503.04ZM971.096 1514.2C964.024 1514.2 957.556 1512.45 951.667 1508.97L950.444 1511.03C956.715 1514.75 963.607 1516.6 971.096 1516.6V1514.2ZM951.667 1508.97C945.76 1505.47 941.065 1500.78 937.568 1494.87L935.503 1496.09C939.205 1502.34 944.191 1507.33 950.444 1511.03L951.667 1508.97ZM937.568 1494.87C934.081 1488.98 932.336 1482.51 932.336 1475.44H929.936C929.936 1482.93 931.789 1489.82 935.503 1496.09L937.568 1494.87ZM932.336 1475.44C932.336 1468.37 934.081 1461.9 937.568 1456.01L935.503 1454.79C931.789 1461.06 929.936 1467.95 929.936 1475.44H932.336ZM937.572 1456.01C941.069 1450.02 945.764 1445.29 951.667 1441.79L950.444 1439.73C944.187 1443.43 939.201 1448.46 935.5 1454.79L937.572 1456.01ZM951.661 1441.8C957.636 1438.3 964.107 1436.56 971.096 1436.56V1434.16C963.685 1434.16 956.796 1436.02 950.451 1439.72L951.661 1441.8ZM971.096 1436.56C978.085 1436.56 984.556 1438.3 990.531 1441.8L991.741 1439.72C985.396 1436.02 978.507 1434.16 971.096 1434.16V1436.56ZM990.531 1441.8C996.512 1445.29 1001.24 1450.02 1004.74 1456.01L1006.81 1454.79C1003.11 1448.46 998.079 1443.43 991.741 1439.72L990.531 1441.8ZM1004.74 1456.01C1008.23 1461.98 1009.98 1468.45 1009.98 1475.44H1012.38C1012.38 1468.03 1010.52 1461.14 1006.81 1454.79L1004.74 1456.01ZM1009.98 1475.44C1009.98 1482.43 1008.23 1488.9 1004.74 1494.87L1006.81 1496.09C1010.52 1489.74 1012.38 1482.85 1012.38 1475.44H1009.98ZM1004.74 1494.87C1001.25 1500.77 996.516 1505.47 990.531 1508.96L991.741 1511.04C998.076 1507.33 1003.1 1502.35 1006.81 1496.09L1004.74 1494.87ZM990.524 1508.97C984.635 1512.45 978.167 1514.2 971.096 1514.2V1516.6C978.584 1516.6 985.476 1514.75 991.747 1511.03L990.524 1508.97ZM971.096 1508.44C977.06 1508.44 982.587 1506.99 987.653 1504.08L986.459 1502C981.764 1504.69 976.651 1506.04 971.096 1506.04V1508.44ZM987.665 1504.07C992.723 1501.09 996.712 1497.06 999.616 1492L997.535 1490.8C994.839 1495.5 991.148 1499.23 986.445 1502.01L987.665 1504.07ZM999.609 1492.01C1002.6 1486.94 1004.1 1481.41 1004.1 1475.44H1001.7C1001.7 1480.99 1000.31 1486.1 997.543 1490.79L999.609 1492.01ZM1004.1 1475.44C1004.1 1469.47 1002.6 1463.94 999.609 1458.87L997.543 1460.09C1000.31 1464.78 1001.7 1469.89 1001.7 1475.44H1004.1ZM999.616 1458.88C996.711 1453.82 992.717 1449.83 987.653 1446.92L986.459 1449C991.153 1451.69 994.84 1455.38 997.535 1460.08L999.616 1458.88ZM987.665 1446.93C982.597 1443.94 977.067 1442.44 971.096 1442.44V1444.84C976.645 1444.84 981.753 1446.22 986.445 1448.99L987.665 1446.93ZM971.096 1442.44C965.125 1442.44 959.593 1443.94 954.525 1446.93L955.745 1448.99C960.437 1446.22 965.547 1444.84 971.096 1444.84V1442.44ZM954.539 1446.92C949.477 1449.82 945.447 1453.81 942.463 1458.87L944.529 1460.09C947.304 1455.39 951.035 1451.7 955.733 1449L954.539 1446.92ZM942.455 1458.88C939.548 1463.95 938.096 1469.48 938.096 1475.44H940.496C940.496 1469.88 941.843 1464.77 944.536 1460.08L942.455 1458.88ZM938.096 1475.44C938.096 1481.4 939.548 1486.93 942.455 1492L944.536 1490.8C941.843 1486.11 940.496 1481 940.496 1475.44H938.096ZM942.463 1492.01C945.445 1497.06 949.471 1501.09 954.525 1504.07L955.745 1502.01C951.04 1499.23 947.305 1495.5 944.529 1490.79L942.463 1492.01ZM954.539 1504.08C959.604 1506.99 965.131 1508.44 971.096 1508.44V1506.04C965.54 1506.04 960.427 1504.69 955.733 1502L954.539 1504.08ZM1067.28 1458.16H1068.48V1458.08L1068.47 1458L1067.28 1458.16ZM1064.4 1450.24L1063.39 1450.89L1063.4 1450.9L1063.41 1450.91L1064.4 1450.24ZM1035.84 1447.12L1034.99 1446.27L1034.99 1446.28L1034.98 1446.29L1035.84 1447.12ZM1036.2 1467.64L1035.53 1468.63L1036.2 1467.64ZM1047.6 1471L1047.7 1469.8L1047.7 1469.8L1047.7 1469.8L1047.6 1471ZM1059.36 1472.92L1059.04 1474.08L1059.06 1474.08L1059.07 1474.08L1059.36 1472.92ZM1067.4 1476.28L1066.73 1477.28L1066.75 1477.29L1066.77 1477.3L1067.4 1476.28ZM1074.12 1501.24L1073.03 1500.74L1073.02 1500.76L1073.02 1500.77L1074.12 1501.24ZM1069.2 1508.32L1068.37 1507.46L1068.36 1507.46L1068.36 1507.46L1069.2 1508.32ZM1028.88 1508.44L1029.71 1507.57L1029.7 1507.56L1029.69 1507.56L1028.88 1508.44ZM1021.2 1492.6V1491.4H1019.83L1020.01 1492.76L1021.2 1492.6ZM1029.48 1492.6L1030.66 1492.39L1030.48 1491.4H1029.48V1492.6ZM1034.52 1502.44L1033.69 1503.3L1033.69 1503.31L1033.7 1503.32L1034.52 1502.44ZM1062.48 1503.28L1063.22 1504.22L1063.22 1504.22L1063.22 1504.22L1062.48 1503.28ZM1065.96 1486.12L1064.92 1486.71L1064.93 1486.74L1064.95 1486.76L1065.96 1486.12ZM1059.84 1481.68L1060.25 1480.55L1059.84 1481.68ZM1046.88 1479.28L1046.77 1480.48L1046.78 1480.48L1046.78 1480.48L1046.88 1479.28ZM1025.4 1448.56L1024.29 1448.11L1024.28 1448.12L1024.28 1448.13L1025.4 1448.56ZM1030.08 1441.36L1029.23 1440.51L1030.08 1441.36ZM1048.92 1434.76L1048.93 1433.56H1048.93H1048.92V1434.76ZM1067.76 1441.6L1066.9 1442.43L1066.9 1442.44L1066.91 1442.45L1067.76 1441.6ZM1075.56 1458.28V1459.48H1076.91L1076.75 1458.14L1075.56 1458.28ZM1067.28 1458.28H1066.08V1459.48H1067.28V1458.28ZM1068.47 1458C1068.05 1454.8 1067.03 1451.98 1065.39 1449.57L1063.41 1450.91C1064.81 1452.98 1065.71 1455.44 1066.09 1458.32L1068.47 1458ZM1065.41 1449.59C1062.01 1444.36 1056.41 1441.84 1048.92 1441.84V1444.24C1055.83 1444.24 1060.55 1446.52 1063.39 1450.89L1065.41 1449.59ZM1048.92 1441.84C1042.77 1441.84 1038.03 1443.23 1034.99 1446.27L1036.69 1447.97C1039.09 1445.57 1043.07 1444.24 1048.92 1444.24V1441.84ZM1034.98 1446.29C1032.23 1449.12 1030.92 1452.93 1030.92 1457.56H1033.32C1033.32 1453.39 1034.49 1450.24 1036.7 1447.95L1034.98 1446.29ZM1030.92 1457.56C1030.92 1462.63 1032.34 1466.48 1035.53 1468.63L1036.87 1466.65C1034.62 1465.12 1033.32 1462.25 1033.32 1457.56H1030.92ZM1035.53 1468.63C1038.48 1470.63 1042.51 1471.79 1047.5 1472.2L1047.7 1469.8C1042.93 1469.41 1039.36 1468.33 1036.87 1466.65L1035.53 1468.63ZM1047.5 1472.2C1052.09 1472.59 1055.93 1473.22 1059.04 1474.08L1059.68 1471.76C1056.39 1470.86 1052.39 1470.21 1047.7 1469.8L1047.5 1472.2ZM1059.07 1474.08C1062.17 1474.86 1064.71 1475.93 1066.73 1477.28L1068.07 1475.28C1065.77 1473.75 1062.95 1472.58 1059.65 1471.76L1059.07 1474.08ZM1066.77 1477.3C1072.05 1480.57 1074.72 1485.67 1074.72 1492.84H1077.12C1077.12 1484.97 1074.11 1479.03 1068.03 1475.26L1066.77 1477.3ZM1074.72 1492.84C1074.72 1495.63 1074.16 1498.26 1073.03 1500.74L1075.21 1501.74C1076.49 1498.94 1077.12 1495.97 1077.12 1492.84H1074.72ZM1073.02 1500.77C1071.96 1503.26 1070.42 1505.48 1068.37 1507.46L1070.03 1509.18C1072.3 1507 1074.04 1504.5 1075.23 1501.71L1073.02 1500.77ZM1068.36 1507.46C1063.75 1511.99 1057.41 1514.32 1049.16 1514.32V1516.72C1057.88 1516.72 1064.89 1514.25 1070.04 1509.18L1068.36 1507.46ZM1049.16 1514.32C1040.83 1514.32 1034.39 1512.03 1029.71 1507.57L1028.05 1509.31C1033.29 1514.29 1040.37 1516.72 1049.16 1516.72V1514.32ZM1029.69 1507.56C1025.69 1503.86 1023.24 1498.85 1022.39 1492.44L1020.01 1492.76C1020.92 1499.63 1023.59 1505.18 1028.07 1509.32L1029.69 1507.56ZM1021.2 1493.8H1029.48V1491.4H1021.2V1493.8ZM1028.3 1492.81C1029.06 1497.03 1030.85 1500.55 1033.69 1503.3L1035.36 1501.58C1032.91 1499.21 1031.34 1496.17 1030.66 1492.39L1028.3 1492.81ZM1033.7 1503.32C1037.43 1506.79 1042.69 1508.44 1049.28 1508.44V1506.04C1043.07 1506.04 1038.49 1504.49 1035.34 1501.56L1033.7 1503.32ZM1049.28 1508.44C1054.91 1508.44 1059.6 1507.07 1063.22 1504.22L1061.74 1502.34C1058.64 1504.77 1054.53 1506.04 1049.28 1506.04V1508.44ZM1063.22 1504.22C1066.94 1501.28 1068.84 1497.46 1068.84 1492.84H1066.44C1066.44 1496.7 1064.9 1499.84 1061.74 1502.34L1063.22 1504.22ZM1068.84 1492.84C1068.84 1489.96 1068.25 1487.48 1066.97 1485.48L1064.95 1486.76C1065.91 1488.28 1066.44 1490.28 1066.44 1492.84H1068.84ZM1067.01 1485.53C1065.77 1483.34 1063.43 1481.72 1060.25 1480.55L1059.43 1482.81C1062.33 1483.88 1064.07 1485.22 1064.92 1486.71L1067.01 1485.53ZM1060.25 1480.55C1057.07 1479.38 1052.62 1478.57 1046.98 1478.08L1046.78 1480.48C1052.34 1480.95 1056.53 1481.74 1059.43 1482.81L1060.25 1480.55ZM1046.99 1478.08C1039.45 1477.42 1033.99 1475.32 1030.42 1471.96C1026.88 1468.62 1025.04 1463.88 1025.04 1457.56H1022.64C1022.64 1464.36 1024.64 1469.8 1028.78 1473.7C1032.89 1477.58 1038.95 1479.78 1046.77 1480.48L1046.99 1478.08ZM1025.04 1457.56C1025.04 1454.41 1025.54 1451.56 1026.52 1448.99L1024.28 1448.13C1023.18 1451 1022.64 1454.15 1022.64 1457.56H1025.04ZM1026.51 1449.01C1027.58 1446.35 1029.05 1444.09 1030.93 1442.21L1029.23 1440.51C1027.11 1442.63 1025.46 1445.17 1024.29 1448.11L1026.51 1449.01ZM1030.93 1442.21C1035.04 1438.1 1040.94 1435.96 1048.8 1435.96V1433.56C1040.5 1433.56 1033.92 1435.82 1029.23 1440.51L1030.93 1442.21ZM1048.8 1435.96H1048.92V1433.56H1048.8V1435.96ZM1048.91 1435.96C1056.93 1436.04 1062.87 1438.25 1066.9 1442.43L1068.62 1440.77C1064.01 1435.99 1057.39 1433.64 1048.93 1433.56L1048.91 1435.96ZM1066.91 1442.45C1071.1 1446.64 1073.6 1451.94 1074.37 1458.42L1076.75 1458.14C1075.92 1451.18 1073.22 1445.36 1068.61 1440.75L1066.91 1442.45ZM1075.56 1457.08H1067.28V1459.48H1075.56V1457.08ZM1068.48 1458.28V1458.16H1066.08V1458.28H1068.48Z" fill="white"/>
</g>
<defs>
<linearGradient id="paint0_linear" x1="-68.25" y1="-141.714" x2="1964.79" y2="166.495" gradientUnits="userSpaceOnUse">
<stop stop-color="#C00000"/>
<stop offset="1" stop-color="#FF4300"/>
</linearGradient>
<linearGradient id="paint1_linear" x1="400.405" y1="1420.6" x2="519.023" y2="1539.4" gradientUnits="userSpaceOnUse">
<stop stop-color="#C00000"/>
<stop offset="1" stop-color="#FF4300"/>
</linearGradient>
<linearGradient id="paint2_linear" x1="400.405" y1="1420.6" x2="519.023" y2="1539.4" gradientUnits="userSpaceOnUse">
<stop stop-color="#C00000"/>
<stop offset="1" stop-color="#FF4300"/>
</linearGradient>
<clipPath id="clip0">
<rect width="1440" height="2960" fill="white"/>
</clipPath>
</defs>
</svg>
