<svg width="1440" height="2960" viewBox="0 0 1440 2960" fill="none" xmlns="http://www.w3.org/2000/svg">
<g clip-path="url(#clip0)">
<rect x="-32" y="-13" width="1503" height="2985" fill="white"/>
<path d="M-89.802 796.196C-31.2233 737.617 -31.2233 642.643 -89.802 584.064C-148.381 525.485 -243.355 525.485 -301.934 584.064C-360.513 642.643 -360.513 737.617 -301.934 796.196C-243.355 854.775 -148.381 854.775 -89.802 796.196Z" fill="white"/>
<path d="M110.198 996.194C168.777 937.615 168.777 842.641 110.198 784.062C51.6194 725.483 -43.3553 725.483 -101.934 784.062C-160.513 842.641 -160.513 937.615 -101.934 996.194C-43.3553 1054.77 51.6194 1054.77 110.198 996.194Z" fill="white"/>
<path d="M-107.297 890.128L4.13178 778.7L115.56 890.128L4.13178 1001.56L-107.297 890.128Z" fill="url(#paint0_linear)"/>
<path d="M-74.6593 968.919V811.336H82.9245V968.919H-74.6593Z" fill="url(#paint1_linear)"/>
<path d="M46.5585 932.554C69.99 909.123 69.99 871.133 46.5585 847.702C23.1271 824.27 -14.8628 824.27 -38.2943 847.702C-61.7258 871.133 -61.7258 909.123 -38.2943 932.554C-14.8628 955.986 23.1271 955.986 46.5585 932.554Z" fill="white"/>
<path d="M310.198 1196.19C368.777 1137.61 368.777 1042.64 310.198 984.06C251.619 925.481 156.645 925.481 98.066 984.06C39.4874 1042.64 39.4874 1137.61 98.066 1196.19C156.645 1254.77 251.619 1254.77 310.198 1196.19Z" fill="white"/>
<path d="M92.7031 1090.13L204.132 978.698L315.56 1090.13L204.132 1201.56L92.7031 1090.13Z" fill="url(#paint2_linear)"/>
<path d="M125.341 1168.92V1011.33H282.925V1168.92H125.341Z" fill="url(#paint3_linear)"/>
<path d="M246.559 1132.55C269.99 1109.12 269.99 1071.13 246.559 1047.7C223.127 1024.27 185.137 1024.27 161.706 1047.7C138.274 1071.13 138.274 1109.12 161.706 1132.55C185.137 1155.98 223.127 1155.98 246.559 1132.55Z" fill="white"/>
<path d="M510.198 1396.19C568.777 1337.61 568.777 1242.64 510.198 1184.06C451.619 1125.48 356.645 1125.48 298.066 1184.06C239.487 1242.64 239.487 1337.61 298.066 1396.19C356.645 1454.77 451.619 1454.77 510.198 1396.19Z" fill="white"/>
<path d="M292.703 1290.12L404.132 1178.7L515.56 1290.12L404.132 1401.55L292.703 1290.12Z" fill="url(#paint4_linear)"/>
<path d="M325.341 1368.92V1211.33H482.925V1368.92H325.341Z" fill="url(#paint5_linear)"/>
<path d="M446.559 1332.55C469.99 1309.12 469.99 1271.13 446.559 1247.7C423.127 1224.27 385.137 1224.27 361.706 1247.7C338.274 1271.13 338.274 1309.12 361.706 1332.55C385.137 1355.98 423.127 1355.98 446.559 1332.55Z" fill="white"/>
<path d="M710.198 1596.19C768.777 1537.61 768.777 1442.63 710.198 1384.06C651.619 1325.48 556.645 1325.48 498.066 1384.06C439.487 1442.63 439.487 1537.61 498.066 1596.19C556.645 1654.77 651.619 1654.77 710.198 1596.19Z" fill="white"/>
<path d="M492.703 1490.12L604.132 1378.69L715.56 1490.12L604.132 1601.55L492.703 1490.12Z" fill="url(#paint6_linear)"/>
<path d="M525.341 1568.91V1411.33H682.925V1568.91H525.341Z" fill="url(#paint7_linear)"/>
<path d="M646.559 1532.55C669.99 1509.12 669.99 1471.13 646.559 1447.7C623.127 1424.26 585.137 1424.26 561.706 1447.7C538.274 1471.13 538.274 1509.12 561.706 1532.55C585.137 1555.98 623.127 1555.98 646.559 1532.55Z" fill="white"/>
<path d="M910.198 1796.19C968.777 1737.61 968.777 1642.63 910.198 1584.05C851.619 1525.48 756.645 1525.48 698.066 1584.05C639.487 1642.63 639.487 1737.61 698.066 1796.19C756.645 1854.76 851.619 1854.76 910.198 1796.19Z" fill="white"/>
<path d="M692.703 1690.12L804.132 1578.69L915.56 1690.12L804.132 1801.55L692.703 1690.12Z" fill="url(#paint8_linear)"/>
<path d="M725.341 1768.91V1611.33H882.925V1768.91H725.341Z" fill="url(#paint9_linear)"/>
<path d="M846.559 1732.55C869.99 1709.12 869.99 1671.13 846.559 1647.69C823.127 1624.26 785.137 1624.26 761.706 1647.69C738.274 1671.13 738.274 1709.12 761.706 1732.55C785.137 1755.98 823.127 1755.98 846.559 1732.55Z" fill="white"/>
<path d="M1110.2 1996.18C1168.78 1937.61 1168.78 1842.63 1110.2 1784.05C1051.62 1725.47 956.645 1725.47 898.066 1784.05C839.487 1842.63 839.487 1937.61 898.066 1996.18C956.645 2054.76 1051.62 2054.76 1110.2 1996.18Z" fill="white"/>
<path d="M892.703 1890.12L1004.13 1778.69L1115.56 1890.12L1004.13 2001.55L892.703 1890.12Z" fill="url(#paint10_linear)"/>
<path d="M925.341 1968.91V1811.33H1082.92V1968.91H925.341Z" fill="url(#paint11_linear)"/>
<path d="M1046.56 1932.54C1069.99 1909.11 1069.99 1871.12 1046.56 1847.69C1023.13 1824.26 985.137 1824.26 961.706 1847.69C938.274 1871.12 938.274 1909.11 961.706 1932.54C985.137 1955.98 1023.13 1955.98 1046.56 1932.54Z" fill="white"/>
<path d="M1310.2 2196.18C1368.78 2137.6 1368.78 2042.63 1310.2 1984.05C1251.62 1925.47 1156.64 1925.47 1098.07 1984.05C1039.49 2042.63 1039.49 2137.6 1098.07 2196.18C1156.64 2254.76 1251.62 2254.76 1310.2 2196.18Z" fill="white"/>
<path d="M1092.7 2090.12L1204.13 1978.69L1315.56 2090.12L1204.13 2201.55L1092.7 2090.12Z" fill="url(#paint12_linear)"/>
<path d="M1125.34 2168.91V2011.32H1282.92V2168.91H1125.34Z" fill="url(#paint13_linear)"/>
<path d="M1246.56 2132.54C1269.99 2109.11 1269.99 2071.12 1246.56 2047.69C1223.13 2024.26 1185.14 2024.26 1161.71 2047.69C1138.27 2071.12 1138.27 2109.11 1161.71 2132.54C1185.14 2155.97 1223.13 2155.97 1246.56 2132.54Z" fill="white"/>
<path d="M1510.2 2396.18C1568.78 2337.6 1568.78 2242.63 1510.2 2184.05C1451.62 2125.47 1356.64 2125.47 1298.07 2184.05C1239.49 2242.63 1239.49 2337.6 1298.07 2396.18C1356.64 2454.76 1451.62 2454.76 1510.2 2396.18Z" fill="white"/>
<path d="M1292.7 2290.11L1404.13 2178.69L1515.56 2290.11L1404.13 2401.54L1292.7 2290.11Z" fill="url(#paint14_linear)"/>
<path d="M1325.34 2368.91V2211.32H1482.92V2368.91H1325.34Z" fill="url(#paint15_linear)"/>
<path d="M1446.56 2332.54C1469.99 2309.11 1469.99 2271.12 1446.56 2247.69C1423.13 2224.26 1385.14 2224.26 1361.71 2247.69C1338.27 2271.12 1338.27 2309.11 1361.71 2332.54C1385.14 2355.97 1423.13 2355.97 1446.56 2332.54Z" fill="white"/>
<path d="M1710.2 2596.18C1768.78 2537.6 1768.78 2442.62 1710.2 2384.05C1651.62 2325.47 1556.64 2325.47 1498.07 2384.05C1439.49 2442.62 1439.49 2537.6 1498.07 2596.18C1556.64 2654.76 1651.62 2654.76 1710.2 2596.18Z" fill="white"/>
<path d="M-89.802 1196.2C-31.2233 1137.62 -31.2233 1042.64 -89.802 984.064C-148.381 925.485 -243.355 925.485 -301.934 984.064C-360.513 1042.64 -360.513 1137.62 -301.934 1196.2C-243.355 1254.77 -148.381 1254.77 -89.802 1196.2Z" fill="white"/>
<path d="M110.198 1396.19C168.777 1337.62 168.777 1242.64 110.198 1184.06C51.6194 1125.48 -43.3553 1125.48 -101.934 1184.06C-160.513 1242.64 -160.513 1337.62 -101.934 1396.19C-43.3553 1454.77 51.6194 1454.77 110.198 1396.19Z" fill="white"/>
<path d="M-107.297 1290.13L4.13178 1178.7L115.56 1290.13L4.13178 1401.56L-107.297 1290.13Z" fill="url(#paint16_linear)"/>
<path d="M-74.6593 1368.92V1211.34H82.9245V1368.92H-74.6593Z" fill="url(#paint17_linear)"/>
<path d="M46.5585 1332.55C69.99 1309.12 69.99 1271.13 46.5585 1247.7C23.1271 1224.27 -14.8628 1224.27 -38.2943 1247.7C-61.7258 1271.13 -61.7258 1309.12 -38.2943 1332.55C-14.8628 1355.99 23.1271 1355.99 46.5585 1332.55Z" fill="white"/>
<path d="M310.198 1596.19C368.777 1537.61 368.777 1442.64 310.198 1384.06C251.619 1325.48 156.645 1325.48 98.066 1384.06C39.4874 1442.64 39.4874 1537.61 98.066 1596.19C156.645 1654.77 251.619 1654.77 310.198 1596.19Z" fill="white"/>
<path d="M92.7031 1490.13L204.132 1378.7L315.56 1490.13L204.132 1601.56L92.7031 1490.13Z" fill="url(#paint18_linear)"/>
<path d="M125.341 1568.92V1411.33H282.925V1568.92H125.341Z" fill="url(#paint19_linear)"/>
<path d="M246.559 1532.55C269.99 1509.12 269.99 1471.13 246.559 1447.7C223.127 1424.27 185.137 1424.27 161.706 1447.7C138.274 1471.13 138.274 1509.12 161.706 1532.55C185.137 1555.98 223.127 1555.98 246.559 1532.55Z" fill="white"/>
<path d="M510.198 1796.19C568.777 1737.61 568.777 1642.64 510.198 1584.06C451.619 1525.48 356.645 1525.48 298.066 1584.06C239.487 1642.64 239.487 1737.61 298.066 1796.19C356.645 1854.77 451.619 1854.77 510.198 1796.19Z" fill="white"/>
<path d="M292.703 1690.12L404.132 1578.7L515.56 1690.12L404.132 1801.55L292.703 1690.12Z" fill="url(#paint20_linear)"/>
<path d="M325.341 1768.92V1611.33H482.925V1768.92H325.341Z" fill="url(#paint21_linear)"/>
<path d="M446.559 1732.55C469.99 1709.12 469.99 1671.13 446.559 1647.7C423.127 1624.27 385.137 1624.27 361.706 1647.7C338.274 1671.13 338.274 1709.12 361.706 1732.55C385.137 1755.98 423.127 1755.98 446.559 1732.55Z" fill="white"/>
<path d="M710.198 1996.19C768.777 1937.61 768.777 1842.63 710.198 1784.06C651.619 1725.48 556.645 1725.48 498.066 1784.06C439.487 1842.63 439.487 1937.61 498.066 1996.19C556.645 2054.77 651.619 2054.77 710.198 1996.19Z" fill="white"/>
<path d="M492.703 1890.12L604.132 1778.69L715.56 1890.12L604.132 2001.55L492.703 1890.12Z" fill="url(#paint22_linear)"/>
<path d="M525.341 1968.91V1811.33H682.925V1968.91H525.341Z" fill="url(#paint23_linear)"/>
<path d="M646.559 1932.55C669.99 1909.12 669.99 1871.13 646.559 1847.7C623.127 1824.26 585.137 1824.26 561.706 1847.7C538.274 1871.13 538.274 1909.12 561.706 1932.55C585.137 1955.98 623.127 1955.98 646.559 1932.55Z" fill="white"/>
<path d="M910.198 2196.19C968.777 2137.61 968.777 2042.63 910.198 1984.05C851.619 1925.48 756.645 1925.48 698.066 1984.05C639.487 2042.63 639.487 2137.61 698.066 2196.19C756.645 2254.76 851.619 2254.76 910.198 2196.19Z" fill="white"/>
<path d="M692.703 2090.12L804.132 1978.69L915.56 2090.12L804.132 2201.55L692.703 2090.12Z" fill="url(#paint24_linear)"/>
<path d="M725.341 2168.91V2011.33H882.925V2168.91H725.341Z" fill="url(#paint25_linear)"/>
<path d="M846.559 2132.55C869.99 2109.12 869.99 2071.13 846.559 2047.69C823.127 2024.26 785.137 2024.26 761.706 2047.69C738.274 2071.13 738.274 2109.12 761.706 2132.55C785.137 2155.98 823.127 2155.98 846.559 2132.55Z" fill="white"/>
<path d="M1110.2 2396.18C1168.78 2337.61 1168.78 2242.63 1110.2 2184.05C1051.62 2125.47 956.645 2125.47 898.066 2184.05C839.487 2242.63 839.487 2337.61 898.066 2396.18C956.645 2454.76 1051.62 2454.76 1110.2 2396.18Z" fill="white"/>
<path d="M892.703 2290.12L1004.13 2178.69L1115.56 2290.12L1004.13 2401.55L892.703 2290.12Z" fill="url(#paint26_linear)"/>
<path d="M925.341 2368.91V2211.33H1082.92V2368.91H925.341Z" fill="url(#paint27_linear)"/>
<path d="M1046.56 2332.54C1069.99 2309.11 1069.99 2271.12 1046.56 2247.69C1023.13 2224.26 985.137 2224.26 961.706 2247.69C938.274 2271.12 938.274 2309.11 961.706 2332.54C985.137 2355.98 1023.13 2355.98 1046.56 2332.54Z" fill="white"/>
<path d="M1310.2 2596.18C1368.78 2537.6 1368.78 2442.63 1310.2 2384.05C1251.62 2325.47 1156.64 2325.47 1098.07 2384.05C1039.49 2442.63 1039.49 2537.6 1098.07 2596.18C1156.64 2654.76 1251.62 2654.76 1310.2 2596.18Z" fill="white"/>
<path d="M1092.7 2490.12L1204.13 2378.69L1315.56 2490.12L1204.13 2601.55L1092.7 2490.12Z" fill="url(#paint28_linear)"/>
<path d="M1125.34 2568.91V2411.32H1282.92V2568.91H1125.34Z" fill="url(#paint29_linear)"/>
<path d="M1246.56 2532.54C1269.99 2509.11 1269.99 2471.12 1246.56 2447.69C1223.13 2424.26 1185.14 2424.26 1161.71 2447.69C1138.27 2471.12 1138.27 2509.11 1161.71 2532.54C1185.14 2555.97 1223.13 2555.97 1246.56 2532.54Z" fill="white"/>
<path d="M1510.2 2796.18C1568.78 2737.6 1568.78 2642.63 1510.2 2584.05C1451.62 2525.47 1356.64 2525.47 1298.07 2584.05C1239.49 2642.63 1239.49 2737.6 1298.07 2796.18C1356.64 2854.76 1451.62 2854.76 1510.2 2796.18Z" fill="white"/>
<path d="M1292.7 2690.11L1404.13 2578.69L1515.56 2690.11L1404.13 2801.54L1292.7 2690.11Z" fill="url(#paint30_linear)"/>
<path d="M1325.34 2768.91V2611.32H1482.92V2768.91H1325.34Z" fill="url(#paint31_linear)"/>
<path d="M1446.56 2732.54C1469.99 2709.11 1469.99 2671.12 1446.56 2647.69C1423.13 2624.26 1385.14 2624.26 1361.71 2647.69C1338.27 2671.12 1338.27 2709.11 1361.71 2732.54C1385.14 2755.97 1423.13 2755.97 1446.56 2732.54Z" fill="white"/>
<path d="M1710.2 2996.18C1768.78 2937.6 1768.78 2842.62 1710.2 2784.05C1651.62 2725.47 1556.64 2725.47 1498.07 2784.05C1439.49 2842.62 1439.49 2937.6 1498.07 2996.18C1556.64 3054.76 1651.62 3054.76 1710.2 2996.18Z" fill="white"/>
<path d="M-89.802 1596.2C-31.2233 1537.62 -31.2233 1442.64 -89.802 1384.06C-148.381 1325.49 -243.355 1325.49 -301.934 1384.06C-360.513 1442.64 -360.513 1537.62 -301.934 1596.2C-243.355 1654.77 -148.381 1654.77 -89.802 1596.2Z" fill="white"/>
<path d="M110.198 1796.19C168.777 1737.62 168.777 1642.64 110.198 1584.06C51.6194 1525.48 -43.3553 1525.48 -101.934 1584.06C-160.513 1642.64 -160.513 1737.62 -101.934 1796.19C-43.3553 1854.77 51.6194 1854.77 110.198 1796.19Z" fill="white"/>
<path d="M-107.297 1690.13L4.13178 1578.7L115.56 1690.13L4.13178 1801.56L-107.297 1690.13Z" fill="url(#paint32_linear)"/>
<path d="M-74.6593 1768.92V1611.34H82.9245V1768.92H-74.6593Z" fill="url(#paint33_linear)"/>
<path d="M46.5585 1732.55C69.99 1709.12 69.99 1671.13 46.5585 1647.7C23.1271 1624.27 -14.8628 1624.27 -38.2943 1647.7C-61.7258 1671.13 -61.7258 1709.12 -38.2943 1732.55C-14.8628 1755.99 23.1271 1755.99 46.5585 1732.55Z" fill="white"/>
<path d="M310.198 1996.19C368.777 1937.61 368.777 1842.64 310.198 1784.06C251.619 1725.48 156.645 1725.48 98.066 1784.06C39.4874 1842.64 39.4874 1937.61 98.066 1996.19C156.645 2054.77 251.619 2054.77 310.198 1996.19Z" fill="white"/>
<path d="M92.7031 1890.13L204.132 1778.7L315.56 1890.13L204.132 2001.56L92.7031 1890.13Z" fill="url(#paint34_linear)"/>
<path d="M125.341 1968.92V1811.33H282.925V1968.92H125.341Z" fill="url(#paint35_linear)"/>
<path d="M246.559 1932.55C269.99 1909.12 269.99 1871.13 246.559 1847.7C223.127 1824.27 185.137 1824.27 161.706 1847.7C138.274 1871.13 138.274 1909.12 161.706 1932.55C185.137 1955.98 223.127 1955.98 246.559 1932.55Z" fill="white"/>
<path d="M510.198 2196.19C568.777 2137.61 568.777 2042.64 510.198 1984.06C451.619 1925.48 356.645 1925.48 298.066 1984.06C239.487 2042.64 239.487 2137.61 298.066 2196.19C356.645 2254.77 451.619 2254.77 510.198 2196.19Z" fill="white"/>
<path d="M292.703 2090.12L404.132 1978.7L515.56 2090.12L404.132 2201.55L292.703 2090.12Z" fill="url(#paint36_linear)"/>
<path d="M325.341 2168.92V2011.33H482.925V2168.92H325.341Z" fill="url(#paint37_linear)"/>
<path d="M446.559 2132.55C469.99 2109.12 469.99 2071.13 446.559 2047.7C423.127 2024.27 385.137 2024.27 361.706 2047.7C338.274 2071.13 338.274 2109.12 361.706 2132.55C385.137 2155.98 423.127 2155.98 446.559 2132.55Z" fill="white"/>
<path d="M710.198 2396.19C768.777 2337.61 768.777 2242.63 710.198 2184.06C651.619 2125.48 556.645 2125.48 498.066 2184.06C439.487 2242.63 439.487 2337.61 498.066 2396.19C556.645 2454.77 651.619 2454.77 710.198 2396.19Z" fill="white"/>
<path d="M492.703 2290.12L604.132 2178.69L715.56 2290.12L604.132 2401.55L492.703 2290.12Z" fill="url(#paint38_linear)"/>
<path d="M525.341 2368.91V2211.33H682.925V2368.91H525.341Z" fill="url(#paint39_linear)"/>
<path d="M646.559 2332.55C669.99 2309.12 669.99 2271.13 646.559 2247.7C623.127 2224.26 585.137 2224.26 561.706 2247.7C538.274 2271.13 538.274 2309.12 561.706 2332.55C585.137 2355.98 623.127 2355.98 646.559 2332.55Z" fill="white"/>
<path d="M910.198 2596.19C968.777 2537.61 968.777 2442.63 910.198 2384.05C851.619 2325.48 756.645 2325.48 698.066 2384.05C639.487 2442.63 639.487 2537.61 698.066 2596.19C756.645 2654.76 851.619 2654.76 910.198 2596.19Z" fill="white"/>
<path d="M692.703 2490.12L804.132 2378.69L915.56 2490.12L804.132 2601.55L692.703 2490.12Z" fill="url(#paint40_linear)"/>
<path d="M725.341 2568.91V2411.33H882.925V2568.91H725.341Z" fill="url(#paint41_linear)"/>
<path d="M846.559 2532.55C869.99 2509.12 869.99 2471.13 846.559 2447.69C823.127 2424.26 785.137 2424.26 761.706 2447.69C738.274 2471.13 738.274 2509.12 761.706 2532.55C785.137 2555.98 823.127 2555.98 846.559 2532.55Z" fill="white"/>
<path d="M1110.2 2796.18C1168.78 2737.61 1168.78 2642.63 1110.2 2584.05C1051.62 2525.47 956.645 2525.47 898.066 2584.05C839.487 2642.63 839.487 2737.61 898.066 2796.18C956.645 2854.76 1051.62 2854.76 1110.2 2796.18Z" fill="white"/>
<path d="M892.703 2690.12L1004.13 2578.69L1115.56 2690.12L1004.13 2801.55L892.703 2690.12Z" fill="url(#paint42_linear)"/>
<path d="M925.341 2768.91V2611.33H1082.92V2768.91H925.341Z" fill="url(#paint43_linear)"/>
<path d="M1046.56 2732.54C1069.99 2709.11 1069.99 2671.12 1046.56 2647.69C1023.13 2624.26 985.137 2624.26 961.706 2647.69C938.274 2671.12 938.274 2709.11 961.706 2732.54C985.137 2755.98 1023.13 2755.98 1046.56 2732.54Z" fill="white"/>
<path d="M1310.2 2996.18C1368.78 2937.6 1368.78 2842.63 1310.2 2784.05C1251.62 2725.47 1156.64 2725.47 1098.07 2784.05C1039.49 2842.63 1039.49 2937.6 1098.07 2996.18C1156.64 3054.76 1251.62 3054.76 1310.2 2996.18Z" fill="white"/>
<path d="M1092.7 2890.12L1204.13 2778.69L1315.56 2890.12L1204.13 3001.55L1092.7 2890.12Z" fill="url(#paint44_linear)"/>
<path d="M1125.34 2968.91V2811.32H1282.92V2968.91H1125.34Z" fill="url(#paint45_linear)"/>
<path d="M1246.56 2932.54C1269.99 2909.11 1269.99 2871.12 1246.56 2847.69C1223.13 2824.26 1185.14 2824.26 1161.71 2847.69C1138.27 2871.12 1138.27 2909.11 1161.71 2932.54C1185.14 2955.97 1223.13 2955.97 1246.56 2932.54Z" fill="white"/>
<path d="M1510.2 3196.18C1568.78 3137.6 1568.78 3042.63 1510.2 2984.05C1451.62 2925.47 1356.64 2925.47 1298.07 2984.05C1239.49 3042.63 1239.49 3137.6 1298.07 3196.18C1356.64 3254.76 1451.62 3254.76 1510.2 3196.18Z" fill="white"/>
<path d="M1325.34 3168.91V3011.32H1482.92V3168.91H1325.34Z" fill="url(#paint46_linear)"/>
<path d="M-89.802 1996.2C-31.2233 1937.62 -31.2233 1842.64 -89.802 1784.06C-148.381 1725.49 -243.355 1725.49 -301.934 1784.06C-360.513 1842.64 -360.513 1937.62 -301.934 1996.2C-243.355 2054.77 -148.381 2054.77 -89.802 1996.2Z" fill="white"/>
<path d="M110.198 2196.19C168.777 2137.62 168.777 2042.64 110.198 1984.06C51.6194 1925.48 -43.3553 1925.48 -101.934 1984.06C-160.513 2042.64 -160.513 2137.62 -101.934 2196.19C-43.3553 2254.77 51.6194 2254.77 110.198 2196.19Z" fill="white"/>
<path d="M-107.297 2090.13L4.13178 1978.7L115.56 2090.13L4.13178 2201.56L-107.297 2090.13Z" fill="url(#paint47_linear)"/>
<path d="M-74.6593 2168.92V2011.34H82.9245V2168.92H-74.6593Z" fill="url(#paint48_linear)"/>
<path d="M46.5585 2132.55C69.99 2109.12 69.99 2071.13 46.5585 2047.7C23.1271 2024.27 -14.8628 2024.27 -38.2943 2047.7C-61.7258 2071.13 -61.7258 2109.12 -38.2943 2132.55C-14.8628 2155.99 23.1271 2155.99 46.5585 2132.55Z" fill="white"/>
<path d="M310.198 2396.19C368.777 2337.61 368.777 2242.64 310.198 2184.06C251.619 2125.48 156.645 2125.48 98.066 2184.06C39.4874 2242.64 39.4874 2337.61 98.066 2396.19C156.645 2454.77 251.619 2454.77 310.198 2396.19Z" fill="white"/>
<path d="M92.7031 2290.13L204.132 2178.7L315.56 2290.13L204.132 2401.56L92.7031 2290.13Z" fill="url(#paint49_linear)"/>
<path d="M125.341 2368.92V2211.33H282.925V2368.92H125.341Z" fill="url(#paint50_linear)"/>
<path d="M246.559 2332.55C269.99 2309.12 269.99 2271.13 246.559 2247.7C223.127 2224.27 185.137 2224.27 161.706 2247.7C138.274 2271.13 138.274 2309.12 161.706 2332.55C185.137 2355.98 223.127 2355.98 246.559 2332.55Z" fill="white"/>
<path d="M510.198 2596.19C568.777 2537.61 568.777 2442.64 510.198 2384.06C451.619 2325.48 356.645 2325.48 298.066 2384.06C239.487 2442.64 239.487 2537.61 298.066 2596.19C356.645 2654.77 451.619 2654.77 510.198 2596.19Z" fill="white"/>
<path d="M292.703 2490.12L404.132 2378.7L515.56 2490.12L404.132 2601.55L292.703 2490.12Z" fill="url(#paint51_linear)"/>
<path d="M325.341 2568.92V2411.33H482.925V2568.92H325.341Z" fill="url(#paint52_linear)"/>
<path d="M446.559 2532.55C469.99 2509.12 469.99 2471.13 446.559 2447.7C423.127 2424.27 385.137 2424.27 361.706 2447.7C338.274 2471.13 338.274 2509.12 361.706 2532.55C385.137 2555.98 423.127 2555.98 446.559 2532.55Z" fill="white"/>
<path d="M710.198 2796.19C768.777 2737.61 768.777 2642.63 710.198 2584.06C651.619 2525.48 556.645 2525.48 498.066 2584.06C439.487 2642.63 439.487 2737.61 498.066 2796.19C556.645 2854.77 651.619 2854.77 710.198 2796.19Z" fill="white"/>
<path d="M492.703 2690.12L604.132 2578.69L715.56 2690.12L604.132 2801.55L492.703 2690.12Z" fill="url(#paint53_linear)"/>
<path d="M525.341 2768.91V2611.33H682.925V2768.91H525.341Z" fill="url(#paint54_linear)"/>
<path d="M646.559 2732.55C669.99 2709.12 669.99 2671.13 646.559 2647.7C623.127 2624.26 585.137 2624.26 561.706 2647.7C538.274 2671.13 538.274 2709.12 561.706 2732.55C585.137 2755.98 623.127 2755.98 646.559 2732.55Z" fill="white"/>
<path d="M910.198 2996.19C968.777 2937.61 968.777 2842.63 910.198 2784.05C851.619 2725.48 756.645 2725.48 698.066 2784.05C639.487 2842.63 639.487 2937.61 698.066 2996.19C756.645 3054.76 851.619 3054.76 910.198 2996.19Z" fill="white"/>
<path d="M692.703 2890.12L804.132 2778.69L915.56 2890.12L804.132 3001.55L692.703 2890.12Z" fill="url(#paint55_linear)"/>
<path d="M725.341 2968.91V2811.33H882.925V2968.91H725.341Z" fill="url(#paint56_linear)"/>
<path d="M846.559 2932.55C869.99 2909.12 869.99 2871.13 846.559 2847.69C823.127 2824.26 785.137 2824.26 761.706 2847.69C738.274 2871.13 738.274 2909.12 761.706 2932.55C785.137 2955.98 823.127 2955.98 846.559 2932.55Z" fill="white"/>
<path d="M1110.2 3196.18C1168.78 3137.61 1168.78 3042.63 1110.2 2984.05C1051.62 2925.47 956.645 2925.47 898.066 2984.05C839.487 3042.63 839.487 3137.61 898.066 3196.18C956.645 3254.76 1051.62 3254.76 1110.2 3196.18Z" fill="white"/>
<path d="M925.341 3168.91V3011.33H1082.92V3168.91H925.341Z" fill="url(#paint57_linear)"/>
<path d="M-89.802 2396.2C-31.2233 2337.62 -31.2233 2242.64 -89.802 2184.06C-148.381 2125.49 -243.355 2125.49 -301.934 2184.06C-360.513 2242.64 -360.513 2337.62 -301.934 2396.2C-243.355 2454.77 -148.381 2454.77 -89.802 2396.2Z" fill="white"/>
<path d="M110.198 2596.19C168.777 2537.62 168.777 2442.64 110.198 2384.06C51.6194 2325.48 -43.3553 2325.48 -101.934 2384.06C-160.513 2442.64 -160.513 2537.62 -101.934 2596.19C-43.3553 2654.77 51.6194 2654.77 110.198 2596.19Z" fill="white"/>
<path d="M-107.297 2490.13L4.13178 2378.7L115.56 2490.13L4.13178 2601.56L-107.297 2490.13Z" fill="url(#paint58_linear)"/>
<path d="M-74.6593 2568.92V2411.34H82.9245V2568.92H-74.6593Z" fill="url(#paint59_linear)"/>
<path d="M46.5585 2532.55C69.99 2509.12 69.99 2471.13 46.5585 2447.7C23.1271 2424.27 -14.8628 2424.27 -38.2943 2447.7C-61.7258 2471.13 -61.7258 2509.12 -38.2943 2532.55C-14.8628 2555.99 23.1271 2555.99 46.5585 2532.55Z" fill="white"/>
<path d="M310.198 2796.19C368.777 2737.61 368.777 2642.64 310.198 2584.06C251.619 2525.48 156.645 2525.48 98.066 2584.06C39.4874 2642.64 39.4874 2737.61 98.066 2796.19C156.645 2854.77 251.619 2854.77 310.198 2796.19Z" fill="white"/>
<path d="M92.7031 2690.13L204.132 2578.7L315.56 2690.13L204.132 2801.56L92.7031 2690.13Z" fill="url(#paint60_linear)"/>
<path d="M125.341 2768.92V2611.33H282.925V2768.92H125.341Z" fill="url(#paint61_linear)"/>
<path d="M246.559 2732.55C269.99 2709.12 269.99 2671.13 246.559 2647.7C223.127 2624.27 185.137 2624.27 161.706 2647.7C138.274 2671.13 138.274 2709.12 161.706 2732.55C185.137 2755.98 223.127 2755.98 246.559 2732.55Z" fill="white"/>
<path d="M510.198 2996.19C568.777 2937.61 568.777 2842.64 510.198 2784.06C451.619 2725.48 356.645 2725.48 298.066 2784.06C239.487 2842.64 239.487 2937.61 298.066 2996.19C356.645 3054.77 451.619 3054.77 510.198 2996.19Z" fill="white"/>
<path d="M292.703 2890.12L404.132 2778.7L515.56 2890.12L404.132 3001.55L292.703 2890.12Z" fill="url(#paint62_linear)"/>
<path d="M325.341 2968.92V2811.33H482.925V2968.92H325.341Z" fill="url(#paint63_linear)"/>
<path d="M446.559 2932.55C469.99 2909.12 469.99 2871.13 446.559 2847.7C423.127 2824.27 385.137 2824.27 361.706 2847.7C338.274 2871.13 338.274 2909.12 361.706 2932.55C385.137 2955.98 423.127 2955.98 446.559 2932.55Z" fill="white"/>
<path d="M710.198 3196.19C768.777 3137.61 768.777 3042.63 710.198 2984.06C651.619 2925.48 556.645 2925.48 498.066 2984.06C439.487 3042.63 439.487 3137.61 498.066 3196.19C556.645 3254.77 651.619 3254.77 710.198 3196.19Z" fill="white"/>
<path d="M525.341 3168.91V3011.33H682.925V3168.91H525.341Z" fill="url(#paint64_linear)"/>
<path d="M-89.802 2796.2C-31.2233 2737.62 -31.2233 2642.64 -89.802 2584.06C-148.381 2525.49 -243.355 2525.49 -301.934 2584.06C-360.513 2642.64 -360.513 2737.62 -301.934 2796.2C-243.355 2854.77 -148.381 2854.77 -89.802 2796.2Z" fill="white"/>
<path d="M110.198 2996.19C168.777 2937.62 168.777 2842.64 110.198 2784.06C51.6194 2725.48 -43.3553 2725.48 -101.934 2784.06C-160.513 2842.64 -160.513 2937.62 -101.934 2996.19C-43.3553 3054.77 51.6194 3054.77 110.198 2996.19Z" fill="white"/>
<path d="M-107.297 2890.13L4.13178 2778.7L115.56 2890.13L4.13178 3001.56L-107.297 2890.13Z" fill="url(#paint65_linear)"/>
<path d="M-74.6593 2968.92V2811.34H82.9245V2968.92H-74.6593Z" fill="url(#paint66_linear)"/>
<path d="M46.5585 2932.55C69.99 2909.12 69.99 2871.13 46.5585 2847.7C23.1271 2824.27 -14.8628 2824.27 -38.2943 2847.7C-61.7258 2871.13 -61.7258 2909.12 -38.2943 2932.55C-14.8628 2955.99 23.1271 2955.99 46.5585 2932.55Z" fill="white"/>
<path d="M310.198 3196.19C368.777 3137.61 368.777 3042.64 310.198 2984.06C251.619 2925.48 156.645 2925.48 98.066 2984.06C39.4874 3042.64 39.4874 3137.61 98.066 3196.19C156.645 3254.77 251.619 3254.77 310.198 3196.19Z" fill="white"/>
<path d="M125.341 3168.92V3011.33H282.925V3168.92H125.341Z" fill="url(#paint67_linear)"/>
<path d="M-89.802 396.202C-31.2233 337.623 -31.2233 242.649 -89.802 184.07C-148.381 125.491 -243.355 125.491 -301.934 184.07C-360.513 242.649 -360.513 337.623 -301.934 396.202C-243.355 454.781 -148.381 454.781 -89.802 396.202Z" fill="white"/>
<path d="M110.198 596.2C168.777 537.621 168.777 442.647 110.198 384.068C51.6194 325.489 -43.3553 325.489 -101.934 384.068C-160.513 442.647 -160.513 537.621 -101.934 596.2C-43.3553 654.779 51.6194 654.779 110.198 596.2Z" fill="white"/>
<path d="M-107.297 490.135L4.13178 378.706L115.56 490.135L4.13178 601.563L-107.297 490.135Z" fill="url(#paint68_linear)"/>
<path d="M-74.6593 568.925V411.342H82.9245V568.925H-74.6593Z" fill="url(#paint69_linear)"/>
<path d="M46.5585 532.56C69.99 509.129 69.99 471.139 46.5585 447.708C23.1271 424.276 -14.8628 424.276 -38.2943 447.708C-61.7258 471.139 -61.7258 509.129 -38.2943 532.56C-14.8628 555.992 23.1271 555.992 46.5585 532.56Z" fill="white"/>
<path d="M310.198 796.198C368.777 737.619 368.777 642.644 310.198 584.066C251.619 525.487 156.645 525.487 98.066 584.066C39.4874 642.644 39.4874 737.619 98.066 796.198C156.645 854.776 251.619 854.776 310.198 796.198Z" fill="white"/>
<path d="M92.7031 690.132L204.132 578.704L315.56 690.132L204.132 801.561L92.7031 690.132Z" fill="url(#paint70_linear)"/>
<path d="M125.341 768.923V611.339H282.925V768.923H125.341Z" fill="url(#paint71_linear)"/>
<path d="M246.559 732.558C269.99 709.127 269.99 671.137 246.559 647.705C223.127 624.274 185.137 624.274 161.706 647.705C138.274 671.137 138.274 709.127 161.706 732.558C185.137 755.99 223.127 755.99 246.559 732.558Z" fill="white"/>
<path d="M510.198 996.196C568.777 937.617 568.777 842.643 510.198 784.064C451.619 725.485 356.645 725.485 298.066 784.064C239.487 842.643 239.487 937.617 298.066 996.196C356.645 1054.77 451.619 1054.77 510.198 996.196Z" fill="white"/>
<path d="M292.703 890.13L404.132 778.702L515.56 890.13L404.132 1001.56L292.703 890.13Z" fill="url(#paint72_linear)"/>
<path d="M325.341 968.921V811.337H482.925V968.921H325.341Z" fill="url(#paint73_linear)"/>
<path d="M446.559 932.556C469.99 909.125 469.99 871.135 446.559 847.703C423.127 824.272 385.137 824.272 361.706 847.703C338.274 871.135 338.274 909.125 361.706 932.556C385.137 955.988 423.127 955.988 446.559 932.556Z" fill="white"/>
<path d="M710.198 1196.19C768.777 1137.62 768.777 1042.64 710.198 984.062C651.619 925.483 556.645 925.483 498.066 984.062C439.487 1042.64 439.487 1137.62 498.066 1196.19C556.645 1254.77 651.619 1254.77 710.198 1196.19Z" fill="white"/>
<path d="M492.703 1090.13L604.132 978.7L715.56 1090.13L604.132 1201.56L492.703 1090.13Z" fill="url(#paint74_linear)"/>
<path d="M525.341 1168.92V1011.34H682.925V1168.92H525.341Z" fill="url(#paint75_linear)"/>
<path d="M646.559 1132.55C669.99 1109.12 669.99 1071.13 646.559 1047.7C623.127 1024.27 585.137 1024.27 561.706 1047.7C538.274 1071.13 538.274 1109.12 561.706 1132.55C585.137 1155.99 623.127 1155.99 646.559 1132.55Z" fill="white"/>
<path d="M910.198 1396.19C968.777 1337.61 968.777 1242.64 910.198 1184.06C851.619 1125.48 756.645 1125.48 698.066 1184.06C639.487 1242.64 639.487 1337.61 698.066 1396.19C756.645 1454.77 851.619 1454.77 910.198 1396.19Z" fill="white"/>
<path d="M692.703 1290.13L804.132 1178.7L915.56 1290.13L804.132 1401.56L692.703 1290.13Z" fill="url(#paint76_linear)"/>
<path d="M725.341 1368.92V1211.33H882.925V1368.92H725.341Z" fill="url(#paint77_linear)"/>
<path d="M846.559 1332.55C869.99 1309.12 869.99 1271.13 846.559 1247.7C823.127 1224.27 785.137 1224.27 761.706 1247.7C738.274 1271.13 738.274 1309.12 761.706 1332.55C785.137 1355.98 823.127 1355.98 846.559 1332.55Z" fill="white"/>
<path d="M1110.2 1596.19C1168.78 1537.61 1168.78 1442.64 1110.2 1384.06C1051.62 1325.48 956.645 1325.48 898.066 1384.06C839.487 1442.64 839.487 1537.61 898.066 1596.19C956.645 1654.77 1051.62 1654.77 1110.2 1596.19Z" fill="white"/>
<path d="M892.703 1490.12L1004.13 1378.7L1115.56 1490.12L1004.13 1601.55L892.703 1490.12Z" fill="url(#paint78_linear)"/>
<path d="M925.341 1568.92V1411.33H1082.92V1568.92H925.341Z" fill="url(#paint79_linear)"/>
<path d="M1046.56 1532.55C1069.99 1509.12 1069.99 1471.13 1046.56 1447.7C1023.13 1424.27 985.137 1424.27 961.706 1447.7C938.274 1471.13 938.274 1509.12 961.706 1532.55C985.137 1555.98 1023.13 1555.98 1046.56 1532.55Z" fill="white"/>
<path d="M1310.2 1796.19C1368.78 1737.61 1368.78 1642.63 1310.2 1584.06C1251.62 1525.48 1156.64 1525.48 1098.07 1584.06C1039.49 1642.63 1039.49 1737.61 1098.07 1796.19C1156.64 1854.77 1251.62 1854.77 1310.2 1796.19Z" fill="white"/>
<path d="M1092.7 1690.12L1204.13 1578.69L1315.56 1690.12L1204.13 1801.55L1092.7 1690.12Z" fill="url(#paint80_linear)"/>
<path d="M1125.34 1768.91V1611.33H1282.92V1768.91H1125.34Z" fill="url(#paint81_linear)"/>
<path d="M1246.56 1732.55C1269.99 1709.12 1269.99 1671.13 1246.56 1647.7C1223.13 1624.26 1185.14 1624.26 1161.71 1647.7C1138.27 1671.13 1138.27 1709.12 1161.71 1732.55C1185.14 1755.98 1223.13 1755.98 1246.56 1732.55Z" fill="white"/>
<path d="M1510.2 1996.19C1568.78 1937.61 1568.78 1842.63 1510.2 1784.05C1451.62 1725.48 1356.64 1725.48 1298.07 1784.05C1239.49 1842.63 1239.49 1937.61 1298.07 1996.19C1356.64 2054.76 1451.62 2054.76 1510.2 1996.19Z" fill="white"/>
<path d="M1292.7 1890.12L1404.13 1778.69L1515.56 1890.12L1404.13 2001.55L1292.7 1890.12Z" fill="url(#paint82_linear)"/>
<path d="M1325.34 1968.91V1811.33H1482.92V1968.91H1325.34Z" fill="url(#paint83_linear)"/>
<path d="M1446.56 1932.55C1469.99 1909.12 1469.99 1871.13 1446.56 1847.69C1423.13 1824.26 1385.14 1824.26 1361.71 1847.69C1338.27 1871.13 1338.27 1909.12 1361.71 1932.55C1385.14 1955.98 1423.13 1955.98 1446.56 1932.55Z" fill="white"/>
<path d="M1710.2 2196.18C1768.78 2137.61 1768.78 2042.63 1710.2 1984.05C1651.62 1925.47 1556.64 1925.47 1498.07 1984.05C1439.49 2042.63 1439.49 2137.61 1498.07 2196.18C1556.64 2254.76 1651.62 2254.76 1710.2 2196.18Z" fill="white"/>
<path d="M110.198 196.202C168.777 137.623 168.777 42.6486 110.198 -15.93C51.6194 -74.5087 -43.3553 -74.5087 -101.934 -15.93C-160.513 42.6486 -160.513 137.623 -101.934 196.202C-43.3553 254.781 51.6194 254.781 110.198 196.202Z" fill="white"/>
<path d="M-107.297 90.1365L4.13178 -21.2922L115.56 90.1365L4.13178 201.565L-107.297 90.1365Z" fill="url(#paint84_linear)"/>
<path d="M-74.6593 168.927V11.3436H82.9245V168.927H-74.6593Z" fill="url(#paint85_linear)"/>
<path d="M46.5585 132.562C69.99 109.131 69.99 71.141 46.5585 47.7096C23.1271 24.2781 -14.8628 24.2781 -38.2943 47.7096C-61.7258 71.141 -61.7258 109.131 -38.2943 132.562C-14.8628 155.994 23.1271 155.994 46.5585 132.562Z" fill="white"/>
<path d="M310.198 396.204C368.777 337.626 368.777 242.651 310.198 184.072C251.619 125.494 156.645 125.494 98.066 184.072C39.4874 242.651 39.4874 337.626 98.066 396.204C156.645 454.783 251.619 454.783 310.198 396.204Z" fill="white"/>
<path d="M92.7031 290.139L204.132 178.71L315.56 290.139L204.132 401.567L92.7031 290.139Z" fill="url(#paint86_linear)"/>
<path d="M125.341 368.93V211.346H282.925V368.93H125.341Z" fill="url(#paint87_linear)"/>
<path d="M246.559 332.565C269.99 309.133 269.99 271.143 246.559 247.712C223.127 224.28 185.137 224.28 161.706 247.712C138.274 271.143 138.274 309.133 161.706 332.565C185.137 355.996 223.127 355.996 246.559 332.565Z" fill="white"/>
<path d="M510.198 596.202C568.777 537.623 568.777 442.649 510.198 384.07C451.619 325.491 356.645 325.491 298.066 384.07C239.487 442.649 239.487 537.623 298.066 596.202C356.645 654.781 451.619 654.781 510.198 596.202Z" fill="white"/>
<path d="M292.703 490.136L404.132 378.708L515.56 490.136L404.132 601.565L292.703 490.136Z" fill="url(#paint88_linear)"/>
<path d="M325.341 568.927V411.344H482.925V568.927H325.341Z" fill="url(#paint89_linear)"/>
<path d="M446.559 532.562C469.99 509.131 469.99 471.141 446.559 447.71C423.127 424.278 385.137 424.278 361.706 447.71C338.274 471.141 338.274 509.131 361.706 532.562C385.137 555.994 423.127 555.994 446.559 532.562Z" fill="white"/>
<path d="M710.198 796.2C768.777 737.621 768.777 642.647 710.198 584.068C651.619 525.489 556.645 525.489 498.066 584.068C439.487 642.647 439.487 737.621 498.066 796.2C556.645 854.779 651.619 854.779 710.198 796.2Z" fill="white"/>
<path d="M492.703 690.135L604.132 578.706L715.56 690.135L604.132 801.563L492.703 690.135Z" fill="url(#paint90_linear)"/>
<path d="M525.341 768.925V611.342H682.925V768.925H525.341Z" fill="url(#paint91_linear)"/>
<path d="M646.559 732.56C669.99 709.129 669.99 671.139 646.559 647.708C623.127 624.276 585.137 624.276 561.706 647.708C538.274 671.139 538.274 709.129 561.706 732.56C585.137 755.992 623.127 755.992 646.559 732.56Z" fill="white"/>
<path d="M910.198 996.198C968.777 937.619 968.777 842.645 910.198 784.066C851.619 725.487 756.645 725.487 698.066 784.066C639.487 842.645 639.487 937.619 698.066 996.198C756.645 1054.78 851.619 1054.78 910.198 996.198Z" fill="white"/>
<path d="M692.703 890.133L804.132 778.704L915.56 890.133L804.132 1001.56L692.703 890.133Z" fill="url(#paint92_linear)"/>
<path d="M725.341 968.923V811.34H882.925V968.923H725.341Z" fill="url(#paint93_linear)"/>
<path d="M846.559 932.558C869.99 909.127 869.99 871.137 846.559 847.706C823.127 824.274 785.137 824.274 761.706 847.706C738.274 871.137 738.274 909.127 761.706 932.558C785.137 955.99 823.127 955.99 846.559 932.558Z" fill="white"/>
<path d="M1110.2 1196.2C1168.78 1137.62 1168.78 1042.64 1110.2 984.064C1051.62 925.485 956.645 925.485 898.066 984.064C839.487 1042.64 839.487 1137.62 898.066 1196.2C956.645 1254.77 1051.62 1254.77 1110.2 1196.2Z" fill="white"/>
<path d="M892.703 1090.13L1004.13 978.702L1115.56 1090.13L1004.13 1201.56L892.703 1090.13Z" fill="url(#paint94_linear)"/>
<path d="M925.341 1168.92V1011.34H1082.92V1168.92H925.341Z" fill="url(#paint95_linear)"/>
<path d="M1046.56 1132.56C1069.99 1109.12 1069.99 1071.13 1046.56 1047.7C1023.13 1024.27 985.137 1024.27 961.706 1047.7C938.274 1071.13 938.274 1109.12 961.706 1132.56C985.137 1155.99 1023.13 1155.99 1046.56 1132.56Z" fill="white"/>
<path d="M1310.2 1396.19C1368.78 1337.62 1368.78 1242.64 1310.2 1184.06C1251.62 1125.48 1156.64 1125.48 1098.07 1184.06C1039.49 1242.64 1039.49 1337.62 1098.07 1396.19C1156.64 1454.77 1251.62 1454.77 1310.2 1396.19Z" fill="white"/>
<path d="M1092.7 1290.13L1204.13 1178.7L1315.56 1290.13L1204.13 1401.56L1092.7 1290.13Z" fill="url(#paint96_linear)"/>
<path d="M1125.34 1368.92V1211.34H1282.92V1368.92H1125.34Z" fill="url(#paint97_linear)"/>
<path d="M1246.56 1332.55C1269.99 1309.12 1269.99 1271.13 1246.56 1247.7C1223.13 1224.27 1185.14 1224.27 1161.71 1247.7C1138.27 1271.13 1138.27 1309.12 1161.71 1332.55C1185.14 1355.99 1223.13 1355.99 1246.56 1332.55Z" fill="white"/>
<path d="M1510.2 1596.19C1568.78 1537.61 1568.78 1442.64 1510.2 1384.06C1451.62 1325.48 1356.64 1325.48 1298.07 1384.06C1239.49 1442.64 1239.49 1537.61 1298.07 1596.19C1356.64 1654.77 1451.62 1654.77 1510.2 1596.19Z" fill="white"/>
<path d="M1292.7 1490.13L1404.13 1378.7L1515.56 1490.13L1404.13 1601.56L1292.7 1490.13Z" fill="url(#paint98_linear)"/>
<path d="M1325.34 1568.92V1411.33H1482.92V1568.92H1325.34Z" fill="url(#paint99_linear)"/>
<path d="M1446.56 1532.55C1469.99 1509.12 1469.99 1471.13 1446.56 1447.7C1423.13 1424.27 1385.14 1424.27 1361.71 1447.7C1338.27 1471.13 1338.27 1509.12 1361.71 1532.55C1385.14 1555.98 1423.13 1555.98 1446.56 1532.55Z" fill="white"/>
<path d="M1710.2 1796.19C1768.78 1737.61 1768.78 1642.64 1710.2 1584.06C1651.62 1525.48 1556.64 1525.48 1498.07 1584.06C1439.49 1642.64 1439.49 1737.61 1498.07 1796.19C1556.64 1854.77 1651.62 1854.77 1710.2 1796.19Z" fill="white"/>
<path d="M510.198 196.204C568.777 137.626 568.777 42.6508 510.198 -15.9278C451.619 -74.5065 356.645 -74.5065 298.066 -15.9278C239.487 42.6508 239.487 137.626 298.066 196.204C356.645 254.783 451.619 254.783 510.198 196.204Z" fill="white"/>
<path d="M292.703 90.1387L404.132 -21.29L515.56 90.1387L404.132 201.567L292.703 90.1387Z" fill="url(#paint100_linear)"/>
<path d="M325.341 168.93V11.3458H482.925V168.93H325.341Z" fill="url(#paint101_linear)"/>
<path d="M446.559 132.565C469.99 109.133 469.99 71.1432 446.559 47.7118C423.127 24.2803 385.137 24.2803 361.706 47.7118C338.274 71.1432 338.274 109.133 361.706 132.565C385.137 155.996 423.127 155.996 446.559 132.565Z" fill="white"/>
<path d="M710.198 396.206C768.777 337.628 768.777 242.653 710.198 184.074C651.619 125.495 556.645 125.495 498.066 184.074C439.487 242.653 439.487 337.628 498.066 396.206C556.645 454.785 651.619 454.785 710.198 396.206Z" fill="white"/>
<path d="M492.703 290.141L604.132 178.712L715.56 290.141L604.132 401.569L492.703 290.141Z" fill="url(#paint102_linear)"/>
<path d="M525.341 368.932V211.348H682.925V368.932H525.341Z" fill="url(#paint103_linear)"/>
<path d="M646.559 332.567C669.99 309.135 669.99 271.145 646.559 247.714C623.127 224.282 585.137 224.282 561.706 247.714C538.274 271.145 538.274 309.135 561.706 332.567C585.137 355.998 623.127 355.998 646.559 332.567Z" fill="white"/>
<path d="M910.198 596.204C968.777 537.626 968.777 442.651 910.198 384.072C851.619 325.494 756.645 325.494 698.066 384.072C639.487 442.651 639.487 537.626 698.066 596.204C756.645 654.783 851.619 654.783 910.198 596.204Z" fill="white"/>
<path d="M692.703 490.139L804.132 378.71L915.56 490.139L804.132 601.567L692.703 490.139Z" fill="url(#paint104_linear)"/>
<path d="M725.341 568.93V411.346H882.925V568.93H725.341Z" fill="url(#paint105_linear)"/>
<path d="M846.559 532.565C869.99 509.133 869.99 471.143 846.559 447.712C823.127 424.28 785.137 424.28 761.706 447.712C738.274 471.143 738.274 509.133 761.706 532.565C785.137 555.996 823.127 555.996 846.559 532.565Z" fill="white"/>
<path d="M1110.2 796.202C1168.78 737.624 1168.78 642.649 1110.2 584.07C1051.62 525.492 956.645 525.492 898.066 584.07C839.487 642.649 839.487 737.624 898.066 796.202C956.645 854.781 1051.62 854.781 1110.2 796.202Z" fill="white"/>
<path d="M892.703 690.137L1004.13 578.708L1115.56 690.137L1004.13 801.565L892.703 690.137Z" fill="url(#paint106_linear)"/>
<path d="M925.341 768.928V611.344H1082.92V768.928H925.341Z" fill="url(#paint107_linear)"/>
<path d="M1046.56 732.563C1069.99 709.131 1069.99 671.141 1046.56 647.71C1023.13 624.278 985.137 624.278 961.706 647.71C938.274 671.141 938.274 709.131 961.706 732.563C985.137 755.994 1023.13 755.994 1046.56 732.563Z" fill="white"/>
<path d="M1310.2 996.2C1368.78 937.621 1368.78 842.647 1310.2 784.068C1251.62 725.489 1156.64 725.489 1098.07 784.068C1039.49 842.647 1039.49 937.621 1098.07 996.2C1156.64 1054.78 1251.62 1054.78 1310.2 996.2Z" fill="white"/>
<path d="M1092.7 890.135L1204.13 778.706L1315.56 890.135L1204.13 1001.56L1092.7 890.135Z" fill="url(#paint108_linear)"/>
<path d="M1125.34 968.925V811.342H1282.92V968.925H1125.34Z" fill="url(#paint109_linear)"/>
<path d="M1246.56 932.56C1269.99 909.129 1269.99 871.139 1246.56 847.708C1223.13 824.276 1185.14 824.276 1161.71 847.708C1138.27 871.139 1138.27 909.129 1161.71 932.56C1185.14 955.992 1223.13 955.992 1246.56 932.56Z" fill="white"/>
<path d="M1510.2 1196.2C1568.78 1137.62 1568.78 1042.64 1510.2 984.066C1451.62 925.487 1356.64 925.487 1298.07 984.066C1239.49 1042.64 1239.49 1137.62 1298.07 1196.2C1356.64 1254.78 1451.62 1254.78 1510.2 1196.2Z" fill="white"/>
<path d="M1292.7 1090.13L1404.13 978.704L1515.56 1090.13L1404.13 1201.56L1292.7 1090.13Z" fill="url(#paint110_linear)"/>
<path d="M1325.34 1168.92V1011.34H1482.92V1168.92H1325.34Z" fill="url(#paint111_linear)"/>
<path d="M1446.56 1132.56C1469.99 1109.13 1469.99 1071.14 1446.56 1047.71C1423.13 1024.27 1385.14 1024.27 1361.71 1047.71C1338.27 1071.14 1338.27 1109.13 1361.71 1132.56C1385.14 1155.99 1423.13 1155.99 1446.56 1132.56Z" fill="white"/>
<path d="M1710.2 1396.2C1768.78 1337.62 1768.78 1242.64 1710.2 1184.06C1651.62 1125.49 1556.64 1125.49 1498.07 1184.06C1439.49 1242.64 1439.49 1337.62 1498.07 1396.2C1556.64 1454.77 1651.62 1454.77 1710.2 1396.2Z" fill="white"/>
<path d="M910.198 196.206C968.777 137.628 968.777 42.6528 910.198 -15.9259C851.619 -74.5045 756.645 -74.5045 698.066 -15.9259C639.487 42.6528 639.487 137.628 698.066 196.206C756.645 254.785 851.619 254.785 910.198 196.206Z" fill="white"/>
<path d="M692.703 90.1406L804.132 -21.288L915.56 90.1406L804.132 201.569L692.703 90.1406Z" fill="url(#paint112_linear)"/>
<path d="M725.341 168.932V11.3477H882.925V168.932H725.341Z" fill="url(#paint113_linear)"/>
<path d="M846.559 132.567C869.99 109.135 869.99 71.1452 846.559 47.7137C823.127 24.2823 785.137 24.2823 761.706 47.7137C738.274 71.1452 738.274 109.135 761.706 132.567C785.137 155.998 823.127 155.998 846.559 132.567Z" fill="white"/>
<path d="M1110.2 396.208C1168.78 337.629 1168.78 242.655 1110.2 184.076C1051.62 125.497 956.645 125.497 898.066 184.076C839.487 242.655 839.487 337.629 898.066 396.208C956.645 454.787 1051.62 454.787 1110.2 396.208Z" fill="white"/>
<path d="M892.703 290.143L1004.13 178.714L1115.56 290.143L1004.13 401.571L892.703 290.143Z" fill="url(#paint114_linear)"/>
<path d="M925.341 368.934V211.35H1082.92V368.934H925.341Z" fill="url(#paint115_linear)"/>
<path d="M1046.56 332.568C1069.99 309.137 1069.99 271.147 1046.56 247.716C1023.13 224.284 985.137 224.284 961.706 247.716C938.274 271.147 938.274 309.137 961.706 332.568C985.137 356 1023.13 356 1046.56 332.568Z" fill="white"/>
<path d="M1310.2 596.206C1368.78 537.628 1368.78 442.653 1310.2 384.074C1251.62 325.495 1156.64 325.495 1098.07 384.074C1039.49 442.653 1039.49 537.628 1098.07 596.206C1156.64 654.785 1251.62 654.785 1310.2 596.206Z" fill="white"/>
<path d="M1092.7 490.141L1204.13 378.712L1315.56 490.141L1204.13 601.569L1092.7 490.141Z" fill="url(#paint116_linear)"/>
<path d="M1125.34 568.932V411.348H1282.92V568.932H1125.34Z" fill="url(#paint117_linear)"/>
<path d="M1246.56 532.567C1269.99 509.135 1269.99 471.145 1246.56 447.714C1223.13 424.282 1185.14 424.282 1161.71 447.714C1138.27 471.145 1138.27 509.135 1161.71 532.567C1185.14 555.998 1223.13 555.998 1246.56 532.567Z" fill="white"/>
<path d="M1510.2 796.204C1568.78 737.626 1568.78 642.651 1510.2 584.072C1451.62 525.494 1356.64 525.494 1298.07 584.072C1239.49 642.651 1239.49 737.626 1298.07 796.204C1356.64 854.783 1451.62 854.783 1510.2 796.204Z" fill="white"/>
<path d="M1292.7 690.139L1404.13 578.71L1515.56 690.139L1404.13 801.567L1292.7 690.139Z" fill="url(#paint118_linear)"/>
<path d="M1325.34 768.93V611.346H1482.92V768.93H1325.34Z" fill="url(#paint119_linear)"/>
<path d="M1446.56 732.565C1469.99 709.133 1469.99 671.143 1446.56 647.712C1423.13 624.28 1385.14 624.28 1361.71 647.712C1338.27 671.143 1338.27 709.133 1361.71 732.565C1385.14 755.996 1423.13 755.996 1446.56 732.565Z" fill="white"/>
<path d="M1710.2 996.202C1768.78 937.623 1768.78 842.649 1710.2 784.07C1651.62 725.491 1556.64 725.491 1498.07 784.07C1439.49 842.649 1439.49 937.623 1498.07 996.202C1556.64 1054.78 1651.62 1054.78 1710.2 996.202Z" fill="white"/>
<path d="M1310.2 196.208C1368.78 137.629 1368.78 42.6547 1310.2 -15.9239C1251.62 -74.5026 1156.64 -74.5026 1098.07 -15.9239C1039.49 42.6547 1039.49 137.629 1098.07 196.208C1156.64 254.787 1251.62 254.787 1310.2 196.208Z" fill="white"/>
<path d="M1092.7 90.1426L1204.13 -21.2861L1315.56 90.1426L1204.13 201.571L1092.7 90.1426Z" fill="url(#paint120_linear)"/>
<path d="M1125.34 168.934V11.3497H1282.92V168.934H1125.34Z" fill="url(#paint121_linear)"/>
<path d="M1246.56 132.568C1269.99 109.137 1269.99 71.1471 1246.56 47.7157C1223.13 24.2842 1185.14 24.2842 1161.71 47.7157C1138.27 71.1471 1138.27 109.137 1161.71 132.568C1185.14 156 1223.13 156 1246.56 132.568Z" fill="white"/>
<path d="M1510.2 396.21C1568.78 337.631 1568.78 242.657 1510.2 184.078C1451.62 125.499 1356.64 125.499 1298.07 184.078C1239.49 242.657 1239.49 337.631 1298.07 396.21C1356.64 454.789 1451.62 454.789 1510.2 396.21Z" fill="white"/>
<path d="M1292.7 290.145L1404.13 178.716L1515.56 290.145L1404.13 401.573L1292.7 290.145Z" fill="url(#paint122_linear)"/>
<path d="M1325.34 368.935V211.352H1482.92V368.935H1325.34Z" fill="url(#paint123_linear)"/>
<path d="M1446.56 332.57C1469.99 309.139 1469.99 271.149 1446.56 247.718C1423.13 224.286 1385.14 224.286 1361.71 247.718C1338.27 271.149 1338.27 309.139 1361.71 332.57C1385.14 356.002 1423.13 356.002 1446.56 332.57Z" fill="white"/>
<path d="M1710.2 596.208C1768.78 537.629 1768.78 442.655 1710.2 384.076C1651.62 325.497 1556.64 325.497 1498.07 384.076C1439.49 442.655 1439.49 537.629 1498.07 596.208C1556.64 654.787 1651.62 654.787 1710.2 596.208Z" fill="white"/>
<path d="M1710.2 196.21C1768.78 137.631 1768.78 42.6567 1710.2 -15.922C1651.62 -74.5006 1556.64 -74.5006 1498.07 -15.922C1439.49 42.6567 1439.49 137.631 1498.07 196.21C1556.64 254.789 1651.62 254.789 1710.2 196.21Z" fill="white"/>
</g>
<defs>
<linearGradient id="paint0_linear" x1="-122.086" y1="890.331" x2="129.742" y2="890.534" gradientUnits="userSpaceOnUse">
<stop stop-color="#C00000"/>
<stop offset="1" stop-color="#FF4300"/>
</linearGradient>
<linearGradient id="paint1_linear" x1="-122.086" y1="890.33" x2="129.743" y2="890.533" gradientUnits="userSpaceOnUse">
<stop stop-color="#C00000"/>
<stop offset="1" stop-color="#FF4300"/>
</linearGradient>
<linearGradient id="paint2_linear" x1="77.9135" y1="1090.33" x2="329.742" y2="1090.53" gradientUnits="userSpaceOnUse">
<stop stop-color="#C00000"/>
<stop offset="1" stop-color="#FF4300"/>
</linearGradient>
<linearGradient id="paint3_linear" x1="77.9144" y1="1090.33" x2="329.743" y2="1090.53" gradientUnits="userSpaceOnUse">
<stop stop-color="#C00000"/>
<stop offset="1" stop-color="#FF4300"/>
</linearGradient>
<linearGradient id="paint4_linear" x1="277.914" y1="1290.33" x2="529.742" y2="1290.53" gradientUnits="userSpaceOnUse">
<stop stop-color="#C00000"/>
<stop offset="1" stop-color="#FF4300"/>
</linearGradient>
<linearGradient id="paint5_linear" x1="277.914" y1="1290.33" x2="529.743" y2="1290.53" gradientUnits="userSpaceOnUse">
<stop stop-color="#C00000"/>
<stop offset="1" stop-color="#FF4300"/>
</linearGradient>
<linearGradient id="paint6_linear" x1="477.914" y1="1490.33" x2="729.742" y2="1490.53" gradientUnits="userSpaceOnUse">
<stop stop-color="#C00000"/>
<stop offset="1" stop-color="#FF4300"/>
</linearGradient>
<linearGradient id="paint7_linear" x1="477.914" y1="1490.32" x2="729.743" y2="1490.53" gradientUnits="userSpaceOnUse">
<stop stop-color="#C00000"/>
<stop offset="1" stop-color="#FF4300"/>
</linearGradient>
<linearGradient id="paint8_linear" x1="677.914" y1="1690.32" x2="929.742" y2="1690.53" gradientUnits="userSpaceOnUse">
<stop stop-color="#C00000"/>
<stop offset="1" stop-color="#FF4300"/>
</linearGradient>
<linearGradient id="paint9_linear" x1="677.914" y1="1690.32" x2="929.743" y2="1690.53" gradientUnits="userSpaceOnUse">
<stop stop-color="#C00000"/>
<stop offset="1" stop-color="#FF4300"/>
</linearGradient>
<linearGradient id="paint10_linear" x1="877.914" y1="1890.32" x2="1129.74" y2="1890.52" gradientUnits="userSpaceOnUse">
<stop stop-color="#C00000"/>
<stop offset="1" stop-color="#FF4300"/>
</linearGradient>
<linearGradient id="paint11_linear" x1="877.914" y1="1890.32" x2="1129.74" y2="1890.52" gradientUnits="userSpaceOnUse">
<stop stop-color="#C00000"/>
<stop offset="1" stop-color="#FF4300"/>
</linearGradient>
<linearGradient id="paint12_linear" x1="1077.91" y1="2090.32" x2="1329.74" y2="2090.52" gradientUnits="userSpaceOnUse">
<stop stop-color="#C00000"/>
<stop offset="1" stop-color="#FF4300"/>
</linearGradient>
<linearGradient id="paint13_linear" x1="1077.91" y1="2090.32" x2="1329.74" y2="2090.52" gradientUnits="userSpaceOnUse">
<stop stop-color="#C00000"/>
<stop offset="1" stop-color="#FF4300"/>
</linearGradient>
<linearGradient id="paint14_linear" x1="1277.91" y1="2290.32" x2="1529.74" y2="2290.52" gradientUnits="userSpaceOnUse">
<stop stop-color="#C00000"/>
<stop offset="1" stop-color="#FF4300"/>
</linearGradient>
<linearGradient id="paint15_linear" x1="1277.91" y1="2290.32" x2="1529.74" y2="2290.52" gradientUnits="userSpaceOnUse">
<stop stop-color="#C00000"/>
<stop offset="1" stop-color="#FF4300"/>
</linearGradient>
<linearGradient id="paint16_linear" x1="-122.086" y1="1290.33" x2="129.742" y2="1290.53" gradientUnits="userSpaceOnUse">
<stop stop-color="#C00000"/>
<stop offset="1" stop-color="#FF4300"/>
</linearGradient>
<linearGradient id="paint17_linear" x1="-122.086" y1="1290.33" x2="129.743" y2="1290.53" gradientUnits="userSpaceOnUse">
<stop stop-color="#C00000"/>
<stop offset="1" stop-color="#FF4300"/>
</linearGradient>
<linearGradient id="paint18_linear" x1="77.9135" y1="1490.33" x2="329.742" y2="1490.53" gradientUnits="userSpaceOnUse">
<stop stop-color="#C00000"/>
<stop offset="1" stop-color="#FF4300"/>
</linearGradient>
<linearGradient id="paint19_linear" x1="77.9144" y1="1490.33" x2="329.743" y2="1490.53" gradientUnits="userSpaceOnUse">
<stop stop-color="#C00000"/>
<stop offset="1" stop-color="#FF4300"/>
</linearGradient>
<linearGradient id="paint20_linear" x1="277.914" y1="1690.33" x2="529.742" y2="1690.53" gradientUnits="userSpaceOnUse">
<stop stop-color="#C00000"/>
<stop offset="1" stop-color="#FF4300"/>
</linearGradient>
<linearGradient id="paint21_linear" x1="277.914" y1="1690.33" x2="529.743" y2="1690.53" gradientUnits="userSpaceOnUse">
<stop stop-color="#C00000"/>
<stop offset="1" stop-color="#FF4300"/>
</linearGradient>
<linearGradient id="paint22_linear" x1="477.914" y1="1890.33" x2="729.742" y2="1890.53" gradientUnits="userSpaceOnUse">
<stop stop-color="#C00000"/>
<stop offset="1" stop-color="#FF4300"/>
</linearGradient>
<linearGradient id="paint23_linear" x1="477.914" y1="1890.32" x2="729.743" y2="1890.53" gradientUnits="userSpaceOnUse">
<stop stop-color="#C00000"/>
<stop offset="1" stop-color="#FF4300"/>
</linearGradient>
<linearGradient id="paint24_linear" x1="677.914" y1="2090.32" x2="929.742" y2="2090.53" gradientUnits="userSpaceOnUse">
<stop stop-color="#C00000"/>
<stop offset="1" stop-color="#FF4300"/>
</linearGradient>
<linearGradient id="paint25_linear" x1="677.914" y1="2090.32" x2="929.743" y2="2090.53" gradientUnits="userSpaceOnUse">
<stop stop-color="#C00000"/>
<stop offset="1" stop-color="#FF4300"/>
</linearGradient>
<linearGradient id="paint26_linear" x1="877.914" y1="2290.32" x2="1129.74" y2="2290.52" gradientUnits="userSpaceOnUse">
<stop stop-color="#C00000"/>
<stop offset="1" stop-color="#FF4300"/>
</linearGradient>
<linearGradient id="paint27_linear" x1="877.914" y1="2290.32" x2="1129.74" y2="2290.52" gradientUnits="userSpaceOnUse">
<stop stop-color="#C00000"/>
<stop offset="1" stop-color="#FF4300"/>
</linearGradient>
<linearGradient id="paint28_linear" x1="1077.91" y1="2490.32" x2="1329.74" y2="2490.52" gradientUnits="userSpaceOnUse">
<stop stop-color="#C00000"/>
<stop offset="1" stop-color="#FF4300"/>
</linearGradient>
<linearGradient id="paint29_linear" x1="1077.91" y1="2490.32" x2="1329.74" y2="2490.52" gradientUnits="userSpaceOnUse">
<stop stop-color="#C00000"/>
<stop offset="1" stop-color="#FF4300"/>
</linearGradient>
<linearGradient id="paint30_linear" x1="1277.91" y1="2690.32" x2="1529.74" y2="2690.52" gradientUnits="userSpaceOnUse">
<stop stop-color="#C00000"/>
<stop offset="1" stop-color="#FF4300"/>
</linearGradient>
<linearGradient id="paint31_linear" x1="1277.91" y1="2690.32" x2="1529.74" y2="2690.52" gradientUnits="userSpaceOnUse">
<stop stop-color="#C00000"/>
<stop offset="1" stop-color="#FF4300"/>
</linearGradient>
<linearGradient id="paint32_linear" x1="-122.086" y1="1690.33" x2="129.742" y2="1690.53" gradientUnits="userSpaceOnUse">
<stop stop-color="#C00000"/>
<stop offset="1" stop-color="#FF4300"/>
</linearGradient>
<linearGradient id="paint33_linear" x1="-122.086" y1="1690.33" x2="129.743" y2="1690.53" gradientUnits="userSpaceOnUse">
<stop stop-color="#C00000"/>
<stop offset="1" stop-color="#FF4300"/>
</linearGradient>
<linearGradient id="paint34_linear" x1="77.9135" y1="1890.33" x2="329.742" y2="1890.53" gradientUnits="userSpaceOnUse">
<stop stop-color="#C00000"/>
<stop offset="1" stop-color="#FF4300"/>
</linearGradient>
<linearGradient id="paint35_linear" x1="77.9144" y1="1890.33" x2="329.743" y2="1890.53" gradientUnits="userSpaceOnUse">
<stop stop-color="#C00000"/>
<stop offset="1" stop-color="#FF4300"/>
</linearGradient>
<linearGradient id="paint36_linear" x1="277.914" y1="2090.33" x2="529.742" y2="2090.53" gradientUnits="userSpaceOnUse">
<stop stop-color="#C00000"/>
<stop offset="1" stop-color="#FF4300"/>
</linearGradient>
<linearGradient id="paint37_linear" x1="277.914" y1="2090.33" x2="529.743" y2="2090.53" gradientUnits="userSpaceOnUse">
<stop stop-color="#C00000"/>
<stop offset="1" stop-color="#FF4300"/>
</linearGradient>
<linearGradient id="paint38_linear" x1="477.914" y1="2290.33" x2="729.742" y2="2290.53" gradientUnits="userSpaceOnUse">
<stop stop-color="#C00000"/>
<stop offset="1" stop-color="#FF4300"/>
</linearGradient>
<linearGradient id="paint39_linear" x1="477.914" y1="2290.32" x2="729.743" y2="2290.53" gradientUnits="userSpaceOnUse">
<stop stop-color="#C00000"/>
<stop offset="1" stop-color="#FF4300"/>
</linearGradient>
<linearGradient id="paint40_linear" x1="677.914" y1="2490.32" x2="929.742" y2="2490.53" gradientUnits="userSpaceOnUse">
<stop stop-color="#C00000"/>
<stop offset="1" stop-color="#FF4300"/>
</linearGradient>
<linearGradient id="paint41_linear" x1="677.914" y1="2490.32" x2="929.743" y2="2490.53" gradientUnits="userSpaceOnUse">
<stop stop-color="#C00000"/>
<stop offset="1" stop-color="#FF4300"/>
</linearGradient>
<linearGradient id="paint42_linear" x1="877.914" y1="2690.32" x2="1129.74" y2="2690.52" gradientUnits="userSpaceOnUse">
<stop stop-color="#C00000"/>
<stop offset="1" stop-color="#FF4300"/>
</linearGradient>
<linearGradient id="paint43_linear" x1="877.914" y1="2690.32" x2="1129.74" y2="2690.52" gradientUnits="userSpaceOnUse">
<stop stop-color="#C00000"/>
<stop offset="1" stop-color="#FF4300"/>
</linearGradient>
<linearGradient id="paint44_linear" x1="1077.91" y1="2890.32" x2="1329.74" y2="2890.52" gradientUnits="userSpaceOnUse">
<stop stop-color="#C00000"/>
<stop offset="1" stop-color="#FF4300"/>
</linearGradient>
<linearGradient id="paint45_linear" x1="1077.91" y1="2890.32" x2="1329.74" y2="2890.52" gradientUnits="userSpaceOnUse">
<stop stop-color="#C00000"/>
<stop offset="1" stop-color="#FF4300"/>
</linearGradient>
<linearGradient id="paint46_linear" x1="1277.91" y1="3090.32" x2="1529.74" y2="3090.52" gradientUnits="userSpaceOnUse">
<stop stop-color="#C00000"/>
<stop offset="1" stop-color="#FF4300"/>
</linearGradient>
<linearGradient id="paint47_linear" x1="-122.086" y1="2090.33" x2="129.742" y2="2090.53" gradientUnits="userSpaceOnUse">
<stop stop-color="#C00000"/>
<stop offset="1" stop-color="#FF4300"/>
</linearGradient>
<linearGradient id="paint48_linear" x1="-122.086" y1="2090.33" x2="129.743" y2="2090.53" gradientUnits="userSpaceOnUse">
<stop stop-color="#C00000"/>
<stop offset="1" stop-color="#FF4300"/>
</linearGradient>
<linearGradient id="paint49_linear" x1="77.9135" y1="2290.33" x2="329.742" y2="2290.53" gradientUnits="userSpaceOnUse">
<stop stop-color="#C00000"/>
<stop offset="1" stop-color="#FF4300"/>
</linearGradient>
<linearGradient id="paint50_linear" x1="77.9144" y1="2290.33" x2="329.743" y2="2290.53" gradientUnits="userSpaceOnUse">
<stop stop-color="#C00000"/>
<stop offset="1" stop-color="#FF4300"/>
</linearGradient>
<linearGradient id="paint51_linear" x1="277.914" y1="2490.33" x2="529.742" y2="2490.53" gradientUnits="userSpaceOnUse">
<stop stop-color="#C00000"/>
<stop offset="1" stop-color="#FF4300"/>
</linearGradient>
<linearGradient id="paint52_linear" x1="277.914" y1="2490.33" x2="529.743" y2="2490.53" gradientUnits="userSpaceOnUse">
<stop stop-color="#C00000"/>
<stop offset="1" stop-color="#FF4300"/>
</linearGradient>
<linearGradient id="paint53_linear" x1="477.914" y1="2690.33" x2="729.742" y2="2690.53" gradientUnits="userSpaceOnUse">
<stop stop-color="#C00000"/>
<stop offset="1" stop-color="#FF4300"/>
</linearGradient>
<linearGradient id="paint54_linear" x1="477.914" y1="2690.32" x2="729.743" y2="2690.53" gradientUnits="userSpaceOnUse">
<stop stop-color="#C00000"/>
<stop offset="1" stop-color="#FF4300"/>
</linearGradient>
<linearGradient id="paint55_linear" x1="677.914" y1="2890.32" x2="929.742" y2="2890.53" gradientUnits="userSpaceOnUse">
<stop stop-color="#C00000"/>
<stop offset="1" stop-color="#FF4300"/>
</linearGradient>
<linearGradient id="paint56_linear" x1="677.914" y1="2890.32" x2="929.743" y2="2890.53" gradientUnits="userSpaceOnUse">
<stop stop-color="#C00000"/>
<stop offset="1" stop-color="#FF4300"/>
</linearGradient>
<linearGradient id="paint57_linear" x1="877.914" y1="3090.32" x2="1129.74" y2="3090.52" gradientUnits="userSpaceOnUse">
<stop stop-color="#C00000"/>
<stop offset="1" stop-color="#FF4300"/>
</linearGradient>
<linearGradient id="paint58_linear" x1="-122.086" y1="2490.33" x2="129.742" y2="2490.53" gradientUnits="userSpaceOnUse">
<stop stop-color="#C00000"/>
<stop offset="1" stop-color="#FF4300"/>
</linearGradient>
<linearGradient id="paint59_linear" x1="-122.086" y1="2490.33" x2="129.743" y2="2490.53" gradientUnits="userSpaceOnUse">
<stop stop-color="#C00000"/>
<stop offset="1" stop-color="#FF4300"/>
</linearGradient>
<linearGradient id="paint60_linear" x1="77.9135" y1="2690.33" x2="329.742" y2="2690.53" gradientUnits="userSpaceOnUse">
<stop stop-color="#C00000"/>
<stop offset="1" stop-color="#FF4300"/>
</linearGradient>
<linearGradient id="paint61_linear" x1="77.9144" y1="2690.33" x2="329.743" y2="2690.53" gradientUnits="userSpaceOnUse">
<stop stop-color="#C00000"/>
<stop offset="1" stop-color="#FF4300"/>
</linearGradient>
<linearGradient id="paint62_linear" x1="277.914" y1="2890.33" x2="529.742" y2="2890.53" gradientUnits="userSpaceOnUse">
<stop stop-color="#C00000"/>
<stop offset="1" stop-color="#FF4300"/>
</linearGradient>
<linearGradient id="paint63_linear" x1="277.914" y1="2890.33" x2="529.743" y2="2890.53" gradientUnits="userSpaceOnUse">
<stop stop-color="#C00000"/>
<stop offset="1" stop-color="#FF4300"/>
</linearGradient>
<linearGradient id="paint64_linear" x1="477.914" y1="3090.32" x2="729.743" y2="3090.53" gradientUnits="userSpaceOnUse">
<stop stop-color="#C00000"/>
<stop offset="1" stop-color="#FF4300"/>
</linearGradient>
<linearGradient id="paint65_linear" x1="-122.086" y1="2890.33" x2="129.742" y2="2890.53" gradientUnits="userSpaceOnUse">
<stop stop-color="#C00000"/>
<stop offset="1" stop-color="#FF4300"/>
</linearGradient>
<linearGradient id="paint66_linear" x1="-122.086" y1="2890.33" x2="129.743" y2="2890.53" gradientUnits="userSpaceOnUse">
<stop stop-color="#C00000"/>
<stop offset="1" stop-color="#FF4300"/>
</linearGradient>
<linearGradient id="paint67_linear" x1="77.9144" y1="3090.33" x2="329.743" y2="3090.53" gradientUnits="userSpaceOnUse">
<stop stop-color="#C00000"/>
<stop offset="1" stop-color="#FF4300"/>
</linearGradient>
<linearGradient id="paint68_linear" x1="-122.086" y1="490.337" x2="129.742" y2="490.54" gradientUnits="userSpaceOnUse">
<stop stop-color="#C00000"/>
<stop offset="1" stop-color="#FF4300"/>
</linearGradient>
<linearGradient id="paint69_linear" x1="-122.086" y1="490.336" x2="129.743" y2="490.539" gradientUnits="userSpaceOnUse">
<stop stop-color="#C00000"/>
<stop offset="1" stop-color="#FF4300"/>
</linearGradient>
<linearGradient id="paint70_linear" x1="77.9135" y1="690.335" x2="329.742" y2="690.538" gradientUnits="userSpaceOnUse">
<stop stop-color="#C00000"/>
<stop offset="1" stop-color="#FF4300"/>
</linearGradient>
<linearGradient id="paint71_linear" x1="77.9144" y1="690.334" x2="329.743" y2="690.537" gradientUnits="userSpaceOnUse">
<stop stop-color="#C00000"/>
<stop offset="1" stop-color="#FF4300"/>
</linearGradient>
<linearGradient id="paint72_linear" x1="277.914" y1="890.333" x2="529.742" y2="890.536" gradientUnits="userSpaceOnUse">
<stop stop-color="#C00000"/>
<stop offset="1" stop-color="#FF4300"/>
</linearGradient>
<linearGradient id="paint73_linear" x1="277.914" y1="890.332" x2="529.743" y2="890.535" gradientUnits="userSpaceOnUse">
<stop stop-color="#C00000"/>
<stop offset="1" stop-color="#FF4300"/>
</linearGradient>
<linearGradient id="paint74_linear" x1="477.914" y1="1090.33" x2="729.742" y2="1090.53" gradientUnits="userSpaceOnUse">
<stop stop-color="#C00000"/>
<stop offset="1" stop-color="#FF4300"/>
</linearGradient>
<linearGradient id="paint75_linear" x1="477.914" y1="1090.33" x2="729.743" y2="1090.53" gradientUnits="userSpaceOnUse">
<stop stop-color="#C00000"/>
<stop offset="1" stop-color="#FF4300"/>
</linearGradient>
<linearGradient id="paint76_linear" x1="677.914" y1="1290.33" x2="929.742" y2="1290.53" gradientUnits="userSpaceOnUse">
<stop stop-color="#C00000"/>
<stop offset="1" stop-color="#FF4300"/>
</linearGradient>
<linearGradient id="paint77_linear" x1="677.914" y1="1290.33" x2="929.743" y2="1290.53" gradientUnits="userSpaceOnUse">
<stop stop-color="#C00000"/>
<stop offset="1" stop-color="#FF4300"/>
</linearGradient>
<linearGradient id="paint78_linear" x1="877.914" y1="1490.33" x2="1129.74" y2="1490.53" gradientUnits="userSpaceOnUse">
<stop stop-color="#C00000"/>
<stop offset="1" stop-color="#FF4300"/>
</linearGradient>
<linearGradient id="paint79_linear" x1="877.914" y1="1490.33" x2="1129.74" y2="1490.53" gradientUnits="userSpaceOnUse">
<stop stop-color="#C00000"/>
<stop offset="1" stop-color="#FF4300"/>
</linearGradient>
<linearGradient id="paint80_linear" x1="1077.91" y1="1690.33" x2="1329.74" y2="1690.53" gradientUnits="userSpaceOnUse">
<stop stop-color="#C00000"/>
<stop offset="1" stop-color="#FF4300"/>
</linearGradient>
<linearGradient id="paint81_linear" x1="1077.91" y1="1690.32" x2="1329.74" y2="1690.53" gradientUnits="userSpaceOnUse">
<stop stop-color="#C00000"/>
<stop offset="1" stop-color="#FF4300"/>
</linearGradient>
<linearGradient id="paint82_linear" x1="1277.91" y1="1890.32" x2="1529.74" y2="1890.53" gradientUnits="userSpaceOnUse">
<stop stop-color="#C00000"/>
<stop offset="1" stop-color="#FF4300"/>
</linearGradient>
<linearGradient id="paint83_linear" x1="1277.91" y1="1890.32" x2="1529.74" y2="1890.53" gradientUnits="userSpaceOnUse">
<stop stop-color="#C00000"/>
<stop offset="1" stop-color="#FF4300"/>
</linearGradient>
<linearGradient id="paint84_linear" x1="-122.086" y1="90.339" x2="129.742" y2="90.5419" gradientUnits="userSpaceOnUse">
<stop stop-color="#C00000"/>
<stop offset="1" stop-color="#FF4300"/>
</linearGradient>
<linearGradient id="paint85_linear" x1="-122.086" y1="90.3381" x2="129.743" y2="90.541" gradientUnits="userSpaceOnUse">
<stop stop-color="#C00000"/>
<stop offset="1" stop-color="#FF4300"/>
</linearGradient>
<linearGradient id="paint86_linear" x1="77.9135" y1="290.341" x2="329.742" y2="290.544" gradientUnits="userSpaceOnUse">
<stop stop-color="#C00000"/>
<stop offset="1" stop-color="#FF4300"/>
</linearGradient>
<linearGradient id="paint87_linear" x1="77.9144" y1="290.34" x2="329.743" y2="290.543" gradientUnits="userSpaceOnUse">
<stop stop-color="#C00000"/>
<stop offset="1" stop-color="#FF4300"/>
</linearGradient>
<linearGradient id="paint88_linear" x1="277.914" y1="490.339" x2="529.742" y2="490.542" gradientUnits="userSpaceOnUse">
<stop stop-color="#C00000"/>
<stop offset="1" stop-color="#FF4300"/>
</linearGradient>
<linearGradient id="paint89_linear" x1="277.914" y1="490.338" x2="529.743" y2="490.541" gradientUnits="userSpaceOnUse">
<stop stop-color="#C00000"/>
<stop offset="1" stop-color="#FF4300"/>
</linearGradient>
<linearGradient id="paint90_linear" x1="477.914" y1="690.337" x2="729.742" y2="690.54" gradientUnits="userSpaceOnUse">
<stop stop-color="#C00000"/>
<stop offset="1" stop-color="#FF4300"/>
</linearGradient>
<linearGradient id="paint91_linear" x1="477.914" y1="690.336" x2="729.743" y2="690.539" gradientUnits="userSpaceOnUse">
<stop stop-color="#C00000"/>
<stop offset="1" stop-color="#FF4300"/>
</linearGradient>
<linearGradient id="paint92_linear" x1="677.914" y1="890.335" x2="929.742" y2="890.538" gradientUnits="userSpaceOnUse">
<stop stop-color="#C00000"/>
<stop offset="1" stop-color="#FF4300"/>
</linearGradient>
<linearGradient id="paint93_linear" x1="677.914" y1="890.334" x2="929.743" y2="890.537" gradientUnits="userSpaceOnUse">
<stop stop-color="#C00000"/>
<stop offset="1" stop-color="#FF4300"/>
</linearGradient>
<linearGradient id="paint94_linear" x1="877.914" y1="1090.33" x2="1129.74" y2="1090.54" gradientUnits="userSpaceOnUse">
<stop stop-color="#C00000"/>
<stop offset="1" stop-color="#FF4300"/>
</linearGradient>
<linearGradient id="paint95_linear" x1="877.914" y1="1090.33" x2="1129.74" y2="1090.53" gradientUnits="userSpaceOnUse">
<stop stop-color="#C00000"/>
<stop offset="1" stop-color="#FF4300"/>
</linearGradient>
<linearGradient id="paint96_linear" x1="1077.91" y1="1290.33" x2="1329.74" y2="1290.53" gradientUnits="userSpaceOnUse">
<stop stop-color="#C00000"/>
<stop offset="1" stop-color="#FF4300"/>
</linearGradient>
<linearGradient id="paint97_linear" x1="1077.91" y1="1290.33" x2="1329.74" y2="1290.53" gradientUnits="userSpaceOnUse">
<stop stop-color="#C00000"/>
<stop offset="1" stop-color="#FF4300"/>
</linearGradient>
<linearGradient id="paint98_linear" x1="1277.91" y1="1490.33" x2="1529.74" y2="1490.53" gradientUnits="userSpaceOnUse">
<stop stop-color="#C00000"/>
<stop offset="1" stop-color="#FF4300"/>
</linearGradient>
<linearGradient id="paint99_linear" x1="1277.91" y1="1490.33" x2="1529.74" y2="1490.53" gradientUnits="userSpaceOnUse">
<stop stop-color="#C00000"/>
<stop offset="1" stop-color="#FF4300"/>
</linearGradient>
<linearGradient id="paint100_linear" x1="277.914" y1="90.3412" x2="529.742" y2="90.5441" gradientUnits="userSpaceOnUse">
<stop stop-color="#C00000"/>
<stop offset="1" stop-color="#FF4300"/>
</linearGradient>
<linearGradient id="paint101_linear" x1="277.914" y1="90.3403" x2="529.743" y2="90.5432" gradientUnits="userSpaceOnUse">
<stop stop-color="#C00000"/>
<stop offset="1" stop-color="#FF4300"/>
</linearGradient>
<linearGradient id="paint102_linear" x1="477.914" y1="290.343" x2="729.742" y2="290.546" gradientUnits="userSpaceOnUse">
<stop stop-color="#C00000"/>
<stop offset="1" stop-color="#FF4300"/>
</linearGradient>
<linearGradient id="paint103_linear" x1="477.914" y1="290.342" x2="729.743" y2="290.545" gradientUnits="userSpaceOnUse">
<stop stop-color="#C00000"/>
<stop offset="1" stop-color="#FF4300"/>
</linearGradient>
<linearGradient id="paint104_linear" x1="677.914" y1="490.341" x2="929.742" y2="490.544" gradientUnits="userSpaceOnUse">
<stop stop-color="#C00000"/>
<stop offset="1" stop-color="#FF4300"/>
</linearGradient>
<linearGradient id="paint105_linear" x1="677.914" y1="490.34" x2="929.743" y2="490.543" gradientUnits="userSpaceOnUse">
<stop stop-color="#C00000"/>
<stop offset="1" stop-color="#FF4300"/>
</linearGradient>
<linearGradient id="paint106_linear" x1="877.914" y1="690.339" x2="1129.74" y2="690.542" gradientUnits="userSpaceOnUse">
<stop stop-color="#C00000"/>
<stop offset="1" stop-color="#FF4300"/>
</linearGradient>
<linearGradient id="paint107_linear" x1="877.914" y1="690.338" x2="1129.74" y2="690.541" gradientUnits="userSpaceOnUse">
<stop stop-color="#C00000"/>
<stop offset="1" stop-color="#FF4300"/>
</linearGradient>
<linearGradient id="paint108_linear" x1="1077.91" y1="890.337" x2="1329.74" y2="890.54" gradientUnits="userSpaceOnUse">
<stop stop-color="#C00000"/>
<stop offset="1" stop-color="#FF4300"/>
</linearGradient>
<linearGradient id="paint109_linear" x1="1077.91" y1="890.336" x2="1329.74" y2="890.539" gradientUnits="userSpaceOnUse">
<stop stop-color="#C00000"/>
<stop offset="1" stop-color="#FF4300"/>
</linearGradient>
<linearGradient id="paint110_linear" x1="1277.91" y1="1090.34" x2="1529.74" y2="1090.54" gradientUnits="userSpaceOnUse">
<stop stop-color="#C00000"/>
<stop offset="1" stop-color="#FF4300"/>
</linearGradient>
<linearGradient id="paint111_linear" x1="1277.91" y1="1090.33" x2="1529.74" y2="1090.54" gradientUnits="userSpaceOnUse">
<stop stop-color="#C00000"/>
<stop offset="1" stop-color="#FF4300"/>
</linearGradient>
<linearGradient id="paint112_linear" x1="677.914" y1="90.3432" x2="929.742" y2="90.5461" gradientUnits="userSpaceOnUse">
<stop stop-color="#C00000"/>
<stop offset="1" stop-color="#FF4300"/>
</linearGradient>
<linearGradient id="paint113_linear" x1="677.914" y1="90.3422" x2="929.743" y2="90.5451" gradientUnits="userSpaceOnUse">
<stop stop-color="#C00000"/>
<stop offset="1" stop-color="#FF4300"/>
</linearGradient>
<linearGradient id="paint114_linear" x1="877.914" y1="290.345" x2="1129.74" y2="290.548" gradientUnits="userSpaceOnUse">
<stop stop-color="#C00000"/>
<stop offset="1" stop-color="#FF4300"/>
</linearGradient>
<linearGradient id="paint115_linear" x1="877.914" y1="290.344" x2="1129.74" y2="290.547" gradientUnits="userSpaceOnUse">
<stop stop-color="#C00000"/>
<stop offset="1" stop-color="#FF4300"/>
</linearGradient>
<linearGradient id="paint116_linear" x1="1077.91" y1="490.343" x2="1329.74" y2="490.546" gradientUnits="userSpaceOnUse">
<stop stop-color="#C00000"/>
<stop offset="1" stop-color="#FF4300"/>
</linearGradient>
<linearGradient id="paint117_linear" x1="1077.91" y1="490.342" x2="1329.74" y2="490.545" gradientUnits="userSpaceOnUse">
<stop stop-color="#C00000"/>
<stop offset="1" stop-color="#FF4300"/>
</linearGradient>
<linearGradient id="paint118_linear" x1="1277.91" y1="690.341" x2="1529.74" y2="690.544" gradientUnits="userSpaceOnUse">
<stop stop-color="#C00000"/>
<stop offset="1" stop-color="#FF4300"/>
</linearGradient>
<linearGradient id="paint119_linear" x1="1277.91" y1="690.34" x2="1529.74" y2="690.543" gradientUnits="userSpaceOnUse">
<stop stop-color="#C00000"/>
<stop offset="1" stop-color="#FF4300"/>
</linearGradient>
<linearGradient id="paint120_linear" x1="1077.91" y1="90.3451" x2="1329.74" y2="90.5481" gradientUnits="userSpaceOnUse">
<stop stop-color="#C00000"/>
<stop offset="1" stop-color="#FF4300"/>
</linearGradient>
<linearGradient id="paint121_linear" x1="1077.91" y1="90.3442" x2="1329.74" y2="90.5471" gradientUnits="userSpaceOnUse">
<stop stop-color="#C00000"/>
<stop offset="1" stop-color="#FF4300"/>
</linearGradient>
<linearGradient id="paint122_linear" x1="1277.91" y1="290.347" x2="1529.74" y2="290.55" gradientUnits="userSpaceOnUse">
<stop stop-color="#C00000"/>
<stop offset="1" stop-color="#FF4300"/>
</linearGradient>
<linearGradient id="paint123_linear" x1="1277.91" y1="290.346" x2="1529.74" y2="290.549" gradientUnits="userSpaceOnUse">
<stop stop-color="#C00000"/>
<stop offset="1" stop-color="#FF4300"/>
</linearGradient>
<clipPath id="clip0">
<rect width="1440" height="2960" fill="white"/>
</clipPath>
</defs>
</svg>
