<svg width="1440" height="2960" viewBox="0 0 1440 2960" fill="none" xmlns="http://www.w3.org/2000/svg">
<g clip-path="url(#clip0_21_28)">
<rect x="-32" y="-13" width="1503" height="2985" fill="white"/>
<path fill-rule="evenodd" clip-rule="evenodd" d="M95 2507L124.289 2536.29H165.71V2577.71L195 2607L165.71 2636.29V2677.71H124.29L95 2707L65.7104 2677.71H24.289V2636.29L-5 2607L24.289 2577.71V2536.29H65.7109L95 2507ZM95.1106 2653.07C120.495 2653.07 141.073 2632.49 141.073 2607.11C141.073 2581.73 120.495 2561.15 95.1106 2561.15C69.7265 2561.15 49.1487 2581.73 49.1487 2607.11C49.1487 2632.49 69.7265 2653.07 95.1106 2653.07Z" fill="url(#paint0_linear_21_28)"/>
<path fill-rule="evenodd" clip-rule="evenodd" d="M345 2377L374.29 2406.29H415.71V2447.71L445 2477L415.71 2506.29V2547.71H374.289L345 2577L315.711 2547.71H274.289V2506.29L245 2477L274.289 2447.71V2406.29H315.71L345 2377ZM345.111 2523.07C370.495 2523.07 391.073 2502.49 391.073 2477.11C391.073 2451.73 370.495 2431.15 345.111 2431.15C319.727 2431.15 299.149 2451.73 299.149 2477.11C299.149 2502.49 319.727 2523.07 345.111 2523.07Z" fill="url(#paint1_linear_21_28)"/>
<path fill-rule="evenodd" clip-rule="evenodd" d="M595 2507L624.289 2536.29H665.71V2577.71L695 2607L665.71 2636.29V2677.71H624.29L595 2707L565.71 2677.71H524.289V2636.29L495 2607L524.289 2577.71V2536.29H565.711L595 2507ZM595.111 2653.07C620.495 2653.07 641.073 2632.49 641.073 2607.11C641.073 2581.73 620.495 2561.15 595.111 2561.15C569.727 2561.15 549.149 2581.73 549.149 2607.11C549.149 2632.49 569.727 2653.07 595.111 2653.07Z" fill="url(#paint2_linear_21_28)"/>
<path fill-rule="evenodd" clip-rule="evenodd" d="M845 2377L874.29 2406.29H915.71V2447.71L945 2477L915.71 2506.29V2547.71H874.289L845 2577L815.711 2547.71H774.289V2506.29L745 2477L774.289 2447.71V2406.29H815.71L845 2377ZM845.111 2523.07C870.495 2523.07 891.073 2502.49 891.073 2477.11C891.073 2451.73 870.495 2431.15 845.111 2431.15C819.727 2431.15 799.149 2451.73 799.149 2477.11C799.149 2502.49 819.727 2523.07 845.111 2523.07Z" fill="url(#paint3_linear_21_28)"/>
<path fill-rule="evenodd" clip-rule="evenodd" d="M1095 2507L1124.29 2536.29H1165.71V2577.71L1195 2607L1165.71 2636.29V2677.71H1124.29L1095 2707L1065.71 2677.71H1024.29V2636.29L995 2607L1024.29 2577.71V2536.29H1065.71L1095 2507ZM1095.11 2653.07C1120.49 2653.07 1141.07 2632.49 1141.07 2607.11C1141.07 2581.73 1120.49 2561.15 1095.11 2561.15C1069.73 2561.15 1049.15 2581.73 1049.15 2607.11C1049.15 2632.49 1069.73 2653.07 1095.11 2653.07Z" fill="url(#paint4_linear_21_28)"/>
<path fill-rule="evenodd" clip-rule="evenodd" d="M1345 2377L1374.29 2406.29H1415.71V2447.71L1445 2477L1415.71 2506.29V2547.71H1374.29L1345 2577L1315.71 2547.71H1274.29V2506.29L1245 2477L1274.29 2447.71V2406.29H1315.71L1345 2377ZM1345.11 2523.07C1370.49 2523.07 1391.07 2502.49 1391.07 2477.11C1391.07 2451.73 1370.49 2431.15 1345.11 2431.15C1319.73 2431.15 1299.15 2451.73 1299.15 2477.11C1299.15 2502.49 1319.73 2523.07 1345.11 2523.07Z" fill="url(#paint5_linear_21_28)"/>
<path fill-rule="evenodd" clip-rule="evenodd" d="M95 2757L124.289 2786.29H165.71V2827.71L195 2857L165.71 2886.29V2927.71H124.289L95 2957L65.7107 2927.71H24.289V2886.29L-5 2857L24.289 2827.71V2786.29H65.7107L95 2757ZM95.1106 2903.07C120.495 2903.07 141.073 2882.49 141.073 2857.11C141.073 2831.73 120.495 2811.15 95.1106 2811.15C69.7265 2811.15 49.1487 2831.73 49.1487 2857.11C49.1487 2882.49 69.7265 2903.07 95.1106 2903.07Z" fill="url(#paint6_linear_21_28)"/>
<path fill-rule="evenodd" clip-rule="evenodd" d="M345 2627L374.29 2656.29H415.71V2697.71L445 2727L415.71 2756.29V2797.71H374.289L345 2827L315.711 2797.71H274.289V2756.29L245 2727L274.289 2697.71V2656.29H315.71L345 2627ZM345.111 2773.07C370.495 2773.07 391.073 2752.49 391.073 2727.11C391.073 2701.73 370.495 2681.15 345.111 2681.15C319.727 2681.15 299.149 2701.73 299.149 2727.11C299.149 2752.49 319.727 2773.07 345.111 2773.07Z" fill="url(#paint7_linear_21_28)"/>
<path fill-rule="evenodd" clip-rule="evenodd" d="M595 2757L624.289 2786.29H665.71V2827.71L695 2857L665.71 2886.29V2927.71H624.289L595 2957L565.711 2927.71H524.289V2886.29L495 2857L524.289 2827.71V2786.29H565.711L595 2757ZM595.111 2903.07C620.495 2903.07 641.073 2882.49 641.073 2857.11C641.073 2831.73 620.495 2811.15 595.111 2811.15C569.727 2811.15 549.149 2831.73 549.149 2857.11C549.149 2882.49 569.727 2903.07 595.111 2903.07Z" fill="url(#paint8_linear_21_28)"/>
<path fill-rule="evenodd" clip-rule="evenodd" d="M845 2627L874.29 2656.29H915.71V2697.71L945 2727L915.71 2756.29V2797.71H874.289L845 2827L815.711 2797.71H774.289V2756.29L745 2727L774.289 2697.71V2656.29H815.71L845 2627ZM845.111 2773.07C870.495 2773.07 891.073 2752.49 891.073 2727.11C891.073 2701.73 870.495 2681.15 845.111 2681.15C819.727 2681.15 799.149 2701.73 799.149 2727.11C799.149 2752.49 819.727 2773.07 845.111 2773.07Z" fill="url(#paint9_linear_21_28)"/>
<path fill-rule="evenodd" clip-rule="evenodd" d="M1095 2757L1124.29 2786.29H1165.71V2827.71L1195 2857L1165.71 2886.29V2927.71H1124.29L1095 2957L1065.71 2927.71H1024.29V2886.29L995 2857L1024.29 2827.71V2786.29H1065.71L1095 2757ZM1095.11 2903.07C1120.49 2903.07 1141.07 2882.49 1141.07 2857.11C1141.07 2831.73 1120.49 2811.15 1095.11 2811.15C1069.73 2811.15 1049.15 2831.73 1049.15 2857.11C1049.15 2882.49 1069.73 2903.07 1095.11 2903.07Z" fill="url(#paint10_linear_21_28)"/>
<path fill-rule="evenodd" clip-rule="evenodd" d="M1345 2627L1374.29 2656.29H1415.71V2697.71L1445 2727L1415.71 2756.29V2797.71H1374.29L1345 2827L1315.71 2797.71H1274.29V2756.29L1245 2727L1274.29 2697.71V2656.29H1315.71L1345 2627ZM1345.11 2773.07C1370.49 2773.07 1391.07 2752.49 1391.07 2727.11C1391.07 2701.73 1370.49 2681.15 1345.11 2681.15C1319.73 2681.15 1299.15 2701.73 1299.15 2727.11C1299.15 2752.49 1319.73 2773.07 1345.11 2773.07Z" fill="url(#paint11_linear_21_28)"/>
<path fill-rule="evenodd" clip-rule="evenodd" d="M345 2877L374.29 2906.29H415.71V2947.71L445 2977L415.71 3006.29V3047.71H374.289L345 3077L315.711 3047.71H274.289V3006.29L245 2977L274.289 2947.71V2906.29H315.71L345 2877ZM345.111 3023.07C370.495 3023.07 391.073 3002.49 391.073 2977.11C391.073 2951.73 370.495 2931.15 345.111 2931.15C319.727 2931.15 299.149 2951.73 299.149 2977.11C299.149 3002.49 319.727 3023.07 345.111 3023.07Z" fill="url(#paint12_linear_21_28)"/>
<path fill-rule="evenodd" clip-rule="evenodd" d="M845 2877L874.29 2906.29H915.71V2947.71L945 2977L915.71 3006.29V3047.71H874.289L845 3077L815.711 3047.71H774.289V3006.29L745 2977L774.289 2947.71V2906.29H815.71L845 2877ZM845.111 3023.07C870.495 3023.07 891.073 3002.49 891.073 2977.11C891.073 2951.73 870.495 2931.15 845.111 2931.15C819.727 2931.15 799.149 2951.73 799.149 2977.11C799.149 3002.49 819.727 3023.07 845.111 3023.07Z" fill="url(#paint13_linear_21_28)"/>
<path fill-rule="evenodd" clip-rule="evenodd" d="M1345 2877L1374.29 2906.29H1415.71V2947.71L1445 2977L1415.71 3006.29V3047.71H1374.29L1345 3077L1315.71 3047.71H1274.29V3006.29L1245 2977L1274.29 2947.71V2906.29H1315.71L1345 2877ZM1345.11 3023.07C1370.49 3023.07 1391.07 3002.49 1391.07 2977.11C1391.07 2951.73 1370.49 2931.15 1345.11 2931.15C1319.73 2931.15 1299.15 2951.73 1299.15 2977.11C1299.15 3002.49 1319.73 3023.07 1345.11 3023.07Z" fill="url(#paint14_linear_21_28)"/>
<path fill-rule="evenodd" clip-rule="evenodd" d="M95 2L124.289 31.2893H165.71V72.7103L195 102L165.71 131.29V172.711H124.289L95 202L65.7107 172.711H24.289V131.289L-5 102L24.289 72.711V31.2893H65.7107L95 2ZM95.1106 148.072C120.495 148.072 141.073 127.495 141.073 102.11C141.073 76.7264 120.495 56.1486 95.1106 56.1486C69.7265 56.1486 49.1487 76.7264 49.1487 102.11C49.1487 127.495 69.7265 148.072 95.1106 148.072Z" fill="url(#paint15_linear_21_28)"/>
<path fill-rule="evenodd" clip-rule="evenodd" d="M345 -128L374.289 -98.7107H415.711V-57.2893L445 -28L415.711 1.28932V42.7107H374.289L345 72L315.711 42.7107H274.289V1.28932L245 -28L274.289 -57.2893V-98.7107H315.711L345 -128ZM345.111 18.0724C370.495 18.0724 391.073 -2.50543 391.073 -27.8895C391.073 -53.2736 370.495 -73.8514 345.111 -73.8514C319.727 -73.8514 299.149 -53.2736 299.149 -27.8895C299.149 -2.50543 319.727 18.0724 345.111 18.0724Z" fill="url(#paint16_linear_21_28)"/>
<path fill-rule="evenodd" clip-rule="evenodd" d="M595 2L624.289 31.2893H665.71V72.7103L695 102L665.71 131.29V172.711H624.289L595 202L565.711 172.711H524.289V131.289L495 102L524.289 72.711V31.2893H565.711L595 2ZM595.111 148.072C620.495 148.072 641.073 127.495 641.073 102.11C641.073 76.7264 620.495 56.1486 595.111 56.1486C569.727 56.1486 549.149 76.7264 549.149 102.11C549.149 127.495 569.727 148.072 595.111 148.072Z" fill="url(#paint17_linear_21_28)"/>
<path fill-rule="evenodd" clip-rule="evenodd" d="M845 -128L874.289 -98.7107H915.711V-57.2893L945 -28L915.711 1.28932V42.7107H874.289L845 72L815.711 42.7107H774.289V1.28932L745 -28L774.289 -57.2893V-98.7107H815.711L845 -128ZM845.111 18.0724C870.495 18.0724 891.073 -2.50543 891.073 -27.8895C891.073 -53.2736 870.495 -73.8514 845.111 -73.8514C819.727 -73.8514 799.149 -53.2736 799.149 -27.8895C799.149 -2.50543 819.727 18.0724 845.111 18.0724Z" fill="url(#paint18_linear_21_28)"/>
<path fill-rule="evenodd" clip-rule="evenodd" d="M1095 2L1124.29 31.2893H1165.71V72.7103L1195 102L1165.71 131.29V172.711H1124.29L1095 202L1065.71 172.711H1024.29V131.289L995 102L1024.29 72.711V31.2893H1065.71L1095 2ZM1095.11 148.072C1120.49 148.072 1141.07 127.495 1141.07 102.11C1141.07 76.7264 1120.49 56.1486 1095.11 56.1486C1069.73 56.1486 1049.15 76.7264 1049.15 102.11C1049.15 127.495 1069.73 148.072 1095.11 148.072Z" fill="url(#paint19_linear_21_28)"/>
<path fill-rule="evenodd" clip-rule="evenodd" d="M1345 -128L1374.29 -98.7107H1415.71V-57.2893L1445 -28L1415.71 1.28932V42.7107H1374.29L1345 72L1315.71 42.7107H1274.29V1.28932L1245 -28L1274.29 -57.2893V-98.7107H1315.71L1345 -128ZM1345.11 18.0724C1370.49 18.0724 1391.07 -2.50543 1391.07 -27.8895C1391.07 -53.2736 1370.49 -73.8514 1345.11 -73.8514C1319.73 -73.8514 1299.15 -53.2736 1299.15 -27.8895C1299.15 -2.50543 1319.73 18.0724 1345.11 18.0724Z" fill="url(#paint20_linear_21_28)"/>
<path fill-rule="evenodd" clip-rule="evenodd" d="M95 252L124.289 281.289H165.71V322.71L195 352L165.71 381.29V422.711H124.289L95 452L65.7107 422.711H24.289V381.289L-5 352L24.289 322.711V281.289H65.7107L95 252ZM95.1106 398.072C120.495 398.072 141.073 377.495 141.073 352.11C141.073 326.726 120.495 306.149 95.1106 306.149C69.7265 306.149 49.1487 326.726 49.1487 352.11C49.1487 377.495 69.7265 398.072 95.1106 398.072Z" fill="url(#paint21_linear_21_28)"/>
<path fill-rule="evenodd" clip-rule="evenodd" d="M345 122L374.289 151.289H415.711V192.711L445 222L415.711 251.289V292.711H374.289L345 322L315.711 292.711H274.289V251.289L245 222L274.289 192.711V151.289H315.711L345 122ZM345.111 268.072C370.495 268.072 391.073 247.495 391.073 222.11C391.073 196.726 370.495 176.149 345.111 176.149C319.727 176.149 299.149 196.726 299.149 222.11C299.149 247.495 319.727 268.072 345.111 268.072Z" fill="url(#paint22_linear_21_28)"/>
<path fill-rule="evenodd" clip-rule="evenodd" d="M595 252L624.289 281.289H665.71V322.71L695 352L665.71 381.29V422.711H624.289L595 452L565.711 422.711H524.289V381.289L495 352L524.289 322.711V281.289H565.711L595 252ZM595.111 398.072C620.495 398.072 641.073 377.495 641.073 352.11C641.073 326.726 620.495 306.149 595.111 306.149C569.727 306.149 549.149 326.726 549.149 352.11C549.149 377.495 569.727 398.072 595.111 398.072Z" fill="url(#paint23_linear_21_28)"/>
<path fill-rule="evenodd" clip-rule="evenodd" d="M845 122L874.289 151.289H915.711V192.711L945 222L915.711 251.289V292.711H874.289L845 322L815.711 292.711H774.289V251.289L745 222L774.289 192.711V151.289H815.711L845 122ZM845.111 268.072C870.495 268.072 891.073 247.495 891.073 222.11C891.073 196.726 870.495 176.149 845.111 176.149C819.727 176.149 799.149 196.726 799.149 222.11C799.149 247.495 819.727 268.072 845.111 268.072Z" fill="url(#paint24_linear_21_28)"/>
<path fill-rule="evenodd" clip-rule="evenodd" d="M1095 252L1124.29 281.289H1165.71V322.71L1195 352L1165.71 381.29V422.711H1124.29L1095 452L1065.71 422.711H1024.29V381.289L995 352L1024.29 322.711V281.289H1065.71L1095 252ZM1095.11 398.072C1120.49 398.072 1141.07 377.495 1141.07 352.11C1141.07 326.726 1120.49 306.149 1095.11 306.149C1069.73 306.149 1049.15 326.726 1049.15 352.11C1049.15 377.495 1069.73 398.072 1095.11 398.072Z" fill="url(#paint25_linear_21_28)"/>
<path fill-rule="evenodd" clip-rule="evenodd" d="M1345 122L1374.29 151.289H1415.71V192.711L1445 222L1415.71 251.289V292.711H1374.29L1345 322L1315.71 292.711H1274.29V251.289L1245 222L1274.29 192.711V151.289H1315.71L1345 122ZM1345.11 268.072C1370.49 268.072 1391.07 247.495 1391.07 222.11C1391.07 196.726 1370.49 176.149 1345.11 176.149C1319.73 176.149 1299.15 196.726 1299.15 222.11C1299.15 247.495 1319.73 268.072 1345.11 268.072Z" fill="url(#paint26_linear_21_28)"/>
<path fill-rule="evenodd" clip-rule="evenodd" d="M95 502L124.289 531.289H165.71V572.71L195 602L165.71 631.29V672.711H124.289L95 702L65.7107 672.711H24.289V631.289L-5 602L24.289 572.711V531.289H65.7107L95 502ZM95.1106 648.072C120.495 648.072 141.073 627.495 141.073 602.11C141.073 576.726 120.495 556.149 95.1106 556.149C69.7265 556.149 49.1487 576.726 49.1487 602.11C49.1487 627.495 69.7265 648.072 95.1106 648.072Z" fill="url(#paint27_linear_21_28)"/>
<path fill-rule="evenodd" clip-rule="evenodd" d="M345 372L374.289 401.289H415.711V442.711L445 472L415.711 501.289V542.711H374.289L345 572L315.711 542.711H274.289V501.289L245 472L274.289 442.711V401.289H315.711L345 372ZM345.111 518.072C370.495 518.072 391.073 497.495 391.073 472.11C391.073 446.726 370.495 426.149 345.111 426.149C319.727 426.149 299.149 446.726 299.149 472.11C299.149 497.495 319.727 518.072 345.111 518.072Z" fill="url(#paint28_linear_21_28)"/>
<path fill-rule="evenodd" clip-rule="evenodd" d="M595 502L624.289 531.289H665.71V572.71L695 602L665.71 631.29V672.711H624.289L595 702L565.711 672.711H524.289V631.289L495 602L524.289 572.711V531.289H565.711L595 502ZM595.111 648.072C620.495 648.072 641.073 627.495 641.073 602.11C641.073 576.726 620.495 556.149 595.111 556.149C569.727 556.149 549.149 576.726 549.149 602.11C549.149 627.495 569.727 648.072 595.111 648.072Z" fill="url(#paint29_linear_21_28)"/>
<path fill-rule="evenodd" clip-rule="evenodd" d="M845 372L874.289 401.289H915.711V442.711L945 472L915.711 501.289V542.711H874.289L845 572L815.711 542.711H774.289V501.289L745 472L774.289 442.711V401.289H815.711L845 372ZM845.111 518.072C870.495 518.072 891.073 497.495 891.073 472.11C891.073 446.726 870.495 426.149 845.111 426.149C819.727 426.149 799.149 446.726 799.149 472.11C799.149 497.495 819.727 518.072 845.111 518.072Z" fill="url(#paint30_linear_21_28)"/>
<path fill-rule="evenodd" clip-rule="evenodd" d="M1095 502L1124.29 531.289H1165.71V572.71L1195 602L1165.71 631.29V672.711H1124.29L1095 702L1065.71 672.711H1024.29V631.289L995 602L1024.29 572.711V531.289H1065.71L1095 502ZM1095.11 648.072C1120.49 648.072 1141.07 627.495 1141.07 602.11C1141.07 576.726 1120.49 556.149 1095.11 556.149C1069.73 556.149 1049.15 576.726 1049.15 602.11C1049.15 627.495 1069.73 648.072 1095.11 648.072Z" fill="url(#paint31_linear_21_28)"/>
<path fill-rule="evenodd" clip-rule="evenodd" d="M1345 372L1374.29 401.289H1415.71V442.711L1445 472L1415.71 501.289V542.711H1374.29L1345 572L1315.71 542.711H1274.29V501.289L1245 472L1274.29 442.711V401.289H1315.71L1345 372ZM1345.11 518.072C1370.49 518.072 1391.07 497.495 1391.07 472.11C1391.07 446.726 1370.49 426.149 1345.11 426.149C1319.73 426.149 1299.15 446.726 1299.15 472.11C1299.15 497.495 1319.73 518.072 1345.11 518.072Z" fill="url(#paint32_linear_21_28)"/>
<path fill-rule="evenodd" clip-rule="evenodd" d="M95 752L124.289 781.289H165.71V822.71L195 852L165.71 881.29V922.711H124.289L95 952L65.7107 922.711H24.289V881.289L-5 852L24.289 822.711V781.289H65.7107L95 752ZM95.1106 898.072C120.495 898.072 141.073 877.495 141.073 852.11C141.073 826.726 120.495 806.149 95.1106 806.149C69.7265 806.149 49.1487 826.726 49.1487 852.11C49.1487 877.495 69.7265 898.072 95.1106 898.072Z" fill="url(#paint33_linear_21_28)"/>
<path fill-rule="evenodd" clip-rule="evenodd" d="M345 622L374.289 651.289H415.711V692.711L445 722L415.711 751.289V792.711H374.289L345 822L315.711 792.711H274.289V751.289L245 722L274.289 692.711V651.289H315.711L345 622ZM345.111 768.072C370.495 768.072 391.073 747.495 391.073 722.11C391.073 696.726 370.495 676.149 345.111 676.149C319.727 676.149 299.149 696.726 299.149 722.11C299.149 747.495 319.727 768.072 345.111 768.072Z" fill="url(#paint34_linear_21_28)"/>
<path fill-rule="evenodd" clip-rule="evenodd" d="M595 752L624.289 781.289H665.71V822.71L695 852L665.71 881.29V922.711H624.289L595 952L565.711 922.711H524.289V881.289L495 852L524.289 822.711V781.289H565.711L595 752ZM595.111 898.072C620.495 898.072 641.073 877.495 641.073 852.11C641.073 826.726 620.495 806.149 595.111 806.149C569.727 806.149 549.149 826.726 549.149 852.11C549.149 877.495 569.727 898.072 595.111 898.072Z" fill="url(#paint35_linear_21_28)"/>
<path fill-rule="evenodd" clip-rule="evenodd" d="M845 622L874.289 651.289H915.711V692.711L945 722L915.711 751.289V792.711H874.289L845 822L815.711 792.711H774.289V751.289L745 722L774.289 692.711V651.289H815.711L845 622ZM845.111 768.072C870.495 768.072 891.073 747.495 891.073 722.11C891.073 696.726 870.495 676.149 845.111 676.149C819.727 676.149 799.149 696.726 799.149 722.11C799.149 747.495 819.727 768.072 845.111 768.072Z" fill="url(#paint36_linear_21_28)"/>
<path fill-rule="evenodd" clip-rule="evenodd" d="M1095 752L1124.29 781.289H1165.71V822.71L1195 852L1165.71 881.29V922.711H1124.29L1095 952L1065.71 922.711H1024.29V881.289L995 852L1024.29 822.711V781.289H1065.71L1095 752ZM1095.11 898.072C1120.49 898.072 1141.07 877.495 1141.07 852.11C1141.07 826.726 1120.49 806.149 1095.11 806.149C1069.73 806.149 1049.15 826.726 1049.15 852.11C1049.15 877.495 1069.73 898.072 1095.11 898.072Z" fill="url(#paint37_linear_21_28)"/>
<path fill-rule="evenodd" clip-rule="evenodd" d="M1345 622L1374.29 651.289H1415.71V692.711L1445 722L1415.71 751.289V792.711H1374.29L1345 822L1315.71 792.711H1274.29V751.289L1245 722L1274.29 692.711V651.289H1315.71L1345 622ZM1345.11 768.072C1370.49 768.072 1391.07 747.495 1391.07 722.11C1391.07 696.726 1370.49 676.149 1345.11 676.149C1319.73 676.149 1299.15 696.726 1299.15 722.11C1299.15 747.495 1319.73 768.072 1345.11 768.072Z" fill="url(#paint38_linear_21_28)"/>
<path fill-rule="evenodd" clip-rule="evenodd" d="M95 1002L124.289 1031.29H165.71V1072.71L195 1102L165.71 1131.29V1172.71H124.289L95 1202L65.7106 1172.71H24.289V1131.29L-5 1102L24.289 1072.71V1031.29H65.7107L95 1002ZM95.1106 1148.07C120.495 1148.07 141.073 1127.49 141.073 1102.11C141.073 1076.73 120.495 1056.15 95.1106 1056.15C69.7265 1056.15 49.1487 1076.73 49.1487 1102.11C49.1487 1127.49 69.7265 1148.07 95.1106 1148.07Z" fill="url(#paint39_linear_21_28)"/>
<path fill-rule="evenodd" clip-rule="evenodd" d="M345 872L374.289 901.289H415.711V942.711L445 972L415.711 1001.29V1042.71H374.289L345 1072L315.711 1042.71H274.289V1001.29L245 972L274.289 942.711V901.289H315.711L345 872ZM345.111 1018.07C370.495 1018.07 391.073 997.495 391.073 972.11C391.073 946.726 370.495 926.149 345.111 926.149C319.727 926.149 299.149 946.726 299.149 972.11C299.149 997.495 319.727 1018.07 345.111 1018.07Z" fill="url(#paint40_linear_21_28)"/>
<path fill-rule="evenodd" clip-rule="evenodd" d="M595 1002L624.289 1031.29H665.71V1072.71L695 1102L665.71 1131.29V1172.71H624.289L595 1202L565.711 1172.71H524.289V1131.29L495 1102L524.289 1072.71V1031.29H565.711L595 1002ZM595.111 1148.07C620.495 1148.07 641.073 1127.49 641.073 1102.11C641.073 1076.73 620.495 1056.15 595.111 1056.15C569.727 1056.15 549.149 1076.73 549.149 1102.11C549.149 1127.49 569.727 1148.07 595.111 1148.07Z" fill="url(#paint41_linear_21_28)"/>
<path fill-rule="evenodd" clip-rule="evenodd" d="M845 872L874.289 901.289H915.711V942.711L945 972L915.711 1001.29V1042.71H874.289L845 1072L815.711 1042.71H774.289V1001.29L745 972L774.289 942.711V901.289H815.711L845 872ZM845.111 1018.07C870.495 1018.07 891.073 997.495 891.073 972.11C891.073 946.726 870.495 926.149 845.111 926.149C819.727 926.149 799.149 946.726 799.149 972.11C799.149 997.495 819.727 1018.07 845.111 1018.07Z" fill="url(#paint42_linear_21_28)"/>
<path fill-rule="evenodd" clip-rule="evenodd" d="M1095 1002L1124.29 1031.29H1165.71V1072.71L1195 1102L1165.71 1131.29V1172.71H1124.29L1095 1202L1065.71 1172.71H1024.29V1131.29L995 1102L1024.29 1072.71V1031.29H1065.71L1095 1002ZM1095.11 1148.07C1120.49 1148.07 1141.07 1127.49 1141.07 1102.11C1141.07 1076.73 1120.49 1056.15 1095.11 1056.15C1069.73 1056.15 1049.15 1076.73 1049.15 1102.11C1049.15 1127.49 1069.73 1148.07 1095.11 1148.07Z" fill="url(#paint43_linear_21_28)"/>
<path fill-rule="evenodd" clip-rule="evenodd" d="M1345 872L1374.29 901.289H1415.71V942.711L1445 972L1415.71 1001.29V1042.71H1374.29L1345 1072L1315.71 1042.71H1274.29V1001.29L1245 972L1274.29 942.711V901.289H1315.71L1345 872ZM1345.11 1018.07C1370.49 1018.07 1391.07 997.495 1391.07 972.11C1391.07 946.726 1370.49 926.149 1345.11 926.149C1319.73 926.149 1299.15 946.726 1299.15 972.11C1299.15 997.495 1319.73 1018.07 1345.11 1018.07Z" fill="url(#paint44_linear_21_28)"/>
<path fill-rule="evenodd" clip-rule="evenodd" d="M95 1252L124.289 1281.29H165.71V1322.71L195 1352L165.71 1381.29V1422.71H124.289L95 1452L65.7107 1422.71H24.289V1381.29L-5 1352L24.289 1322.71V1281.29H65.7107L95 1252ZM95.1106 1398.07C120.495 1398.07 141.073 1377.49 141.073 1352.11C141.073 1326.73 120.495 1306.15 95.1106 1306.15C69.7265 1306.15 49.1487 1326.73 49.1487 1352.11C49.1487 1377.49 69.7265 1398.07 95.1106 1398.07Z" fill="url(#paint45_linear_21_28)"/>
<path fill-rule="evenodd" clip-rule="evenodd" d="M345 1122L374.289 1151.29H415.711V1192.71L445 1222L415.711 1251.29V1292.71H374.289L345 1322L315.711 1292.71H274.289V1251.29L245 1222L274.289 1192.71V1151.29H315.711L345 1122ZM345.111 1268.07C370.495 1268.07 391.073 1247.49 391.073 1222.11C391.073 1196.73 370.495 1176.15 345.111 1176.15C319.727 1176.15 299.149 1196.73 299.149 1222.11C299.149 1247.49 319.727 1268.07 345.111 1268.07Z" fill="url(#paint46_linear_21_28)"/>
<path fill-rule="evenodd" clip-rule="evenodd" d="M595 1252L624.289 1281.29H665.71V1322.71L695 1352L665.71 1381.29V1422.71H624.289L595 1452L565.711 1422.71H524.289V1381.29L495 1352L524.289 1322.71V1281.29H565.711L595 1252ZM595.111 1398.07C620.495 1398.07 641.073 1377.49 641.073 1352.11C641.073 1326.73 620.495 1306.15 595.111 1306.15C569.727 1306.15 549.149 1326.73 549.149 1352.11C549.149 1377.49 569.727 1398.07 595.111 1398.07Z" fill="url(#paint47_linear_21_28)"/>
<path fill-rule="evenodd" clip-rule="evenodd" d="M845 1122L874.289 1151.29H915.711V1192.71L945 1222L915.711 1251.29V1292.71H874.289L845 1322L815.711 1292.71H774.289V1251.29L745 1222L774.289 1192.71V1151.29H815.711L845 1122ZM845.111 1268.07C870.495 1268.07 891.073 1247.49 891.073 1222.11C891.073 1196.73 870.495 1176.15 845.111 1176.15C819.727 1176.15 799.149 1196.73 799.149 1222.11C799.149 1247.49 819.727 1268.07 845.111 1268.07Z" fill="url(#paint48_linear_21_28)"/>
<path fill-rule="evenodd" clip-rule="evenodd" d="M1095 1252L1124.29 1281.29H1165.71V1322.71L1195 1352L1165.71 1381.29V1422.71H1124.29L1095 1452L1065.71 1422.71H1024.29V1381.29L995 1352L1024.29 1322.71V1281.29H1065.71L1095 1252ZM1095.11 1398.07C1120.49 1398.07 1141.07 1377.49 1141.07 1352.11C1141.07 1326.73 1120.49 1306.15 1095.11 1306.15C1069.73 1306.15 1049.15 1326.73 1049.15 1352.11C1049.15 1377.49 1069.73 1398.07 1095.11 1398.07Z" fill="url(#paint49_linear_21_28)"/>
<path fill-rule="evenodd" clip-rule="evenodd" d="M1345 1122L1374.29 1151.29H1415.71V1192.71L1445 1222L1415.71 1251.29V1292.71H1374.29L1345 1322L1315.71 1292.71H1274.29V1251.29L1245 1222L1274.29 1192.71V1151.29H1315.71L1345 1122ZM1345.11 1268.07C1370.49 1268.07 1391.07 1247.49 1391.07 1222.11C1391.07 1196.73 1370.49 1176.15 1345.11 1176.15C1319.73 1176.15 1299.15 1196.73 1299.15 1222.11C1299.15 1247.49 1319.73 1268.07 1345.11 1268.07Z" fill="url(#paint50_linear_21_28)"/>
<path fill-rule="evenodd" clip-rule="evenodd" d="M95 1502L124.289 1531.29H165.71V1572.71L195 1602L165.71 1631.29V1672.71H124.289L95 1702L65.7107 1672.71H24.289V1631.29L-5 1602L24.289 1572.71V1531.29H65.7107L95 1502ZM95.1106 1648.07C120.495 1648.07 141.073 1627.49 141.073 1602.11C141.073 1576.73 120.495 1556.15 95.1106 1556.15C69.7265 1556.15 49.1487 1576.73 49.1487 1602.11C49.1487 1627.49 69.7265 1648.07 95.1106 1648.07Z" fill="url(#paint51_linear_21_28)"/>
<path fill-rule="evenodd" clip-rule="evenodd" d="M345 1372L374.289 1401.29H415.711V1442.71L445 1472L415.711 1501.29V1542.71H374.289L345 1572L315.711 1542.71H274.289V1501.29L245 1472L274.289 1442.71V1401.29H315.711L345 1372ZM345.111 1518.07C370.495 1518.07 391.073 1497.49 391.073 1472.11C391.073 1446.73 370.495 1426.15 345.111 1426.15C319.727 1426.15 299.149 1446.73 299.149 1472.11C299.149 1497.49 319.727 1518.07 345.111 1518.07Z" fill="url(#paint52_linear_21_28)"/>
<path fill-rule="evenodd" clip-rule="evenodd" d="M595 1502L624.289 1531.29H665.71V1572.71L695 1602L665.71 1631.29V1672.71H624.289L595 1702L565.711 1672.71H524.289V1631.29L495 1602L524.289 1572.71V1531.29H565.711L595 1502ZM595.111 1648.07C620.495 1648.07 641.073 1627.49 641.073 1602.11C641.073 1576.73 620.495 1556.15 595.111 1556.15C569.727 1556.15 549.149 1576.73 549.149 1602.11C549.149 1627.49 569.727 1648.07 595.111 1648.07Z" fill="url(#paint53_linear_21_28)"/>
<path fill-rule="evenodd" clip-rule="evenodd" d="M845 1372L874.289 1401.29H915.711V1442.71L945 1472L915.711 1501.29V1542.71H874.289L845 1572L815.711 1542.71H774.289V1501.29L745 1472L774.289 1442.71V1401.29H815.711L845 1372ZM845.111 1518.07C870.495 1518.07 891.073 1497.49 891.073 1472.11C891.073 1446.73 870.495 1426.15 845.111 1426.15C819.727 1426.15 799.149 1446.73 799.149 1472.11C799.149 1497.49 819.727 1518.07 845.111 1518.07Z" fill="url(#paint54_linear_21_28)"/>
<path fill-rule="evenodd" clip-rule="evenodd" d="M1095 1502L1124.29 1531.29H1165.71V1572.71L1195 1602L1165.71 1631.29V1672.71H1124.29L1095 1702L1065.71 1672.71H1024.29V1631.29L995 1602L1024.29 1572.71V1531.29H1065.71L1095 1502ZM1095.11 1648.07C1120.49 1648.07 1141.07 1627.49 1141.07 1602.11C1141.07 1576.73 1120.49 1556.15 1095.11 1556.15C1069.73 1556.15 1049.15 1576.73 1049.15 1602.11C1049.15 1627.49 1069.73 1648.07 1095.11 1648.07Z" fill="url(#paint55_linear_21_28)"/>
<path fill-rule="evenodd" clip-rule="evenodd" d="M1345 1372L1374.29 1401.29H1415.71V1442.71L1445 1472L1415.71 1501.29V1542.71H1374.29L1345 1572L1315.71 1542.71H1274.29V1501.29L1245 1472L1274.29 1442.71V1401.29H1315.71L1345 1372ZM1345.11 1518.07C1370.49 1518.07 1391.07 1497.49 1391.07 1472.11C1391.07 1446.73 1370.49 1426.15 1345.11 1426.15C1319.73 1426.15 1299.15 1446.73 1299.15 1472.11C1299.15 1497.49 1319.73 1518.07 1345.11 1518.07Z" fill="url(#paint56_linear_21_28)"/>
<path fill-rule="evenodd" clip-rule="evenodd" d="M95 1752L124.289 1781.29H165.71V1822.71L195 1852L165.71 1881.29V1922.71H124.289L95 1952L65.7107 1922.71H24.289V1881.29L-5 1852L24.289 1822.71V1781.29H65.7107L95 1752ZM95.1106 1898.07C120.495 1898.07 141.073 1877.49 141.073 1852.11C141.073 1826.73 120.495 1806.15 95.1106 1806.15C69.7265 1806.15 49.1487 1826.73 49.1487 1852.11C49.1487 1877.49 69.7265 1898.07 95.1106 1898.07Z" fill="url(#paint57_linear_21_28)"/>
<path fill-rule="evenodd" clip-rule="evenodd" d="M345 1622L374.289 1651.29H415.711V1692.71L445 1722L415.711 1751.29V1792.71H374.289L345 1822L315.711 1792.71H274.289V1751.29L245 1722L274.289 1692.71V1651.29H315.711L345 1622ZM345.111 1768.07C370.495 1768.07 391.073 1747.49 391.073 1722.11C391.073 1696.73 370.495 1676.15 345.111 1676.15C319.727 1676.15 299.149 1696.73 299.149 1722.11C299.149 1747.49 319.727 1768.07 345.111 1768.07Z" fill="url(#paint58_linear_21_28)"/>
<path fill-rule="evenodd" clip-rule="evenodd" d="M595 1752L624.289 1781.29H665.71V1822.71L695 1852L665.71 1881.29V1922.71H624.289L595 1952L565.711 1922.71H524.289V1881.29L495 1852L524.289 1822.71V1781.29H565.711L595 1752ZM595.111 1898.07C620.495 1898.07 641.073 1877.49 641.073 1852.11C641.073 1826.73 620.495 1806.15 595.111 1806.15C569.727 1806.15 549.149 1826.73 549.149 1852.11C549.149 1877.49 569.727 1898.07 595.111 1898.07Z" fill="url(#paint59_linear_21_28)"/>
<path fill-rule="evenodd" clip-rule="evenodd" d="M845 1622L874.289 1651.29H915.711V1692.71L945 1722L915.711 1751.29V1792.71H874.289L845 1822L815.711 1792.71H774.289V1751.29L745 1722L774.289 1692.71V1651.29H815.711L845 1622ZM845.111 1768.07C870.495 1768.07 891.073 1747.49 891.073 1722.11C891.073 1696.73 870.495 1676.15 845.111 1676.15C819.727 1676.15 799.149 1696.73 799.149 1722.11C799.149 1747.49 819.727 1768.07 845.111 1768.07Z" fill="url(#paint60_linear_21_28)"/>
<path fill-rule="evenodd" clip-rule="evenodd" d="M1095 1752L1124.29 1781.29H1165.71V1822.71L1195 1852L1165.71 1881.29V1922.71H1124.29L1095 1952L1065.71 1922.71H1024.29V1881.29L995 1852L1024.29 1822.71V1781.29H1065.71L1095 1752ZM1095.11 1898.07C1120.49 1898.07 1141.07 1877.49 1141.07 1852.11C1141.07 1826.73 1120.49 1806.15 1095.11 1806.15C1069.73 1806.15 1049.15 1826.73 1049.15 1852.11C1049.15 1877.49 1069.73 1898.07 1095.11 1898.07Z" fill="url(#paint61_linear_21_28)"/>
<path fill-rule="evenodd" clip-rule="evenodd" d="M1345 1622L1374.29 1651.29H1415.71V1692.71L1445 1722L1415.71 1751.29V1792.71H1374.29L1345 1822L1315.71 1792.71H1274.29V1751.29L1245 1722L1274.29 1692.71V1651.29H1315.71L1345 1622ZM1345.11 1768.07C1370.49 1768.07 1391.07 1747.49 1391.07 1722.11C1391.07 1696.73 1370.49 1676.15 1345.11 1676.15C1319.73 1676.15 1299.15 1696.73 1299.15 1722.11C1299.15 1747.49 1319.73 1768.07 1345.11 1768.07Z" fill="url(#paint62_linear_21_28)"/>
<path fill-rule="evenodd" clip-rule="evenodd" d="M95 2002L124.289 2031.29H165.71V2072.71L195 2102L165.71 2131.29V2172.71H124.289L95 2202L65.7107 2172.71H24.289V2131.29L-5 2102L24.289 2072.71V2031.29H65.7107L95 2002ZM95.1106 2148.07C120.495 2148.07 141.073 2127.49 141.073 2102.11C141.073 2076.73 120.495 2056.15 95.1106 2056.15C69.7265 2056.15 49.1487 2076.73 49.1487 2102.11C49.1487 2127.49 69.7265 2148.07 95.1106 2148.07Z" fill="url(#paint63_linear_21_28)"/>
<path fill-rule="evenodd" clip-rule="evenodd" d="M345 1872L374.289 1901.29H415.711V1942.71L445 1972L415.711 2001.29V2042.71H374.289L345 2072L315.711 2042.71H274.289V2001.29L245 1972L274.289 1942.71V1901.29H315.711L345 1872ZM345.111 2018.07C370.495 2018.07 391.073 1997.49 391.073 1972.11C391.073 1946.73 370.495 1926.15 345.111 1926.15C319.727 1926.15 299.149 1946.73 299.149 1972.11C299.149 1997.49 319.727 2018.07 345.111 2018.07Z" fill="url(#paint64_linear_21_28)"/>
<path fill-rule="evenodd" clip-rule="evenodd" d="M595 2002L624.289 2031.29H665.71V2072.71L695 2102L665.71 2131.29V2172.71H624.289L595 2202L565.711 2172.71H524.289V2131.29L495 2102L524.289 2072.71V2031.29H565.711L595 2002ZM595.111 2148.07C620.495 2148.07 641.073 2127.49 641.073 2102.11C641.073 2076.73 620.495 2056.15 595.111 2056.15C569.727 2056.15 549.149 2076.73 549.149 2102.11C549.149 2127.49 569.727 2148.07 595.111 2148.07Z" fill="url(#paint65_linear_21_28)"/>
<path fill-rule="evenodd" clip-rule="evenodd" d="M845 1872L874.289 1901.29H915.711V1942.71L945 1972L915.711 2001.29V2042.71H874.289L845 2072L815.711 2042.71H774.289V2001.29L745 1972L774.289 1942.71V1901.29H815.711L845 1872ZM845.111 2018.07C870.495 2018.07 891.073 1997.49 891.073 1972.11C891.073 1946.73 870.495 1926.15 845.111 1926.15C819.727 1926.15 799.149 1946.73 799.149 1972.11C799.149 1997.49 819.727 2018.07 845.111 2018.07Z" fill="url(#paint66_linear_21_28)"/>
<path fill-rule="evenodd" clip-rule="evenodd" d="M1095 2002L1124.29 2031.29H1165.71V2072.71L1195 2102L1165.71 2131.29V2172.71H1124.29L1095 2202L1065.71 2172.71H1024.29V2131.29L995 2102L1024.29 2072.71V2031.29H1065.71L1095 2002ZM1095.11 2148.07C1120.49 2148.07 1141.07 2127.49 1141.07 2102.11C1141.07 2076.73 1120.49 2056.15 1095.11 2056.15C1069.73 2056.15 1049.15 2076.73 1049.15 2102.11C1049.15 2127.49 1069.73 2148.07 1095.11 2148.07Z" fill="url(#paint67_linear_21_28)"/>
<path fill-rule="evenodd" clip-rule="evenodd" d="M1345 1872L1374.29 1901.29H1415.71V1942.71L1445 1972L1415.71 2001.29V2042.71H1374.29L1345 2072L1315.71 2042.71H1274.29V2001.29L1245 1972L1274.29 1942.71V1901.29H1315.71L1345 1872ZM1345.11 2018.07C1370.49 2018.07 1391.07 1997.49 1391.07 1972.11C1391.07 1946.73 1370.49 1926.15 1345.11 1926.15C1319.73 1926.15 1299.15 1946.73 1299.15 1972.11C1299.15 1997.49 1319.73 2018.07 1345.11 2018.07Z" fill="url(#paint68_linear_21_28)"/>
<path fill-rule="evenodd" clip-rule="evenodd" d="M95 2252L124.289 2281.29H165.71V2322.71L195 2352L165.71 2381.29V2422.71H124.289L95 2452L65.7107 2422.71H24.289V2381.29L-5 2352L24.289 2322.71V2281.29H65.7107L95 2252ZM95.1106 2398.07C120.495 2398.07 141.073 2377.49 141.073 2352.11C141.073 2326.73 120.495 2306.15 95.1106 2306.15C69.7265 2306.15 49.1487 2326.73 49.1487 2352.11C49.1487 2377.49 69.7265 2398.07 95.1106 2398.07Z" fill="url(#paint69_linear_21_28)"/>
<path fill-rule="evenodd" clip-rule="evenodd" d="M345 2122L374.289 2151.29H415.711V2192.71L445 2222L415.711 2251.29V2292.71H374.289L345 2322L315.711 2292.71H274.289V2251.29L245 2222L274.289 2192.71V2151.29H315.711L345 2122ZM345.111 2268.07C370.495 2268.07 391.073 2247.49 391.073 2222.11C391.073 2196.73 370.495 2176.15 345.111 2176.15C319.727 2176.15 299.149 2196.73 299.149 2222.11C299.149 2247.49 319.727 2268.07 345.111 2268.07Z" fill="url(#paint70_linear_21_28)"/>
<path fill-rule="evenodd" clip-rule="evenodd" d="M595 2252L624.289 2281.29H665.71V2322.71L695 2352L665.71 2381.29V2422.71H624.289L595 2452L565.711 2422.71H524.289V2381.29L495 2352L524.289 2322.71V2281.29H565.711L595 2252ZM595.111 2398.07C620.495 2398.07 641.073 2377.49 641.073 2352.11C641.073 2326.73 620.495 2306.15 595.111 2306.15C569.727 2306.15 549.149 2326.73 549.149 2352.11C549.149 2377.49 569.727 2398.07 595.111 2398.07Z" fill="url(#paint71_linear_21_28)"/>
<path fill-rule="evenodd" clip-rule="evenodd" d="M845 2122L874.289 2151.29H915.711V2192.71L945 2222L915.711 2251.29V2292.71H874.289L845 2322L815.711 2292.71H774.289V2251.29L745 2222L774.289 2192.71V2151.29H815.711L845 2122ZM845.111 2268.07C870.495 2268.07 891.073 2247.49 891.073 2222.11C891.073 2196.73 870.495 2176.15 845.111 2176.15C819.727 2176.15 799.149 2196.73 799.149 2222.11C799.149 2247.49 819.727 2268.07 845.111 2268.07Z" fill="url(#paint72_linear_21_28)"/>
<path fill-rule="evenodd" clip-rule="evenodd" d="M1095 2252L1124.29 2281.29H1165.71V2322.71L1195 2352L1165.71 2381.29V2422.71H1124.29L1095 2452L1065.71 2422.71H1024.29V2381.29L995 2352L1024.29 2322.71V2281.29H1065.71L1095 2252ZM1095.11 2398.07C1120.49 2398.07 1141.07 2377.49 1141.07 2352.11C1141.07 2326.73 1120.49 2306.15 1095.11 2306.15C1069.73 2306.15 1049.15 2326.73 1049.15 2352.11C1049.15 2377.49 1069.73 2398.07 1095.11 2398.07Z" fill="url(#paint73_linear_21_28)"/>
<path fill-rule="evenodd" clip-rule="evenodd" d="M1345 2122L1374.29 2151.29H1415.71V2192.71L1445 2222L1415.71 2251.29V2292.71H1374.29L1345 2322L1315.71 2292.71H1274.29V2251.29L1245 2222L1274.29 2192.71V2151.29H1315.71L1345 2122ZM1345.11 2268.07C1370.49 2268.07 1391.07 2247.49 1391.07 2222.11C1391.07 2196.73 1370.49 2176.15 1345.11 2176.15C1319.73 2176.15 1299.15 2196.73 1299.15 2222.11C1299.15 2247.49 1319.73 2268.07 1345.11 2268.07Z" fill="url(#paint74_linear_21_28)"/>
</g>
<defs>
<linearGradient id="paint0_linear_21_28" x1="3.29706" y1="2517.51" x2="289.454" y2="2798.69" gradientUnits="userSpaceOnUse">
<stop stop-color="#FF3D00"/>
<stop offset="1" stop-color="#D50000"/>
</linearGradient>
<linearGradient id="paint1_linear_21_28" x1="253.297" y1="2387.51" x2="539.454" y2="2668.69" gradientUnits="userSpaceOnUse">
<stop stop-color="#FF3D00"/>
<stop offset="1" stop-color="#D50000"/>
</linearGradient>
<linearGradient id="paint2_linear_21_28" x1="503.297" y1="2517.51" x2="789.454" y2="2798.69" gradientUnits="userSpaceOnUse">
<stop stop-color="#FF3D00"/>
<stop offset="1" stop-color="#D50000"/>
</linearGradient>
<linearGradient id="paint3_linear_21_28" x1="753.297" y1="2387.51" x2="1039.45" y2="2668.69" gradientUnits="userSpaceOnUse">
<stop stop-color="#FF3D00"/>
<stop offset="1" stop-color="#D50000"/>
</linearGradient>
<linearGradient id="paint4_linear_21_28" x1="1003.3" y1="2517.51" x2="1289.45" y2="2798.69" gradientUnits="userSpaceOnUse">
<stop stop-color="#FF3D00"/>
<stop offset="1" stop-color="#D50000"/>
</linearGradient>
<linearGradient id="paint5_linear_21_28" x1="1253.3" y1="2387.51" x2="1539.45" y2="2668.69" gradientUnits="userSpaceOnUse">
<stop stop-color="#FF3D00"/>
<stop offset="1" stop-color="#D50000"/>
</linearGradient>
<linearGradient id="paint6_linear_21_28" x1="3.29706" y1="2767.51" x2="289.454" y2="3048.69" gradientUnits="userSpaceOnUse">
<stop stop-color="#FF3D00"/>
<stop offset="1" stop-color="#D50000"/>
</linearGradient>
<linearGradient id="paint7_linear_21_28" x1="253.297" y1="2637.51" x2="539.454" y2="2918.69" gradientUnits="userSpaceOnUse">
<stop stop-color="#FF3D00"/>
<stop offset="1" stop-color="#D50000"/>
</linearGradient>
<linearGradient id="paint8_linear_21_28" x1="503.297" y1="2767.51" x2="789.454" y2="3048.69" gradientUnits="userSpaceOnUse">
<stop stop-color="#FF3D00"/>
<stop offset="1" stop-color="#D50000"/>
</linearGradient>
<linearGradient id="paint9_linear_21_28" x1="753.297" y1="2637.51" x2="1039.45" y2="2918.69" gradientUnits="userSpaceOnUse">
<stop stop-color="#FF3D00"/>
<stop offset="1" stop-color="#D50000"/>
</linearGradient>
<linearGradient id="paint10_linear_21_28" x1="1003.3" y1="2767.51" x2="1289.45" y2="3048.69" gradientUnits="userSpaceOnUse">
<stop stop-color="#FF3D00"/>
<stop offset="1" stop-color="#D50000"/>
</linearGradient>
<linearGradient id="paint11_linear_21_28" x1="1253.3" y1="2637.51" x2="1539.45" y2="2918.69" gradientUnits="userSpaceOnUse">
<stop stop-color="#FF3D00"/>
<stop offset="1" stop-color="#D50000"/>
</linearGradient>
<linearGradient id="paint12_linear_21_28" x1="253.297" y1="2887.51" x2="539.454" y2="3168.69" gradientUnits="userSpaceOnUse">
<stop stop-color="#FF3D00"/>
<stop offset="1" stop-color="#D50000"/>
</linearGradient>
<linearGradient id="paint13_linear_21_28" x1="753.297" y1="2887.51" x2="1039.45" y2="3168.69" gradientUnits="userSpaceOnUse">
<stop stop-color="#FF3D00"/>
<stop offset="1" stop-color="#D50000"/>
</linearGradient>
<linearGradient id="paint14_linear_21_28" x1="1253.3" y1="2887.51" x2="1539.45" y2="3168.69" gradientUnits="userSpaceOnUse">
<stop stop-color="#FF3D00"/>
<stop offset="1" stop-color="#D50000"/>
</linearGradient>
<linearGradient id="paint15_linear_21_28" x1="3.29706" y1="12.5068" x2="289.454" y2="293.692" gradientUnits="userSpaceOnUse">
<stop stop-color="#FF3D00"/>
<stop offset="1" stop-color="#D50000"/>
</linearGradient>
<linearGradient id="paint16_linear_21_28" x1="253.297" y1="-117.493" x2="539.454" y2="163.692" gradientUnits="userSpaceOnUse">
<stop stop-color="#FF3D00"/>
<stop offset="1" stop-color="#D50000"/>
</linearGradient>
<linearGradient id="paint17_linear_21_28" x1="503.297" y1="12.5068" x2="789.454" y2="293.692" gradientUnits="userSpaceOnUse">
<stop stop-color="#FF3D00"/>
<stop offset="1" stop-color="#D50000"/>
</linearGradient>
<linearGradient id="paint18_linear_21_28" x1="753.297" y1="-117.493" x2="1039.45" y2="163.692" gradientUnits="userSpaceOnUse">
<stop stop-color="#FF3D00"/>
<stop offset="1" stop-color="#D50000"/>
</linearGradient>
<linearGradient id="paint19_linear_21_28" x1="1003.3" y1="12.5068" x2="1289.45" y2="293.692" gradientUnits="userSpaceOnUse">
<stop stop-color="#FF3D00"/>
<stop offset="1" stop-color="#D50000"/>
</linearGradient>
<linearGradient id="paint20_linear_21_28" x1="1253.3" y1="-117.493" x2="1539.45" y2="163.692" gradientUnits="userSpaceOnUse">
<stop stop-color="#FF3D00"/>
<stop offset="1" stop-color="#D50000"/>
</linearGradient>
<linearGradient id="paint21_linear_21_28" x1="3.29706" y1="262.507" x2="289.454" y2="543.692" gradientUnits="userSpaceOnUse">
<stop stop-color="#FF3D00"/>
<stop offset="1" stop-color="#D50000"/>
</linearGradient>
<linearGradient id="paint22_linear_21_28" x1="253.297" y1="132.507" x2="539.454" y2="413.692" gradientUnits="userSpaceOnUse">
<stop stop-color="#FF3D00"/>
<stop offset="1" stop-color="#D50000"/>
</linearGradient>
<linearGradient id="paint23_linear_21_28" x1="503.297" y1="262.507" x2="789.454" y2="543.692" gradientUnits="userSpaceOnUse">
<stop stop-color="#FF3D00"/>
<stop offset="1" stop-color="#D50000"/>
</linearGradient>
<linearGradient id="paint24_linear_21_28" x1="753.297" y1="132.507" x2="1039.45" y2="413.692" gradientUnits="userSpaceOnUse">
<stop stop-color="#FF3D00"/>
<stop offset="1" stop-color="#D50000"/>
</linearGradient>
<linearGradient id="paint25_linear_21_28" x1="1003.3" y1="262.507" x2="1289.45" y2="543.692" gradientUnits="userSpaceOnUse">
<stop stop-color="#FF3D00"/>
<stop offset="1" stop-color="#D50000"/>
</linearGradient>
<linearGradient id="paint26_linear_21_28" x1="1253.3" y1="132.507" x2="1539.45" y2="413.692" gradientUnits="userSpaceOnUse">
<stop stop-color="#FF3D00"/>
<stop offset="1" stop-color="#D50000"/>
</linearGradient>
<linearGradient id="paint27_linear_21_28" x1="3.29706" y1="512.507" x2="289.454" y2="793.692" gradientUnits="userSpaceOnUse">
<stop stop-color="#FF3D00"/>
<stop offset="1" stop-color="#D50000"/>
</linearGradient>
<linearGradient id="paint28_linear_21_28" x1="253.297" y1="382.507" x2="539.454" y2="663.692" gradientUnits="userSpaceOnUse">
<stop stop-color="#FF3D00"/>
<stop offset="1" stop-color="#D50000"/>
</linearGradient>
<linearGradient id="paint29_linear_21_28" x1="503.297" y1="512.507" x2="789.454" y2="793.692" gradientUnits="userSpaceOnUse">
<stop stop-color="#FF3D00"/>
<stop offset="1" stop-color="#D50000"/>
</linearGradient>
<linearGradient id="paint30_linear_21_28" x1="753.297" y1="382.507" x2="1039.45" y2="663.692" gradientUnits="userSpaceOnUse">
<stop stop-color="#FF3D00"/>
<stop offset="1" stop-color="#D50000"/>
</linearGradient>
<linearGradient id="paint31_linear_21_28" x1="1003.3" y1="512.507" x2="1289.45" y2="793.692" gradientUnits="userSpaceOnUse">
<stop stop-color="#FF3D00"/>
<stop offset="1" stop-color="#D50000"/>
</linearGradient>
<linearGradient id="paint32_linear_21_28" x1="1253.3" y1="382.507" x2="1539.45" y2="663.692" gradientUnits="userSpaceOnUse">
<stop stop-color="#FF3D00"/>
<stop offset="1" stop-color="#D50000"/>
</linearGradient>
<linearGradient id="paint33_linear_21_28" x1="3.29706" y1="762.507" x2="289.454" y2="1043.69" gradientUnits="userSpaceOnUse">
<stop stop-color="#FF3D00"/>
<stop offset="1" stop-color="#D50000"/>
</linearGradient>
<linearGradient id="paint34_linear_21_28" x1="253.297" y1="632.507" x2="539.454" y2="913.692" gradientUnits="userSpaceOnUse">
<stop stop-color="#FF3D00"/>
<stop offset="1" stop-color="#D50000"/>
</linearGradient>
<linearGradient id="paint35_linear_21_28" x1="503.297" y1="762.507" x2="789.454" y2="1043.69" gradientUnits="userSpaceOnUse">
<stop stop-color="#FF3D00"/>
<stop offset="1" stop-color="#D50000"/>
</linearGradient>
<linearGradient id="paint36_linear_21_28" x1="753.297" y1="632.507" x2="1039.45" y2="913.692" gradientUnits="userSpaceOnUse">
<stop stop-color="#FF3D00"/>
<stop offset="1" stop-color="#D50000"/>
</linearGradient>
<linearGradient id="paint37_linear_21_28" x1="1003.3" y1="762.507" x2="1289.45" y2="1043.69" gradientUnits="userSpaceOnUse">
<stop stop-color="#FF3D00"/>
<stop offset="1" stop-color="#D50000"/>
</linearGradient>
<linearGradient id="paint38_linear_21_28" x1="1253.3" y1="632.507" x2="1539.45" y2="913.692" gradientUnits="userSpaceOnUse">
<stop stop-color="#FF3D00"/>
<stop offset="1" stop-color="#D50000"/>
</linearGradient>
<linearGradient id="paint39_linear_21_28" x1="3.29706" y1="1012.51" x2="289.454" y2="1293.69" gradientUnits="userSpaceOnUse">
<stop stop-color="#FF3D00"/>
<stop offset="1" stop-color="#D50000"/>
</linearGradient>
<linearGradient id="paint40_linear_21_28" x1="253.297" y1="882.507" x2="539.454" y2="1163.69" gradientUnits="userSpaceOnUse">
<stop stop-color="#FF3D00"/>
<stop offset="1" stop-color="#D50000"/>
</linearGradient>
<linearGradient id="paint41_linear_21_28" x1="503.297" y1="1012.51" x2="789.454" y2="1293.69" gradientUnits="userSpaceOnUse">
<stop stop-color="#FF3D00"/>
<stop offset="1" stop-color="#D50000"/>
</linearGradient>
<linearGradient id="paint42_linear_21_28" x1="753.297" y1="882.507" x2="1039.45" y2="1163.69" gradientUnits="userSpaceOnUse">
<stop stop-color="#FF3D00"/>
<stop offset="1" stop-color="#D50000"/>
</linearGradient>
<linearGradient id="paint43_linear_21_28" x1="1003.3" y1="1012.51" x2="1289.45" y2="1293.69" gradientUnits="userSpaceOnUse">
<stop stop-color="#FF3D00"/>
<stop offset="1" stop-color="#D50000"/>
</linearGradient>
<linearGradient id="paint44_linear_21_28" x1="1253.3" y1="882.507" x2="1539.45" y2="1163.69" gradientUnits="userSpaceOnUse">
<stop stop-color="#FF3D00"/>
<stop offset="1" stop-color="#D50000"/>
</linearGradient>
<linearGradient id="paint45_linear_21_28" x1="3.29706" y1="1262.51" x2="289.454" y2="1543.69" gradientUnits="userSpaceOnUse">
<stop stop-color="#FF3D00"/>
<stop offset="1" stop-color="#D50000"/>
</linearGradient>
<linearGradient id="paint46_linear_21_28" x1="253.297" y1="1132.51" x2="539.454" y2="1413.69" gradientUnits="userSpaceOnUse">
<stop stop-color="#FF3D00"/>
<stop offset="1" stop-color="#D50000"/>
</linearGradient>
<linearGradient id="paint47_linear_21_28" x1="503.297" y1="1262.51" x2="789.454" y2="1543.69" gradientUnits="userSpaceOnUse">
<stop stop-color="#FF3D00"/>
<stop offset="1" stop-color="#D50000"/>
</linearGradient>
<linearGradient id="paint48_linear_21_28" x1="753.297" y1="1132.51" x2="1039.45" y2="1413.69" gradientUnits="userSpaceOnUse">
<stop stop-color="#FF3D00"/>
<stop offset="1" stop-color="#D50000"/>
</linearGradient>
<linearGradient id="paint49_linear_21_28" x1="1003.3" y1="1262.51" x2="1289.45" y2="1543.69" gradientUnits="userSpaceOnUse">
<stop stop-color="#FF3D00"/>
<stop offset="1" stop-color="#D50000"/>
</linearGradient>
<linearGradient id="paint50_linear_21_28" x1="1253.3" y1="1132.51" x2="1539.45" y2="1413.69" gradientUnits="userSpaceOnUse">
<stop stop-color="#FF3D00"/>
<stop offset="1" stop-color="#D50000"/>
</linearGradient>
<linearGradient id="paint51_linear_21_28" x1="3.29706" y1="1512.51" x2="289.454" y2="1793.69" gradientUnits="userSpaceOnUse">
<stop stop-color="#FF3D00"/>
<stop offset="1" stop-color="#D50000"/>
</linearGradient>
<linearGradient id="paint52_linear_21_28" x1="253.297" y1="1382.51" x2="539.454" y2="1663.69" gradientUnits="userSpaceOnUse">
<stop stop-color="#FF3D00"/>
<stop offset="1" stop-color="#D50000"/>
</linearGradient>
<linearGradient id="paint53_linear_21_28" x1="503.297" y1="1512.51" x2="789.454" y2="1793.69" gradientUnits="userSpaceOnUse">
<stop stop-color="#FF3D00"/>
<stop offset="1" stop-color="#D50000"/>
</linearGradient>
<linearGradient id="paint54_linear_21_28" x1="753.297" y1="1382.51" x2="1039.45" y2="1663.69" gradientUnits="userSpaceOnUse">
<stop stop-color="#FF3D00"/>
<stop offset="1" stop-color="#D50000"/>
</linearGradient>
<linearGradient id="paint55_linear_21_28" x1="1003.3" y1="1512.51" x2="1289.45" y2="1793.69" gradientUnits="userSpaceOnUse">
<stop stop-color="#FF3D00"/>
<stop offset="1" stop-color="#D50000"/>
</linearGradient>
<linearGradient id="paint56_linear_21_28" x1="1253.3" y1="1382.51" x2="1539.45" y2="1663.69" gradientUnits="userSpaceOnUse">
<stop stop-color="#FF3D00"/>
<stop offset="1" stop-color="#D50000"/>
</linearGradient>
<linearGradient id="paint57_linear_21_28" x1="3.29706" y1="1762.51" x2="289.454" y2="2043.69" gradientUnits="userSpaceOnUse">
<stop stop-color="#FF3D00"/>
<stop offset="1" stop-color="#D50000"/>
</linearGradient>
<linearGradient id="paint58_linear_21_28" x1="253.297" y1="1632.51" x2="539.454" y2="1913.69" gradientUnits="userSpaceOnUse">
<stop stop-color="#FF3D00"/>
<stop offset="1" stop-color="#D50000"/>
</linearGradient>
<linearGradient id="paint59_linear_21_28" x1="503.297" y1="1762.51" x2="789.454" y2="2043.69" gradientUnits="userSpaceOnUse">
<stop stop-color="#FF3D00"/>
<stop offset="1" stop-color="#D50000"/>
</linearGradient>
<linearGradient id="paint60_linear_21_28" x1="753.297" y1="1632.51" x2="1039.45" y2="1913.69" gradientUnits="userSpaceOnUse">
<stop stop-color="#FF3D00"/>
<stop offset="1" stop-color="#D50000"/>
</linearGradient>
<linearGradient id="paint61_linear_21_28" x1="1003.3" y1="1762.51" x2="1289.45" y2="2043.69" gradientUnits="userSpaceOnUse">
<stop stop-color="#FF3D00"/>
<stop offset="1" stop-color="#D50000"/>
</linearGradient>
<linearGradient id="paint62_linear_21_28" x1="1253.3" y1="1632.51" x2="1539.45" y2="1913.69" gradientUnits="userSpaceOnUse">
<stop stop-color="#FF3D00"/>
<stop offset="1" stop-color="#D50000"/>
</linearGradient>
<linearGradient id="paint63_linear_21_28" x1="3.29706" y1="2012.51" x2="289.454" y2="2293.69" gradientUnits="userSpaceOnUse">
<stop stop-color="#FF3D00"/>
<stop offset="1" stop-color="#D50000"/>
</linearGradient>
<linearGradient id="paint64_linear_21_28" x1="253.297" y1="1882.51" x2="539.454" y2="2163.69" gradientUnits="userSpaceOnUse">
<stop stop-color="#FF3D00"/>
<stop offset="1" stop-color="#D50000"/>
</linearGradient>
<linearGradient id="paint65_linear_21_28" x1="503.297" y1="2012.51" x2="789.454" y2="2293.69" gradientUnits="userSpaceOnUse">
<stop stop-color="#FF3D00"/>
<stop offset="1" stop-color="#D50000"/>
</linearGradient>
<linearGradient id="paint66_linear_21_28" x1="753.297" y1="1882.51" x2="1039.45" y2="2163.69" gradientUnits="userSpaceOnUse">
<stop stop-color="#FF3D00"/>
<stop offset="1" stop-color="#D50000"/>
</linearGradient>
<linearGradient id="paint67_linear_21_28" x1="1003.3" y1="2012.51" x2="1289.45" y2="2293.69" gradientUnits="userSpaceOnUse">
<stop stop-color="#FF3D00"/>
<stop offset="1" stop-color="#D50000"/>
</linearGradient>
<linearGradient id="paint68_linear_21_28" x1="1253.3" y1="1882.51" x2="1539.45" y2="2163.69" gradientUnits="userSpaceOnUse">
<stop stop-color="#FF3D00"/>
<stop offset="1" stop-color="#D50000"/>
</linearGradient>
<linearGradient id="paint69_linear_21_28" x1="3.29706" y1="2262.51" x2="289.454" y2="2543.69" gradientUnits="userSpaceOnUse">
<stop stop-color="#FF3D00"/>
<stop offset="1" stop-color="#D50000"/>
</linearGradient>
<linearGradient id="paint70_linear_21_28" x1="253.297" y1="2132.51" x2="539.454" y2="2413.69" gradientUnits="userSpaceOnUse">
<stop stop-color="#FF3D00"/>
<stop offset="1" stop-color="#D50000"/>
</linearGradient>
<linearGradient id="paint71_linear_21_28" x1="503.297" y1="2262.51" x2="789.454" y2="2543.69" gradientUnits="userSpaceOnUse">
<stop stop-color="#FF3D00"/>
<stop offset="1" stop-color="#D50000"/>
</linearGradient>
<linearGradient id="paint72_linear_21_28" x1="753.297" y1="2132.51" x2="1039.45" y2="2413.69" gradientUnits="userSpaceOnUse">
<stop stop-color="#FF3D00"/>
<stop offset="1" stop-color="#D50000"/>
</linearGradient>
<linearGradient id="paint73_linear_21_28" x1="1003.3" y1="2262.51" x2="1289.45" y2="2543.69" gradientUnits="userSpaceOnUse">
<stop stop-color="#FF3D00"/>
<stop offset="1" stop-color="#D50000"/>
</linearGradient>
<linearGradient id="paint74_linear_21_28" x1="1253.3" y1="2132.51" x2="1539.45" y2="2413.69" gradientUnits="userSpaceOnUse">
<stop stop-color="#FF3D00"/>
<stop offset="1" stop-color="#D50000"/>
</linearGradient>
<clipPath id="clip0_21_28">
<rect width="1440" height="2960" fill="white"/>
</clipPath>
</defs>
</svg>
