<svg width="1440" height="2960" viewBox="0 0 1440 2960" fill="none" xmlns="http://www.w3.org/2000/svg">
<g clip-path="url(#clip0)">
<rect width="1440" height="2960" fill="url(#paint0_linear)"/>
<g clip-path="url(#clip1)">
<path fill-rule="evenodd" clip-rule="evenodd" d="M-325.609 1580L546.632 2960H-1197.85L-325.609 1580Z" fill="url(#paint1_linear)"/>
<path fill-rule="evenodd" clip-rule="evenodd" d="M-14.3206 1683.12L577.98 2960H-606.621L-14.3206 1683.12Z" fill="url(#paint2_linear)"/>
<path fill-rule="evenodd" clip-rule="evenodd" d="M2028.75 1580L2900.99 2960H1156.5L2028.75 1580Z" fill="url(#paint3_linear)"/>
<path fill-rule="evenodd" clip-rule="evenodd" d="M687.22 1158.12L1887.02 2960H-512.58L687.22 1158.12Z" fill="url(#paint4_linear)"/>
<path fill-rule="evenodd" clip-rule="evenodd" d="M1273.11 1349.38L2291.12 2960H255.096L1273.11 1349.38Z" fill="url(#paint5_linear)"/>
<path fill-rule="evenodd" clip-rule="evenodd" d="M615.39 2120.94L1487.63 3500.94H-256.852L615.39 2120.94Z" fill="url(#paint6_linear)"/>
<path fill-rule="evenodd" clip-rule="evenodd" d="M1418.87 2242.81L2291.12 3622.81H546.633L1418.87 2242.81Z" fill="url(#paint7_linear)"/>
</g>
<path d="M460 1580C515.228 1580 560 1535.23 560 1480C560 1424.77 515.228 1380 460 1380C404.772 1380 360 1424.77 360 1480C360 1535.23 404.772 1580 460 1580Z" fill="white"/>
<path d="M407.473 1427.47H512.529V1532.53H407.473V1427.47Z" fill="url(#paint8_linear)"/>
<path d="M385.715 1480L460.001 1405.71L534.286 1480L460.001 1554.29L385.715 1480Z" fill="url(#paint9_linear)"/>
<path d="M460 1520C482.091 1520 500 1502.09 500 1480C500 1457.91 482.091 1440 460 1440C437.909 1440 420 1457.91 420 1480C420 1502.09 437.909 1520 460 1520Z" fill="white"/>
<path d="M662.174 1514.8H654.134V1503.64C648.294 1511.48 640.814 1515.4 631.694 1515.4C626.174 1515.4 621.094 1514.04 616.454 1511.32C611.814 1508.6 608.134 1504.92 605.414 1500.28C602.694 1495.56 601.334 1490.48 601.334 1485.04C601.334 1479.6 602.694 1474.56 605.414 1469.92C608.134 1465.2 611.814 1461.48 616.454 1458.76C621.094 1456.04 626.174 1454.68 631.694 1454.68C641.134 1454.68 648.614 1458.4 654.134 1465.84V1435.12H662.174V1514.8ZM653.894 1485.04C653.894 1481.04 652.894 1477.36 650.894 1474C648.894 1470.64 646.174 1467.96 642.734 1465.96C639.374 1463.96 635.694 1462.96 631.694 1462.96C627.694 1462.96 624.014 1463.96 620.654 1465.96C617.294 1467.96 614.614 1470.64 612.614 1474C610.614 1477.36 609.614 1481.04 609.614 1485.04C609.614 1489.04 610.614 1492.76 612.614 1496.2C614.614 1499.56 617.294 1502.24 620.654 1504.24C624.014 1506.24 627.694 1507.24 631.694 1507.24C635.694 1507.24 639.374 1506.24 642.734 1504.24C646.174 1502.24 648.894 1499.56 650.894 1496.2C652.894 1492.76 653.894 1489.04 653.894 1485.04ZM736.295 1456.36V1514.8H728.015V1503.76C722.495 1511.52 715.135 1515.4 705.935 1515.4C700.415 1515.4 695.335 1514.08 690.695 1511.44C686.055 1508.72 682.375 1505.04 679.655 1500.4C677.015 1495.76 675.695 1490.72 675.695 1485.28C675.695 1479.76 677.015 1474.68 679.655 1470.04C682.375 1465.4 686.055 1461.76 690.695 1459.12C695.335 1456.4 700.415 1455.04 705.935 1455.04C711.615 1455.04 716.255 1456.24 719.855 1458.64C723.535 1460.96 726.255 1463.48 728.015 1466.2V1456.36H736.295ZM705.935 1507.24C709.935 1507.24 713.615 1506.28 716.975 1504.36C720.335 1502.36 722.975 1499.68 724.895 1496.32C726.895 1492.96 727.895 1489.28 727.895 1485.28C727.895 1481.28 726.895 1477.6 724.895 1474.24C722.975 1470.8 720.335 1468.12 716.975 1466.2C713.615 1464.2 709.935 1463.2 705.935 1463.2C701.935 1463.2 698.215 1464.2 694.775 1466.2C691.415 1468.12 688.735 1470.8 686.735 1474.24C684.815 1477.6 683.855 1481.28 683.855 1485.28C683.855 1489.28 684.815 1492.96 686.735 1496.32C688.735 1499.68 691.415 1502.36 694.775 1504.36C698.215 1506.28 701.935 1507.24 705.935 1507.24ZM774.903 1454.32C779.223 1454.32 783.183 1455.4 786.783 1457.56C790.463 1459.64 793.343 1462.52 795.423 1466.2C797.583 1469.8 798.663 1473.76 798.663 1478.08V1514.8H790.383V1478.08C790.383 1475.28 789.663 1472.68 788.223 1470.28C786.863 1467.88 784.983 1466 782.583 1464.64C780.263 1463.2 777.703 1462.48 774.903 1462.48C772.103 1462.48 769.503 1463.2 767.103 1464.64C764.703 1466 762.783 1467.88 761.343 1470.28C759.983 1472.68 759.303 1475.28 759.303 1478.08V1514.8H751.023V1434.76H759.303V1461.04C761.223 1458.8 763.503 1457.12 766.143 1456C768.863 1454.88 771.783 1454.32 774.903 1454.32ZM821.591 1435V1514.8H813.431V1435H821.591ZM841.747 1438.12C843.187 1438.12 844.427 1438.64 845.467 1439.68C846.507 1440.72 847.027 1441.96 847.027 1443.4C847.027 1444.92 846.507 1446.2 845.467 1447.24C844.427 1448.28 843.187 1448.8 841.747 1448.8C840.227 1448.8 838.947 1448.28 837.907 1447.24C836.867 1446.2 836.347 1444.92 836.347 1443.4C836.347 1441.96 836.867 1440.72 837.907 1439.68C838.947 1438.64 840.227 1438.12 841.747 1438.12ZM845.827 1454.8V1514.8H837.547V1454.8H845.827ZM917.609 1456.36V1514.8H909.329V1503.76C903.809 1511.52 896.449 1515.4 887.249 1515.4C881.729 1515.4 876.649 1514.08 872.009 1511.44C867.369 1508.72 863.689 1505.04 860.969 1500.4C858.329 1495.76 857.009 1490.72 857.009 1485.28C857.009 1479.76 858.329 1474.68 860.969 1470.04C863.689 1465.4 867.369 1461.76 872.009 1459.12C876.649 1456.4 881.729 1455.04 887.249 1455.04C892.929 1455.04 897.569 1456.24 901.169 1458.64C904.849 1460.96 907.569 1463.48 909.329 1466.2V1456.36H917.609ZM887.249 1507.24C891.249 1507.24 894.929 1506.28 898.289 1504.36C901.649 1502.36 904.289 1499.68 906.209 1496.32C908.209 1492.96 909.209 1489.28 909.209 1485.28C909.209 1481.28 908.209 1477.6 906.209 1474.24C904.289 1470.8 901.649 1468.12 898.289 1466.2C894.929 1464.2 891.249 1463.2 887.249 1463.2C883.249 1463.2 879.529 1464.2 876.089 1466.2C872.729 1468.12 870.049 1470.8 868.049 1474.24C866.129 1477.6 865.169 1481.28 865.169 1485.28C865.169 1489.28 866.129 1492.96 868.049 1496.32C870.049 1499.68 872.729 1502.36 876.089 1504.36C879.529 1506.28 883.249 1507.24 887.249 1507.24ZM971.097 1515.4C963.817 1515.4 957.137 1513.6 951.057 1510C944.977 1506.4 940.137 1501.56 936.537 1495.48C932.937 1489.4 931.137 1482.72 931.137 1475.44C931.137 1468.16 932.937 1461.48 936.537 1455.4C940.137 1449.24 944.977 1444.36 951.057 1440.76C957.217 1437.16 963.897 1435.36 971.097 1435.36C978.297 1435.36 984.977 1437.16 991.137 1440.76C997.297 1444.36 1002.18 1449.24 1005.78 1455.4C1009.38 1461.56 1011.18 1468.24 1011.18 1475.44C1011.18 1482.64 1009.38 1489.32 1005.78 1495.48C1002.18 1501.56 997.297 1506.4 991.137 1510C985.057 1513.6 978.377 1515.4 971.097 1515.4ZM971.097 1507.24C976.857 1507.24 982.177 1505.84 987.057 1503.04C991.937 1500.16 995.777 1496.28 998.577 1491.4C1001.46 1486.52 1002.9 1481.2 1002.9 1475.44C1002.9 1469.68 1001.46 1464.36 998.577 1459.48C995.777 1454.6 991.937 1450.76 987.057 1447.96C982.177 1445.08 976.857 1443.64 971.097 1443.64C965.337 1443.64 960.017 1445.08 955.137 1447.96C950.257 1450.76 946.377 1454.6 943.497 1459.48C940.697 1464.36 939.297 1469.68 939.297 1475.44C939.297 1481.2 940.697 1486.52 943.497 1491.4C946.377 1496.28 950.257 1500.16 955.137 1503.04C960.017 1505.84 965.337 1507.24 971.097 1507.24ZM1067.28 1458.16C1066.88 1455.12 1065.92 1452.48 1064.4 1450.24C1061.28 1445.44 1056.12 1443.04 1048.92 1443.04C1042.92 1443.04 1038.56 1444.4 1035.84 1447.12C1033.36 1449.68 1032.12 1453.16 1032.12 1457.56C1032.12 1462.44 1033.48 1465.8 1036.2 1467.64C1038.92 1469.48 1042.72 1470.6 1047.6 1471C1052.24 1471.4 1056.16 1472.04 1059.36 1472.92C1062.56 1473.72 1065.24 1474.84 1067.4 1476.28C1073.08 1479.8 1075.92 1485.32 1075.92 1492.84C1075.92 1495.8 1075.32 1498.6 1074.12 1501.24C1073 1503.88 1071.36 1506.24 1069.2 1508.32C1064.32 1513.12 1057.64 1515.52 1049.16 1515.52C1040.6 1515.52 1033.84 1513.16 1028.88 1508.44C1024.64 1504.52 1022.08 1499.24 1021.2 1492.6H1029.48C1030.2 1496.6 1031.88 1499.88 1034.52 1502.44C1037.96 1505.64 1042.88 1507.24 1049.28 1507.24C1054.72 1507.24 1059.12 1505.92 1062.48 1503.28C1065.92 1500.56 1067.64 1497.08 1067.64 1492.84C1067.64 1490.12 1067.08 1487.88 1065.96 1486.12C1064.92 1484.28 1062.88 1482.8 1059.84 1481.68C1056.8 1480.56 1052.48 1479.76 1046.88 1479.28C1031.52 1477.92 1023.84 1470.68 1023.84 1457.56C1023.84 1454.28 1024.36 1451.28 1025.4 1448.56C1026.52 1445.76 1028.08 1443.36 1030.08 1441.36C1034.48 1436.96 1040.72 1434.76 1048.8 1434.76H1048.92C1057.16 1434.84 1063.44 1437.12 1067.76 1441.6C1072.16 1446 1074.76 1451.56 1075.56 1458.28H1067.28V1458.16Z" fill="white"/>
<path d="M662.173 1514.8V1516H663.373V1514.8H662.173ZM654.133 1514.8H652.933V1516H654.133V1514.8ZM654.133 1503.64H655.333V1500.02L653.17 1502.92L654.133 1503.64ZM616.453 1511.32L617.059 1510.28L616.453 1511.32ZM605.413 1500.28L604.373 1500.88L604.375 1500.88L604.378 1500.89L605.413 1500.28ZM605.413 1469.92L606.447 1470.53L606.45 1470.52L606.453 1470.52L605.413 1469.92ZM616.453 1458.76L617.059 1459.8L616.453 1458.76ZM654.133 1465.84L653.169 1466.56L655.333 1469.47V1465.84H654.133ZM654.133 1435.12V1433.92H652.933V1435.12H654.133ZM662.173 1435.12H663.373V1433.92H662.173V1435.12ZM650.893 1474L649.862 1474.61L650.893 1474ZM642.733 1465.96L642.119 1466.99L642.125 1466.99L642.13 1467L642.733 1465.96ZM620.653 1465.96L621.266 1466.99L620.653 1465.96ZM612.613 1474L613.643 1474.61L612.613 1474ZM612.613 1496.2L611.575 1496.8L611.578 1496.81L611.582 1496.81L612.613 1496.2ZM620.653 1504.24L620.039 1505.27L620.653 1504.24ZM642.733 1504.24L642.13 1503.2L642.125 1503.21L642.119 1503.21L642.733 1504.24ZM650.893 1496.2L651.923 1496.81L651.927 1496.81L651.93 1496.8L650.893 1496.2ZM662.173 1513.6H654.133V1516H662.173V1513.6ZM655.333 1514.8V1503.64H652.933V1514.8H655.333ZM653.17 1502.92C647.538 1510.48 640.403 1514.2 631.693 1514.2V1516.6C641.222 1516.6 649.047 1512.48 655.095 1504.36L653.17 1502.92ZM631.693 1514.2C626.381 1514.2 621.51 1512.89 617.059 1510.28L615.846 1512.36C620.675 1515.19 625.965 1516.6 631.693 1516.6V1514.2ZM617.059 1510.28C612.597 1507.67 609.065 1504.14 606.447 1499.67L604.378 1500.89C607.201 1505.7 611.029 1509.53 615.846 1512.36L617.059 1510.28ZM606.453 1499.68C603.837 1495.14 602.533 1490.27 602.533 1485.04H600.133C600.133 1490.69 601.549 1495.98 604.373 1500.88L606.453 1499.68ZM602.533 1485.04C602.533 1479.81 603.837 1474.98 606.447 1470.53L604.378 1469.31C601.549 1474.14 600.133 1479.39 600.133 1485.04H602.533ZM606.453 1470.52C609.07 1465.98 612.602 1462.41 617.059 1459.8L615.846 1457.72C611.023 1460.55 607.195 1464.42 604.373 1469.32L606.453 1470.52ZM617.059 1459.8C621.51 1457.19 626.381 1455.88 631.693 1455.88V1453.48C625.965 1453.48 620.675 1454.89 615.846 1457.72L617.059 1459.8ZM631.693 1455.88C640.761 1455.88 647.881 1459.43 653.169 1466.56L655.097 1465.12C649.345 1457.37 641.505 1453.48 631.693 1453.48V1455.88ZM655.333 1465.84V1435.12H652.933V1465.84H655.333ZM654.133 1436.32H662.173V1433.92H654.133V1436.32ZM660.973 1435.12V1514.8H663.373V1435.12H660.973ZM655.093 1485.04C655.093 1480.83 654.037 1476.94 651.923 1473.39L649.862 1474.61C651.749 1477.78 652.693 1481.25 652.693 1485.04H655.093ZM651.923 1473.39C649.818 1469.85 646.949 1467.02 643.335 1464.92L642.13 1467C645.397 1468.9 647.967 1471.43 649.862 1474.61L651.923 1473.39ZM643.346 1464.93C639.797 1462.82 635.903 1461.76 631.693 1461.76V1464.16C635.482 1464.16 638.949 1465.1 642.119 1466.99L643.346 1464.93ZM631.693 1461.76C627.482 1461.76 623.589 1462.82 620.039 1464.93L621.266 1466.99C624.437 1465.1 627.903 1464.16 631.693 1464.16V1461.76ZM620.039 1464.93C616.507 1467.03 613.683 1469.85 611.582 1473.39L613.643 1474.61C615.542 1471.43 618.078 1468.89 621.266 1466.99L620.039 1464.93ZM611.582 1473.39C609.469 1476.94 608.413 1480.83 608.413 1485.04H610.813C610.813 1481.25 611.757 1477.78 613.643 1474.61L611.582 1473.39ZM608.413 1485.04C608.413 1489.25 609.469 1493.18 611.575 1496.8L613.65 1495.6C611.757 1492.34 610.813 1488.83 610.813 1485.04H608.413ZM611.582 1496.81C613.683 1500.35 616.507 1503.17 620.039 1505.27L621.266 1503.21C618.078 1501.31 615.542 1498.77 613.643 1495.59L611.582 1496.81ZM620.039 1505.27C623.589 1507.38 627.482 1508.44 631.693 1508.44V1506.04C627.903 1506.04 624.437 1505.1 621.266 1503.21L620.039 1505.27ZM631.693 1508.44C635.903 1508.44 639.797 1507.38 643.346 1505.27L642.119 1503.21C638.949 1505.1 635.482 1506.04 631.693 1506.04V1508.44ZM643.335 1505.28C646.949 1503.18 649.818 1500.35 651.923 1496.81L649.862 1495.59C647.967 1498.77 645.397 1501.3 642.13 1503.2L643.335 1505.28ZM651.93 1496.8C654.037 1493.18 655.093 1489.25 655.093 1485.04H652.693C652.693 1488.83 651.749 1492.34 649.855 1495.6L651.93 1496.8ZM736.294 1456.36H737.494V1455.16H736.294V1456.36ZM736.294 1514.8V1516H737.494V1514.8H736.294ZM728.014 1514.8H726.814V1516H728.014V1514.8ZM728.014 1503.76H729.214V1500L727.037 1503.06L728.014 1503.76ZM690.694 1511.44L690.087 1512.48L690.094 1512.48L690.101 1512.48L690.694 1511.44ZM679.654 1500.4L678.611 1500.99L678.615 1501L678.619 1501.01L679.654 1500.4ZM679.654 1470.04L678.619 1469.43L678.615 1469.44L678.611 1469.45L679.654 1470.04ZM690.694 1459.12L691.287 1460.16L691.294 1460.16L691.301 1460.16L690.694 1459.12ZM719.854 1458.64L719.189 1459.64L719.201 1459.65L719.214 1459.66L719.854 1458.64ZM728.014 1466.2L727.007 1466.85L729.214 1470.26V1466.2H728.014ZM728.014 1456.36V1455.16H726.814V1456.36H728.014ZM716.974 1504.36L717.57 1505.4L717.579 1505.4L717.589 1505.39L716.974 1504.36ZM724.894 1496.32L723.863 1495.71L723.858 1495.72L723.853 1495.72L724.894 1496.32ZM724.894 1474.24L723.846 1474.82L723.854 1474.84L723.863 1474.85L724.894 1474.24ZM716.974 1466.2L716.361 1467.23L716.37 1467.24L716.379 1467.24L716.974 1466.2ZM694.774 1466.2L695.37 1467.24L695.374 1467.24L695.378 1467.24L694.774 1466.2ZM686.734 1474.24L685.697 1473.64L685.694 1473.64L685.693 1473.64L686.734 1474.24ZM686.734 1496.32L685.693 1496.92L685.698 1496.92L685.703 1496.93L686.734 1496.32ZM694.774 1504.36L694.161 1505.39L694.175 1505.4L694.19 1505.41L694.774 1504.36ZM735.094 1456.36V1514.8H737.494V1456.36H735.094ZM736.294 1513.6H728.014V1516H736.294V1513.6ZM729.214 1514.8V1503.76H726.814V1514.8H729.214ZM727.037 1503.06C721.733 1510.52 714.73 1514.2 705.934 1514.2V1516.6C715.538 1516.6 723.257 1512.52 728.993 1504.46L727.037 1503.06ZM705.934 1514.2C700.615 1514.2 695.741 1512.93 691.287 1510.4L690.101 1512.48C694.927 1515.23 700.214 1516.6 705.934 1516.6V1514.2ZM691.301 1510.4C686.838 1507.79 683.306 1504.26 680.69 1499.79L678.619 1501.01C681.443 1505.82 685.27 1509.65 690.087 1512.48L691.301 1510.4ZM680.697 1499.81C678.162 1495.35 676.894 1490.52 676.894 1485.28H674.494C674.494 1490.92 675.866 1496.17 678.611 1500.99L680.697 1499.81ZM676.894 1485.28C676.894 1479.96 678.163 1475.09 680.697 1470.63L678.611 1469.45C675.865 1474.27 674.494 1479.56 674.494 1485.28H676.894ZM680.69 1470.65C683.303 1466.19 686.833 1462.7 691.287 1460.16L690.101 1458.08C685.277 1460.82 681.445 1464.61 678.619 1469.43L680.69 1470.65ZM691.301 1460.16C695.753 1457.55 700.622 1456.24 705.934 1456.24V1453.84C700.207 1453.84 694.917 1455.25 690.087 1458.08L691.301 1460.16ZM705.934 1456.24C711.45 1456.24 715.839 1457.41 719.189 1459.64L720.519 1457.64C716.67 1455.07 711.778 1453.84 705.934 1453.84V1456.24ZM719.214 1459.66C722.795 1461.91 725.369 1464.32 727.007 1466.85L729.022 1465.55C727.141 1462.64 724.274 1460.01 720.494 1457.62L719.214 1459.66ZM729.214 1466.2V1456.36H726.814V1466.2H729.214ZM728.014 1457.56H736.294V1455.16H728.014V1457.56ZM705.934 1508.44C710.135 1508.44 714.022 1507.43 717.57 1505.4L716.379 1503.32C713.206 1505.13 709.733 1506.04 705.934 1506.04V1508.44ZM717.589 1505.39C721.123 1503.29 723.913 1500.46 725.937 1496.92L723.853 1495.72C722.037 1498.9 719.545 1501.43 716.361 1503.33L717.589 1505.39ZM725.926 1496.93C728.038 1493.38 729.094 1489.49 729.094 1485.28H726.694C726.694 1489.07 725.75 1492.54 723.863 1495.71L725.926 1496.93ZM729.094 1485.28C729.094 1481.07 728.038 1477.18 725.926 1473.63L723.863 1474.85C725.75 1478.02 726.694 1481.49 726.694 1485.28H729.094ZM725.942 1473.66C723.918 1470.03 721.123 1467.19 717.57 1465.16L716.379 1467.24C719.546 1469.05 722.031 1471.57 723.846 1474.82L725.942 1473.66ZM717.589 1465.17C714.038 1463.06 710.145 1462 705.934 1462V1464.4C709.723 1464.4 713.19 1465.34 716.361 1467.23L717.589 1465.17ZM705.934 1462C701.723 1462 697.795 1463.06 694.171 1465.16L695.378 1467.24C698.633 1465.34 702.145 1464.4 705.934 1464.4V1462ZM694.179 1465.16C690.63 1467.19 687.799 1470.02 685.697 1473.64L687.771 1474.84C689.669 1471.58 692.198 1469.05 695.37 1467.24L694.179 1465.16ZM685.693 1473.64C683.665 1477.19 682.654 1481.08 682.654 1485.28H685.054C685.054 1481.48 685.963 1478.01 687.777 1474.84L685.693 1473.64ZM682.654 1485.28C682.654 1489.48 683.665 1493.37 685.693 1496.92L687.777 1495.72C685.963 1492.55 685.054 1489.08 685.054 1485.28H682.654ZM685.703 1496.93C687.805 1500.47 690.629 1503.29 694.161 1505.39L695.389 1503.33C692.199 1501.43 689.663 1498.89 687.766 1495.71L685.703 1496.93ZM694.19 1505.41C697.811 1507.43 701.733 1508.44 705.934 1508.44V1506.04C702.135 1506.04 698.618 1505.13 695.359 1503.31L694.19 1505.41ZM786.782 1457.56L786.165 1458.59L786.178 1458.6L786.191 1458.6L786.782 1457.56ZM795.422 1466.2L794.377 1466.79L794.385 1466.8L794.393 1466.82L795.422 1466.2ZM798.662 1514.8V1516H799.862V1514.8H798.662ZM790.382 1514.8H789.182V1516H790.382V1514.8ZM788.222 1470.28L787.178 1470.87L787.185 1470.88L787.193 1470.9L788.222 1470.28ZM782.582 1464.64L781.949 1465.66L781.969 1465.67L781.99 1465.68L782.582 1464.64ZM767.102 1464.64L767.693 1465.68L767.706 1465.68L767.719 1465.67L767.102 1464.64ZM761.342 1470.28L760.313 1469.66L760.305 1469.68L760.298 1469.69L761.342 1470.28ZM759.302 1514.8V1516H760.502V1514.8H759.302ZM751.022 1514.8H749.822V1516H751.022V1514.8ZM751.022 1434.76V1433.56H749.822V1434.76H751.022ZM759.302 1434.76H760.502V1433.56H759.302V1434.76ZM759.302 1461.04H758.102V1464.28L760.213 1461.82L759.302 1461.04ZM766.142 1456L765.685 1454.89L765.678 1454.89L765.673 1454.9L766.142 1456ZM774.902 1455.52C779.01 1455.52 782.757 1456.54 786.165 1458.59L787.399 1456.53C783.607 1454.26 779.433 1453.12 774.902 1453.12V1455.52ZM786.191 1458.6C789.681 1460.58 792.405 1463.3 794.377 1466.79L796.466 1465.61C794.279 1461.74 791.242 1458.7 787.371 1456.52L786.191 1458.6ZM794.393 1466.82C796.437 1470.23 797.462 1473.97 797.462 1478.08H799.862C799.862 1473.55 798.726 1469.37 796.45 1465.58L794.393 1466.82ZM797.462 1478.08V1514.8H799.862V1478.08H797.462ZM798.662 1513.6H790.382V1516H798.662V1513.6ZM791.582 1514.8V1478.08H789.182V1514.8H791.582ZM791.582 1478.08C791.582 1475.06 790.802 1472.25 789.25 1469.66L787.193 1470.9C788.521 1473.11 789.182 1475.5 789.182 1478.08H791.582ZM789.266 1469.69C787.798 1467.1 785.762 1465.06 783.173 1463.6L781.99 1465.68C784.201 1466.94 785.925 1468.66 787.178 1470.87L789.266 1469.69ZM783.214 1463.62C780.699 1462.06 777.919 1461.28 774.902 1461.28V1463.68C777.483 1463.68 779.823 1464.34 781.949 1465.66L783.214 1463.62ZM774.902 1461.28C771.885 1461.28 769.07 1462.06 766.485 1463.61L767.719 1465.67C769.933 1464.34 772.319 1463.68 774.902 1463.68V1461.28ZM766.51 1463.6C763.927 1465.06 761.858 1467.09 760.313 1469.66L762.37 1470.9C763.706 1468.67 765.475 1466.94 767.693 1465.68L766.51 1463.6ZM760.298 1469.69C758.834 1472.27 758.102 1475.08 758.102 1478.08H760.502C760.502 1475.48 761.129 1473.09 762.386 1470.87L760.298 1469.69ZM758.102 1478.08V1514.8H760.502V1478.08H758.102ZM759.302 1513.6H751.022V1516H759.302V1513.6ZM752.222 1514.8V1434.76H749.822V1514.8H752.222ZM751.022 1435.96H759.302V1433.56H751.022V1435.96ZM758.102 1434.76V1461.04H760.502V1434.76H758.102ZM760.213 1461.82C762.015 1459.72 764.146 1458.15 766.61 1457.1L765.673 1454.9C762.857 1456.09 760.427 1457.88 758.39 1460.26L760.213 1461.82ZM766.598 1457.11C769.165 1456.05 771.929 1455.52 774.902 1455.52V1453.12C771.634 1453.12 768.558 1453.71 765.685 1454.89L766.598 1457.11ZM821.59 1435H822.79V1433.8H821.59V1435ZM821.59 1514.8V1516H822.79V1514.8H821.59ZM813.43 1514.8H812.23V1516H813.43V1514.8ZM813.43 1435V1433.8H812.23V1435H813.43ZM820.39 1435V1514.8H822.79V1435H820.39ZM821.59 1513.6H813.43V1516H821.59V1513.6ZM814.63 1514.8V1435H812.23V1514.8H814.63ZM813.43 1436.2H821.59V1433.8H813.43V1436.2ZM845.466 1439.68L844.618 1440.53L845.466 1439.68ZM845.466 1447.24L844.618 1446.39L845.466 1447.24ZM837.906 1447.24L837.058 1448.09L837.906 1447.24ZM837.906 1439.68L837.058 1438.83L837.906 1439.68ZM845.826 1454.8H847.026V1453.6H845.826V1454.8ZM845.826 1514.8V1516H847.026V1514.8H845.826ZM837.546 1514.8H836.346V1516H837.546V1514.8ZM837.546 1454.8V1453.6H836.346V1454.8H837.546ZM841.746 1439.32C842.861 1439.32 843.797 1439.71 844.618 1440.53L846.314 1438.83C845.055 1437.57 843.511 1436.92 841.746 1436.92V1439.32ZM844.618 1440.53C845.438 1441.35 845.826 1442.29 845.826 1443.4H848.226C848.226 1441.63 847.574 1440.09 846.314 1438.83L844.618 1440.53ZM845.826 1443.4C845.826 1444.61 845.425 1445.58 844.618 1446.39L846.314 1448.09C847.587 1446.82 848.226 1445.23 848.226 1443.4H845.826ZM844.618 1446.39C843.797 1447.21 842.861 1447.6 841.746 1447.6V1450C843.511 1450 845.055 1449.35 846.314 1448.09L844.618 1446.39ZM841.746 1447.6C840.533 1447.6 839.561 1447.2 838.754 1446.39L837.058 1448.09C838.331 1449.36 839.919 1450 841.746 1450V1447.6ZM838.754 1446.39C837.947 1445.58 837.546 1444.61 837.546 1443.4H835.146C835.146 1445.23 835.785 1446.82 837.058 1448.09L838.754 1446.39ZM837.546 1443.4C837.546 1442.29 837.934 1441.35 838.754 1440.53L837.058 1438.83C835.798 1440.09 835.146 1441.63 835.146 1443.4H837.546ZM838.754 1440.53C839.561 1439.72 840.533 1439.32 841.746 1439.32V1436.92C839.919 1436.92 838.331 1437.56 837.058 1438.83L838.754 1440.53ZM844.626 1454.8V1514.8H847.026V1454.8H844.626ZM845.826 1513.6H837.546V1516H845.826V1513.6ZM838.746 1514.8V1454.8H836.346V1514.8H838.746ZM837.546 1456H845.826V1453.6H837.546V1456ZM917.607 1456.36H918.807V1455.16H917.607V1456.36ZM917.607 1514.8V1516H918.807V1514.8H917.607ZM909.327 1514.8H908.127V1516H909.327V1514.8ZM909.327 1503.76H910.527V1500L908.35 1503.06L909.327 1503.76ZM872.007 1511.44L871.401 1512.48L871.407 1512.48L871.414 1512.48L872.007 1511.44ZM860.967 1500.4L859.925 1500.99L859.929 1501L859.933 1501.01L860.967 1500.4ZM860.967 1470.04L859.933 1469.43L859.929 1469.44L859.925 1469.45L860.967 1470.04ZM872.007 1459.12L872.601 1460.16L872.607 1460.16L872.614 1460.16L872.007 1459.12ZM901.167 1458.64L900.502 1459.64L900.515 1459.65L900.527 1459.66L901.167 1458.64ZM909.327 1466.2L908.321 1466.85L910.527 1470.26V1466.2H909.327ZM909.327 1456.36V1455.16H908.127V1456.36H909.327ZM898.287 1504.36L898.883 1505.4L898.893 1505.4L898.902 1505.39L898.287 1504.36ZM906.207 1496.32L905.177 1495.71L905.171 1495.72L905.166 1495.72L906.207 1496.32ZM906.207 1474.24L905.159 1474.82L905.167 1474.84L905.177 1474.85L906.207 1474.24ZM898.287 1466.2L897.674 1467.23L897.683 1467.24L897.693 1467.24L898.287 1466.2ZM876.087 1466.2L876.683 1467.24L876.687 1467.24L876.691 1467.24L876.087 1466.2ZM868.047 1474.24L867.01 1473.64L867.009 1473.64L867.006 1473.64L868.047 1474.24ZM868.047 1496.32L867.006 1496.92L867.011 1496.92L867.017 1496.93L868.047 1496.32ZM876.087 1504.36L875.474 1505.39L875.489 1505.4L875.503 1505.41L876.087 1504.36ZM916.407 1456.36V1514.8H918.807V1456.36H916.407ZM917.607 1513.6H909.327V1516H917.607V1513.6ZM910.527 1514.8V1503.76H908.127V1514.8H910.527ZM908.35 1503.06C903.046 1510.52 896.043 1514.2 887.247 1514.2V1516.6C896.851 1516.6 904.57 1512.52 910.306 1504.46L908.35 1503.06ZM887.247 1514.2C881.929 1514.2 877.054 1512.93 872.601 1510.4L871.414 1512.48C876.242 1515.23 881.527 1516.6 887.247 1516.6V1514.2ZM872.614 1510.4C868.151 1507.79 864.619 1504.26 862.003 1499.79L859.933 1501.01C862.757 1505.82 866.583 1509.65 871.401 1512.48L872.614 1510.4ZM862.01 1499.81C859.475 1495.35 858.207 1490.52 858.207 1485.28H855.807C855.807 1490.92 857.179 1496.17 859.925 1500.99L862.01 1499.81ZM858.207 1485.28C858.207 1479.96 859.477 1475.09 862.01 1470.63L859.925 1469.45C857.178 1474.27 855.807 1479.56 855.807 1485.28H858.207ZM862.003 1470.65C864.617 1466.19 868.146 1462.7 872.601 1460.16L871.414 1458.08C866.59 1460.82 862.758 1464.61 859.933 1469.43L862.003 1470.65ZM872.614 1460.16C877.066 1457.55 881.935 1456.24 887.247 1456.24V1453.84C881.521 1453.84 876.23 1455.25 871.401 1458.08L872.614 1460.16ZM887.247 1456.24C892.763 1456.24 897.153 1457.41 900.502 1459.64L901.833 1457.64C897.983 1455.07 893.091 1453.84 887.247 1453.84V1456.24ZM900.527 1459.66C904.109 1461.91 906.682 1464.32 908.321 1466.85L910.335 1465.55C908.454 1462.64 905.587 1460.01 901.807 1457.62L900.527 1459.66ZM910.527 1466.2V1456.36H908.127V1466.2H910.527ZM909.327 1457.56H917.607V1455.16H909.327V1457.56ZM887.247 1508.44C891.449 1508.44 895.335 1507.43 898.883 1505.4L897.693 1503.32C894.519 1505.13 891.046 1506.04 887.247 1506.04V1508.44ZM898.902 1505.39C902.438 1503.29 905.226 1500.46 907.25 1496.92L905.166 1495.72C903.35 1498.9 900.858 1501.43 897.674 1503.33L898.902 1505.39ZM907.239 1496.93C909.351 1493.38 910.407 1489.49 910.407 1485.28H908.007C908.007 1489.07 907.063 1492.54 905.177 1495.71L907.239 1496.93ZM910.407 1485.28C910.407 1481.07 909.351 1477.18 907.239 1473.63L905.177 1474.85C907.063 1478.02 908.007 1481.49 908.007 1485.28H910.407ZM907.255 1473.66C905.231 1470.03 902.437 1467.19 898.883 1465.16L897.693 1467.24C900.859 1469.05 903.345 1471.57 905.159 1474.82L907.255 1473.66ZM898.902 1465.17C895.351 1463.06 891.458 1462 887.247 1462V1464.4C891.037 1464.4 894.503 1465.34 897.674 1467.23L898.902 1465.17ZM887.247 1462C883.037 1462 879.109 1463.06 875.485 1465.16L876.691 1467.24C879.946 1465.34 883.458 1464.4 887.247 1464.4V1462ZM875.493 1465.16C871.943 1467.19 869.113 1470.02 867.01 1473.64L869.085 1474.84C870.982 1471.58 873.511 1469.05 876.683 1467.24L875.493 1465.16ZM867.006 1473.64C864.978 1477.19 863.967 1481.08 863.967 1485.28H866.367C866.367 1481.48 867.277 1478.01 869.09 1474.84L867.006 1473.64ZM863.967 1485.28C863.967 1489.48 864.978 1493.37 867.006 1496.92L869.09 1495.72C867.277 1492.55 866.367 1489.08 866.367 1485.28H863.967ZM867.017 1496.93C869.119 1500.47 871.942 1503.29 875.474 1505.39L876.702 1503.33C873.513 1501.43 870.977 1498.89 869.079 1495.71L867.017 1496.93ZM875.503 1505.41C879.125 1507.43 883.046 1508.44 887.247 1508.44V1506.04C883.449 1506.04 879.931 1505.13 876.673 1503.31L875.503 1505.41ZM951.055 1510L951.666 1508.97L951.055 1510ZM936.535 1495.48L935.502 1496.09L936.535 1495.48ZM936.535 1455.4L937.567 1456.01L937.569 1456.01L937.571 1456.01L936.535 1455.4ZM951.055 1440.76L950.45 1439.72L950.446 1439.73L950.443 1439.73L951.055 1440.76ZM991.135 1440.76L990.53 1441.8L991.135 1440.76ZM1005.78 1455.4L1006.81 1454.79L1005.78 1455.4ZM1005.78 1495.48L1006.81 1496.09L1006.81 1496.09L1006.81 1496.09L1005.78 1495.48ZM991.135 1510L990.53 1508.96L990.526 1508.97L990.523 1508.97L991.135 1510ZM987.055 1503.04L987.653 1504.08L987.658 1504.08L987.665 1504.07L987.055 1503.04ZM998.575 1491.4L997.542 1490.79L997.538 1490.8L997.534 1490.8L998.575 1491.4ZM998.575 1459.48L997.534 1460.08L997.538 1460.08L997.542 1460.09L998.575 1459.48ZM987.055 1447.96L986.445 1448.99L986.451 1449L986.458 1449L987.055 1447.96ZM955.135 1447.96L955.733 1449L955.738 1449L955.745 1448.99L955.135 1447.96ZM943.495 1459.48L942.462 1458.87L942.458 1458.88L942.454 1458.88L943.495 1459.48ZM943.495 1491.4L942.454 1492L942.458 1492L942.462 1492.01L943.495 1491.4ZM955.135 1503.04L954.525 1504.07L954.531 1504.08L954.538 1504.08L955.135 1503.04ZM971.095 1514.2C964.023 1514.2 957.555 1512.45 951.666 1508.97L950.443 1511.03C956.714 1514.75 963.606 1516.6 971.095 1516.6V1514.2ZM951.666 1508.97C945.759 1505.47 941.065 1500.78 937.567 1494.87L935.502 1496.09C939.205 1502.35 944.19 1507.33 950.443 1511.03L951.666 1508.97ZM937.567 1494.87C934.081 1488.98 932.335 1482.51 932.335 1475.44H929.935C929.935 1482.93 931.789 1489.82 935.502 1496.09L937.567 1494.87ZM932.335 1475.44C932.335 1468.37 934.081 1461.9 937.567 1456.01L935.502 1454.79C931.789 1461.06 929.935 1467.95 929.935 1475.44H932.335ZM937.571 1456.01C941.069 1450.02 945.763 1445.29 951.666 1441.79L950.443 1439.73C944.186 1443.43 939.201 1448.46 935.499 1454.79L937.571 1456.01ZM951.661 1441.8C957.635 1438.3 964.106 1436.56 971.095 1436.56V1434.16C963.685 1434.16 956.795 1436.02 950.45 1439.72L951.661 1441.8ZM971.095 1436.56C978.085 1436.56 984.555 1438.3 990.53 1441.8L991.741 1439.72C985.395 1436.02 978.506 1434.16 971.095 1434.16V1436.56ZM990.53 1441.8C996.511 1445.29 1001.24 1450.02 1004.74 1456.01L1006.81 1454.79C1003.11 1448.46 998.078 1443.43 991.741 1439.72L990.53 1441.8ZM1004.74 1456.01C1008.23 1461.98 1009.98 1468.45 1009.98 1475.44H1012.38C1012.38 1468.03 1010.52 1461.14 1006.81 1454.79L1004.74 1456.01ZM1009.98 1475.44C1009.98 1482.43 1008.23 1488.9 1004.74 1494.87L1006.81 1496.09C1010.52 1489.74 1012.38 1482.85 1012.38 1475.44H1009.98ZM1004.74 1494.87C1001.25 1500.77 996.515 1505.47 990.53 1508.96L991.741 1511.04C998.075 1507.33 1003.1 1502.35 1006.81 1496.09L1004.74 1494.87ZM990.523 1508.97C984.634 1512.45 978.166 1514.2 971.095 1514.2V1516.6C978.583 1516.6 985.475 1514.75 991.746 1511.03L990.523 1508.97ZM971.095 1508.44C977.059 1508.44 982.586 1506.99 987.653 1504.08L986.458 1502C981.763 1504.69 976.65 1506.04 971.095 1506.04V1508.44ZM987.665 1504.07C992.722 1501.09 996.711 1497.06 999.615 1492L997.534 1490.8C994.838 1495.5 991.147 1499.23 986.445 1502.01L987.665 1504.07ZM999.609 1492.01C1002.6 1486.94 1004.1 1481.41 1004.1 1475.44H1001.7C1001.7 1480.99 1000.31 1486.1 997.542 1490.79L999.609 1492.01ZM1004.1 1475.44C1004.1 1469.47 1002.6 1463.94 999.609 1458.87L997.542 1460.09C1000.31 1464.78 1001.7 1469.89 1001.7 1475.44H1004.1ZM999.615 1458.88C996.71 1453.82 992.717 1449.83 987.653 1446.92L986.458 1449C991.153 1451.69 994.839 1455.38 997.534 1460.08L999.615 1458.88ZM987.665 1446.93C982.597 1443.94 977.066 1442.44 971.095 1442.44V1444.84C976.645 1444.84 981.753 1446.22 986.445 1448.99L987.665 1446.93ZM971.095 1442.44C965.125 1442.44 959.593 1443.94 954.525 1446.93L955.745 1448.99C960.437 1446.22 965.546 1444.84 971.095 1444.84V1442.44ZM954.538 1446.92C949.477 1449.82 945.446 1453.81 942.462 1458.87L944.529 1460.09C947.303 1455.39 951.034 1451.7 955.733 1449L954.538 1446.92ZM942.454 1458.88C939.547 1463.95 938.095 1469.48 938.095 1475.44H940.495C940.495 1469.88 941.842 1464.77 944.535 1460.08L942.454 1458.88ZM938.095 1475.44C938.095 1481.4 939.547 1486.93 942.454 1492L944.535 1490.8C941.842 1486.11 940.495 1481 940.495 1475.44H938.095ZM942.462 1492.01C945.445 1497.06 949.47 1501.09 954.525 1504.07L955.745 1502.01C951.039 1499.23 947.305 1495.5 944.529 1490.79L942.462 1492.01ZM954.538 1504.08C959.603 1506.99 965.13 1508.44 971.095 1508.44V1506.04C965.539 1506.04 960.426 1504.69 955.733 1502L954.538 1504.08ZM1067.28 1458.16H1068.48V1458.08L1068.47 1458L1067.28 1458.16ZM1064.4 1450.24L1063.39 1450.89L1063.4 1450.9L1063.41 1450.91L1064.4 1450.24ZM1035.84 1447.12L1034.99 1446.27L1034.98 1446.28L1034.98 1446.29L1035.84 1447.12ZM1036.2 1467.64L1035.53 1468.63L1036.2 1467.64ZM1047.6 1471L1047.7 1469.8L1047.7 1469.8L1047.7 1469.8L1047.6 1471ZM1059.36 1472.92L1059.04 1474.08L1059.06 1474.08L1059.07 1474.08L1059.36 1472.92ZM1067.4 1476.28L1066.73 1477.28L1066.75 1477.29L1066.77 1477.3L1067.4 1476.28ZM1074.12 1501.24L1073.03 1500.74L1073.02 1500.76L1073.02 1500.77L1074.12 1501.24ZM1069.2 1508.32L1068.37 1507.46L1068.36 1507.46L1068.36 1507.46L1069.2 1508.32ZM1028.88 1508.44L1029.71 1507.57L1029.7 1507.56L1029.69 1507.56L1028.88 1508.44ZM1021.2 1492.6V1491.4H1019.83L1020.01 1492.76L1021.2 1492.6ZM1029.48 1492.6L1030.66 1492.39L1030.48 1491.4H1029.48V1492.6ZM1034.52 1502.44L1033.68 1503.3L1033.69 1503.31L1033.7 1503.32L1034.52 1502.44ZM1062.48 1503.28L1063.22 1504.22L1063.22 1504.22L1063.22 1504.22L1062.48 1503.28ZM1065.96 1486.12L1064.92 1486.71L1064.93 1486.74L1064.95 1486.76L1065.96 1486.12ZM1059.84 1481.68L1060.25 1480.55L1059.84 1481.68ZM1046.88 1479.28L1046.77 1480.48L1046.78 1480.48L1046.78 1480.48L1046.88 1479.28ZM1025.4 1448.56L1024.29 1448.11L1024.28 1448.12L1024.28 1448.13L1025.4 1448.56ZM1030.08 1441.36L1029.23 1440.51L1030.08 1441.36ZM1048.92 1434.76L1048.93 1433.56H1048.93H1048.92V1434.76ZM1067.76 1441.6L1066.9 1442.43L1066.9 1442.44L1066.91 1442.45L1067.76 1441.6ZM1075.56 1458.28V1459.48H1076.91L1076.75 1458.14L1075.56 1458.28ZM1067.28 1458.28H1066.08V1459.48H1067.28V1458.28ZM1068.47 1458C1068.05 1454.8 1067.03 1451.98 1065.39 1449.57L1063.41 1450.91C1064.81 1452.98 1065.71 1455.44 1066.09 1458.32L1068.47 1458ZM1065.41 1449.59C1062.01 1444.36 1056.41 1441.84 1048.92 1441.84V1444.24C1055.83 1444.24 1060.55 1446.52 1063.39 1450.89L1065.41 1449.59ZM1048.92 1441.84C1042.77 1441.84 1038.03 1443.23 1034.99 1446.27L1036.69 1447.97C1039.08 1445.57 1043.06 1444.24 1048.92 1444.24V1441.84ZM1034.98 1446.29C1032.23 1449.12 1030.92 1452.93 1030.92 1457.56H1033.32C1033.32 1453.39 1034.49 1450.24 1036.7 1447.95L1034.98 1446.29ZM1030.92 1457.56C1030.92 1462.63 1032.34 1466.48 1035.53 1468.63L1036.87 1466.65C1034.62 1465.12 1033.32 1462.25 1033.32 1457.56H1030.92ZM1035.53 1468.63C1038.48 1470.63 1042.51 1471.79 1047.5 1472.2L1047.7 1469.8C1042.93 1469.41 1039.36 1468.33 1036.87 1466.65L1035.53 1468.63ZM1047.5 1472.2C1052.09 1472.59 1055.93 1473.22 1059.04 1474.08L1059.68 1471.76C1056.39 1470.86 1052.39 1470.21 1047.7 1469.8L1047.5 1472.2ZM1059.07 1474.08C1062.17 1474.86 1064.71 1475.93 1066.73 1477.28L1068.06 1475.28C1065.76 1473.75 1062.95 1472.58 1059.65 1471.76L1059.07 1474.08ZM1066.77 1477.3C1072.04 1480.57 1074.72 1485.67 1074.72 1492.84H1077.12C1077.12 1484.97 1074.11 1479.03 1068.03 1475.26L1066.77 1477.3ZM1074.72 1492.84C1074.72 1495.63 1074.16 1498.26 1073.03 1500.74L1075.21 1501.74C1076.48 1498.94 1077.12 1495.97 1077.12 1492.84H1074.72ZM1073.02 1500.77C1071.96 1503.26 1070.42 1505.48 1068.37 1507.46L1070.03 1509.18C1072.3 1507 1074.04 1504.5 1075.22 1501.71L1073.02 1500.77ZM1068.36 1507.46C1063.75 1511.99 1057.4 1514.32 1049.16 1514.32V1516.72C1057.88 1516.72 1064.89 1514.25 1070.04 1509.18L1068.36 1507.46ZM1049.16 1514.32C1040.83 1514.32 1034.39 1512.03 1029.71 1507.57L1028.05 1509.31C1033.29 1514.29 1040.37 1516.72 1049.16 1516.72V1514.32ZM1029.69 1507.56C1025.69 1503.86 1023.24 1498.85 1022.39 1492.44L1020.01 1492.76C1020.92 1499.63 1023.59 1505.18 1028.06 1509.32L1029.69 1507.56ZM1021.2 1493.8H1029.48V1491.4H1021.2V1493.8ZM1028.3 1492.81C1029.06 1497.03 1030.84 1500.55 1033.68 1503.3L1035.36 1501.58C1032.91 1499.21 1031.34 1496.17 1030.66 1492.39L1028.3 1492.81ZM1033.7 1503.32C1037.43 1506.79 1042.69 1508.44 1049.28 1508.44V1506.04C1043.07 1506.04 1038.48 1504.49 1035.34 1501.56L1033.7 1503.32ZM1049.28 1508.44C1054.91 1508.44 1059.6 1507.07 1063.22 1504.22L1061.74 1502.34C1058.64 1504.77 1054.52 1506.04 1049.28 1506.04V1508.44ZM1063.22 1504.22C1066.94 1501.28 1068.84 1497.46 1068.84 1492.84H1066.44C1066.44 1496.7 1064.9 1499.84 1061.74 1502.34L1063.22 1504.22ZM1068.84 1492.84C1068.84 1489.96 1068.25 1487.48 1066.97 1485.48L1064.95 1486.76C1065.91 1488.28 1066.44 1490.28 1066.44 1492.84H1068.84ZM1067 1485.53C1065.77 1483.34 1063.42 1481.72 1060.25 1480.55L1059.42 1482.81C1062.33 1483.88 1064.07 1485.22 1064.92 1486.71L1067 1485.53ZM1060.25 1480.55C1057.07 1479.38 1052.62 1478.57 1046.98 1478.08L1046.78 1480.48C1052.34 1480.95 1056.53 1481.74 1059.42 1482.81L1060.25 1480.55ZM1046.99 1478.08C1039.45 1477.42 1033.99 1475.32 1030.42 1471.96C1026.88 1468.62 1025.04 1463.88 1025.04 1457.56H1022.64C1022.64 1464.36 1024.64 1469.8 1028.78 1473.7C1032.88 1477.58 1038.94 1479.78 1046.77 1480.48L1046.99 1478.08ZM1025.04 1457.56C1025.04 1454.41 1025.54 1451.56 1026.52 1448.99L1024.28 1448.13C1023.18 1451 1022.64 1454.15 1022.64 1457.56H1025.04ZM1026.51 1449.01C1027.58 1446.35 1029.05 1444.09 1030.93 1442.21L1029.23 1440.51C1027.11 1442.63 1025.46 1445.17 1024.29 1448.11L1026.51 1449.01ZM1030.93 1442.21C1035.04 1438.1 1040.94 1435.96 1048.8 1435.96V1433.56C1040.5 1433.56 1033.92 1435.82 1029.23 1440.51L1030.93 1442.21ZM1048.8 1435.96H1048.92V1433.56H1048.8V1435.96ZM1048.91 1435.96C1056.93 1436.04 1062.86 1438.25 1066.9 1442.43L1068.62 1440.77C1064.01 1435.99 1057.38 1433.64 1048.93 1433.56L1048.91 1435.96ZM1066.91 1442.45C1071.1 1446.64 1073.6 1451.94 1074.37 1458.42L1076.75 1458.14C1075.92 1451.18 1073.22 1445.36 1068.61 1440.75L1066.91 1442.45ZM1075.56 1457.08H1067.28V1459.48H1075.56V1457.08ZM1068.48 1458.28V1458.16H1066.08V1458.28H1068.48Z" fill="white"/>
</g>
<defs>
<linearGradient id="paint0_linear" x1="0" y1="0" x2="1851.75" y2="285.035" gradientUnits="userSpaceOnUse">
<stop stop-color="#C00000"/>
<stop offset="1" stop-color="#FF4300"/>
</linearGradient>
<linearGradient id="paint1_linear" x1="-842.155" y1="2153.1" x2="396.66" y2="3247.58" gradientUnits="userSpaceOnUse">
<stop stop-color="#FF4300"/>
<stop offset="1" stop-color="#C00000"/>
</linearGradient>
<linearGradient id="paint2_linear" x1="-4.43382" y1="1871.36" x2="160.923" y2="2973.75" gradientUnits="userSpaceOnUse">
<stop stop-color="#FF4300"/>
<stop offset="1" stop-color="#C00000"/>
</linearGradient>
<linearGradient id="paint3_linear" x1="1512.2" y1="2153.1" x2="2751.02" y2="3247.58" gradientUnits="userSpaceOnUse">
<stop stop-color="#FF4300"/>
<stop offset="1" stop-color="#C00000"/>
</linearGradient>
<linearGradient id="paint4_linear" x1="-23.3068" y1="1906.43" x2="1602.46" y2="3419.59" gradientUnits="userSpaceOnUse">
<stop stop-color="#FF4300"/>
<stop offset="1" stop-color="#C00000"/>
</linearGradient>
<linearGradient id="paint5_linear" x1="670.236" y1="2018.25" x2="2116.08" y2="3295.64" gradientUnits="userSpaceOnUse">
<stop stop-color="#FF4300"/>
<stop offset="1" stop-color="#C00000"/>
</linearGradient>
<linearGradient id="paint6_linear" x1="98.8453" y1="2694.04" x2="1337.66" y2="3788.52" gradientUnits="userSpaceOnUse">
<stop stop-color="#FF4300"/>
<stop offset="1" stop-color="#C00000"/>
</linearGradient>
<linearGradient id="paint7_linear" x1="902.33" y1="2815.92" x2="2141.14" y2="3910.39" gradientUnits="userSpaceOnUse">
<stop stop-color="#FF4300"/>
<stop offset="1" stop-color="#C00000"/>
</linearGradient>
<linearGradient id="paint8_linear" x1="400.405" y1="1420.6" x2="519.023" y2="1539.4" gradientUnits="userSpaceOnUse">
<stop stop-color="#C00000"/>
<stop offset="1" stop-color="#FF4300"/>
</linearGradient>
<linearGradient id="paint9_linear" x1="400.405" y1="1420.6" x2="519.023" y2="1539.4" gradientUnits="userSpaceOnUse">
<stop stop-color="#C00000"/>
<stop offset="1" stop-color="#FF4300"/>
</linearGradient>
<clipPath id="clip0">
<rect width="1440" height="2960" fill="white"/>
</clipPath>
<clipPath id="clip1">
<rect width="3167.74" height="2400" fill="white" transform="translate(-864 560)"/>
</clipPath>
</defs>
</svg>
