<svg width="1440" height="2960" viewBox="0 0 1440 2960" fill="none" xmlns="http://www.w3.org/2000/svg">
<g clip-path="url(#clip0_24_184)">
<rect width="1440" height="2960" fill="url(#paint0_linear_24_184)"/>
<g clip-path="url(#clip1_24_184)">
<path fill-rule="evenodd" clip-rule="evenodd" d="M-325.609 1580L546.632 2960H-1197.85L-325.609 1580Z" fill="url(#paint1_linear_24_184)"/>
<path fill-rule="evenodd" clip-rule="evenodd" d="M-14.3206 1683.12L577.98 2960H-606.621L-14.3206 1683.12Z" fill="url(#paint2_linear_24_184)"/>
<path fill-rule="evenodd" clip-rule="evenodd" d="M2028.75 1580L2900.99 2960H1156.5L2028.75 1580Z" fill="url(#paint3_linear_24_184)"/>
<path fill-rule="evenodd" clip-rule="evenodd" d="M687.22 1158.12L1887.02 2960H-512.58L687.22 1158.12Z" fill="url(#paint4_linear_24_184)"/>
<path fill-rule="evenodd" clip-rule="evenodd" d="M1273.11 1349.38L2291.12 2960H255.096L1273.11 1349.38Z" fill="url(#paint5_linear_24_184)"/>
<path fill-rule="evenodd" clip-rule="evenodd" d="M615.39 2120.94L1487.63 3500.94H-256.852L615.39 2120.94Z" fill="url(#paint6_linear_24_184)"/>
<path fill-rule="evenodd" clip-rule="evenodd" d="M1418.87 2242.81L2291.12 3622.81H546.633L1418.87 2242.81Z" fill="url(#paint7_linear_24_184)"/>
</g>
<path fill-rule="evenodd" clip-rule="evenodd" d="M399 1415L418.038 1434.04H444.962V1460.96L464 1480L444.962 1499.04V1525.96H418.038L399 1545L379.962 1525.96H353.038V1499.04L334 1480L353.038 1460.96V1434.04H379.962L399 1415ZM399.072 1509.95C415.571 1509.95 428.947 1496.57 428.947 1480.07C428.947 1463.57 415.571 1450.2 399.072 1450.2C382.572 1450.2 369.197 1463.57 369.197 1480.07C369.197 1496.57 382.572 1509.95 399.072 1509.95Z" fill="white"/>
<path d="M554.838 1531.46V1518.95C551.371 1523.06 547.254 1526.31 542.488 1528.7C537.829 1531.08 532.954 1532.27 527.863 1532.27C522.121 1532.27 516.758 1531.24 511.775 1529.18C506.792 1527.02 502.458 1523.98 498.775 1520.08C494.983 1516.18 492.004 1511.74 489.838 1506.76C487.779 1501.67 486.75 1496.3 486.75 1490.67C486.75 1485.04 487.779 1479.73 489.838 1474.75C492.004 1469.65 494.983 1465.16 498.775 1461.26C502.458 1457.36 506.792 1454.38 511.775 1452.32C516.758 1450.15 522.121 1449.07 527.863 1449.07C533.496 1449.07 538.588 1450.21 543.138 1452.48C547.796 1454.76 551.696 1457.9 554.838 1461.91V1423.56H569.138V1531.46H554.838ZM527.863 1463.86C524.288 1463.86 520.875 1464.56 517.625 1465.97C514.375 1467.27 511.558 1469.17 509.175 1471.66C506.792 1474.15 504.896 1477.07 503.488 1480.43C502.079 1483.68 501.375 1487.1 501.375 1490.67C501.375 1497.93 503.975 1504.27 509.175 1509.68C511.558 1512.17 514.375 1514.12 517.625 1515.53C520.875 1516.94 524.288 1517.65 527.863 1517.65C531.438 1517.65 534.85 1516.94 538.1 1515.53C541.458 1514.12 544.329 1512.17 546.713 1509.68C551.913 1504.27 554.513 1497.93 554.513 1490.67C554.513 1487.1 553.808 1483.68 552.4 1480.43C550.992 1477.07 549.096 1474.15 546.713 1471.66C544.329 1469.17 541.458 1467.27 538.1 1465.97C534.85 1464.56 531.438 1463.86 527.863 1463.86Z" fill="white"/>
<path d="M651.148 1531.46V1519.11C647.681 1523.12 643.673 1526.31 639.123 1528.7C634.573 1531.08 629.752 1532.27 624.66 1532.27C619.027 1532.27 613.719 1531.24 608.735 1529.18C603.86 1527.12 599.527 1524.2 595.735 1520.41C591.944 1516.72 588.965 1512.39 586.798 1507.41C584.74 1502.32 583.71 1497.01 583.71 1491.48C583.71 1485.96 584.74 1480.7 586.798 1475.72C588.965 1470.63 591.944 1466.19 595.735 1462.4C599.527 1458.6 603.86 1455.68 608.735 1453.62C613.719 1451.56 619.027 1450.53 624.66 1450.53C629.86 1450.53 634.735 1451.62 639.285 1453.78C643.944 1455.95 647.898 1458.98 651.148 1462.88V1452.16H665.773V1531.46H651.148ZM624.66 1465C621.085 1465 617.619 1465.7 614.26 1467.11C611.01 1468.41 608.194 1470.25 605.81 1472.63C603.427 1475.02 601.531 1477.89 600.123 1481.25C598.823 1484.5 598.173 1487.91 598.173 1491.48C598.173 1495.06 598.823 1498.47 600.123 1501.72C601.531 1504.97 603.427 1507.79 605.81 1510.17C608.194 1512.55 611.01 1514.45 614.26 1515.86C617.619 1517.16 621.085 1517.81 624.66 1517.81C628.235 1517.81 631.648 1517.16 634.898 1515.86C638.148 1514.45 640.965 1512.55 643.348 1510.17C645.731 1507.79 647.573 1504.97 648.873 1501.72C650.281 1498.47 650.985 1495.06 650.985 1491.48C650.985 1487.91 650.281 1484.5 648.873 1481.25C647.573 1477.89 645.731 1475.02 643.348 1472.63C640.965 1470.25 638.148 1468.41 634.898 1467.11C631.648 1465.7 628.235 1465 624.66 1465Z" fill="white"/>
<path d="M732.191 1531.46V1481.57C732.191 1476.48 730.404 1472.15 726.829 1468.57C725.204 1466.95 723.254 1465.65 720.979 1464.67C718.812 1463.7 716.591 1463.21 714.316 1463.21C709.441 1463.21 705.216 1465 701.641 1468.57C698.066 1472.15 696.279 1476.48 696.279 1481.57V1531.46H681.979V1423.07H696.279V1455.9C701.479 1451.02 707.491 1448.58 714.316 1448.58C718.649 1448.58 722.766 1449.45 726.666 1451.18C730.566 1452.81 734.033 1455.14 737.066 1458.17C739.991 1461.2 742.266 1464.78 743.891 1468.9C745.624 1472.9 746.491 1477.13 746.491 1481.57V1531.46H732.191Z" fill="white"/>
<path d="M762.752 1531.46V1423.4H775.752V1531.46H762.752Z" fill="white"/>
<path d="M799.427 1438.51C797.368 1438.51 795.581 1437.8 794.064 1436.4C792.656 1434.88 791.952 1433.09 791.952 1431.03C791.952 1428.97 792.656 1427.24 794.064 1425.83C795.581 1424.32 797.368 1423.56 799.427 1423.56C801.485 1423.56 803.218 1424.32 804.627 1425.83C806.143 1427.24 806.902 1428.97 806.902 1431.03C806.902 1433.09 806.143 1434.88 804.627 1436.4C803.218 1437.8 801.485 1438.51 799.427 1438.51ZM792.764 1531.46V1450.21H806.414V1531.46H792.764Z" fill="white"/>
<path d="M884.107 1531.46V1519.11C880.64 1523.12 876.632 1526.31 872.082 1528.7C867.532 1531.08 862.711 1532.27 857.619 1532.27C851.986 1532.27 846.678 1531.24 841.694 1529.18C836.819 1527.12 832.486 1524.2 828.694 1520.41C824.903 1516.72 821.924 1512.39 819.757 1507.41C817.699 1502.32 816.669 1497.01 816.669 1491.48C816.669 1485.96 817.699 1480.7 819.757 1475.72C821.924 1470.63 824.903 1466.19 828.694 1462.4C832.486 1458.6 836.819 1455.68 841.694 1453.62C846.678 1451.56 851.986 1450.53 857.619 1450.53C862.819 1450.53 867.694 1451.62 872.244 1453.78C876.903 1455.95 880.857 1458.98 884.107 1462.88V1452.16H898.732V1531.46H884.107ZM857.619 1465C854.044 1465 850.578 1465.7 847.219 1467.11C843.969 1468.41 841.153 1470.25 838.769 1472.63C836.386 1475.02 834.49 1477.89 833.082 1481.25C831.782 1484.5 831.132 1487.91 831.132 1491.48C831.132 1495.06 831.782 1498.47 833.082 1501.72C834.49 1504.97 836.386 1507.79 838.769 1510.17C841.153 1512.55 843.969 1514.45 847.219 1515.86C850.578 1517.16 854.044 1517.81 857.619 1517.81C861.194 1517.81 864.607 1517.16 867.857 1515.86C871.107 1514.45 873.924 1512.55 876.307 1510.17C878.69 1507.79 880.532 1504.97 881.832 1501.72C883.24 1498.47 883.944 1495.06 883.944 1491.48C883.944 1487.91 883.24 1484.5 881.832 1481.25C880.532 1477.89 878.69 1475.02 876.307 1472.63C873.924 1470.25 871.107 1468.41 867.857 1467.11C864.607 1465.7 861.194 1465 857.619 1465Z" fill="white"/>
<path d="M967.425 1532.27C960.058 1532.27 953.071 1530.92 946.463 1528.21C939.963 1525.39 934.221 1521.44 929.238 1516.35C924.254 1511.36 920.354 1505.57 917.538 1498.96C914.721 1492.24 913.313 1485.2 913.313 1477.83C913.313 1470.47 914.667 1463.53 917.375 1457.03C920.192 1450.42 924.146 1444.57 929.238 1439.48C934.221 1434.5 939.963 1430.6 946.463 1427.78C953.071 1424.97 960.058 1423.56 967.425 1423.56C974.792 1423.56 981.779 1424.97 988.388 1427.78C994.996 1430.6 1000.79 1434.5 1005.78 1439.48C1010.76 1444.47 1014.66 1450.26 1017.48 1456.87C1020.29 1463.48 1021.7 1470.47 1021.7 1477.83C1021.7 1485.2 1020.29 1492.24 1017.48 1498.96C1014.66 1505.57 1010.76 1511.36 1005.78 1516.35C1000.79 1521.33 994.996 1525.23 988.388 1528.05C981.779 1530.86 974.792 1532.27 967.425 1532.27ZM967.425 1438.35C962.117 1438.35 957.025 1439.37 952.15 1441.43C947.383 1443.38 943.158 1446.2 939.475 1449.88C935.792 1453.57 932.921 1457.85 930.863 1462.72C928.913 1467.49 927.938 1472.52 927.938 1477.83C927.938 1483.25 928.967 1488.45 931.025 1493.43C933.083 1498.31 935.9 1502.53 939.475 1506.11C943.158 1509.79 947.383 1512.66 952.15 1514.72C957.025 1516.67 962.117 1517.65 967.425 1517.65C972.733 1517.65 977.771 1516.67 982.538 1514.72C987.413 1512.66 991.692 1509.79 995.375 1506.11C998.95 1502.53 1001.77 1498.31 1003.83 1493.43C1005.88 1488.45 1006.91 1483.25 1006.91 1477.83C1006.91 1472.52 1005.88 1467.49 1003.83 1462.72C1001.88 1457.85 999.058 1453.57 995.375 1449.88C991.692 1446.2 987.413 1443.38 982.538 1441.43C977.771 1439.37 972.733 1438.35 967.425 1438.35Z" fill="white"/>
<path d="M1090.85 1456.71C1090.31 1452.48 1089.17 1449.02 1087.44 1446.31C1085.49 1443.38 1083.05 1441.27 1080.13 1439.97C1077.31 1438.56 1073.68 1437.86 1069.24 1437.86C1061.87 1437.86 1056.73 1439.43 1053.8 1442.57C1050.98 1445.39 1049.58 1449.45 1049.58 1454.76C1049.58 1457.79 1050.01 1460.28 1050.88 1462.23C1051.74 1464.07 1053.04 1465.59 1054.78 1466.78C1057.38 1468.62 1061.65 1469.82 1067.61 1470.36C1073.68 1470.9 1078.77 1471.77 1082.89 1472.96C1087.11 1474.04 1090.8 1475.56 1093.94 1477.51C1101.85 1482.49 1105.8 1490.29 1105.8 1500.91C1105.8 1505.02 1104.99 1508.92 1103.36 1512.61C1101.74 1516.29 1099.46 1519.6 1096.54 1522.52C1093.07 1525.88 1088.95 1528.37 1084.19 1530C1079.53 1531.62 1074.65 1532.43 1069.56 1532.43C1058.08 1532.43 1048.93 1529.18 1042.1 1522.68C1036.25 1516.83 1032.73 1509.03 1031.54 1499.28L1031.86 1499.12H1046.16C1047.03 1504.86 1048.98 1509.14 1052.01 1511.96C1056.24 1515.86 1061.93 1517.81 1069.08 1517.81C1075.9 1517.81 1081.32 1516.24 1085.33 1513.1C1089.33 1509.95 1091.34 1505.89 1091.34 1500.91C1091.34 1498.63 1091.01 1496.68 1090.36 1495.06C1089.82 1493.32 1088.74 1491.81 1087.11 1490.51C1083.43 1487.69 1076.55 1485.9 1066.48 1485.15C1056.18 1484.28 1048.38 1481.3 1043.08 1476.21C1037.77 1471.12 1035.11 1463.97 1035.11 1454.76C1035.11 1445.44 1037.98 1437.91 1043.73 1432.17C1049.79 1426.1 1058.24 1423.07 1069.08 1423.07C1080.34 1423.07 1089.12 1426.48 1095.4 1433.31C1100.93 1439.27 1104.28 1447.07 1105.48 1456.71H1090.85Z" fill="white"/>
</g>
<defs>
<linearGradient id="paint0_linear_24_184" x1="0" y1="0" x2="1851.75" y2="285.035" gradientUnits="userSpaceOnUse">
<stop stop-color="#C00000"/>
<stop offset="1" stop-color="#FF4300"/>
</linearGradient>
<linearGradient id="paint1_linear_24_184" x1="-842.155" y1="2153.1" x2="396.66" y2="3247.58" gradientUnits="userSpaceOnUse">
<stop stop-color="#FF4300"/>
<stop offset="1" stop-color="#C00000"/>
</linearGradient>
<linearGradient id="paint2_linear_24_184" x1="-4.43382" y1="1871.36" x2="160.923" y2="2973.75" gradientUnits="userSpaceOnUse">
<stop stop-color="#FF4300"/>
<stop offset="1" stop-color="#C00000"/>
</linearGradient>
<linearGradient id="paint3_linear_24_184" x1="1512.2" y1="2153.1" x2="2751.02" y2="3247.58" gradientUnits="userSpaceOnUse">
<stop stop-color="#FF4300"/>
<stop offset="1" stop-color="#C00000"/>
</linearGradient>
<linearGradient id="paint4_linear_24_184" x1="-23.3068" y1="1906.43" x2="1602.46" y2="3419.59" gradientUnits="userSpaceOnUse">
<stop stop-color="#FF4300"/>
<stop offset="1" stop-color="#C00000"/>
</linearGradient>
<linearGradient id="paint5_linear_24_184" x1="670.236" y1="2018.25" x2="2116.08" y2="3295.64" gradientUnits="userSpaceOnUse">
<stop stop-color="#FF4300"/>
<stop offset="1" stop-color="#C00000"/>
</linearGradient>
<linearGradient id="paint6_linear_24_184" x1="98.8453" y1="2694.04" x2="1337.66" y2="3788.52" gradientUnits="userSpaceOnUse">
<stop stop-color="#FF4300"/>
<stop offset="1" stop-color="#C00000"/>
</linearGradient>
<linearGradient id="paint7_linear_24_184" x1="902.33" y1="2815.92" x2="2141.14" y2="3910.39" gradientUnits="userSpaceOnUse">
<stop stop-color="#FF4300"/>
<stop offset="1" stop-color="#C00000"/>
</linearGradient>
<clipPath id="clip0_24_184">
<rect width="1440" height="2960" fill="white"/>
</clipPath>
<clipPath id="clip1_24_184">
<rect width="3167.74" height="2400" fill="white" transform="translate(-864 560)"/>
</clipPath>
</defs>
</svg>
