<svg width="1440" height="2960" viewBox="0 0 1440 2960" fill="none" xmlns="http://www.w3.org/2000/svg">
<g clip-path="url(#clip0_21_15)">
<rect width="1440" height="2960" fill="white"/>
<g filter="url(#filter0_d_21_15)">
<path fill-rule="evenodd" clip-rule="evenodd" d="M1440 480L1732.89 772.893H2147.11V1187.11L2440 1480L2147.11 1772.89V2187.11H1732.89L1440 2480L1147.11 2187.11H732.893V1772.89L440 1480L732.893 1187.11V772.893H1147.11L1440 480ZM1441.1 1940.72C1694.94 1940.72 1900.72 1734.95 1900.72 1481.1C1900.72 1227.26 1694.94 1021.49 1441.1 1021.49C1187.26 1021.49 981.484 1227.26 981.484 1481.1C981.484 1734.95 1187.26 1940.72 1441.1 1940.72Z" fill="url(#paint0_linear_21_15)"/>
</g>
</g>
<defs>
<filter id="filter0_d_21_15" x="230" y="330" width="2300" height="2300" filterUnits="userSpaceOnUse" color-interpolation-filters="sRGB">
<feFlood flood-opacity="0" result="BackgroundImageFix"/>
<feColorMatrix in="SourceAlpha" type="matrix" values="0 0 0 0 0 0 0 0 0 0 0 0 0 0 0 0 0 0 127 0" result="hardAlpha"/>
<feOffset dx="-60"/>
<feGaussianBlur stdDeviation="75"/>
<feComposite in2="hardAlpha" operator="out"/>
<feColorMatrix type="matrix" values="0 0 0 0 0.976471 0 0 0 0 0.203922 0 0 0 0 0.00392157 0 0 0 0.4 0"/>
<feBlend mode="normal" in2="BackgroundImageFix" result="effect1_dropShadow_21_15"/>
<feBlend mode="normal" in="SourceGraphic" in2="effect1_dropShadow_21_15" result="shape"/>
</filter>
<linearGradient id="paint0_linear_21_15" x1="522.971" y1="585.068" x2="3384.54" y2="3396.92" gradientUnits="userSpaceOnUse">
<stop stop-color="#FF3D00"/>
<stop offset="1" stop-color="#D50000"/>
</linearGradient>
<clipPath id="clip0_21_15">
<rect width="1440" height="2960" fill="white"/>
</clipPath>
</defs>
</svg>
