<?xml version="1.0" encoding="utf-8"?>
<!-- Generator: Adobe Illustrator 24.2.1, SVG Export Plug-In . SVG Version: 6.00 Build 0)  -->
<svg version="1.1" id="Layer_1" xmlns="http://www.w3.org/2000/svg" xmlns:xlink="http://www.w3.org/1999/xlink" x="0px" y="0px"
	 viewBox="0 0 3840 2160" style="enable-background:new 0 0 3840 2160;" xml:space="preserve">
<style type="text/css">
	.st0{fill-rule:evenodd;clip-rule:evenodd;fill:url(#SVGID_1_);}
	.st1{fill:url(#SVGID_2_);}
	.st2{fill:url(#SVGID_3_);}
	.st3{fill:url(#SVGID_4_);}
	.st4{fill:url(#SVGID_5_);}
	.st5{fill:url(#SVGID_6_);}
	.st6{fill:url(#SVGID_7_);}
	.st7{fill:url(#SVGID_8_);}
	.st8{fill:url(#SVGID_9_);}
	.st9{fill:url(#SVGID_10_);}
	.st10{fill:url(#SVGID_11_);}
	.st11{fill:url(#SVGID_12_);}
	.st12{fill:url(#SVGID_13_);}
	.st13{fill:url(#SVGID_14_);}
	.st14{fill:url(#SVGID_15_);}
	.st15{fill:url(#SVGID_16_);}
	.st16{fill:url(#SVGID_17_);}
	.st17{fill:url(#SVGID_18_);}
	.st18{fill:url(#SVGID_19_);}
	.st19{fill:url(#SVGID_20_);}
	.st20{fill:url(#SVGID_21_);}
	.st21{fill:url(#SVGID_22_);}
	.st22{fill:url(#SVGID_23_);}
	.st23{fill:url(#SVGID_24_);}
	.st24{fill:url(#SVGID_25_);}
	.st25{fill:url(#SVGID_26_);}
	.st26{fill:url(#SVGID_27_);}
	.st27{fill:url(#SVGID_28_);}
	.st28{fill:url(#SVGID_29_);}
	.st29{fill:url(#SVGID_30_);}
	.st30{fill:url(#SVGID_31_);}
	.st31{fill:url(#SVGID_32_);}
	.st32{fill:url(#SVGID_33_);}
	.st33{fill:url(#SVGID_34_);}
	.st34{fill:url(#SVGID_35_);}
	.st35{fill:url(#SVGID_36_);}
	.st36{fill:url(#SVGID_37_);}
	.st37{fill:url(#SVGID_38_);}
	.st38{fill:url(#SVGID_39_);}
	.st39{fill:url(#SVGID_40_);}
	.st40{fill:url(#SVGID_41_);}
	.st41{fill:url(#SVGID_42_);}
	.st42{fill:url(#SVGID_43_);}
	.st43{fill:url(#SVGID_44_);}
	.st44{fill:url(#SVGID_45_);}
	.st45{fill:url(#SVGID_46_);}
	.st46{fill:url(#SVGID_47_);}
	.st47{fill:url(#SVGID_48_);}
	.st48{fill:url(#SVGID_49_);}
	.st49{fill:#FFFFFF;}
	.st50{fill:url(#SVGID_50_);}
	.st51{fill:url(#SVGID_51_);}
</style>
<linearGradient id="SVGID_1_" gradientUnits="userSpaceOnUse" x1="960.533" y1="1621.047" x2="962.4282" y2="1621.047" gradientTransform="matrix(2026.09 0 0 -1282.375 -1946126.25 2079870.125)">
	<stop  offset="0" style="stop-color:#D11200"/>
	<stop  offset="1" style="stop-color:#F43700"/>
</linearGradient>
<rect x="-0.03" y="-0.1" class="st0" width="3840" height="2160"/>
<g>
	<g>
		<g>
			
				<linearGradient id="SVGID_2_" gradientUnits="userSpaceOnUse" x1="8354.75" y1="3163.5625" x2="8993.125" y2="3163.5625" gradientTransform="matrix(-1 0 0 -1 8998 3286)">
				<stop  offset="0" style="stop-color:#D11200"/>
				<stop  offset="1" style="stop-color:#F43700"/>
			</linearGradient>
			<path class="st1" d="M643.25,122.44c0-176.28-142.9-319.19-319.19-319.19v638.38C500.35,441.62,643.25,298.72,643.25,122.44z"/>
			
				<linearGradient id="SVGID_3_" gradientUnits="userSpaceOnUse" x1="8354.75" y1="3163.5625" x2="8993.125" y2="3163.5625" gradientTransform="matrix(-1 0 0 -1 8998 3286)">
				<stop  offset="0" style="stop-color:#9E0000"/>
				<stop  offset="1" style="stop-color:#FF4300"/>
			</linearGradient>
			<path class="st2" d="M324.06,441.62v-638.38C147.78-196.75,4.88-53.84,4.88,122.44S147.78,441.62,324.06,441.62z"/>
		</g>
		<g>
			
				<linearGradient id="SVGID_4_" gradientUnits="userSpaceOnUse" x1="7078" y1="3163.5625" x2="7716.375" y2="3163.5625" gradientTransform="matrix(-1 0 0 -1 8998 3286)">
				<stop  offset="0" style="stop-color:#D11200"/>
				<stop  offset="1" style="stop-color:#F43700"/>
			</linearGradient>
			<path class="st3" d="M1920,122.44c0-176.28-142.91-319.19-319.19-319.19v638.38C1777.09,441.62,1920,298.72,1920,122.44z"/>
			
				<linearGradient id="SVGID_5_" gradientUnits="userSpaceOnUse" x1="7078" y1="3163.5625" x2="7716.375" y2="3163.5625" gradientTransform="matrix(-1 0 0 -1 8998 3286)">
				<stop  offset="0" style="stop-color:#9E0000"/>
				<stop  offset="1" style="stop-color:#FF4300"/>
			</linearGradient>
			<path class="st4" d="M1600.81,441.62v-638.38c-176.28,0-319.19,142.91-319.19,319.19S1424.53,441.62,1600.81,441.62z"/>
		</g>
		<g>
			
				<linearGradient id="SVGID_6_" gradientUnits="userSpaceOnUse" x1="859.25" y1="5702.8125" x2="1497.625" y2="5702.8125" gradientTransform="matrix(0 1 -1 0 7942 -1056)">
				<stop  offset="0" style="stop-color:#D11200"/>
				<stop  offset="1" style="stop-color:#F43700"/>
			</linearGradient>
			<path class="st5" d="M2239.19-196.75c-176.28,0-319.19,142.9-319.19,319.19h638.38C2558.38-53.85,2415.47-196.75,2239.19-196.75z
				"/>
			
				<linearGradient id="SVGID_7_" gradientUnits="userSpaceOnUse" x1="859.25" y1="5702.8125" x2="1497.625" y2="5702.8125" gradientTransform="matrix(0 1 -1 0 7942 -1056)">
				<stop  offset="0" style="stop-color:#9E0000"/>
				<stop  offset="1" style="stop-color:#FF4300"/>
			</linearGradient>
			<path class="st6" d="M2558.38,122.44H1920c0,176.28,142.91,319.19,319.19,319.19S2558.38,298.72,2558.38,122.44z"/>
		</g>
		<g>
			
				<linearGradient id="SVGID_8_" gradientUnits="userSpaceOnUse" x1="5700.375" y1="-3093.5625" x2="6338.75" y2="-3093.5625" gradientTransform="matrix(0 -1 1 0 4056 6142)">
				<stop  offset="0" style="stop-color:#D11200"/>
				<stop  offset="1" style="stop-color:#F43700"/>
			</linearGradient>
			<path class="st7" d="M962.44,441.62c176.28,0,319.19-142.9,319.19-319.19H643.25C643.25,298.72,786.16,441.62,962.44,441.62z"/>
			
				<linearGradient id="SVGID_9_" gradientUnits="userSpaceOnUse" x1="5700.375" y1="-3093.5625" x2="6338.75" y2="-3093.5625" gradientTransform="matrix(0 -1 1 0 4056 6142)">
				<stop  offset="0" style="stop-color:#9E0000"/>
				<stop  offset="1" style="stop-color:#FF4300"/>
			</linearGradient>
			<path class="st8" d="M643.25,122.44h638.38c0-176.28-142.91-319.19-319.19-319.19S643.25-53.85,643.25,122.44z"/>
		</g>
		<g>
			
				<linearGradient id="SVGID_10_" gradientUnits="userSpaceOnUse" x1="5801.25" y1="3163.5625" x2="6439.625" y2="3163.5625" gradientTransform="matrix(-1 0 0 -1 8998 3286)">
				<stop  offset="0" style="stop-color:#D11200"/>
				<stop  offset="1" style="stop-color:#F43700"/>
			</linearGradient>
			<path class="st9" d="M3196.75,122.44c0-176.28-142.91-319.19-319.19-319.19v638.38C3053.84,441.62,3196.75,298.72,3196.75,122.44
				z"/>
			
				<linearGradient id="SVGID_11_" gradientUnits="userSpaceOnUse" x1="5801.25" y1="3163.5625" x2="6439.625" y2="3163.5625" gradientTransform="matrix(-1 0 0 -1 8998 3286)">
				<stop  offset="0" style="stop-color:#9E0000"/>
				<stop  offset="1" style="stop-color:#FF4300"/>
			</linearGradient>
			<path class="st10" d="M2877.56,441.62v-638.38c-176.28,0-319.19,142.91-319.19,319.19S2701.28,441.62,2877.56,441.62z"/>
		</g>
		<g>
			
				<linearGradient id="SVGID_12_" gradientUnits="userSpaceOnUse" x1="5700.375" y1="-540.0625" x2="6338.75" y2="-540.0625" gradientTransform="matrix(0 -1 1 0 4056 6142)">
				<stop  offset="0" style="stop-color:#D11200"/>
				<stop  offset="1" style="stop-color:#F43700"/>
			</linearGradient>
			<path class="st11" d="M3515.94,441.62c176.28,0,319.19-142.9,319.19-319.19h-638.38
				C3196.75,298.72,3339.66,441.62,3515.94,441.62z"/>
			
				<linearGradient id="SVGID_13_" gradientUnits="userSpaceOnUse" x1="5700.375" y1="-540.0625" x2="6338.75" y2="-540.0625" gradientTransform="matrix(0 -1 1 0 4056 6142)">
				<stop  offset="0" style="stop-color:#9E0000"/>
				<stop  offset="1" style="stop-color:#FF4300"/>
			</linearGradient>
			<path class="st12" d="M3196.75,122.44h638.38c0-176.28-142.91-319.19-319.19-319.19S3196.75-53.85,3196.75,122.44z"/>
		</g>
	</g>
	<g>
		<g>
			
				<linearGradient id="SVGID_14_" gradientUnits="userSpaceOnUse" x1="9420.125" y1="3457.4375" x2="10058.5" y2="3457.4375" gradientTransform="matrix(0 1 -1 0 3781.5 -8978.5)">
				<stop  offset="0" style="stop-color:#D11200"/>
				<stop  offset="1" style="stop-color:#F43700"/>
			</linearGradient>
			<path class="st13" d="M324.06,441.62c-176.28,0-319.19,142.9-319.19,319.19h638.38C643.25,584.53,500.34,441.62,324.06,441.62z"
				/>
			
				<linearGradient id="SVGID_15_" gradientUnits="userSpaceOnUse" x1="9420.125" y1="3457.4375" x2="10058.5" y2="3457.4375" gradientTransform="matrix(0 1 -1 0 3781.5 -8978.5)">
				<stop  offset="0" style="stop-color:#9E0000"/>
				<stop  offset="1" style="stop-color:#FF4300"/>
			</linearGradient>
			<path class="st14" d="M643.25,760.81H4.88C4.88,937.1,147.78,1080,324.06,1080S643.25,937.1,643.25,760.81z"/>
		</g>
		<g>
			
				<linearGradient id="SVGID_16_" gradientUnits="userSpaceOnUse" x1="6472.5" y1="3917.3125" x2="7110.875" y2="3917.3125" gradientTransform="matrix(0 -1 1 0 -2316.5 7552.5)">
				<stop  offset="0" style="stop-color:#D11200"/>
				<stop  offset="1" style="stop-color:#F43700"/>
			</linearGradient>
			<path class="st15" d="M1600.81,1080c176.28,0,319.19-142.9,319.19-319.19h-638.38C1281.62,937.1,1424.53,1080,1600.81,1080z"/>
			
				<linearGradient id="SVGID_17_" gradientUnits="userSpaceOnUse" x1="6472.5" y1="3917.3125" x2="7110.875" y2="3917.3125" gradientTransform="matrix(0 -1 1 0 -2316.5 7552.5)">
				<stop  offset="0" style="stop-color:#9E0000"/>
				<stop  offset="1" style="stop-color:#FF4300"/>
			</linearGradient>
			<path class="st16" d="M1281.62,760.81H1920c0-176.28-142.91-319.19-319.19-319.19S1281.62,584.53,1281.62,760.81z"/>
		</g>
		<g>
			
				<linearGradient id="SVGID_18_" gradientUnits="userSpaceOnUse" x1="-57.875" y1="5260.6875" x2="580.5" y2="5260.6875" gradientTransform="matrix(-1 0 0 -1 2500.5 6021.5)">
				<stop  offset="0" style="stop-color:#D11200"/>
				<stop  offset="1" style="stop-color:#F43700"/>
			</linearGradient>
			<path class="st17" d="M2558.38,760.81c0-176.28-142.91-319.19-319.19-319.19V1080C2415.47,1080,2558.38,937.09,2558.38,760.81z"
				/>
			
				<linearGradient id="SVGID_19_" gradientUnits="userSpaceOnUse" x1="-57.875" y1="5260.6875" x2="580.5" y2="5260.6875" gradientTransform="matrix(-1 0 0 -1 2500.5 6021.5)">
				<stop  offset="0" style="stop-color:#9E0000"/>
				<stop  offset="1" style="stop-color:#FF4300"/>
			</linearGradient>
			<path class="st18" d="M2239.19,1080V441.62c-176.28,0-319.19,142.91-319.19,319.19S2062.91,1080,2239.19,1080z"/>
		</g>
		<g>
			
				<linearGradient id="SVGID_20_" gradientUnits="userSpaceOnUse" x1="6290.75" y1="-2324.6875" x2="6929.125" y2="-2324.6875" gradientTransform="matrix(1 0 0 1 -5647.5 3085.5)">
				<stop  offset="0" style="stop-color:#D11200"/>
				<stop  offset="1" style="stop-color:#F43700"/>
			</linearGradient>
			<path class="st19" d="M643.25,760.81c0,176.28,142.9,319.19,319.19,319.19V441.62C786.15,441.62,643.25,584.53,643.25,760.81z"/>
			
				<linearGradient id="SVGID_21_" gradientUnits="userSpaceOnUse" x1="6290.75" y1="-2324.6875" x2="6929.125" y2="-2324.6875" gradientTransform="matrix(1 0 0 1 -5647.5 3085.5)">
				<stop  offset="0" style="stop-color:#9E0000"/>
				<stop  offset="1" style="stop-color:#FF4300"/>
			</linearGradient>
			<path class="st20" d="M962.44,441.62V1080c176.28,0,319.19-142.91,319.19-319.19S1138.72,441.62,962.44,441.62z"/>
		</g>
		<g>
			
				<linearGradient id="SVGID_22_" gradientUnits="userSpaceOnUse" x1="9420.125" y1="903.9375" x2="10058.5" y2="903.9375" gradientTransform="matrix(0 1 -1 0 3781.5 -8978.5)">
				<stop  offset="0" style="stop-color:#D11200"/>
				<stop  offset="1" style="stop-color:#F43700"/>
			</linearGradient>
			<path class="st21" d="M2877.56,441.62c-176.28,0-319.19,142.9-319.19,319.19h638.38
				C3196.75,584.53,3053.84,441.62,2877.56,441.62z"/>
			
				<linearGradient id="SVGID_23_" gradientUnits="userSpaceOnUse" x1="9420.125" y1="903.9375" x2="10058.5" y2="903.9375" gradientTransform="matrix(0 1 -1 0 3781.5 -8978.5)">
				<stop  offset="0" style="stop-color:#9E0000"/>
				<stop  offset="1" style="stop-color:#FF4300"/>
			</linearGradient>
			<path class="st22" d="M3196.75,760.81h-638.38c0,176.28,142.91,319.19,319.19,319.19S3196.75,937.1,3196.75,760.81z"/>
		</g>
		<g>
			
				<linearGradient id="SVGID_24_" gradientUnits="userSpaceOnUse" x1="8844.25" y1="-2324.6875" x2="9482.625" y2="-2324.6875" gradientTransform="matrix(1 0 0 1 -5647.5 3085.5)">
				<stop  offset="0" style="stop-color:#D11200"/>
				<stop  offset="1" style="stop-color:#F43700"/>
			</linearGradient>
			<path class="st23" d="M3196.75,760.81c0,176.28,142.91,319.19,319.19,319.19V441.62
				C3339.66,441.62,3196.75,584.53,3196.75,760.81z"/>
			
				<linearGradient id="SVGID_25_" gradientUnits="userSpaceOnUse" x1="8844.25" y1="-2324.6875" x2="9482.625" y2="-2324.6875" gradientTransform="matrix(1 0 0 1 -5647.5 3085.5)">
				<stop  offset="0" style="stop-color:#9E0000"/>
				<stop  offset="1" style="stop-color:#FF4300"/>
			</linearGradient>
			<path class="st24" d="M3515.94,441.62V1080c176.28,0,319.19-142.91,319.19-319.19S3692.22,441.62,3515.94,441.62z"/>
		</g>
	</g>
	<g>
		<g>
			
				<linearGradient id="SVGID_26_" gradientUnits="userSpaceOnUse" x1="8400.875" y1="5248.1875" x2="9039.25" y2="5248.1875" gradientTransform="matrix(1 0 0 1 -8396 -3849)">
				<stop  offset="0" style="stop-color:#D11200"/>
				<stop  offset="1" style="stop-color:#F43700"/>
			</linearGradient>
			<path class="st25" d="M4.88,1399.19c0,176.28,142.9,319.19,319.19,319.19V1080C147.78,1080,4.88,1222.91,4.88,1399.19z"/>
			
				<linearGradient id="SVGID_27_" gradientUnits="userSpaceOnUse" x1="8400.875" y1="5248.1875" x2="9039.25" y2="5248.1875" gradientTransform="matrix(1 0 0 1 -8396 -3849)">
				<stop  offset="0" style="stop-color:#9E0000"/>
				<stop  offset="1" style="stop-color:#FF4300"/>
			</linearGradient>
			<path class="st26" d="M324.06,1080v638.38c176.28,0,319.19-142.91,319.19-319.19S500.35,1080,324.06,1080z"/>
		</g>
		<g>
			
				<linearGradient id="SVGID_28_" gradientUnits="userSpaceOnUse" x1="7951.625" y1="5248.1875" x2="8590" y2="5248.1875" gradientTransform="matrix(1 0 0 1 -6670 -3849)">
				<stop  offset="0" style="stop-color:#D11200"/>
				<stop  offset="1" style="stop-color:#F43700"/>
			</linearGradient>
			<path class="st27" d="M1281.62,1399.19c0,176.28,142.91,319.19,319.19,319.19V1080C1424.53,1080,1281.62,1222.91,1281.62,1399.19
				z"/>
			
				<linearGradient id="SVGID_29_" gradientUnits="userSpaceOnUse" x1="7951.625" y1="5248.1875" x2="8590" y2="5248.1875" gradientTransform="matrix(1 0 0 1 -6670 -3849)">
				<stop  offset="0" style="stop-color:#9E0000"/>
				<stop  offset="1" style="stop-color:#FF4300"/>
			</linearGradient>
			<path class="st28" d="M1600.81,1080v638.38c176.28,0,319.19-142.91,319.19-319.19S1777.09,1080,1600.81,1080z"/>
		</g>
		<g>
			
				<linearGradient id="SVGID_30_" gradientUnits="userSpaceOnUse" x1="-1225.375" y1="6903.1875" x2="-587" y2="6903.1875" gradientTransform="matrix(0 -1 1 0 -4664 493)">
				<stop  offset="0" style="stop-color:#D11200"/>
				<stop  offset="1" style="stop-color:#F43700"/>
			</linearGradient>
			<path class="st29" d="M2239.19,1718.38c176.28,0,319.19-142.91,319.19-319.19H1920C1920,1575.47,2062.91,1718.38,2239.19,1718.38
				z"/>
			
				<linearGradient id="SVGID_31_" gradientUnits="userSpaceOnUse" x1="-1225.375" y1="6903.1875" x2="-587" y2="6903.1875" gradientTransform="matrix(0 -1 1 0 -4664 493)">
				<stop  offset="0" style="stop-color:#9E0000"/>
				<stop  offset="1" style="stop-color:#FF4300"/>
			</linearGradient>
			<path class="st30" d="M1920,1399.19h638.38c0-176.28-142.91-319.19-319.19-319.19S1920,1222.91,1920,1399.19z"/>
		</g>
		<g>
			
				<linearGradient id="SVGID_32_" gradientUnits="userSpaceOnUse" x1="7785" y1="-3640.4375" x2="8423.375" y2="-3640.4375" gradientTransform="matrix(0 1 -1 0 -2678 -6705)">
				<stop  offset="0" style="stop-color:#D11200"/>
				<stop  offset="1" style="stop-color:#F43700"/>
			</linearGradient>
			<path class="st31" d="M962.44,1080c-176.28,0-319.19,142.91-319.19,319.19h638.38C1281.62,1222.91,1138.72,1080,962.44,1080z"/>
			
				<linearGradient id="SVGID_33_" gradientUnits="userSpaceOnUse" x1="7785" y1="-3640.4375" x2="8423.375" y2="-3640.4375" gradientTransform="matrix(0 1 -1 0 -2678 -6705)">
				<stop  offset="0" style="stop-color:#9E0000"/>
				<stop  offset="1" style="stop-color:#FF4300"/>
			</linearGradient>
			<path class="st32" d="M1281.62,1399.19H643.25c0,176.28,142.91,319.19,319.19,319.19S1281.62,1575.47,1281.62,1399.19z"/>
		</g>
		<g>
			
				<linearGradient id="SVGID_34_" gradientUnits="userSpaceOnUse" x1="10954.375" y1="5248.1875" x2="11592.75" y2="5248.1875" gradientTransform="matrix(1 0 0 1 -8396 -3849)">
				<stop  offset="0" style="stop-color:#D11200"/>
				<stop  offset="1" style="stop-color:#F43700"/>
			</linearGradient>
			<path class="st33" d="M2558.38,1399.19c0,176.28,142.91,319.19,319.19,319.19V1080C2701.28,1080,2558.38,1222.91,2558.38,1399.19
				z"/>
			
				<linearGradient id="SVGID_35_" gradientUnits="userSpaceOnUse" x1="10954.375" y1="5248.1875" x2="11592.75" y2="5248.1875" gradientTransform="matrix(1 0 0 1 -8396 -3849)">
				<stop  offset="0" style="stop-color:#9E0000"/>
				<stop  offset="1" style="stop-color:#FF4300"/>
			</linearGradient>
			<path class="st34" d="M2877.56,1080v638.38c176.28,0,319.19-142.91,319.19-319.19S3053.84,1080,2877.56,1080z"/>
		</g>
		<g>
			
				<linearGradient id="SVGID_36_" gradientUnits="userSpaceOnUse" x1="7785" y1="-6193.9375" x2="8423.375" y2="-6193.9375" gradientTransform="matrix(0 1 -1 0 -2678 -6705)">
				<stop  offset="0" style="stop-color:#D11200"/>
				<stop  offset="1" style="stop-color:#F43700"/>
			</linearGradient>
			<path class="st35" d="M3515.94,1080c-176.28,0-319.19,142.91-319.19,319.19h638.38C3835.12,1222.91,3692.22,1080,3515.94,1080z"
				/>
			
				<linearGradient id="SVGID_37_" gradientUnits="userSpaceOnUse" x1="7785" y1="-6193.9375" x2="8423.375" y2="-6193.9375" gradientTransform="matrix(0 1 -1 0 -2678 -6705)">
				<stop  offset="0" style="stop-color:#9E0000"/>
				<stop  offset="1" style="stop-color:#FF4300"/>
			</linearGradient>
			<path class="st36" d="M3835.12,1399.19h-638.38c0,176.28,142.91,319.19,319.19,319.19S3835.12,1575.47,3835.12,1399.19z"/>
		</g>
	</g>
	<g>
		<g>
			
				<linearGradient id="SVGID_38_" gradientUnits="userSpaceOnUse" x1="5947.75" y1="3566.5625" x2="6586.125" y2="3566.5625" gradientTransform="matrix(0 -1 1 0 -3242.5 8304.5)">
				<stop  offset="0" style="stop-color:#D11200"/>
				<stop  offset="1" style="stop-color:#F43700"/>
			</linearGradient>
			<path class="st37" d="M324.06,2356.75c176.28,0,319.19-142.91,319.19-319.19H4.88C4.88,2213.84,147.78,2356.75,324.06,2356.75z"
				/>
			
				<linearGradient id="SVGID_39_" gradientUnits="userSpaceOnUse" x1="5947.75" y1="3566.5625" x2="6586.125" y2="3566.5625" gradientTransform="matrix(0 -1 1 0 -3242.5 8304.5)">
				<stop  offset="0" style="stop-color:#9E0000"/>
				<stop  offset="1" style="stop-color:#FF4300"/>
			</linearGradient>
			<path class="st38" d="M4.88,2037.56h638.38c0-176.28-142.91-319.19-319.19-319.19S4.88,1861.28,4.88,2037.56z"/>
		</g>
		<g>
			
				<linearGradient id="SVGID_40_" gradientUnits="userSpaceOnUse" x1="9944.875" y1="3106.6875" x2="10583.25" y2="3106.6875" gradientTransform="matrix(0 1 -1 0 4707.5 -8226.5)">
				<stop  offset="0" style="stop-color:#D11200"/>
				<stop  offset="1" style="stop-color:#F43700"/>
			</linearGradient>
			<path class="st39" d="M1600.81,1718.38c-176.28,0-319.19,142.91-319.19,319.19H1920
				C1920,1861.28,1777.09,1718.38,1600.81,1718.38z"/>
			
				<linearGradient id="SVGID_41_" gradientUnits="userSpaceOnUse" x1="9944.875" y1="3106.6875" x2="10583.25" y2="3106.6875" gradientTransform="matrix(0 1 -1 0 4707.5 -8226.5)">
				<stop  offset="0" style="stop-color:#9E0000"/>
				<stop  offset="1" style="stop-color:#FF4300"/>
			</linearGradient>
			<path class="st40" d="M1920,2037.56h-638.38c0,176.28,142.91,319.19,319.19,319.19S1920,2213.84,1920,2037.56z"/>
		</g>
		<g>
			
				<linearGradient id="SVGID_42_" gradientUnits="userSpaceOnUse" x1="1079.5" y1="8733.0625" x2="1717.875" y2="8733.0625" gradientTransform="matrix(1 0 0 1 840.5 -6695.5)">
				<stop  offset="0" style="stop-color:#D11200"/>
				<stop  offset="1" style="stop-color:#F43700"/>
			</linearGradient>
			<path class="st41" d="M1920,2037.56c0,176.28,142.91,319.19,319.19,319.19v-638.38C2062.91,1718.38,1920,1861.28,1920,2037.56z"
				/>
			
				<linearGradient id="SVGID_43_" gradientUnits="userSpaceOnUse" x1="1079.5" y1="8733.0625" x2="1717.875" y2="8733.0625" gradientTransform="matrix(1 0 0 1 840.5 -6695.5)">
				<stop  offset="0" style="stop-color:#9E0000"/>
				<stop  offset="1" style="stop-color:#FF4300"/>
			</linearGradient>
			<path class="st42" d="M2239.19,1718.38v638.38c176.28,0,319.19-142.91,319.19-319.19S2415.47,1718.38,2239.19,1718.38z"/>
		</g>
		<g>
			
				<linearGradient id="SVGID_44_" gradientUnits="userSpaceOnUse" x1="5806.875" y1="-5797.0625" x2="6445.25" y2="-5797.0625" gradientTransform="matrix(-1 0 0 -1 7088.5 -3759.5)">
				<stop  offset="0" style="stop-color:#D11200"/>
				<stop  offset="1" style="stop-color:#F43700"/>
			</linearGradient>
			<path class="st43" d="M1281.62,2037.56c0-176.28-142.91-319.19-319.19-319.19v638.38
				C1138.72,2356.75,1281.62,2213.84,1281.62,2037.56z"/>
			
				<linearGradient id="SVGID_45_" gradientUnits="userSpaceOnUse" x1="5806.875" y1="-5797.0625" x2="6445.25" y2="-5797.0625" gradientTransform="matrix(-1 0 0 -1 7088.5 -3759.5)">
				<stop  offset="0" style="stop-color:#9E0000"/>
				<stop  offset="1" style="stop-color:#FF4300"/>
			</linearGradient>
			<path class="st44" d="M962.44,2356.75v-638.38c-176.28,0-319.19,142.91-319.19,319.19S786.15,2356.75,962.44,2356.75z"/>
		</g>
		<g>
			
				<linearGradient id="SVGID_46_" gradientUnits="userSpaceOnUse" x1="5947.75" y1="6120.0625" x2="6586.125" y2="6120.0625" gradientTransform="matrix(0 -1 1 0 -3242.5 8304.5)">
				<stop  offset="0" style="stop-color:#D11200"/>
				<stop  offset="1" style="stop-color:#F43700"/>
			</linearGradient>
			<path class="st45" d="M2877.56,2356.75c176.28,0,319.19-142.91,319.19-319.19h-638.38
				C2558.38,2213.84,2701.28,2356.75,2877.56,2356.75z"/>
			
				<linearGradient id="SVGID_47_" gradientUnits="userSpaceOnUse" x1="5947.75" y1="6120.0625" x2="6586.125" y2="6120.0625" gradientTransform="matrix(0 -1 1 0 -3242.5 8304.5)">
				<stop  offset="0" style="stop-color:#9E0000"/>
				<stop  offset="1" style="stop-color:#FF4300"/>
			</linearGradient>
			<path class="st46" d="M2558.38,2037.56h638.38c0-176.28-142.91-319.19-319.19-319.19S2558.38,1861.28,2558.38,2037.56z"/>
		</g>
		<g>
			
				<linearGradient id="SVGID_48_" gradientUnits="userSpaceOnUse" x1="3253.375" y1="-5797.0625" x2="3891.75" y2="-5797.0625" gradientTransform="matrix(-1 0 0 -1 7088.5 -3759.5)">
				<stop  offset="0" style="stop-color:#D11200"/>
				<stop  offset="1" style="stop-color:#F43700"/>
			</linearGradient>
			<path class="st47" d="M3835.12,2037.56c0-176.28-142.91-319.19-319.19-319.19v638.38
				C3692.22,2356.75,3835.12,2213.84,3835.12,2037.56z"/>
			
				<linearGradient id="SVGID_49_" gradientUnits="userSpaceOnUse" x1="3253.375" y1="-5797.0625" x2="3891.75" y2="-5797.0625" gradientTransform="matrix(-1 0 0 -1 7088.5 -3759.5)">
				<stop  offset="0" style="stop-color:#9E0000"/>
				<stop  offset="1" style="stop-color:#FF4300"/>
			</linearGradient>
			<path class="st48" d="M3515.94,2356.75v-638.38c-176.28,0-319.19,142.91-319.19,319.19S3339.66,2356.75,3515.94,2356.75z"/>
		</g>
	</g>
</g>
<g>
	<circle class="st49" cx="1920" cy="1080" r="500"/>
	
		<linearGradient id="SVGID_50_" gradientUnits="userSpaceOnUse" x1="1622.7412" y1="1379.7383" x2="2215.8291" y2="785.6937" gradientTransform="matrix(1 0 0 -1 0 2162)">
		<stop  offset="0" style="stop-color:#C00000"/>
		<stop  offset="1" style="stop-color:#FF4300"/>
	</linearGradient>
	<path class="st50" d="M1657.36,817.36h525.28v525.28h-525.28V817.36z"/>
	
		<linearGradient id="SVGID_51_" gradientUnits="userSpaceOnUse" x1="1622.7412" y1="1379.7383" x2="2215.8291" y2="785.6937" gradientTransform="matrix(1 0 0 -1 0 2162)">
		<stop  offset="0" style="stop-color:#C00000"/>
		<stop  offset="1" style="stop-color:#FF4300"/>
	</linearGradient>
	<path class="st51" d="M1548.57,1080L1920,708.57L2291.43,1080L1920,1451.43L1548.57,1080z"/>
	<circle class="st49" cx="1920" cy="1080" r="200"/>
</g>
</svg>
