<svg width="3840" height="2160" viewBox="0 0 3840 2160" fill="none" xmlns="http://www.w3.org/2000/svg">
<g clip-path="url(#clip0_9_2)">
<rect width="3840" height="2160" fill="url(#paint0_linear_9_2)"/>
<path fill-rule="evenodd" clip-rule="evenodd" d="M1451 985L1478.82 1012.82H1518.18V1052.18L1546 1080L1518.18 1107.82V1147.18H1478.82L1451 1175L1423.18 1147.18H1383.82V1107.82L1356 1080L1383.82 1052.18V1012.82H1423.18L1451 985ZM1451.1 1123.77C1475.22 1123.77 1494.77 1104.22 1494.77 1080.1C1494.77 1055.99 1475.22 1036.44 1451.1 1036.44C1426.99 1036.44 1407.44 1055.99 1407.44 1080.1C1407.44 1104.22 1426.99 1123.77 1451.1 1123.77Z" fill="white"/>
<path d="M1678.76 1155.21V1136.92C1673.7 1142.94 1667.68 1147.69 1660.71 1151.17C1653.9 1154.65 1646.78 1156.4 1639.34 1156.4C1630.95 1156.4 1623.11 1154.89 1615.83 1151.88C1608.54 1148.72 1602.21 1144.28 1596.83 1138.58C1591.28 1132.88 1586.93 1126.39 1583.76 1119.11C1580.75 1111.67 1579.25 1103.83 1579.25 1095.6C1579.25 1087.36 1580.75 1079.6 1583.76 1072.32C1586.93 1064.88 1591.28 1058.31 1596.83 1052.61C1602.21 1046.91 1608.54 1042.55 1615.83 1039.55C1623.11 1036.38 1630.95 1034.8 1639.34 1034.8C1647.57 1034.8 1655.01 1036.46 1661.66 1039.78C1668.47 1043.11 1674.17 1047.7 1678.76 1053.56V997.508H1699.66V1155.21H1678.76ZM1639.34 1056.41C1634.11 1056.41 1629.13 1057.44 1624.38 1059.5C1619.63 1061.4 1615.51 1064.17 1612.03 1067.81C1608.54 1071.45 1605.77 1075.72 1603.71 1080.63C1601.65 1085.38 1600.63 1090.37 1600.63 1095.6C1600.63 1106.2 1604.43 1115.47 1612.03 1123.38C1615.51 1127.02 1619.63 1129.87 1624.38 1131.93C1629.13 1133.99 1634.11 1135.02 1639.34 1135.02C1644.56 1135.02 1649.55 1133.99 1654.3 1131.93C1659.21 1129.87 1663.4 1127.02 1666.89 1123.38C1674.49 1115.47 1678.29 1106.2 1678.29 1095.6C1678.29 1090.37 1677.26 1085.38 1675.2 1080.63C1673.14 1075.72 1670.37 1071.45 1666.89 1067.81C1663.4 1064.17 1659.21 1061.4 1654.3 1059.5C1649.55 1057.44 1644.56 1056.41 1639.34 1056.41Z" fill="white"/>
<path d="M1819.52 1155.21V1137.16C1814.46 1143.02 1808.6 1147.69 1801.95 1151.17C1795.3 1154.65 1788.25 1156.4 1780.81 1156.4C1772.58 1156.4 1764.82 1154.89 1757.54 1151.88C1750.41 1148.87 1744.08 1144.6 1738.54 1139.06C1732.99 1133.67 1728.64 1127.34 1725.47 1120.06C1722.47 1112.62 1720.96 1104.86 1720.96 1096.78C1720.96 1088.71 1722.47 1081.03 1725.47 1073.75C1728.64 1066.3 1732.99 1059.81 1738.54 1054.27C1744.08 1048.73 1750.41 1044.45 1757.54 1041.45C1764.82 1038.44 1772.58 1036.93 1780.81 1036.93C1788.41 1036.93 1795.54 1038.52 1802.19 1041.68C1808.99 1044.85 1814.77 1049.28 1819.52 1054.98V1039.31H1840.9V1155.21H1819.52ZM1780.81 1058.07C1775.59 1058.07 1770.52 1059.1 1765.61 1061.16C1760.86 1063.06 1756.74 1065.75 1753.26 1069.23C1749.78 1072.72 1747.01 1076.91 1744.95 1081.82C1743.05 1086.57 1742.1 1091.56 1742.1 1096.78C1742.1 1102.01 1743.05 1107 1744.95 1111.75C1747.01 1116.5 1749.78 1120.61 1753.26 1124.1C1756.74 1127.58 1760.86 1130.35 1765.61 1132.41C1770.52 1134.31 1775.59 1135.26 1780.81 1135.26C1786.04 1135.26 1791.02 1134.31 1795.77 1132.41C1800.52 1130.35 1804.64 1127.58 1808.12 1124.1C1811.61 1120.61 1814.3 1116.5 1816.2 1111.75C1818.26 1107 1819.29 1102.01 1819.29 1096.78C1819.29 1091.56 1818.26 1086.57 1816.2 1081.82C1814.3 1076.91 1811.61 1072.72 1808.12 1069.23C1804.64 1065.75 1800.52 1063.06 1795.77 1061.16C1791.02 1059.1 1786.04 1058.07 1780.81 1058.07Z" fill="white"/>
<path d="M1937.97 1155.21V1082.3C1937.97 1074.85 1935.36 1068.52 1930.13 1063.3C1927.76 1060.92 1924.91 1059.02 1921.58 1057.6C1918.42 1056.17 1915.17 1055.46 1911.85 1055.46C1904.72 1055.46 1898.55 1058.07 1893.32 1063.3C1888.1 1068.52 1885.48 1074.85 1885.48 1082.3V1155.21H1864.58V996.796H1885.48V1044.77C1893.08 1037.65 1901.87 1034.08 1911.85 1034.08C1918.18 1034.08 1924.2 1035.35 1929.9 1037.88C1935.6 1040.26 1940.66 1043.66 1945.1 1048.1C1949.37 1052.53 1952.7 1057.75 1955.07 1063.77C1957.6 1069.63 1958.87 1075.8 1958.87 1082.3V1155.21H1937.97Z" fill="white"/>
<path d="M1982.64 1155.21V997.271H2001.64V1155.21H1982.64Z" fill="white"/>
<path d="M2036.24 1019.36C2033.23 1019.36 2030.62 1018.33 2028.4 1016.27C2026.34 1014.05 2025.31 1011.44 2025.31 1008.43C2025.31 1005.42 2026.34 1002.89 2028.4 1000.83C2030.62 998.617 2033.23 997.508 2036.24 997.508C2039.25 997.508 2041.78 998.617 2043.84 1000.83C2046.06 1002.89 2047.16 1005.42 2047.16 1008.43C2047.16 1011.44 2046.06 1014.05 2043.84 1016.27C2041.78 1018.33 2039.25 1019.36 2036.24 1019.36ZM2026.5 1155.21V1036.46H2046.45V1155.21H2026.5Z" fill="white"/>
<path d="M2160 1155.21V1137.16C2154.94 1143.02 2149.08 1147.69 2142.43 1151.17C2135.78 1154.65 2128.73 1156.4 2121.29 1156.4C2113.06 1156.4 2105.3 1154.89 2098.01 1151.88C2090.89 1148.87 2084.56 1144.6 2079.01 1139.06C2073.47 1133.67 2069.12 1127.34 2065.95 1120.06C2062.94 1112.62 2061.44 1104.86 2061.44 1096.78C2061.44 1088.71 2062.94 1081.03 2065.95 1073.75C2069.12 1066.3 2073.47 1059.81 2079.01 1054.27C2084.56 1048.73 2090.89 1044.45 2098.01 1041.45C2105.3 1038.44 2113.06 1036.93 2121.29 1036.93C2128.89 1036.93 2136.01 1038.52 2142.66 1041.68C2149.47 1044.85 2155.25 1049.28 2160 1054.98V1039.31H2181.38V1155.21H2160ZM2121.29 1058.07C2116.06 1058.07 2111 1059.1 2106.09 1061.16C2101.34 1063.06 2097.22 1065.75 2093.74 1069.23C2090.26 1072.72 2087.49 1076.91 2085.43 1081.82C2083.53 1086.57 2082.58 1091.56 2082.58 1096.78C2082.58 1102.01 2083.53 1107 2085.43 1111.75C2087.49 1116.5 2090.26 1120.61 2093.74 1124.1C2097.22 1127.58 2101.34 1130.35 2106.09 1132.41C2111 1134.31 2116.06 1135.26 2121.29 1135.26C2126.51 1135.26 2131.5 1134.31 2136.25 1132.41C2141 1130.35 2145.12 1127.58 2148.6 1124.1C2152.09 1120.61 2154.78 1116.5 2156.68 1111.75C2158.74 1107 2159.76 1102.01 2159.76 1096.78C2159.76 1091.56 2158.74 1086.57 2156.68 1081.82C2154.78 1076.91 2152.09 1072.72 2148.6 1069.23C2145.12 1065.75 2141 1063.06 2136.25 1061.16C2131.5 1059.1 2126.51 1058.07 2121.29 1058.07Z" fill="white"/>
<path d="M2281.78 1156.4C2271.01 1156.4 2260.8 1154.42 2251.14 1150.46C2241.64 1146.34 2233.25 1140.56 2225.96 1133.12C2218.68 1125.84 2212.98 1117.37 2208.86 1107.71C2204.75 1097.89 2202.69 1087.6 2202.69 1076.83C2202.69 1066.07 2204.67 1055.93 2208.63 1046.43C2212.74 1036.77 2218.52 1028.22 2225.96 1020.78C2233.25 1013.5 2241.64 1007.8 2251.14 1003.68C2260.8 999.567 2271.01 997.508 2281.78 997.508C2292.54 997.508 2302.75 999.567 2312.41 1003.68C2322.07 1007.8 2330.54 1013.5 2337.83 1020.78C2345.11 1028.07 2350.81 1036.54 2354.93 1046.2C2359.04 1055.85 2361.1 1066.07 2361.1 1076.83C2361.1 1087.6 2359.04 1097.89 2354.93 1107.71C2350.81 1117.37 2345.11 1125.84 2337.83 1133.12C2330.54 1140.4 2322.07 1146.1 2312.41 1150.22C2302.75 1154.34 2292.54 1156.4 2281.78 1156.4ZM2281.78 1019.12C2274.02 1019.12 2266.58 1020.62 2259.45 1023.63C2252.48 1026.48 2246.31 1030.6 2240.93 1035.98C2235.54 1041.37 2231.35 1047.62 2228.34 1054.75C2225.49 1061.71 2224.06 1069.07 2224.06 1076.83C2224.06 1084.75 2225.57 1092.35 2228.58 1099.63C2231.58 1106.76 2235.7 1112.93 2240.93 1118.16C2246.31 1123.54 2252.48 1127.74 2259.45 1130.75C2266.58 1133.6 2274.02 1135.02 2281.78 1135.02C2289.53 1135.02 2296.9 1133.6 2303.86 1130.75C2310.99 1127.74 2317.24 1123.54 2322.63 1118.16C2327.85 1112.93 2331.97 1106.76 2334.98 1099.63C2337.98 1092.35 2339.49 1084.75 2339.49 1076.83C2339.49 1069.07 2337.98 1061.71 2334.98 1054.75C2332.13 1047.62 2328.01 1041.37 2322.63 1035.98C2317.24 1030.6 2310.99 1026.48 2303.86 1023.63C2296.9 1020.62 2289.53 1019.12 2281.78 1019.12Z" fill="white"/>
<path d="M2462.17 1045.96C2461.37 1039.78 2459.71 1034.72 2457.18 1030.76C2454.33 1026.48 2450.77 1023.4 2446.49 1021.5C2442.37 1019.44 2437.07 1018.41 2430.58 1018.41C2419.81 1018.41 2412.29 1020.7 2408.02 1025.3C2403.9 1029.41 2401.84 1035.35 2401.84 1043.11C2401.84 1047.54 2402.47 1051.18 2403.74 1054.03C2405.01 1056.72 2406.91 1058.94 2409.44 1060.68C2413.24 1063.37 2419.49 1065.12 2428.2 1065.91C2437.07 1066.7 2444.51 1067.97 2450.53 1069.71C2456.7 1071.29 2462.09 1073.51 2466.68 1076.36C2478.24 1083.64 2484.02 1095.04 2484.02 1110.56C2484.02 1116.57 2482.83 1122.27 2480.45 1127.66C2478.08 1133.04 2474.75 1137.87 2470.48 1142.15C2465.41 1147.05 2459.39 1150.7 2452.43 1153.07C2445.62 1155.45 2438.49 1156.63 2431.05 1156.63C2414.27 1156.63 2400.89 1151.88 2390.92 1142.38C2382.37 1133.83 2377.22 1122.43 2375.48 1108.18L2375.95 1107.95H2396.85C2398.12 1116.34 2400.97 1122.59 2405.4 1126.71C2411.58 1132.41 2419.89 1135.26 2430.34 1135.26C2440.32 1135.26 2448.23 1132.96 2454.09 1128.37C2459.95 1123.78 2462.88 1117.84 2462.88 1110.56C2462.88 1107.23 2462.4 1104.38 2461.45 1102.01C2460.66 1099.47 2459.08 1097.26 2456.7 1095.36C2451.32 1091.24 2441.27 1088.63 2426.54 1087.52C2411.5 1086.25 2400.1 1081.9 2392.34 1074.46C2384.58 1067.02 2380.7 1056.57 2380.7 1043.11C2380.7 1029.49 2384.9 1018.49 2393.29 1010.1C2402.16 1001.23 2414.51 996.796 2430.34 996.796C2446.81 996.796 2459.63 1001.78 2468.82 1011.76C2476.89 1020.47 2481.8 1031.87 2483.54 1045.96H2462.17Z" fill="white"/>
</g>
<defs>
<linearGradient id="paint0_linear_9_2" x1="0" y1="0" x2="3840" y2="2160" gradientUnits="userSpaceOnUse">
<stop stop-color="#C00000"/>
<stop offset="1" stop-color="#FF4300"/>
</linearGradient>
<clipPath id="clip0_9_2">
<rect width="3840" height="2160" fill="white"/>
</clipPath>
</defs>
</svg>
