<svg width="3840" height="2160" viewBox="0 0 3840 2160" fill="none" xmlns="http://www.w3.org/2000/svg">
<rect width="3840" height="2160" fill="url(#paint0_linear)"/>
<g clip-path="url(#clip0)">
<path fill-rule="evenodd" clip-rule="evenodd" d="M652.649 949.625L1710 2160H-404.703L652.649 949.625Z" fill="url(#paint1_linear)"/>
<path fill-rule="evenodd" clip-rule="evenodd" d="M120.947 1145.32L1000 2160H-758.109L120.947 1145.32Z" fill="url(#paint2_linear)"/>
<path fill-rule="evenodd" clip-rule="evenodd" d="M1030 1040.07L1748 2160H312L1030 1040.07Z" fill="url(#paint3_linear)"/>
<path fill-rule="evenodd" clip-rule="evenodd" d="M3506.65 949.625L4564 2160H2449.3L3506.65 949.625Z" fill="url(#paint4_linear)"/>
<path fill-rule="evenodd" clip-rule="evenodd" d="M1880.42 579.605L3334.85 2160H426L1880.42 579.605Z" fill="url(#paint5_linear)"/>
<path fill-rule="evenodd" clip-rule="evenodd" d="M2590.65 747.348L3824.7 2160H1356.59L2590.65 747.348Z" fill="url(#paint6_linear)"/>
<path fill-rule="evenodd" clip-rule="evenodd" d="M1793.35 1424.07L2850.7 2634.45H736L1793.35 1424.07Z" fill="url(#paint7_linear)"/>
<path fill-rule="evenodd" clip-rule="evenodd" d="M2767.35 1530.97L3824.7 2741.34H1710L2767.35 1530.97Z" fill="url(#paint8_linear)"/>
</g>
<path d="M1529 1194C1611.84 1194 1679 1126.84 1679 1044C1679 961.157 1611.84 894 1529 894C1446.16 894 1379 961.157 1379 1044C1379 1126.84 1446.16 1194 1529 1194Z" fill="white"/>
<path d="M1450.21 965.208H1607.79V1122.79H1450.21V965.208Z" fill="url(#paint9_linear)"/>
<path d="M1417.57 1044L1529 932.571L1640.43 1044L1529 1155.43L1417.57 1044Z" fill="url(#paint10_linear)"/>
<path d="M1529 1104C1562.14 1104 1589 1077.14 1589 1044C1589 1010.86 1562.14 984 1529 984C1495.86 984 1469 1010.86 1469 1044C1469 1077.14 1495.86 1104 1529 1104Z" fill="white"/>
<path d="M1832.26 1096.2H1820.2V1079.46C1811.44 1091.22 1800.22 1097.1 1786.54 1097.1C1778.26 1097.1 1770.64 1095.06 1763.68 1090.98C1756.72 1086.9 1751.2 1081.38 1747.12 1074.42C1743.04 1067.34 1741 1059.72 1741 1051.56C1741 1043.4 1743.04 1035.84 1747.12 1028.88C1751.2 1021.8 1756.72 1016.22 1763.68 1012.14C1770.64 1008.06 1778.26 1006.02 1786.54 1006.02C1800.7 1006.02 1811.92 1011.6 1820.2 1022.76V976.68H1832.26V1096.2ZM1819.84 1051.56C1819.84 1045.56 1818.34 1040.04 1815.34 1035C1812.34 1029.96 1808.26 1025.94 1803.1 1022.94C1798.06 1019.94 1792.54 1018.44 1786.54 1018.44C1780.54 1018.44 1775.02 1019.94 1769.98 1022.94C1764.94 1025.94 1760.92 1029.96 1757.92 1035C1754.92 1040.04 1753.42 1045.56 1753.42 1051.56C1753.42 1057.56 1754.92 1063.14 1757.92 1068.3C1760.92 1073.34 1764.94 1077.36 1769.98 1080.36C1775.02 1083.36 1780.54 1084.86 1786.54 1084.86C1792.54 1084.86 1798.06 1083.36 1803.1 1080.36C1808.26 1077.36 1812.34 1073.34 1815.34 1068.3C1818.34 1063.14 1819.84 1057.56 1819.84 1051.56ZM1943.44 1008.54V1096.2H1931.02V1079.64C1922.74 1091.28 1911.7 1097.1 1897.9 1097.1C1889.62 1097.1 1882 1095.12 1875.04 1091.16C1868.08 1087.08 1862.56 1081.56 1858.48 1074.6C1854.52 1067.64 1852.54 1060.08 1852.54 1051.92C1852.54 1043.64 1854.52 1036.02 1858.48 1029.06C1862.56 1022.1 1868.08 1016.64 1875.04 1012.68C1882 1008.6 1889.62 1006.56 1897.9 1006.56C1906.42 1006.56 1913.38 1008.36 1918.78 1011.96C1924.3 1015.44 1928.38 1019.22 1931.02 1023.3V1008.54H1943.44ZM1897.9 1084.86C1903.9 1084.86 1909.42 1083.42 1914.46 1080.54C1919.5 1077.54 1923.46 1073.52 1926.34 1068.48C1929.34 1063.44 1930.84 1057.92 1930.84 1051.92C1930.84 1045.92 1929.34 1040.4 1926.34 1035.36C1923.46 1030.2 1919.5 1026.18 1914.46 1023.3C1909.42 1020.3 1903.9 1018.8 1897.9 1018.8C1891.9 1018.8 1886.32 1020.3 1881.16 1023.3C1876.12 1026.18 1872.1 1030.2 1869.1 1035.36C1866.22 1040.4 1864.78 1045.92 1864.78 1051.92C1864.78 1057.92 1866.22 1063.44 1869.1 1068.48C1872.1 1073.52 1876.12 1077.54 1881.16 1080.54C1886.32 1083.42 1891.9 1084.86 1897.9 1084.86ZM2001.35 1005.48C2007.83 1005.48 2013.77 1007.1 2019.17 1010.34C2024.69 1013.46 2029.01 1017.78 2032.13 1023.3C2035.37 1028.7 2036.99 1034.64 2036.99 1041.12V1096.2H2024.57V1041.12C2024.57 1036.92 2023.49 1033.02 2021.33 1029.42C2019.29 1025.82 2016.47 1023 2012.87 1020.96C2009.39 1018.8 2005.55 1017.72 2001.35 1017.72C1997.15 1017.72 1993.25 1018.8 1989.65 1020.96C1986.05 1023 1983.17 1025.82 1981.01 1029.42C1978.97 1033.02 1977.95 1036.92 1977.95 1041.12V1096.2H1965.53V976.14H1977.95V1015.56C1980.83 1012.2 1984.25 1009.68 1988.21 1008C1992.29 1006.32 1996.67 1005.48 2001.35 1005.48ZM2071.39 976.5V1096.2H2059.15V976.5H2071.39ZM2101.62 981.18C2103.78 981.18 2105.64 981.96 2107.2 983.52C2108.76 985.08 2109.54 986.94 2109.54 989.1C2109.54 991.38 2108.76 993.3 2107.2 994.86C2105.64 996.42 2103.78 997.2 2101.62 997.2C2099.34 997.2 2097.42 996.42 2095.86 994.86C2094.3 993.3 2093.52 991.38 2093.52 989.1C2093.52 986.94 2094.3 985.08 2095.86 983.52C2097.42 981.96 2099.34 981.18 2101.62 981.18ZM2107.74 1006.2V1096.2H2095.32V1006.2H2107.74ZM2215.41 1008.54V1096.2H2202.99V1079.64C2194.71 1091.28 2183.67 1097.1 2169.87 1097.1C2161.59 1097.1 2153.97 1095.12 2147.01 1091.16C2140.05 1087.08 2134.53 1081.56 2130.45 1074.6C2126.49 1067.64 2124.51 1060.08 2124.51 1051.92C2124.51 1043.64 2126.49 1036.02 2130.45 1029.06C2134.53 1022.1 2140.05 1016.64 2147.01 1012.68C2153.97 1008.6 2161.59 1006.56 2169.87 1006.56C2178.39 1006.56 2185.35 1008.36 2190.75 1011.96C2196.27 1015.44 2200.35 1019.22 2202.99 1023.3V1008.54H2215.41ZM2169.87 1084.86C2175.87 1084.86 2181.39 1083.42 2186.43 1080.54C2191.47 1077.54 2195.43 1073.52 2198.31 1068.48C2201.31 1063.44 2202.81 1057.92 2202.81 1051.92C2202.81 1045.92 2201.31 1040.4 2198.31 1035.36C2195.43 1030.2 2191.47 1026.18 2186.43 1023.3C2181.39 1020.3 2175.87 1018.8 2169.87 1018.8C2163.87 1018.8 2158.29 1020.3 2153.13 1023.3C2148.09 1026.18 2144.07 1030.2 2141.07 1035.36C2138.19 1040.4 2136.75 1045.92 2136.75 1051.92C2136.75 1057.92 2138.19 1063.44 2141.07 1068.48C2144.07 1073.52 2148.09 1077.54 2153.13 1080.54C2158.29 1083.42 2163.87 1084.86 2169.87 1084.86ZM2295.64 1097.1C2284.72 1097.1 2274.7 1094.4 2265.58 1089C2256.46 1083.6 2249.2 1076.34 2243.8 1067.22C2238.4 1058.1 2235.7 1048.08 2235.7 1037.16C2235.7 1026.24 2238.4 1016.22 2243.8 1007.1C2249.2 997.86 2256.46 990.54 2265.58 985.14C2274.82 979.74 2284.84 977.04 2295.64 977.04C2306.44 977.04 2316.46 979.74 2325.7 985.14C2334.94 990.54 2342.26 997.86 2347.66 1007.1C2353.06 1016.34 2355.76 1026.36 2355.76 1037.16C2355.76 1047.96 2353.06 1057.98 2347.66 1067.22C2342.26 1076.34 2334.94 1083.6 2325.7 1089C2316.58 1094.4 2306.56 1097.1 2295.64 1097.1ZM2295.64 1084.86C2304.28 1084.86 2312.26 1082.76 2319.58 1078.56C2326.9 1074.24 2332.66 1068.42 2336.86 1061.1C2341.18 1053.78 2343.34 1045.8 2343.34 1037.16C2343.34 1028.52 2341.18 1020.54 2336.86 1013.22C2332.66 1005.9 2326.9 1000.14 2319.58 995.94C2312.26 991.62 2304.28 989.46 2295.64 989.46C2287 989.46 2279.02 991.62 2271.7 995.94C2264.38 1000.14 2258.56 1005.9 2254.24 1013.22C2250.04 1020.54 2247.94 1028.52 2247.94 1037.16C2247.94 1045.8 2250.04 1053.78 2254.24 1061.1C2258.56 1068.42 2264.38 1074.24 2271.7 1078.56C2279.02 1082.76 2287 1084.86 2295.64 1084.86ZM2439.92 1011.24C2439.32 1006.68 2437.88 1002.72 2435.6 999.36C2430.92 992.16 2423.18 988.56 2412.38 988.56C2403.38 988.56 2396.84 990.6 2392.76 994.68C2389.04 998.52 2387.18 1003.74 2387.18 1010.34C2387.18 1017.66 2389.22 1022.7 2393.3 1025.46C2397.38 1028.22 2403.08 1029.9 2410.4 1030.5C2417.36 1031.1 2423.24 1032.06 2428.04 1033.38C2432.84 1034.58 2436.86 1036.26 2440.1 1038.42C2448.62 1043.7 2452.88 1051.98 2452.88 1063.26C2452.88 1067.7 2451.98 1071.9 2450.18 1075.86C2448.5 1079.82 2446.04 1083.36 2442.8 1086.48C2435.48 1093.68 2425.46 1097.28 2412.74 1097.28C2399.9 1097.28 2389.76 1093.74 2382.32 1086.66C2375.96 1080.78 2372.12 1072.86 2370.8 1062.9H2383.22C2384.3 1068.9 2386.82 1073.82 2390.78 1077.66C2395.94 1082.46 2403.32 1084.86 2412.92 1084.86C2421.08 1084.86 2427.68 1082.88 2432.72 1078.92C2437.88 1074.84 2440.46 1069.62 2440.46 1063.26C2440.46 1059.18 2439.62 1055.82 2437.94 1053.18C2436.38 1050.42 2433.32 1048.2 2428.76 1046.52C2424.2 1044.84 2417.72 1043.64 2409.32 1042.92C2386.28 1040.88 2374.76 1030.02 2374.76 1010.34C2374.76 1005.42 2375.54 1000.92 2377.1 996.84C2378.78 992.64 2381.12 989.04 2384.12 986.04C2390.72 979.44 2400.08 976.14 2412.2 976.14H2412.38C2424.74 976.26 2434.16 979.68 2440.64 986.4C2447.24 993 2451.14 1001.34 2452.34 1011.42H2439.92V1011.24Z" fill="white"/>
<path d="M1832.26 1096.2V1098H1834.06V1096.2H1832.26ZM1820.2 1096.2H1818.4V1098H1820.2V1096.2ZM1820.2 1079.46H1822V1074.03L1818.76 1078.38L1820.2 1079.46ZM1763.68 1090.98L1764.59 1089.43L1763.68 1090.98ZM1747.12 1074.42L1745.56 1075.32L1745.56 1075.32L1745.57 1075.33L1747.12 1074.42ZM1747.12 1028.88L1748.67 1029.79L1748.68 1029.78L1748.68 1029.78L1747.12 1028.88ZM1763.68 1012.14L1764.59 1013.69L1763.68 1012.14ZM1820.2 1022.76L1818.75 1023.83L1822 1028.21V1022.76H1820.2ZM1820.2 976.68V974.88H1818.4V976.68H1820.2ZM1832.26 976.68H1834.06V974.88H1832.26V976.68ZM1815.34 1035L1813.79 1035.92L1815.34 1035ZM1803.1 1022.94L1802.18 1024.49L1802.19 1024.49L1802.2 1024.5L1803.1 1022.94ZM1769.98 1022.94L1770.9 1024.49L1769.98 1022.94ZM1757.92 1035L1759.47 1035.92L1757.92 1035ZM1757.92 1068.3L1756.36 1069.2L1756.37 1069.21L1756.37 1069.22L1757.92 1068.3ZM1769.98 1080.36L1769.06 1081.91L1769.98 1080.36ZM1803.1 1080.36L1802.2 1078.8L1802.19 1078.81L1802.18 1078.81L1803.1 1080.36ZM1815.34 1068.3L1816.89 1069.22L1816.89 1069.21L1816.9 1069.2L1815.34 1068.3ZM1832.26 1094.4H1820.2V1098H1832.26V1094.4ZM1822 1096.2V1079.46H1818.4V1096.2H1822ZM1818.76 1078.38C1810.31 1089.73 1799.61 1095.3 1786.54 1095.3V1098.9C1800.83 1098.9 1812.57 1092.71 1821.64 1080.54L1818.76 1078.38ZM1786.54 1095.3C1778.57 1095.3 1771.27 1093.34 1764.59 1089.43L1762.77 1092.53C1770.01 1096.78 1777.95 1098.9 1786.54 1098.9V1095.3ZM1764.59 1089.43C1757.9 1085.5 1752.6 1080.2 1748.67 1073.51L1745.57 1075.33C1749.8 1082.56 1755.54 1088.3 1762.77 1092.53L1764.59 1089.43ZM1748.68 1073.52C1744.76 1066.71 1742.8 1059.4 1742.8 1051.56H1739.2C1739.2 1060.04 1741.32 1067.97 1745.56 1075.32L1748.68 1073.52ZM1742.8 1051.56C1742.8 1043.72 1744.76 1036.47 1748.67 1029.79L1745.57 1027.97C1741.32 1035.21 1739.2 1043.08 1739.2 1051.56H1742.8ZM1748.68 1029.78C1752.61 1022.97 1757.9 1017.61 1764.59 1013.69L1762.77 1010.59C1755.54 1014.83 1749.79 1020.63 1745.56 1027.98L1748.68 1029.78ZM1764.59 1013.69C1771.27 1009.78 1778.57 1007.82 1786.54 1007.82V1004.22C1777.95 1004.22 1770.01 1006.34 1762.77 1010.59L1764.59 1013.69ZM1786.54 1007.82C1800.14 1007.82 1810.82 1013.14 1818.75 1023.83L1821.65 1021.69C1813.02 1010.06 1801.26 1004.22 1786.54 1004.22V1007.82ZM1822 1022.76V976.68H1818.4V1022.76H1822ZM1820.2 978.48H1832.26V974.88H1820.2V978.48ZM1830.46 976.68V1096.2H1834.06V976.68H1830.46ZM1821.64 1051.56C1821.64 1045.24 1820.06 1039.4 1816.89 1034.08L1813.79 1035.92C1816.62 1040.68 1818.04 1045.88 1818.04 1051.56H1821.64ZM1816.89 1034.08C1813.73 1028.77 1809.42 1024.53 1804 1021.38L1802.2 1024.5C1807.1 1027.35 1810.95 1031.15 1813.79 1035.92L1816.89 1034.08ZM1804.02 1021.39C1798.7 1018.22 1792.86 1016.64 1786.54 1016.64V1020.24C1792.22 1020.24 1797.42 1021.66 1802.18 1024.49L1804.02 1021.39ZM1786.54 1016.64C1780.22 1016.64 1774.38 1018.22 1769.06 1021.39L1770.9 1024.49C1775.66 1021.66 1780.86 1020.24 1786.54 1020.24V1016.64ZM1769.06 1021.39C1763.76 1024.55 1759.53 1028.78 1756.37 1034.08L1759.47 1035.92C1762.31 1031.14 1766.12 1027.33 1770.9 1024.49L1769.06 1021.39ZM1756.37 1034.08C1753.2 1039.4 1751.62 1045.24 1751.62 1051.56H1755.22C1755.22 1045.88 1756.64 1040.68 1759.47 1035.92L1756.37 1034.08ZM1751.62 1051.56C1751.62 1057.88 1753.2 1063.77 1756.36 1069.2L1759.48 1067.4C1756.64 1062.51 1755.22 1057.24 1755.22 1051.56H1751.62ZM1756.37 1069.22C1759.53 1074.52 1763.76 1078.75 1769.06 1081.91L1770.9 1078.81C1766.12 1075.97 1762.31 1072.16 1759.47 1067.38L1756.37 1069.22ZM1769.06 1081.91C1774.38 1085.08 1780.22 1086.66 1786.54 1086.66V1083.06C1780.86 1083.06 1775.66 1081.64 1770.9 1078.81L1769.06 1081.91ZM1786.54 1086.66C1792.86 1086.66 1798.7 1085.08 1804.02 1081.91L1802.18 1078.81C1797.42 1081.64 1792.22 1083.06 1786.54 1083.06V1086.66ZM1804 1081.92C1809.42 1078.77 1813.73 1074.53 1816.89 1069.22L1813.79 1067.38C1810.95 1072.15 1807.1 1075.95 1802.2 1078.8L1804 1081.92ZM1816.9 1069.2C1820.06 1063.77 1821.64 1057.88 1821.64 1051.56H1818.04C1818.04 1057.24 1816.62 1062.51 1813.78 1067.4L1816.9 1069.2ZM1943.44 1008.54H1945.24V1006.74H1943.44V1008.54ZM1943.44 1096.2V1098H1945.24V1096.2H1943.44ZM1931.02 1096.2H1929.22V1098H1931.02V1096.2ZM1931.02 1079.64H1932.82V1074L1929.56 1078.6L1931.02 1079.64ZM1875.04 1091.16L1874.13 1092.71L1874.14 1092.72L1874.15 1092.72L1875.04 1091.16ZM1858.48 1074.6L1856.92 1075.49L1856.92 1075.5L1856.93 1075.51L1858.48 1074.6ZM1858.48 1029.06L1856.93 1028.15L1856.92 1028.16L1856.92 1028.17L1858.48 1029.06ZM1875.04 1012.68L1875.93 1014.24L1875.94 1014.24L1875.95 1014.23L1875.04 1012.68ZM1918.78 1011.96L1917.78 1013.46L1917.8 1013.47L1917.82 1013.48L1918.78 1011.96ZM1931.02 1023.3L1929.51 1024.28L1932.82 1029.4V1023.3H1931.02ZM1931.02 1008.54V1006.74H1929.22V1008.54H1931.02ZM1914.46 1080.54L1915.36 1082.1L1915.37 1082.09L1915.38 1082.09L1914.46 1080.54ZM1926.34 1068.48L1924.8 1067.56L1924.79 1067.57L1924.78 1067.59L1926.34 1068.48ZM1926.34 1035.36L1924.77 1036.24L1924.78 1036.26L1924.8 1036.28L1926.34 1035.36ZM1914.46 1023.3L1913.54 1024.85L1913.56 1024.85L1913.57 1024.86L1914.46 1023.3ZM1881.16 1023.3L1882.06 1024.86L1882.06 1024.86L1882.07 1024.86L1881.16 1023.3ZM1869.1 1035.36L1867.55 1034.46L1867.54 1034.46L1867.54 1034.47L1869.1 1035.36ZM1869.1 1068.48L1867.54 1069.37L1867.55 1069.39L1867.56 1069.4L1869.1 1068.48ZM1881.16 1080.54L1880.24 1082.09L1880.26 1082.1L1880.29 1082.11L1881.16 1080.54ZM1941.64 1008.54V1096.2H1945.24V1008.54H1941.64ZM1943.44 1094.4H1931.02V1098H1943.44V1094.4ZM1932.82 1096.2V1079.64H1929.22V1096.2H1932.82ZM1929.56 1078.6C1921.6 1089.78 1911.1 1095.3 1897.9 1095.3V1098.9C1912.31 1098.9 1923.89 1092.78 1932.49 1080.68L1929.56 1078.6ZM1897.9 1095.3C1889.92 1095.3 1882.61 1093.4 1875.93 1089.6L1874.15 1092.72C1881.39 1096.84 1889.32 1098.9 1897.9 1098.9V1095.3ZM1875.95 1089.61C1869.26 1085.68 1863.96 1080.38 1860.04 1073.69L1856.93 1075.51C1861.17 1082.74 1866.91 1088.48 1874.13 1092.71L1875.95 1089.61ZM1860.05 1073.71C1856.24 1067.03 1854.34 1059.77 1854.34 1051.92H1850.74C1850.74 1060.39 1852.8 1068.25 1856.92 1075.49L1860.05 1073.71ZM1854.34 1051.92C1854.34 1043.94 1856.25 1036.63 1860.05 1029.95L1856.92 1028.17C1852.8 1035.41 1850.74 1043.34 1850.74 1051.92H1854.34ZM1860.04 1029.97C1863.96 1023.28 1869.25 1018.05 1875.93 1014.24L1874.15 1011.12C1866.92 1015.23 1861.17 1020.92 1856.93 1028.15L1860.04 1029.97ZM1875.95 1014.23C1882.63 1010.32 1889.93 1008.36 1897.9 1008.36V1004.76C1889.31 1004.76 1881.38 1006.88 1874.13 1011.13L1875.95 1014.23ZM1897.9 1008.36C1906.18 1008.36 1912.76 1010.11 1917.78 1013.46L1919.78 1010.46C1914.01 1006.61 1906.67 1004.76 1897.9 1004.76V1008.36ZM1917.82 1013.48C1923.19 1016.87 1927.05 1020.48 1929.51 1024.28L1932.53 1022.32C1929.71 1017.96 1925.41 1014.01 1919.74 1010.44L1917.82 1013.48ZM1932.82 1023.3V1008.54H1929.22V1023.3H1932.82ZM1931.02 1010.34H1943.44V1006.74H1931.02V1010.34ZM1897.9 1086.66C1904.2 1086.66 1910.03 1085.14 1915.36 1082.1L1913.57 1078.98C1908.81 1081.7 1903.6 1083.06 1897.9 1083.06V1086.66ZM1915.38 1082.09C1920.69 1078.93 1924.87 1074.69 1927.91 1069.37L1924.78 1067.59C1922.06 1072.35 1918.32 1076.15 1913.54 1078.99L1915.38 1082.09ZM1927.89 1069.4C1931.06 1064.08 1932.64 1058.24 1932.64 1051.92H1929.04C1929.04 1057.6 1927.63 1062.8 1924.8 1067.56L1927.89 1069.4ZM1932.64 1051.92C1932.64 1045.6 1931.06 1039.76 1927.89 1034.44L1924.8 1036.28C1927.63 1041.04 1929.04 1046.24 1929.04 1051.92H1932.64ZM1927.91 1034.48C1924.88 1029.04 1920.69 1024.78 1915.36 1021.74L1913.57 1024.86C1918.32 1027.58 1922.05 1031.36 1924.77 1036.24L1927.91 1034.48ZM1915.38 1021.75C1910.06 1018.58 1904.22 1017 1897.9 1017V1020.6C1903.59 1020.6 1908.79 1022.02 1913.54 1024.85L1915.38 1021.75ZM1897.9 1017C1891.59 1017 1885.69 1018.58 1880.26 1021.74L1882.07 1024.86C1886.95 1022.02 1892.22 1020.6 1897.9 1020.6V1017ZM1880.27 1021.74C1874.95 1024.78 1870.7 1029.03 1867.55 1034.46L1870.66 1036.26C1873.5 1031.37 1877.3 1027.58 1882.06 1024.86L1880.27 1021.74ZM1867.54 1034.47C1864.5 1039.79 1862.98 1045.62 1862.98 1051.92H1866.58C1866.58 1046.22 1867.95 1041.01 1870.67 1036.25L1867.54 1034.47ZM1862.98 1051.92C1862.98 1058.22 1864.5 1064.05 1867.54 1069.37L1870.67 1067.59C1867.95 1062.83 1866.58 1057.62 1866.58 1051.92H1862.98ZM1867.56 1069.4C1870.71 1074.7 1874.94 1078.93 1880.24 1082.09L1882.08 1078.99C1877.3 1076.15 1873.5 1072.34 1870.65 1067.56L1867.56 1069.4ZM1880.29 1082.11C1885.72 1085.14 1891.6 1086.66 1897.9 1086.66V1083.06C1892.2 1083.06 1886.93 1081.7 1882.04 1078.97L1880.29 1082.11ZM2019.17 1010.34L2018.25 1011.88L2018.27 1011.9L2018.29 1011.91L2019.17 1010.34ZM2032.13 1023.3L2030.57 1024.19L2030.58 1024.21L2030.59 1024.23L2032.13 1023.3ZM2036.99 1096.2V1098H2038.79V1096.2H2036.99ZM2024.57 1096.2H2022.77V1098H2024.57V1096.2ZM2021.33 1029.42L2019.77 1030.31L2019.78 1030.33L2019.79 1030.35L2021.33 1029.42ZM2012.87 1020.96L2011.92 1022.49L2011.95 1022.51L2011.99 1022.53L2012.87 1020.96ZM1989.65 1020.96L1990.54 1022.53L1990.56 1022.52L1990.58 1022.5L1989.65 1020.96ZM1981.01 1029.42L1979.47 1028.49L1979.46 1028.51L1979.45 1028.53L1981.01 1029.42ZM1977.95 1096.2V1098H1979.75V1096.2H1977.95ZM1965.53 1096.2H1963.73V1098H1965.53V1096.2ZM1965.53 976.14V974.34H1963.73V976.14H1965.53ZM1977.95 976.14H1979.75V974.34H1977.95V976.14ZM1977.95 1015.56H1976.15V1020.43L1979.32 1016.73L1977.95 1015.56ZM1988.21 1008L1987.53 1006.34L1987.52 1006.34L1987.51 1006.34L1988.21 1008ZM2001.35 1007.28C2007.52 1007.28 2013.14 1008.82 2018.25 1011.88L2020.1 1008.8C2014.41 1005.38 2008.15 1003.68 2001.35 1003.68V1007.28ZM2018.29 1011.91C2023.52 1014.87 2027.61 1018.95 2030.57 1024.19L2033.7 1022.41C2030.42 1016.61 2025.86 1012.05 2020.06 1008.77L2018.29 1011.91ZM2030.59 1024.23C2033.66 1029.34 2035.19 1034.96 2035.19 1041.12H2038.79C2038.79 1034.32 2037.09 1028.06 2033.68 1022.37L2030.59 1024.23ZM2035.19 1041.12V1096.2H2038.79V1041.12H2035.19ZM2036.99 1094.4H2024.57V1098H2036.99V1094.4ZM2026.37 1096.2V1041.12H2022.77V1096.2H2026.37ZM2026.37 1041.12C2026.37 1036.59 2025.2 1032.37 2022.88 1028.49L2019.79 1030.35C2021.78 1033.67 2022.77 1037.25 2022.77 1041.12H2026.37ZM2022.9 1028.53C2020.7 1024.65 2017.64 1021.59 2013.76 1019.39L2011.99 1022.53C2015.3 1024.41 2017.89 1026.99 2019.77 1030.31L2022.9 1028.53ZM2013.82 1019.43C2010.05 1017.09 2005.88 1015.92 2001.35 1015.92V1019.52C2005.23 1019.52 2008.74 1020.51 2011.92 1022.49L2013.82 1019.43ZM2001.35 1015.92C1996.83 1015.92 1992.61 1017.09 1988.73 1019.42L1990.58 1022.5C1993.9 1020.51 1997.48 1019.52 2001.35 1019.52V1015.92ZM1988.77 1019.39C1984.89 1021.59 1981.79 1024.63 1979.47 1028.49L1982.56 1030.35C1984.56 1027.01 1987.21 1024.41 1990.54 1022.53L1988.77 1019.39ZM1979.45 1028.53C1977.25 1032.41 1976.15 1036.61 1976.15 1041.12H1979.75C1979.75 1037.23 1980.69 1033.63 1982.58 1030.31L1979.45 1028.53ZM1976.15 1041.12V1096.2H1979.75V1041.12H1976.15ZM1977.95 1094.4H1965.53V1098H1977.95V1094.4ZM1967.33 1096.2V976.14H1963.73V1096.2H1967.33ZM1965.53 977.94H1977.95V974.34H1965.53V977.94ZM1976.15 976.14V1015.56H1979.75V976.14H1976.15ZM1979.32 1016.73C1982.02 1013.58 1985.22 1011.23 1988.92 1009.66L1987.51 1006.34C1983.29 1008.13 1979.64 1010.82 1976.59 1014.39L1979.32 1016.73ZM1988.9 1009.66C1992.75 1008.08 1996.89 1007.28 2001.35 1007.28V1003.68C1996.45 1003.68 1991.84 1004.56 1987.53 1006.34L1988.9 1009.66ZM2071.39 976.5H2073.19V974.7H2071.39V976.5ZM2071.39 1096.2V1098H2073.19V1096.2H2071.39ZM2059.15 1096.2H2057.35V1098H2059.15V1096.2ZM2059.15 976.5V974.7H2057.35V976.5H2059.15ZM2069.59 976.5V1096.2H2073.19V976.5H2069.59ZM2071.39 1094.4H2059.15V1098H2071.39V1094.4ZM2060.95 1096.2V976.5H2057.35V1096.2H2060.95ZM2059.15 978.3H2071.39V974.7H2059.15V978.3ZM2107.2 983.52L2105.93 984.793L2107.2 983.52ZM2107.2 994.86L2105.93 993.587L2107.2 994.86ZM2095.86 994.86L2094.59 996.133L2095.86 994.86ZM2095.86 983.52L2094.59 982.247L2095.86 983.52ZM2107.74 1006.2H2109.54V1004.4H2107.74V1006.2ZM2107.74 1096.2V1098H2109.54V1096.2H2107.74ZM2095.32 1096.2H2093.52V1098H2095.32V1096.2ZM2095.32 1006.2V1004.4H2093.52V1006.2H2095.32ZM2101.62 982.98C2103.29 982.98 2104.7 983.562 2105.93 984.793L2108.47 982.247C2106.58 980.358 2104.27 979.38 2101.62 979.38V982.98ZM2105.93 984.793C2107.16 986.023 2107.74 987.429 2107.74 989.1H2111.34C2111.34 986.451 2110.36 984.137 2108.47 982.247L2105.93 984.793ZM2107.74 989.1C2107.74 990.92 2107.14 992.377 2105.93 993.587L2108.47 996.133C2110.38 994.223 2111.34 991.84 2111.34 989.1H2107.74ZM2105.93 993.587C2104.7 994.818 2103.29 995.4 2101.62 995.4V999C2104.27 999 2106.58 998.022 2108.47 996.133L2105.93 993.587ZM2101.62 995.4C2099.8 995.4 2098.34 994.797 2097.13 993.587L2094.59 996.133C2096.5 998.043 2098.88 999 2101.62 999V995.4ZM2097.13 993.587C2095.92 992.377 2095.32 990.92 2095.32 989.1H2091.72C2091.72 991.84 2092.68 994.223 2094.59 996.133L2097.13 993.587ZM2095.32 989.1C2095.32 987.429 2095.9 986.023 2097.13 984.793L2094.59 982.247C2092.7 984.137 2091.72 986.451 2091.72 989.1H2095.32ZM2097.13 984.793C2098.34 983.583 2099.8 982.98 2101.62 982.98V979.38C2098.88 979.38 2096.5 980.337 2094.59 982.247L2097.13 984.793ZM2105.94 1006.2V1096.2H2109.54V1006.2H2105.94ZM2107.74 1094.4H2095.32V1098H2107.74V1094.4ZM2097.12 1096.2V1006.2H2093.52V1096.2H2097.12ZM2095.32 1008H2107.74V1004.4H2095.32V1008ZM2215.41 1008.54H2217.21V1006.74H2215.41V1008.54ZM2215.41 1096.2V1098H2217.21V1096.2H2215.41ZM2202.99 1096.2H2201.19V1098H2202.99V1096.2ZM2202.99 1079.64H2204.79V1074L2201.53 1078.6L2202.99 1079.64ZM2147.01 1091.16L2146.1 1092.71L2146.11 1092.72L2146.12 1092.72L2147.01 1091.16ZM2130.45 1074.6L2128.89 1075.49L2128.89 1075.5L2128.9 1075.51L2130.45 1074.6ZM2130.45 1029.06L2128.9 1028.15L2128.89 1028.16L2128.89 1028.17L2130.45 1029.06ZM2147.01 1012.68L2147.9 1014.24L2147.91 1014.24L2147.92 1014.23L2147.01 1012.68ZM2190.75 1011.96L2189.75 1013.46L2189.77 1013.47L2189.79 1013.48L2190.75 1011.96ZM2202.99 1023.3L2201.48 1024.28L2204.79 1029.4V1023.3H2202.99ZM2202.99 1008.54V1006.74H2201.19V1008.54H2202.99ZM2186.43 1080.54L2187.33 1082.1L2187.34 1082.09L2187.35 1082.09L2186.43 1080.54ZM2198.31 1068.48L2196.77 1067.56L2196.76 1067.57L2196.75 1067.59L2198.31 1068.48ZM2198.31 1035.36L2196.74 1036.24L2196.75 1036.26L2196.77 1036.28L2198.31 1035.36ZM2186.43 1023.3L2185.51 1024.85L2185.53 1024.85L2185.54 1024.86L2186.43 1023.3ZM2153.13 1023.3L2154.03 1024.86L2154.03 1024.86L2154.04 1024.86L2153.13 1023.3ZM2141.07 1035.36L2139.52 1034.46L2139.51 1034.46L2139.51 1034.47L2141.07 1035.36ZM2141.07 1068.48L2139.51 1069.37L2139.52 1069.39L2139.53 1069.4L2141.07 1068.48ZM2153.13 1080.54L2152.21 1082.09L2152.23 1082.1L2152.26 1082.11L2153.13 1080.54ZM2213.61 1008.54V1096.2H2217.21V1008.54H2213.61ZM2215.41 1094.4H2202.99V1098H2215.41V1094.4ZM2204.79 1096.2V1079.64H2201.19V1096.2H2204.79ZM2201.53 1078.6C2193.57 1089.78 2183.07 1095.3 2169.87 1095.3V1098.9C2184.28 1098.9 2195.86 1092.78 2204.46 1080.68L2201.53 1078.6ZM2169.87 1095.3C2161.89 1095.3 2154.58 1093.4 2147.9 1089.6L2146.12 1092.72C2153.36 1096.84 2161.29 1098.9 2169.87 1098.9V1095.3ZM2147.92 1089.61C2141.23 1085.68 2135.93 1080.38 2132.01 1073.69L2128.9 1075.51C2133.14 1082.74 2138.88 1088.48 2146.1 1092.71L2147.92 1089.61ZM2132.02 1073.71C2128.21 1067.03 2126.31 1059.77 2126.31 1051.92H2122.71C2122.71 1060.39 2124.77 1068.25 2128.89 1075.49L2132.02 1073.71ZM2126.31 1051.92C2126.31 1043.94 2128.22 1036.63 2132.02 1029.95L2128.89 1028.17C2124.77 1035.41 2122.71 1043.34 2122.71 1051.92H2126.31ZM2132.01 1029.97C2135.93 1023.28 2141.22 1018.05 2147.9 1014.24L2146.12 1011.12C2138.89 1015.23 2133.14 1020.92 2128.9 1028.15L2132.01 1029.97ZM2147.92 1014.23C2154.6 1010.32 2161.9 1008.36 2169.87 1008.36V1004.76C2161.28 1004.76 2153.35 1006.88 2146.1 1011.13L2147.92 1014.23ZM2169.87 1008.36C2178.15 1008.36 2184.73 1010.11 2189.75 1013.46L2191.75 1010.46C2185.98 1006.61 2178.64 1004.76 2169.87 1004.76V1008.36ZM2189.79 1013.48C2195.16 1016.87 2199.02 1020.48 2201.48 1024.28L2204.5 1022.32C2201.68 1017.96 2197.38 1014.01 2191.71 1010.44L2189.79 1013.48ZM2204.79 1023.3V1008.54H2201.19V1023.3H2204.79ZM2202.99 1010.34H2215.41V1006.74H2202.99V1010.34ZM2169.87 1086.66C2176.17 1086.66 2182 1085.14 2187.33 1082.1L2185.54 1078.98C2180.78 1081.7 2175.57 1083.06 2169.87 1083.06V1086.66ZM2187.35 1082.09C2192.66 1078.93 2196.84 1074.69 2199.88 1069.37L2196.75 1067.59C2194.03 1072.35 2190.29 1076.15 2185.51 1078.99L2187.35 1082.09ZM2199.86 1069.4C2203.03 1064.08 2204.61 1058.24 2204.61 1051.92H2201.01C2201.01 1057.6 2199.6 1062.8 2196.77 1067.56L2199.86 1069.4ZM2204.61 1051.92C2204.61 1045.6 2203.03 1039.76 2199.86 1034.44L2196.77 1036.28C2199.6 1041.04 2201.01 1046.24 2201.01 1051.92H2204.61ZM2199.88 1034.48C2196.85 1029.04 2192.66 1024.78 2187.33 1021.74L2185.54 1024.86C2190.29 1027.58 2194.02 1031.36 2196.74 1036.24L2199.88 1034.48ZM2187.35 1021.75C2182.03 1018.58 2176.19 1017 2169.87 1017V1020.6C2175.56 1020.6 2180.76 1022.02 2185.51 1024.85L2187.35 1021.75ZM2169.87 1017C2163.56 1017 2157.66 1018.58 2152.23 1021.74L2154.04 1024.86C2158.92 1022.02 2164.19 1020.6 2169.87 1020.6V1017ZM2152.24 1021.74C2146.92 1024.78 2142.67 1029.03 2139.52 1034.46L2142.63 1036.26C2145.47 1031.37 2149.27 1027.58 2154.03 1024.86L2152.24 1021.74ZM2139.51 1034.47C2136.47 1039.79 2134.95 1045.62 2134.95 1051.92H2138.55C2138.55 1046.22 2139.92 1041.01 2142.64 1036.25L2139.51 1034.47ZM2134.95 1051.92C2134.95 1058.22 2136.47 1064.05 2139.51 1069.37L2142.64 1067.59C2139.92 1062.83 2138.55 1057.62 2138.55 1051.92H2134.95ZM2139.53 1069.4C2142.68 1074.7 2146.91 1078.93 2152.21 1082.09L2154.05 1078.99C2149.27 1076.15 2145.47 1072.34 2142.62 1067.56L2139.53 1069.4ZM2152.26 1082.11C2157.69 1085.14 2163.57 1086.66 2169.87 1086.66V1083.06C2164.17 1083.06 2158.9 1081.7 2154.01 1078.97L2152.26 1082.11ZM2265.58 1089L2266.5 1087.45L2265.58 1089ZM2243.8 1067.22L2242.25 1068.14L2243.8 1067.22ZM2243.8 1007.1L2245.35 1008.02L2245.35 1008.01L2245.36 1008.01L2243.8 1007.1ZM2265.58 985.14L2264.68 983.586L2264.67 983.589L2264.67 983.591L2265.58 985.14ZM2325.7 985.14L2324.8 986.694L2325.7 985.14ZM2347.66 1007.1L2349.22 1006.19L2347.66 1007.1ZM2347.66 1067.22L2349.21 1068.14L2349.21 1068.13L2349.22 1068.13L2347.66 1067.22ZM2325.7 1089L2324.8 1087.45L2324.79 1087.45L2324.79 1087.45L2325.7 1089ZM2319.58 1078.56L2320.48 1080.12L2320.49 1080.12L2320.5 1080.11L2319.58 1078.56ZM2336.86 1061.1L2335.31 1060.19L2335.31 1060.19L2335.3 1060.2L2336.86 1061.1ZM2336.86 1013.22L2335.3 1014.12L2335.31 1014.13L2335.31 1014.13L2336.86 1013.22ZM2319.58 995.94L2318.67 997.49L2318.68 997.496L2318.69 997.501L2319.58 995.94ZM2271.7 995.94L2272.6 997.501L2272.61 997.496L2272.62 997.49L2271.7 995.94ZM2254.24 1013.22L2252.69 1012.31L2252.69 1012.31L2252.68 1012.32L2254.24 1013.22ZM2254.24 1061.1L2252.68 1062L2252.69 1062.01L2252.69 1062.01L2254.24 1061.1ZM2271.7 1078.56L2270.79 1080.11L2270.8 1080.12L2270.81 1080.12L2271.7 1078.56ZM2295.64 1095.3C2285.04 1095.3 2275.33 1092.68 2266.5 1087.45L2264.67 1090.55C2274.07 1096.12 2284.41 1098.9 2295.64 1098.9V1095.3ZM2266.5 1087.45C2257.64 1082.21 2250.6 1075.16 2245.35 1066.3L2242.25 1068.14C2247.81 1077.52 2255.29 1084.99 2264.67 1090.55L2266.5 1087.45ZM2245.35 1066.3C2240.12 1057.47 2237.5 1047.77 2237.5 1037.16H2233.9C2233.9 1048.39 2236.68 1058.73 2242.25 1068.14L2245.35 1066.3ZM2237.5 1037.16C2237.5 1026.55 2240.12 1016.85 2245.35 1008.02L2242.25 1006.18C2236.68 1015.59 2233.9 1025.93 2233.9 1037.16H2237.5ZM2245.36 1008.01C2250.6 999.03 2257.65 991.931 2266.5 986.689L2264.67 983.591C2255.28 989.149 2247.8 996.69 2242.25 1006.19L2245.36 1008.01ZM2266.49 986.694C2275.45 981.457 2285.16 978.84 2295.64 978.84V975.24C2284.53 975.24 2274.19 978.023 2264.68 983.586L2266.49 986.694ZM2295.64 978.84C2306.13 978.84 2315.83 981.457 2324.8 986.694L2326.61 983.586C2317.09 978.023 2306.76 975.24 2295.64 975.24V978.84ZM2324.8 986.694C2333.77 991.938 2340.87 999.035 2346.11 1008.01L2349.22 1006.19C2343.66 996.685 2336.12 989.142 2326.61 983.586L2324.8 986.694ZM2346.11 1008.01C2351.35 1016.97 2353.96 1026.68 2353.96 1037.16H2357.56C2357.56 1026.04 2354.78 1015.71 2349.22 1006.19L2346.11 1008.01ZM2353.96 1037.16C2353.96 1047.64 2351.35 1057.35 2346.11 1066.31L2349.22 1068.13C2354.78 1058.61 2357.56 1048.28 2357.56 1037.16H2353.96ZM2346.11 1066.3C2340.87 1075.16 2333.77 1082.2 2324.8 1087.45L2326.61 1090.55C2336.11 1085 2343.65 1077.52 2349.21 1068.14L2346.11 1066.3ZM2324.79 1087.45C2315.95 1092.68 2306.25 1095.3 2295.64 1095.3V1098.9C2306.88 1098.9 2317.21 1096.12 2326.62 1090.55L2324.79 1087.45ZM2295.64 1086.66C2304.59 1086.66 2312.88 1084.48 2320.48 1080.12L2318.69 1077C2311.65 1081.04 2303.98 1083.06 2295.64 1083.06V1086.66ZM2320.5 1080.11C2328.08 1075.63 2334.07 1069.59 2338.42 1062L2335.3 1060.2C2331.26 1067.25 2325.72 1072.85 2318.67 1077.01L2320.5 1080.11ZM2338.41 1062.01C2342.9 1054.41 2345.14 1046.12 2345.14 1037.16H2341.54C2341.54 1045.48 2339.47 1053.15 2335.31 1060.19L2338.41 1062.01ZM2345.14 1037.16C2345.14 1028.2 2342.9 1019.91 2338.41 1012.31L2335.31 1014.13C2339.47 1021.17 2341.54 1028.84 2341.54 1037.16H2345.14ZM2338.42 1012.32C2334.07 1004.73 2328.08 998.738 2320.48 994.379L2318.69 997.501C2325.73 1001.54 2331.26 1007.07 2335.3 1014.12L2338.42 1012.32ZM2320.5 994.39C2312.9 989.903 2304.6 987.66 2295.64 987.66V991.26C2303.97 991.26 2311.63 993.337 2318.67 997.49L2320.5 994.39ZM2295.64 987.66C2286.69 987.66 2278.39 989.903 2270.79 994.39L2272.62 997.49C2279.66 993.337 2287.32 991.26 2295.64 991.26V987.66ZM2270.81 994.379C2263.22 998.735 2257.17 1004.72 2252.69 1012.31L2255.79 1014.13C2259.96 1007.08 2265.55 1001.54 2272.6 997.501L2270.81 994.379ZM2252.68 1012.32C2248.32 1019.92 2246.14 1028.21 2246.14 1037.16H2249.74C2249.74 1028.83 2251.76 1021.16 2255.8 1014.12L2252.68 1012.32ZM2246.14 1037.16C2246.14 1046.11 2248.32 1054.4 2252.68 1062L2255.8 1060.2C2251.76 1053.16 2249.74 1045.49 2249.74 1037.16H2246.14ZM2252.69 1062.01C2257.17 1069.6 2263.21 1075.64 2270.79 1080.11L2272.62 1077.01C2265.56 1072.84 2259.96 1067.24 2255.79 1060.19L2252.69 1062.01ZM2270.81 1080.12C2278.41 1084.48 2286.7 1086.66 2295.64 1086.66V1083.06C2287.31 1083.06 2279.64 1081.04 2272.6 1077L2270.81 1080.12ZM2439.92 1011.24H2441.72V1011.12L2441.7 1011.01L2439.92 1011.24ZM2435.6 999.36L2434.09 1000.34L2434.1 1000.36L2434.11 1000.37L2435.6 999.36ZM2392.76 994.68L2391.49 993.407L2391.48 993.417L2391.47 993.428L2392.76 994.68ZM2393.3 1025.46L2392.29 1026.95L2393.3 1025.46ZM2410.4 1030.5L2410.55 1028.71L2410.55 1028.71L2410.55 1028.71L2410.4 1030.5ZM2428.04 1033.38L2427.56 1035.12L2427.58 1035.12L2427.6 1035.13L2428.04 1033.38ZM2440.1 1038.42L2439.1 1039.92L2439.13 1039.93L2439.15 1039.95L2440.1 1038.42ZM2450.18 1075.86L2448.54 1075.12L2448.53 1075.14L2448.52 1075.16L2450.18 1075.86ZM2442.8 1086.48L2441.55 1085.18L2441.54 1085.19L2441.54 1085.2L2442.8 1086.48ZM2382.32 1086.66L2383.56 1085.36L2383.55 1085.35L2383.54 1085.34L2382.32 1086.66ZM2370.8 1062.9V1061.1H2368.75L2369.02 1063.14L2370.8 1062.9ZM2383.22 1062.9L2384.99 1062.58L2384.73 1061.1H2383.22V1062.9ZM2390.78 1077.66L2389.53 1078.95L2389.54 1078.97L2389.55 1078.98L2390.78 1077.66ZM2432.72 1078.92L2433.83 1080.34L2433.83 1080.33L2433.84 1080.33L2432.72 1078.92ZM2437.94 1053.18L2436.37 1054.07L2436.4 1054.11L2436.42 1054.15L2437.94 1053.18ZM2428.76 1046.52L2429.38 1044.83L2428.76 1046.52ZM2409.32 1042.92L2409.16 1044.71L2409.16 1044.71L2409.17 1044.71L2409.32 1042.92ZM2377.1 996.84L2375.43 996.171L2375.42 996.184L2375.42 996.197L2377.1 996.84ZM2384.12 986.04L2382.85 984.767L2384.12 986.04ZM2412.38 976.14L2412.4 974.34H2412.39H2412.38V976.14ZM2440.64 986.4L2439.34 987.649L2439.36 987.661L2439.37 987.673L2440.64 986.4ZM2452.34 1011.42V1013.22H2454.37L2454.13 1011.21L2452.34 1011.42ZM2439.92 1011.42H2438.12V1013.22H2439.92V1011.42ZM2441.7 1011.01C2441.07 1006.2 2439.55 1001.97 2437.09 998.349L2434.11 1000.37C2436.21 1003.47 2437.57 1007.16 2438.14 1011.47L2441.7 1011.01ZM2437.11 998.379C2432.01 990.535 2423.61 986.76 2412.38 986.76V990.36C2422.75 990.36 2429.83 993.785 2434.09 1000.34L2437.11 998.379ZM2412.38 986.76C2403.16 986.76 2396.05 988.842 2391.49 993.407L2394.03 995.953C2397.63 992.358 2403.6 990.36 2412.38 990.36V986.76ZM2391.47 993.428C2387.35 997.678 2385.38 1003.39 2385.38 1010.34H2388.98C2388.98 1004.09 2390.73 999.362 2394.05 995.932L2391.47 993.428ZM2385.38 1010.34C2385.38 1017.95 2387.51 1023.71 2392.29 1026.95L2394.31 1023.97C2390.93 1021.69 2388.98 1017.37 2388.98 1010.34H2385.38ZM2392.29 1026.95C2396.72 1029.95 2402.77 1031.68 2410.25 1032.29L2410.55 1028.71C2403.4 1028.12 2398.04 1026.49 2394.31 1023.97L2392.29 1026.95ZM2410.25 1032.29C2417.14 1032.89 2422.9 1033.83 2427.56 1035.12L2428.52 1031.64C2423.58 1030.29 2417.58 1029.31 2410.55 1028.71L2410.25 1032.29ZM2427.6 1035.13C2432.26 1036.29 2436.07 1037.9 2439.1 1039.92L2441.1 1036.92C2437.65 1034.62 2433.43 1032.87 2428.48 1031.63L2427.6 1035.13ZM2439.15 1039.95C2447.07 1044.86 2451.08 1052.51 2451.08 1063.26H2454.68C2454.68 1051.45 2450.17 1042.54 2441.05 1036.89L2439.15 1039.95ZM2451.08 1063.26C2451.08 1067.45 2450.23 1071.39 2448.54 1075.12L2451.82 1076.6C2453.73 1072.41 2454.68 1067.95 2454.68 1063.26H2451.08ZM2448.52 1075.16C2446.94 1078.88 2444.63 1082.22 2441.55 1085.18L2444.05 1087.78C2447.46 1084.5 2450.06 1080.76 2451.84 1076.56L2448.52 1075.16ZM2441.54 1085.2C2434.63 1091.99 2425.11 1095.48 2412.74 1095.48V1099.08C2425.81 1099.08 2436.33 1095.37 2444.06 1087.76L2441.54 1085.2ZM2412.74 1095.48C2400.24 1095.48 2390.59 1092.04 2383.56 1085.36L2381.08 1087.96C2388.93 1095.44 2399.56 1099.08 2412.74 1099.08V1095.48ZM2383.54 1085.34C2377.54 1079.79 2373.86 1072.28 2372.58 1062.66L2369.02 1063.14C2370.38 1073.44 2374.38 1081.77 2381.1 1087.98L2383.54 1085.34ZM2370.8 1064.7H2383.22V1061.1H2370.8V1064.7ZM2381.45 1063.22C2382.59 1069.55 2385.27 1074.82 2389.53 1078.95L2392.03 1076.37C2388.37 1072.82 2386.01 1068.25 2384.99 1062.58L2381.45 1063.22ZM2389.55 1078.98C2395.15 1084.19 2403.03 1086.66 2412.92 1086.66V1083.06C2403.61 1083.06 2396.73 1080.73 2392.01 1076.34L2389.55 1078.98ZM2412.92 1086.66C2421.37 1086.66 2428.4 1084.61 2433.83 1080.34L2431.61 1077.5C2426.96 1081.15 2420.79 1083.06 2412.92 1083.06V1086.66ZM2433.84 1080.33C2439.41 1075.92 2442.26 1070.19 2442.26 1063.26H2438.66C2438.66 1069.05 2436.35 1073.76 2431.6 1077.51L2433.84 1080.33ZM2442.26 1063.26C2442.26 1058.94 2441.37 1055.22 2439.46 1052.21L2436.42 1054.15C2437.87 1056.42 2438.66 1059.42 2438.66 1063.26H2442.26ZM2439.51 1052.29C2437.65 1049.01 2434.14 1046.58 2429.38 1044.83L2428.14 1048.21C2432.5 1049.82 2435.11 1051.83 2436.37 1054.07L2439.51 1052.29ZM2429.38 1044.83C2424.6 1043.07 2417.94 1041.85 2409.47 1041.13L2409.17 1044.71C2417.51 1045.43 2423.8 1046.61 2428.14 1048.21L2429.38 1044.83ZM2409.48 1041.13C2398.18 1040.13 2389.99 1036.99 2384.64 1031.94C2379.32 1026.92 2376.56 1019.81 2376.56 1010.34H2372.96C2372.96 1020.55 2375.96 1028.71 2382.17 1034.55C2388.33 1040.36 2397.42 1043.67 2409.16 1044.71L2409.48 1041.13ZM2376.56 1010.34C2376.56 1005.61 2377.31 1001.33 2378.78 997.483L2375.42 996.197C2373.77 1000.51 2372.96 1005.23 2372.96 1010.34H2376.56ZM2378.77 997.508C2380.37 993.52 2382.58 990.129 2385.39 987.313L2382.85 984.767C2379.66 987.951 2377.19 991.76 2375.43 996.171L2378.77 997.508ZM2385.39 987.313C2391.56 981.143 2400.41 977.94 2412.2 977.94V974.34C2399.75 974.34 2389.88 977.737 2382.85 984.767L2385.39 987.313ZM2412.2 977.94H2412.38V974.34H2412.2V977.94ZM2412.36 977.94C2424.4 978.057 2433.3 981.379 2439.34 987.649L2441.94 985.151C2435.02 977.981 2425.08 974.463 2412.4 974.34L2412.36 977.94ZM2439.37 987.673C2445.66 993.962 2449.4 1001.92 2450.55 1011.63L2454.13 1011.21C2452.88 1000.76 2448.82 992.038 2441.91 985.127L2439.37 987.673ZM2452.34 1009.62H2439.92V1013.22H2452.34V1009.62ZM2441.72 1011.42V1011.24H2438.12V1011.42H2441.72Z" fill="white"/>
<defs>
<linearGradient id="paint0_linear" x1="0" y1="0" x2="3840" y2="2160" gradientUnits="userSpaceOnUse">
<stop stop-color="#C00000"/>
<stop offset="1" stop-color="#FF4300"/>
</linearGradient>
<linearGradient id="paint1_linear" x1="26.4804" y1="1452.28" x2="1099.89" y2="2763" gradientUnits="userSpaceOnUse">
<stop stop-color="#FF4300"/>
<stop offset="1" stop-color="#C00000"/>
</linearGradient>
<linearGradient id="paint2_linear" x1="-399.634" y1="1566.71" x2="501.668" y2="2658.15" gradientUnits="userSpaceOnUse">
<stop stop-color="#FF4300"/>
<stop offset="1" stop-color="#C00000"/>
</linearGradient>
<linearGradient id="paint3_linear" x1="1041.98" y1="1205.17" x2="1148.03" y2="2182.3" gradientUnits="userSpaceOnUse">
<stop stop-color="#FF4300"/>
<stop offset="1" stop-color="#C00000"/>
</linearGradient>
<linearGradient id="paint4_linear" x1="2880.48" y1="1452.28" x2="3953.89" y2="2763" gradientUnits="userSpaceOnUse">
<stop stop-color="#FF4300"/>
<stop offset="1" stop-color="#C00000"/>
</linearGradient>
<linearGradient id="paint5_linear" x1="1019.11" y1="1235.93" x2="2404.55" y2="3018.13" gradientUnits="userSpaceOnUse">
<stop stop-color="#FF4300"/>
<stop offset="1" stop-color="#C00000"/>
</linearGradient>
<linearGradient id="paint6_linear" x1="1859.84" y1="1334.01" x2="3112.63" y2="2863.77" gradientUnits="userSpaceOnUse">
<stop stop-color="#FF4300"/>
<stop offset="1" stop-color="#C00000"/>
</linearGradient>
<linearGradient id="paint7_linear" x1="1167.18" y1="1926.73" x2="2240.59" y2="3237.44" gradientUnits="userSpaceOnUse">
<stop stop-color="#FF4300"/>
<stop offset="1" stop-color="#C00000"/>
</linearGradient>
<linearGradient id="paint8_linear" x1="2141.18" y1="2033.63" x2="3214.59" y2="3344.34" gradientUnits="userSpaceOnUse">
<stop stop-color="#FF4300"/>
<stop offset="1" stop-color="#C00000"/>
</linearGradient>
<linearGradient id="paint9_linear" x1="1439.61" y1="954.893" x2="1617.53" y2="1133.11" gradientUnits="userSpaceOnUse">
<stop stop-color="#C00000"/>
<stop offset="1" stop-color="#FF4300"/>
</linearGradient>
<linearGradient id="paint10_linear" x1="1439.61" y1="954.893" x2="1617.53" y2="1133.11" gradientUnits="userSpaceOnUse">
<stop stop-color="#C00000"/>
<stop offset="1" stop-color="#FF4300"/>
</linearGradient>
<clipPath id="clip0">
<rect width="3840" height="2105" fill="white" transform="translate(0 55)"/>
</clipPath>
</defs>
</svg>
