<svg width="3840" height="2160" viewBox="0 0 3840 2160" fill="none" xmlns="http://www.w3.org/2000/svg">
<rect width="3840" height="2160" fill="url(#paint0_linear)"/>
<g clip-path="url(#clip0)">
<path fill-rule="evenodd" clip-rule="evenodd" d="M652.649 949.625L1710 2160H-404.703L652.649 949.625Z" fill="url(#paint1_linear)"/>
<path fill-rule="evenodd" clip-rule="evenodd" d="M120.947 1145.32L1000 2160H-758.109L120.947 1145.32Z" fill="url(#paint2_linear)"/>
<path fill-rule="evenodd" clip-rule="evenodd" d="M1030 1040.07L1748 2160H312L1030 1040.07Z" fill="url(#paint3_linear)"/>
<path fill-rule="evenodd" clip-rule="evenodd" d="M3506.65 949.625L4564 2160H2449.3L3506.65 949.625Z" fill="url(#paint4_linear)"/>
<path fill-rule="evenodd" clip-rule="evenodd" d="M1880.42 579.605L3334.85 2160H426L1880.42 579.605Z" fill="url(#paint5_linear)"/>
<path fill-rule="evenodd" clip-rule="evenodd" d="M2590.65 747.348L3824.7 2160H1356.59L2590.65 747.348Z" fill="url(#paint6_linear)"/>
<path fill-rule="evenodd" clip-rule="evenodd" d="M1793.35 1424.07L2850.7 2634.45H736L1793.35 1424.07Z" fill="url(#paint7_linear)"/>
<path fill-rule="evenodd" clip-rule="evenodd" d="M2767.35 1530.97L3824.7 2741.34H1710L2767.35 1530.97Z" fill="url(#paint8_linear)"/>
</g>
<path d="M1529 1258C1611.84 1258 1679 1190.84 1679 1108C1679 1025.16 1611.84 958 1529 958C1446.16 958 1379 1025.16 1379 1108C1379 1190.84 1446.16 1258 1529 1258Z" fill="white"/>
<path d="M1450.21 1029.21H1607.79V1186.79H1450.21V1029.21Z" fill="url(#paint9_linear)"/>
<path d="M1417.57 1108L1529 996.571L1640.43 1108L1529 1219.43L1417.57 1108Z" fill="url(#paint10_linear)"/>
<path d="M1529 1168C1562.14 1168 1589 1141.14 1589 1108C1589 1074.86 1562.14 1048 1529 1048C1495.86 1048 1469 1074.86 1469 1108C1469 1141.14 1495.86 1168 1529 1168Z" fill="white"/>
<path d="M1832.26 1160.2H1820.2V1143.46C1811.44 1155.22 1800.22 1161.1 1786.54 1161.1C1778.26 1161.1 1770.64 1159.06 1763.68 1154.98C1756.72 1150.9 1751.2 1145.38 1747.12 1138.42C1743.04 1131.34 1741 1123.72 1741 1115.56C1741 1107.4 1743.04 1099.84 1747.12 1092.88C1751.2 1085.8 1756.72 1080.22 1763.68 1076.14C1770.64 1072.06 1778.26 1070.02 1786.54 1070.02C1800.7 1070.02 1811.92 1075.6 1820.2 1086.76V1040.68H1832.26V1160.2ZM1819.84 1115.56C1819.84 1109.56 1818.34 1104.04 1815.34 1099C1812.34 1093.96 1808.26 1089.94 1803.1 1086.94C1798.06 1083.94 1792.54 1082.44 1786.54 1082.44C1780.54 1082.44 1775.02 1083.94 1769.98 1086.94C1764.94 1089.94 1760.92 1093.96 1757.92 1099C1754.92 1104.04 1753.42 1109.56 1753.42 1115.56C1753.42 1121.56 1754.92 1127.14 1757.92 1132.3C1760.92 1137.34 1764.94 1141.36 1769.98 1144.36C1775.02 1147.36 1780.54 1148.86 1786.54 1148.86C1792.54 1148.86 1798.06 1147.36 1803.1 1144.36C1808.26 1141.36 1812.34 1137.34 1815.34 1132.3C1818.34 1127.14 1819.84 1121.56 1819.84 1115.56ZM1943.44 1072.54V1160.2H1931.02V1143.64C1922.74 1155.28 1911.7 1161.1 1897.9 1161.1C1889.62 1161.1 1882 1159.12 1875.04 1155.16C1868.08 1151.08 1862.56 1145.56 1858.48 1138.6C1854.52 1131.64 1852.54 1124.08 1852.54 1115.92C1852.54 1107.64 1854.52 1100.02 1858.48 1093.06C1862.56 1086.1 1868.08 1080.64 1875.04 1076.68C1882 1072.6 1889.62 1070.56 1897.9 1070.56C1906.42 1070.56 1913.38 1072.36 1918.78 1075.96C1924.3 1079.44 1928.38 1083.22 1931.02 1087.3V1072.54H1943.44ZM1897.9 1148.86C1903.9 1148.86 1909.42 1147.42 1914.46 1144.54C1919.5 1141.54 1923.46 1137.52 1926.34 1132.48C1929.34 1127.44 1930.84 1121.92 1930.84 1115.92C1930.84 1109.92 1929.34 1104.4 1926.34 1099.36C1923.46 1094.2 1919.5 1090.18 1914.46 1087.3C1909.42 1084.3 1903.9 1082.8 1897.9 1082.8C1891.9 1082.8 1886.32 1084.3 1881.16 1087.3C1876.12 1090.18 1872.1 1094.2 1869.1 1099.36C1866.22 1104.4 1864.78 1109.92 1864.78 1115.92C1864.78 1121.92 1866.22 1127.44 1869.1 1132.48C1872.1 1137.52 1876.12 1141.54 1881.16 1144.54C1886.32 1147.42 1891.9 1148.86 1897.9 1148.86ZM2001.35 1069.48C2007.83 1069.48 2013.77 1071.1 2019.17 1074.34C2024.69 1077.46 2029.01 1081.78 2032.13 1087.3C2035.37 1092.7 2036.99 1098.64 2036.99 1105.12V1160.2H2024.57V1105.12C2024.57 1100.92 2023.49 1097.02 2021.33 1093.42C2019.29 1089.82 2016.47 1087 2012.87 1084.96C2009.39 1082.8 2005.55 1081.72 2001.35 1081.72C1997.15 1081.72 1993.25 1082.8 1989.65 1084.96C1986.05 1087 1983.17 1089.82 1981.01 1093.42C1978.97 1097.02 1977.95 1100.92 1977.95 1105.12V1160.2H1965.53V1040.14H1977.95V1079.56C1980.83 1076.2 1984.25 1073.68 1988.21 1072C1992.29 1070.32 1996.67 1069.48 2001.35 1069.48ZM2071.39 1040.5V1160.2H2059.15V1040.5H2071.39ZM2101.62 1045.18C2103.78 1045.18 2105.64 1045.96 2107.2 1047.52C2108.76 1049.08 2109.54 1050.94 2109.54 1053.1C2109.54 1055.38 2108.76 1057.3 2107.2 1058.86C2105.64 1060.42 2103.78 1061.2 2101.62 1061.2C2099.34 1061.2 2097.42 1060.42 2095.86 1058.86C2094.3 1057.3 2093.52 1055.38 2093.52 1053.1C2093.52 1050.94 2094.3 1049.08 2095.86 1047.52C2097.42 1045.96 2099.34 1045.18 2101.62 1045.18ZM2107.74 1070.2V1160.2H2095.32V1070.2H2107.74ZM2215.41 1072.54V1160.2H2202.99V1143.64C2194.71 1155.28 2183.67 1161.1 2169.87 1161.1C2161.59 1161.1 2153.97 1159.12 2147.01 1155.16C2140.05 1151.08 2134.53 1145.56 2130.45 1138.6C2126.49 1131.64 2124.51 1124.08 2124.51 1115.92C2124.51 1107.64 2126.49 1100.02 2130.45 1093.06C2134.53 1086.1 2140.05 1080.64 2147.01 1076.68C2153.97 1072.6 2161.59 1070.56 2169.87 1070.56C2178.39 1070.56 2185.35 1072.36 2190.75 1075.96C2196.27 1079.44 2200.35 1083.22 2202.99 1087.3V1072.54H2215.41ZM2169.87 1148.86C2175.87 1148.86 2181.39 1147.42 2186.43 1144.54C2191.47 1141.54 2195.43 1137.52 2198.31 1132.48C2201.31 1127.44 2202.81 1121.92 2202.81 1115.92C2202.81 1109.92 2201.31 1104.4 2198.31 1099.36C2195.43 1094.2 2191.47 1090.18 2186.43 1087.3C2181.39 1084.3 2175.87 1082.8 2169.87 1082.8C2163.87 1082.8 2158.29 1084.3 2153.13 1087.3C2148.09 1090.18 2144.07 1094.2 2141.07 1099.36C2138.19 1104.4 2136.75 1109.92 2136.75 1115.92C2136.75 1121.92 2138.19 1127.44 2141.07 1132.48C2144.07 1137.52 2148.09 1141.54 2153.13 1144.54C2158.29 1147.42 2163.87 1148.86 2169.87 1148.86ZM2295.64 1161.1C2284.72 1161.1 2274.7 1158.4 2265.58 1153C2256.46 1147.6 2249.2 1140.34 2243.8 1131.22C2238.4 1122.1 2235.7 1112.08 2235.7 1101.16C2235.7 1090.24 2238.4 1080.22 2243.8 1071.1C2249.2 1061.86 2256.46 1054.54 2265.58 1049.14C2274.82 1043.74 2284.84 1041.04 2295.64 1041.04C2306.44 1041.04 2316.46 1043.74 2325.7 1049.14C2334.94 1054.54 2342.26 1061.86 2347.66 1071.1C2353.06 1080.34 2355.76 1090.36 2355.76 1101.16C2355.76 1111.96 2353.06 1121.98 2347.66 1131.22C2342.26 1140.34 2334.94 1147.6 2325.7 1153C2316.58 1158.4 2306.56 1161.1 2295.64 1161.1ZM2295.64 1148.86C2304.28 1148.86 2312.26 1146.76 2319.58 1142.56C2326.9 1138.24 2332.66 1132.42 2336.86 1125.1C2341.18 1117.78 2343.34 1109.8 2343.34 1101.16C2343.34 1092.52 2341.18 1084.54 2336.86 1077.22C2332.66 1069.9 2326.9 1064.14 2319.58 1059.94C2312.26 1055.62 2304.28 1053.46 2295.64 1053.46C2287 1053.46 2279.02 1055.62 2271.7 1059.94C2264.38 1064.14 2258.56 1069.9 2254.24 1077.22C2250.04 1084.54 2247.94 1092.52 2247.94 1101.16C2247.94 1109.8 2250.04 1117.78 2254.24 1125.1C2258.56 1132.42 2264.38 1138.24 2271.7 1142.56C2279.02 1146.76 2287 1148.86 2295.64 1148.86ZM2439.92 1075.24C2439.32 1070.68 2437.88 1066.72 2435.6 1063.36C2430.92 1056.16 2423.18 1052.56 2412.38 1052.56C2403.38 1052.56 2396.84 1054.6 2392.76 1058.68C2389.04 1062.52 2387.18 1067.74 2387.18 1074.34C2387.18 1081.66 2389.22 1086.7 2393.3 1089.46C2397.38 1092.22 2403.08 1093.9 2410.4 1094.5C2417.36 1095.1 2423.24 1096.06 2428.04 1097.38C2432.84 1098.58 2436.86 1100.26 2440.1 1102.42C2448.62 1107.7 2452.88 1115.98 2452.88 1127.26C2452.88 1131.7 2451.98 1135.9 2450.18 1139.86C2448.5 1143.82 2446.04 1147.36 2442.8 1150.48C2435.48 1157.68 2425.46 1161.28 2412.74 1161.28C2399.9 1161.28 2389.76 1157.74 2382.32 1150.66C2375.96 1144.78 2372.12 1136.86 2370.8 1126.9H2383.22C2384.3 1132.9 2386.82 1137.82 2390.78 1141.66C2395.94 1146.46 2403.32 1148.86 2412.92 1148.86C2421.08 1148.86 2427.68 1146.88 2432.72 1142.92C2437.88 1138.84 2440.46 1133.62 2440.46 1127.26C2440.46 1123.18 2439.62 1119.82 2437.94 1117.18C2436.38 1114.42 2433.32 1112.2 2428.76 1110.52C2424.2 1108.84 2417.72 1107.64 2409.32 1106.92C2386.28 1104.88 2374.76 1094.02 2374.76 1074.34C2374.76 1069.42 2375.54 1064.92 2377.1 1060.84C2378.78 1056.64 2381.12 1053.04 2384.12 1050.04C2390.72 1043.44 2400.08 1040.14 2412.2 1040.14H2412.38C2424.74 1040.26 2434.16 1043.68 2440.64 1050.4C2447.24 1057 2451.14 1065.34 2452.34 1075.42H2439.92V1075.24Z" fill="white"/>
<path d="M1832.26 1160.2V1162H1834.06V1160.2H1832.26ZM1820.2 1160.2H1818.4V1162H1820.2V1160.2ZM1820.2 1143.46H1822V1138.03L1818.76 1142.38L1820.2 1143.46ZM1763.68 1154.98L1764.59 1153.43L1763.68 1154.98ZM1747.12 1138.42L1745.56 1139.32L1745.56 1139.32L1745.57 1139.33L1747.12 1138.42ZM1747.12 1092.88L1748.67 1093.79L1748.68 1093.78L1748.68 1093.78L1747.12 1092.88ZM1763.68 1076.14L1764.59 1077.69L1763.68 1076.14ZM1820.2 1086.76L1818.75 1087.83L1822 1092.21V1086.76H1820.2ZM1820.2 1040.68V1038.88H1818.4V1040.68H1820.2ZM1832.26 1040.68H1834.06V1038.88H1832.26V1040.68ZM1815.34 1099L1813.79 1099.92L1815.34 1099ZM1803.1 1086.94L1802.18 1088.49L1802.19 1088.49L1802.2 1088.5L1803.1 1086.94ZM1769.98 1086.94L1770.9 1088.49L1769.98 1086.94ZM1757.92 1099L1759.47 1099.92L1757.92 1099ZM1757.92 1132.3L1756.36 1133.2L1756.37 1133.21L1756.37 1133.22L1757.92 1132.3ZM1769.98 1144.36L1769.06 1145.91L1769.98 1144.36ZM1803.1 1144.36L1802.2 1142.8L1802.19 1142.81L1802.18 1142.81L1803.1 1144.36ZM1815.34 1132.3L1816.89 1133.22L1816.89 1133.21L1816.9 1133.2L1815.34 1132.3ZM1832.26 1158.4H1820.2V1162H1832.26V1158.4ZM1822 1160.2V1143.46H1818.4V1160.2H1822ZM1818.76 1142.38C1810.31 1153.73 1799.61 1159.3 1786.54 1159.3V1162.9C1800.83 1162.9 1812.57 1156.71 1821.64 1144.54L1818.76 1142.38ZM1786.54 1159.3C1778.57 1159.3 1771.27 1157.34 1764.59 1153.43L1762.77 1156.53C1770.01 1160.78 1777.95 1162.9 1786.54 1162.9V1159.3ZM1764.59 1153.43C1757.9 1149.5 1752.6 1144.2 1748.67 1137.51L1745.57 1139.33C1749.8 1146.56 1755.54 1152.3 1762.77 1156.53L1764.59 1153.43ZM1748.68 1137.52C1744.76 1130.71 1742.8 1123.4 1742.8 1115.56H1739.2C1739.2 1124.04 1741.32 1131.97 1745.56 1139.32L1748.68 1137.52ZM1742.8 1115.56C1742.8 1107.72 1744.76 1100.47 1748.67 1093.79L1745.57 1091.97C1741.32 1099.21 1739.2 1107.08 1739.2 1115.56H1742.8ZM1748.68 1093.78C1752.61 1086.97 1757.9 1081.61 1764.59 1077.69L1762.77 1074.59C1755.54 1078.83 1749.79 1084.63 1745.56 1091.98L1748.68 1093.78ZM1764.59 1077.69C1771.27 1073.78 1778.57 1071.82 1786.54 1071.82V1068.22C1777.95 1068.22 1770.01 1070.34 1762.77 1074.59L1764.59 1077.69ZM1786.54 1071.82C1800.14 1071.82 1810.82 1077.14 1818.75 1087.83L1821.65 1085.69C1813.02 1074.06 1801.26 1068.22 1786.54 1068.22V1071.82ZM1822 1086.76V1040.68H1818.4V1086.76H1822ZM1820.2 1042.48H1832.26V1038.88H1820.2V1042.48ZM1830.46 1040.68V1160.2H1834.06V1040.68H1830.46ZM1821.64 1115.56C1821.64 1109.24 1820.06 1103.4 1816.89 1098.08L1813.79 1099.92C1816.62 1104.68 1818.04 1109.88 1818.04 1115.56H1821.64ZM1816.89 1098.08C1813.73 1092.77 1809.42 1088.53 1804 1085.38L1802.2 1088.5C1807.1 1091.35 1810.95 1095.15 1813.79 1099.92L1816.89 1098.08ZM1804.02 1085.39C1798.7 1082.22 1792.86 1080.64 1786.54 1080.64V1084.24C1792.22 1084.24 1797.42 1085.66 1802.18 1088.49L1804.02 1085.39ZM1786.54 1080.64C1780.22 1080.64 1774.38 1082.22 1769.06 1085.39L1770.9 1088.49C1775.66 1085.66 1780.86 1084.24 1786.54 1084.24V1080.64ZM1769.06 1085.39C1763.76 1088.55 1759.53 1092.78 1756.37 1098.08L1759.47 1099.92C1762.31 1095.14 1766.12 1091.33 1770.9 1088.49L1769.06 1085.39ZM1756.37 1098.08C1753.2 1103.4 1751.62 1109.24 1751.62 1115.56H1755.22C1755.22 1109.88 1756.64 1104.68 1759.47 1099.92L1756.37 1098.08ZM1751.62 1115.56C1751.62 1121.88 1753.2 1127.77 1756.36 1133.2L1759.48 1131.4C1756.64 1126.51 1755.22 1121.24 1755.22 1115.56H1751.62ZM1756.37 1133.22C1759.53 1138.52 1763.76 1142.75 1769.06 1145.91L1770.9 1142.81C1766.12 1139.97 1762.31 1136.16 1759.47 1131.38L1756.37 1133.22ZM1769.06 1145.91C1774.38 1149.08 1780.22 1150.66 1786.54 1150.66V1147.06C1780.86 1147.06 1775.66 1145.64 1770.9 1142.81L1769.06 1145.91ZM1786.54 1150.66C1792.86 1150.66 1798.7 1149.08 1804.02 1145.91L1802.18 1142.81C1797.42 1145.64 1792.22 1147.06 1786.54 1147.06V1150.66ZM1804 1145.92C1809.42 1142.77 1813.73 1138.53 1816.89 1133.22L1813.79 1131.38C1810.95 1136.15 1807.1 1139.95 1802.2 1142.8L1804 1145.92ZM1816.9 1133.2C1820.06 1127.77 1821.64 1121.88 1821.64 1115.56H1818.04C1818.04 1121.24 1816.62 1126.51 1813.78 1131.4L1816.9 1133.2ZM1943.44 1072.54H1945.24V1070.74H1943.44V1072.54ZM1943.44 1160.2V1162H1945.24V1160.2H1943.44ZM1931.02 1160.2H1929.22V1162H1931.02V1160.2ZM1931.02 1143.64H1932.82V1138L1929.56 1142.6L1931.02 1143.64ZM1875.04 1155.16L1874.13 1156.71L1874.14 1156.72L1874.15 1156.72L1875.04 1155.16ZM1858.48 1138.6L1856.92 1139.49L1856.92 1139.5L1856.93 1139.51L1858.48 1138.6ZM1858.48 1093.06L1856.93 1092.15L1856.92 1092.16L1856.92 1092.17L1858.48 1093.06ZM1875.04 1076.68L1875.93 1078.24L1875.94 1078.24L1875.95 1078.23L1875.04 1076.68ZM1918.78 1075.96L1917.78 1077.46L1917.8 1077.47L1917.82 1077.48L1918.78 1075.96ZM1931.02 1087.3L1929.51 1088.28L1932.82 1093.4V1087.3H1931.02ZM1931.02 1072.54V1070.74H1929.22V1072.54H1931.02ZM1914.46 1144.54L1915.36 1146.1L1915.37 1146.1L1915.38 1146.09L1914.46 1144.54ZM1926.34 1132.48L1924.8 1131.56L1924.79 1131.57L1924.78 1131.59L1926.34 1132.48ZM1926.34 1099.36L1924.77 1100.24L1924.78 1100.26L1924.8 1100.28L1926.34 1099.36ZM1914.46 1087.3L1913.54 1088.85L1913.56 1088.85L1913.57 1088.86L1914.46 1087.3ZM1881.16 1087.3L1882.06 1088.86L1882.06 1088.86L1882.07 1088.86L1881.16 1087.3ZM1869.1 1099.36L1867.55 1098.46L1867.54 1098.46L1867.54 1098.47L1869.1 1099.36ZM1869.1 1132.48L1867.54 1133.37L1867.55 1133.39L1867.56 1133.4L1869.1 1132.48ZM1881.16 1144.54L1880.24 1146.09L1880.26 1146.1L1880.29 1146.11L1881.16 1144.54ZM1941.64 1072.54V1160.2H1945.24V1072.54H1941.64ZM1943.44 1158.4H1931.02V1162H1943.44V1158.4ZM1932.82 1160.2V1143.64H1929.22V1160.2H1932.82ZM1929.56 1142.6C1921.6 1153.78 1911.1 1159.3 1897.9 1159.3V1162.9C1912.31 1162.9 1923.89 1156.78 1932.49 1144.68L1929.56 1142.6ZM1897.9 1159.3C1889.92 1159.3 1882.61 1157.4 1875.93 1153.6L1874.15 1156.72C1881.39 1160.84 1889.32 1162.9 1897.9 1162.9V1159.3ZM1875.95 1153.61C1869.26 1149.68 1863.96 1144.38 1860.04 1137.69L1856.93 1139.51C1861.17 1146.74 1866.91 1152.48 1874.13 1156.71L1875.95 1153.61ZM1860.05 1137.71C1856.24 1131.03 1854.34 1123.77 1854.34 1115.92H1850.74C1850.74 1124.39 1852.8 1132.25 1856.92 1139.49L1860.05 1137.71ZM1854.34 1115.92C1854.34 1107.94 1856.25 1100.63 1860.05 1093.95L1856.92 1092.17C1852.8 1099.41 1850.74 1107.34 1850.74 1115.92H1854.34ZM1860.04 1093.97C1863.96 1087.28 1869.25 1082.05 1875.93 1078.24L1874.15 1075.12C1866.92 1079.23 1861.17 1084.92 1856.93 1092.15L1860.04 1093.97ZM1875.95 1078.23C1882.63 1074.32 1889.93 1072.36 1897.9 1072.36V1068.76C1889.31 1068.76 1881.38 1070.88 1874.13 1075.13L1875.95 1078.23ZM1897.9 1072.36C1906.18 1072.36 1912.76 1074.11 1917.78 1077.46L1919.78 1074.46C1914.01 1070.61 1906.67 1068.76 1897.9 1068.76V1072.36ZM1917.82 1077.48C1923.19 1080.87 1927.05 1084.48 1929.51 1088.28L1932.53 1086.32C1929.71 1081.96 1925.41 1078.01 1919.74 1074.44L1917.82 1077.48ZM1932.82 1087.3V1072.54H1929.22V1087.3H1932.82ZM1931.02 1074.34H1943.44V1070.74H1931.02V1074.34ZM1897.9 1150.66C1904.2 1150.66 1910.03 1149.14 1915.36 1146.1L1913.57 1142.98C1908.81 1145.7 1903.6 1147.06 1897.9 1147.06V1150.66ZM1915.38 1146.09C1920.69 1142.93 1924.87 1138.69 1927.91 1133.37L1924.78 1131.59C1922.06 1136.35 1918.32 1140.15 1913.54 1142.99L1915.38 1146.09ZM1927.89 1133.4C1931.06 1128.08 1932.64 1122.24 1932.64 1115.92H1929.04C1929.04 1121.6 1927.63 1126.8 1924.8 1131.56L1927.89 1133.4ZM1932.64 1115.92C1932.64 1109.6 1931.06 1103.76 1927.89 1098.44L1924.8 1100.28C1927.63 1105.04 1929.04 1110.24 1929.04 1115.92H1932.64ZM1927.91 1098.48C1924.88 1093.04 1920.69 1088.78 1915.36 1085.74L1913.57 1088.86C1918.32 1091.58 1922.05 1095.36 1924.77 1100.24L1927.91 1098.48ZM1915.38 1085.75C1910.06 1082.58 1904.22 1081 1897.9 1081V1084.6C1903.59 1084.6 1908.79 1086.02 1913.54 1088.85L1915.38 1085.75ZM1897.9 1081C1891.59 1081 1885.69 1082.58 1880.26 1085.74L1882.07 1088.86C1886.95 1086.02 1892.22 1084.6 1897.9 1084.6V1081ZM1880.27 1085.74C1874.95 1088.78 1870.7 1093.03 1867.55 1098.46L1870.66 1100.26C1873.5 1095.37 1877.3 1091.58 1882.06 1088.86L1880.27 1085.74ZM1867.54 1098.47C1864.5 1103.79 1862.98 1109.62 1862.98 1115.92H1866.58C1866.58 1110.22 1867.95 1105.01 1870.67 1100.25L1867.54 1098.47ZM1862.98 1115.92C1862.98 1122.22 1864.5 1128.05 1867.54 1133.37L1870.67 1131.59C1867.95 1126.83 1866.58 1121.62 1866.58 1115.92H1862.98ZM1867.56 1133.4C1870.71 1138.7 1874.94 1142.93 1880.24 1146.09L1882.08 1142.99C1877.3 1140.15 1873.5 1136.34 1870.65 1131.56L1867.56 1133.4ZM1880.29 1146.11C1885.72 1149.14 1891.6 1150.66 1897.9 1150.66V1147.06C1892.2 1147.06 1886.93 1145.7 1882.04 1142.97L1880.29 1146.11ZM2019.17 1074.34L2018.25 1075.88L2018.27 1075.9L2018.29 1075.91L2019.17 1074.34ZM2032.13 1087.3L2030.57 1088.19L2030.58 1088.21L2030.59 1088.23L2032.13 1087.3ZM2036.99 1160.2V1162H2038.79V1160.2H2036.99ZM2024.57 1160.2H2022.77V1162H2024.57V1160.2ZM2021.33 1093.42L2019.77 1094.31L2019.78 1094.33L2019.79 1094.35L2021.33 1093.42ZM2012.87 1084.96L2011.92 1086.49L2011.95 1086.51L2011.99 1086.53L2012.87 1084.96ZM1989.65 1084.96L1990.54 1086.53L1990.56 1086.52L1990.58 1086.5L1989.65 1084.96ZM1981.01 1093.42L1979.47 1092.49L1979.46 1092.51L1979.45 1092.53L1981.01 1093.42ZM1977.95 1160.2V1162H1979.75V1160.2H1977.95ZM1965.53 1160.2H1963.73V1162H1965.53V1160.2ZM1965.53 1040.14V1038.34H1963.73V1040.14H1965.53ZM1977.95 1040.14H1979.75V1038.34H1977.95V1040.14ZM1977.95 1079.56H1976.15V1084.43L1979.32 1080.73L1977.95 1079.56ZM1988.21 1072L1987.53 1070.34L1987.52 1070.34L1987.51 1070.34L1988.21 1072ZM2001.35 1071.28C2007.52 1071.28 2013.14 1072.82 2018.25 1075.88L2020.1 1072.8C2014.41 1069.38 2008.15 1067.68 2001.35 1067.68V1071.28ZM2018.29 1075.91C2023.52 1078.87 2027.61 1082.95 2030.57 1088.19L2033.7 1086.41C2030.42 1080.61 2025.86 1076.05 2020.06 1072.77L2018.29 1075.91ZM2030.59 1088.23C2033.66 1093.34 2035.19 1098.96 2035.19 1105.12H2038.79C2038.79 1098.32 2037.09 1092.06 2033.68 1086.37L2030.59 1088.23ZM2035.19 1105.12V1160.2H2038.79V1105.12H2035.19ZM2036.99 1158.4H2024.57V1162H2036.99V1158.4ZM2026.37 1160.2V1105.12H2022.77V1160.2H2026.37ZM2026.37 1105.12C2026.37 1100.59 2025.2 1096.37 2022.88 1092.49L2019.79 1094.35C2021.78 1097.67 2022.77 1101.25 2022.77 1105.12H2026.37ZM2022.9 1092.53C2020.7 1088.65 2017.64 1085.59 2013.76 1083.39L2011.99 1086.53C2015.3 1088.41 2017.89 1090.99 2019.77 1094.31L2022.9 1092.53ZM2013.82 1083.43C2010.05 1081.09 2005.88 1079.92 2001.35 1079.92V1083.52C2005.23 1083.52 2008.74 1084.51 2011.92 1086.49L2013.82 1083.43ZM2001.35 1079.92C1996.83 1079.92 1992.61 1081.09 1988.73 1083.42L1990.58 1086.5C1993.9 1084.51 1997.48 1083.52 2001.35 1083.52V1079.92ZM1988.77 1083.39C1984.89 1085.59 1981.79 1088.63 1979.47 1092.49L1982.56 1094.35C1984.56 1091.01 1987.21 1088.41 1990.54 1086.53L1988.77 1083.39ZM1979.45 1092.53C1977.25 1096.41 1976.15 1100.61 1976.15 1105.12H1979.75C1979.75 1101.23 1980.69 1097.63 1982.58 1094.31L1979.45 1092.53ZM1976.15 1105.12V1160.2H1979.75V1105.12H1976.15ZM1977.95 1158.4H1965.53V1162H1977.95V1158.4ZM1967.33 1160.2V1040.14H1963.73V1160.2H1967.33ZM1965.53 1041.94H1977.95V1038.34H1965.53V1041.94ZM1976.15 1040.14V1079.56H1979.75V1040.14H1976.15ZM1979.32 1080.73C1982.02 1077.58 1985.22 1075.23 1988.92 1073.66L1987.51 1070.34C1983.29 1072.13 1979.64 1074.82 1976.59 1078.39L1979.32 1080.73ZM1988.9 1073.66C1992.75 1072.08 1996.89 1071.28 2001.35 1071.28V1067.68C1996.45 1067.68 1991.84 1068.56 1987.53 1070.34L1988.9 1073.66ZM2071.39 1040.5H2073.19V1038.7H2071.39V1040.5ZM2071.39 1160.2V1162H2073.19V1160.2H2071.39ZM2059.15 1160.2H2057.35V1162H2059.15V1160.2ZM2059.15 1040.5V1038.7H2057.35V1040.5H2059.15ZM2069.59 1040.5V1160.2H2073.19V1040.5H2069.59ZM2071.39 1158.4H2059.15V1162H2071.39V1158.4ZM2060.95 1160.2V1040.5H2057.35V1160.2H2060.95ZM2059.15 1042.3H2071.39V1038.7H2059.15V1042.3ZM2107.2 1047.52L2105.93 1048.79L2107.2 1047.52ZM2107.2 1058.86L2105.93 1057.59L2107.2 1058.86ZM2095.86 1058.86L2094.59 1060.13L2095.86 1058.86ZM2095.86 1047.52L2094.59 1046.25L2095.86 1047.52ZM2107.74 1070.2H2109.54V1068.4H2107.74V1070.2ZM2107.74 1160.2V1162H2109.54V1160.2H2107.74ZM2095.32 1160.2H2093.52V1162H2095.32V1160.2ZM2095.32 1070.2V1068.4H2093.52V1070.2H2095.32ZM2101.62 1046.98C2103.29 1046.98 2104.7 1047.56 2105.93 1048.79L2108.47 1046.25C2106.58 1044.36 2104.27 1043.38 2101.62 1043.38V1046.98ZM2105.93 1048.79C2107.16 1050.02 2107.74 1051.43 2107.74 1053.1H2111.34C2111.34 1050.45 2110.36 1048.14 2108.47 1046.25L2105.93 1048.79ZM2107.74 1053.1C2107.74 1054.92 2107.14 1056.38 2105.93 1057.59L2108.47 1060.13C2110.38 1058.22 2111.34 1055.84 2111.34 1053.1H2107.74ZM2105.93 1057.59C2104.7 1058.82 2103.29 1059.4 2101.62 1059.4V1063C2104.27 1063 2106.58 1062.02 2108.47 1060.13L2105.93 1057.59ZM2101.62 1059.4C2099.8 1059.4 2098.34 1058.8 2097.13 1057.59L2094.59 1060.13C2096.5 1062.04 2098.88 1063 2101.62 1063V1059.4ZM2097.13 1057.59C2095.92 1056.38 2095.32 1054.92 2095.32 1053.1H2091.72C2091.72 1055.84 2092.68 1058.22 2094.59 1060.13L2097.13 1057.59ZM2095.32 1053.1C2095.32 1051.43 2095.9 1050.02 2097.13 1048.79L2094.59 1046.25C2092.7 1048.14 2091.72 1050.45 2091.72 1053.1H2095.32ZM2097.13 1048.79C2098.34 1047.58 2099.8 1046.98 2101.62 1046.98V1043.38C2098.88 1043.38 2096.5 1044.34 2094.59 1046.25L2097.13 1048.79ZM2105.94 1070.2V1160.2H2109.54V1070.2H2105.94ZM2107.74 1158.4H2095.32V1162H2107.74V1158.4ZM2097.12 1160.2V1070.2H2093.52V1160.2H2097.12ZM2095.32 1072H2107.74V1068.4H2095.32V1072ZM2215.41 1072.54H2217.21V1070.74H2215.41V1072.54ZM2215.41 1160.2V1162H2217.21V1160.2H2215.41ZM2202.99 1160.2H2201.19V1162H2202.99V1160.2ZM2202.99 1143.64H2204.79V1138L2201.53 1142.6L2202.99 1143.64ZM2147.01 1155.16L2146.1 1156.71L2146.11 1156.72L2146.12 1156.72L2147.01 1155.16ZM2130.45 1138.6L2128.89 1139.49L2128.89 1139.5L2128.9 1139.51L2130.45 1138.6ZM2130.45 1093.06L2128.9 1092.15L2128.89 1092.16L2128.89 1092.17L2130.45 1093.06ZM2147.01 1076.68L2147.9 1078.24L2147.91 1078.24L2147.92 1078.23L2147.01 1076.68ZM2190.75 1075.96L2189.75 1077.46L2189.77 1077.47L2189.79 1077.48L2190.75 1075.96ZM2202.99 1087.3L2201.48 1088.28L2204.79 1093.4V1087.3H2202.99ZM2202.99 1072.54V1070.74H2201.19V1072.54H2202.99ZM2186.43 1144.54L2187.33 1146.1L2187.34 1146.1L2187.35 1146.09L2186.43 1144.54ZM2198.31 1132.48L2196.77 1131.56L2196.76 1131.57L2196.75 1131.59L2198.31 1132.48ZM2198.31 1099.36L2196.74 1100.24L2196.75 1100.26L2196.77 1100.28L2198.31 1099.36ZM2186.43 1087.3L2185.51 1088.85L2185.53 1088.85L2185.54 1088.86L2186.43 1087.3ZM2153.13 1087.3L2154.03 1088.86L2154.03 1088.86L2154.04 1088.86L2153.13 1087.3ZM2141.07 1099.36L2139.52 1098.46L2139.51 1098.46L2139.51 1098.47L2141.07 1099.36ZM2141.07 1132.48L2139.51 1133.37L2139.52 1133.39L2139.53 1133.4L2141.07 1132.48ZM2153.13 1144.54L2152.21 1146.09L2152.23 1146.1L2152.26 1146.11L2153.13 1144.54ZM2213.61 1072.54V1160.2H2217.21V1072.54H2213.61ZM2215.41 1158.4H2202.99V1162H2215.41V1158.4ZM2204.79 1160.2V1143.64H2201.19V1160.2H2204.79ZM2201.53 1142.6C2193.57 1153.78 2183.07 1159.3 2169.87 1159.3V1162.9C2184.28 1162.9 2195.86 1156.78 2204.46 1144.68L2201.53 1142.6ZM2169.87 1159.3C2161.89 1159.3 2154.58 1157.4 2147.9 1153.6L2146.12 1156.72C2153.36 1160.84 2161.29 1162.9 2169.87 1162.9V1159.3ZM2147.92 1153.61C2141.23 1149.68 2135.93 1144.38 2132.01 1137.69L2128.9 1139.51C2133.14 1146.74 2138.88 1152.48 2146.1 1156.71L2147.92 1153.61ZM2132.02 1137.71C2128.21 1131.03 2126.31 1123.77 2126.31 1115.92H2122.71C2122.71 1124.39 2124.77 1132.25 2128.89 1139.49L2132.02 1137.71ZM2126.31 1115.92C2126.31 1107.94 2128.22 1100.63 2132.02 1093.95L2128.89 1092.17C2124.77 1099.41 2122.71 1107.34 2122.71 1115.92H2126.31ZM2132.01 1093.97C2135.93 1087.28 2141.22 1082.05 2147.9 1078.24L2146.12 1075.12C2138.89 1079.23 2133.14 1084.92 2128.9 1092.15L2132.01 1093.97ZM2147.92 1078.23C2154.6 1074.32 2161.9 1072.36 2169.87 1072.36V1068.76C2161.28 1068.76 2153.35 1070.88 2146.1 1075.13L2147.92 1078.23ZM2169.87 1072.36C2178.15 1072.36 2184.73 1074.11 2189.75 1077.46L2191.75 1074.46C2185.98 1070.61 2178.64 1068.76 2169.87 1068.76V1072.36ZM2189.79 1077.48C2195.16 1080.87 2199.02 1084.48 2201.48 1088.28L2204.5 1086.32C2201.68 1081.96 2197.38 1078.01 2191.71 1074.44L2189.79 1077.48ZM2204.79 1087.3V1072.54H2201.19V1087.3H2204.79ZM2202.99 1074.34H2215.41V1070.74H2202.99V1074.34ZM2169.87 1150.66C2176.17 1150.66 2182 1149.14 2187.33 1146.1L2185.54 1142.98C2180.78 1145.7 2175.57 1147.06 2169.87 1147.06V1150.66ZM2187.35 1146.09C2192.66 1142.93 2196.84 1138.69 2199.88 1133.37L2196.75 1131.59C2194.03 1136.35 2190.29 1140.15 2185.51 1142.99L2187.35 1146.09ZM2199.86 1133.4C2203.03 1128.08 2204.61 1122.24 2204.61 1115.92H2201.01C2201.01 1121.6 2199.6 1126.8 2196.77 1131.56L2199.86 1133.4ZM2204.61 1115.92C2204.61 1109.6 2203.03 1103.76 2199.86 1098.44L2196.77 1100.28C2199.6 1105.04 2201.01 1110.24 2201.01 1115.92H2204.61ZM2199.88 1098.48C2196.85 1093.04 2192.66 1088.78 2187.33 1085.74L2185.54 1088.86C2190.29 1091.58 2194.02 1095.36 2196.74 1100.24L2199.88 1098.48ZM2187.35 1085.75C2182.03 1082.58 2176.19 1081 2169.87 1081V1084.6C2175.56 1084.6 2180.76 1086.02 2185.51 1088.85L2187.35 1085.75ZM2169.87 1081C2163.56 1081 2157.66 1082.58 2152.23 1085.74L2154.04 1088.86C2158.92 1086.02 2164.19 1084.6 2169.87 1084.6V1081ZM2152.24 1085.74C2146.92 1088.78 2142.67 1093.03 2139.52 1098.46L2142.63 1100.26C2145.47 1095.37 2149.27 1091.58 2154.03 1088.86L2152.24 1085.74ZM2139.51 1098.47C2136.47 1103.79 2134.95 1109.62 2134.95 1115.92H2138.55C2138.55 1110.22 2139.92 1105.01 2142.64 1100.25L2139.51 1098.47ZM2134.95 1115.92C2134.95 1122.22 2136.47 1128.05 2139.51 1133.37L2142.64 1131.59C2139.92 1126.83 2138.55 1121.62 2138.55 1115.92H2134.95ZM2139.53 1133.4C2142.68 1138.7 2146.91 1142.93 2152.21 1146.09L2154.05 1142.99C2149.27 1140.15 2145.47 1136.34 2142.62 1131.56L2139.53 1133.4ZM2152.26 1146.11C2157.69 1149.14 2163.57 1150.66 2169.87 1150.66V1147.06C2164.17 1147.06 2158.9 1145.7 2154.01 1142.97L2152.26 1146.11ZM2265.58 1153L2266.5 1151.45L2265.58 1153ZM2243.8 1131.22L2242.25 1132.14L2243.8 1131.22ZM2243.8 1071.1L2245.35 1072.02L2245.35 1072.01L2245.36 1072.01L2243.8 1071.1ZM2265.58 1049.14L2264.68 1047.59L2264.67 1047.59L2264.67 1047.59L2265.58 1049.14ZM2325.7 1049.14L2324.8 1050.69L2325.7 1049.14ZM2347.66 1071.1L2349.22 1070.19L2347.66 1071.1ZM2347.66 1131.22L2349.21 1132.14L2349.21 1132.13L2349.22 1132.13L2347.66 1131.22ZM2325.7 1153L2324.8 1151.45L2324.79 1151.45L2324.79 1151.45L2325.7 1153ZM2319.58 1142.56L2320.48 1144.12L2320.49 1144.12L2320.5 1144.11L2319.58 1142.56ZM2336.86 1125.1L2335.31 1124.19L2335.31 1124.19L2335.3 1124.2L2336.86 1125.1ZM2336.86 1077.22L2335.3 1078.12L2335.31 1078.13L2335.31 1078.13L2336.86 1077.22ZM2319.58 1059.94L2318.67 1061.49L2318.68 1061.5L2318.69 1061.5L2319.58 1059.94ZM2271.7 1059.94L2272.6 1061.5L2272.61 1061.5L2272.62 1061.49L2271.7 1059.94ZM2254.24 1077.22L2252.69 1076.31L2252.69 1076.31L2252.68 1076.32L2254.24 1077.22ZM2254.24 1125.1L2252.68 1126L2252.69 1126.01L2252.69 1126.01L2254.24 1125.1ZM2271.7 1142.56L2270.79 1144.11L2270.8 1144.12L2270.81 1144.12L2271.7 1142.56ZM2295.64 1159.3C2285.04 1159.3 2275.33 1156.68 2266.5 1151.45L2264.67 1154.55C2274.07 1160.12 2284.41 1162.9 2295.64 1162.9V1159.3ZM2266.5 1151.45C2257.64 1146.21 2250.6 1139.16 2245.35 1130.3L2242.25 1132.14C2247.81 1141.52 2255.29 1148.99 2264.67 1154.55L2266.5 1151.45ZM2245.35 1130.3C2240.12 1121.47 2237.5 1111.77 2237.5 1101.16H2233.9C2233.9 1112.39 2236.68 1122.73 2242.25 1132.14L2245.35 1130.3ZM2237.5 1101.16C2237.5 1090.55 2240.12 1080.85 2245.35 1072.02L2242.25 1070.18C2236.68 1079.59 2233.9 1089.93 2233.9 1101.16H2237.5ZM2245.36 1072.01C2250.6 1063.03 2257.65 1055.93 2266.5 1050.69L2264.67 1047.59C2255.28 1053.15 2247.8 1060.69 2242.25 1070.19L2245.36 1072.01ZM2266.49 1050.69C2275.45 1045.46 2285.16 1042.84 2295.64 1042.84V1039.24C2284.53 1039.24 2274.19 1042.02 2264.68 1047.59L2266.49 1050.69ZM2295.64 1042.84C2306.13 1042.84 2315.83 1045.46 2324.8 1050.69L2326.61 1047.59C2317.09 1042.02 2306.76 1039.24 2295.64 1039.24V1042.84ZM2324.8 1050.69C2333.77 1055.94 2340.87 1063.04 2346.11 1072.01L2349.22 1070.19C2343.66 1060.68 2336.12 1053.14 2326.61 1047.59L2324.8 1050.69ZM2346.11 1072.01C2351.35 1080.97 2353.96 1090.68 2353.96 1101.16H2357.56C2357.56 1090.04 2354.78 1079.71 2349.22 1070.19L2346.11 1072.01ZM2353.96 1101.16C2353.96 1111.64 2351.35 1121.35 2346.11 1130.31L2349.22 1132.13C2354.78 1122.61 2357.56 1112.28 2357.56 1101.16H2353.96ZM2346.11 1130.3C2340.87 1139.16 2333.77 1146.2 2324.8 1151.45L2326.61 1154.55C2336.11 1149 2343.65 1141.52 2349.21 1132.14L2346.11 1130.3ZM2324.79 1151.45C2315.95 1156.68 2306.25 1159.3 2295.64 1159.3V1162.9C2306.88 1162.9 2317.21 1160.12 2326.62 1154.55L2324.79 1151.45ZM2295.64 1150.66C2304.59 1150.66 2312.88 1148.48 2320.48 1144.12L2318.69 1141C2311.65 1145.04 2303.98 1147.06 2295.64 1147.06V1150.66ZM2320.5 1144.11C2328.08 1139.63 2334.07 1133.59 2338.42 1126L2335.3 1124.2C2331.26 1131.25 2325.72 1136.85 2318.67 1141.01L2320.5 1144.11ZM2338.41 1126.01C2342.9 1118.41 2345.14 1110.12 2345.14 1101.16H2341.54C2341.54 1109.48 2339.47 1117.15 2335.31 1124.19L2338.41 1126.01ZM2345.14 1101.16C2345.14 1092.2 2342.9 1083.91 2338.41 1076.31L2335.31 1078.13C2339.47 1085.17 2341.54 1092.84 2341.54 1101.16H2345.14ZM2338.42 1076.32C2334.07 1068.73 2328.08 1062.74 2320.48 1058.38L2318.69 1061.5C2325.73 1065.54 2331.26 1071.07 2335.3 1078.12L2338.42 1076.32ZM2320.5 1058.39C2312.9 1053.9 2304.6 1051.66 2295.64 1051.66V1055.26C2303.97 1055.26 2311.63 1057.34 2318.67 1061.49L2320.5 1058.39ZM2295.64 1051.66C2286.69 1051.66 2278.39 1053.9 2270.79 1058.39L2272.62 1061.49C2279.66 1057.34 2287.32 1055.26 2295.64 1055.26V1051.66ZM2270.81 1058.38C2263.22 1062.74 2257.17 1068.72 2252.69 1076.31L2255.79 1078.13C2259.96 1071.08 2265.55 1065.55 2272.6 1061.5L2270.81 1058.38ZM2252.68 1076.32C2248.32 1083.92 2246.14 1092.21 2246.14 1101.16H2249.74C2249.74 1092.83 2251.76 1085.16 2255.8 1078.12L2252.68 1076.32ZM2246.14 1101.16C2246.14 1110.11 2248.32 1118.4 2252.68 1126L2255.8 1124.2C2251.76 1117.16 2249.74 1109.49 2249.74 1101.16H2246.14ZM2252.69 1126.01C2257.17 1133.6 2263.21 1139.64 2270.79 1144.11L2272.62 1141.01C2265.56 1136.84 2259.96 1131.24 2255.79 1124.19L2252.69 1126.01ZM2270.81 1144.12C2278.41 1148.48 2286.7 1150.66 2295.64 1150.66V1147.06C2287.31 1147.06 2279.64 1145.04 2272.6 1141L2270.81 1144.12ZM2439.92 1075.24H2441.72V1075.12L2441.7 1075.01L2439.92 1075.24ZM2435.6 1063.36L2434.09 1064.34L2434.1 1064.36L2434.11 1064.37L2435.6 1063.36ZM2392.76 1058.68L2391.49 1057.41L2391.48 1057.42L2391.47 1057.43L2392.76 1058.68ZM2393.3 1089.46L2392.29 1090.95L2393.3 1089.46ZM2410.4 1094.5L2410.55 1092.71L2410.55 1092.71L2410.55 1092.71L2410.4 1094.5ZM2428.04 1097.38L2427.56 1099.12L2427.58 1099.12L2427.6 1099.13L2428.04 1097.38ZM2440.1 1102.42L2439.1 1103.92L2439.13 1103.93L2439.15 1103.95L2440.1 1102.42ZM2450.18 1139.86L2448.54 1139.12L2448.53 1139.14L2448.52 1139.16L2450.18 1139.86ZM2442.8 1150.48L2441.55 1149.18L2441.54 1149.19L2441.54 1149.2L2442.8 1150.48ZM2382.32 1150.66L2383.56 1149.36L2383.55 1149.35L2383.54 1149.34L2382.32 1150.66ZM2370.8 1126.9V1125.1H2368.75L2369.02 1127.14L2370.8 1126.9ZM2383.22 1126.9L2384.99 1126.58L2384.73 1125.1H2383.22V1126.9ZM2390.78 1141.66L2389.53 1142.95L2389.54 1142.97L2389.55 1142.98L2390.78 1141.66ZM2432.72 1142.92L2433.83 1144.34L2433.83 1144.33L2433.84 1144.33L2432.72 1142.92ZM2437.94 1117.18L2436.37 1118.07L2436.4 1118.11L2436.42 1118.15L2437.94 1117.18ZM2428.76 1110.52L2429.38 1108.83L2428.76 1110.52ZM2409.32 1106.92L2409.16 1108.71L2409.16 1108.71L2409.17 1108.71L2409.32 1106.92ZM2377.1 1060.84L2375.43 1060.17L2375.42 1060.18L2375.42 1060.2L2377.1 1060.84ZM2384.12 1050.04L2382.85 1048.77L2384.12 1050.04ZM2412.38 1040.14L2412.4 1038.34H2412.39H2412.38V1040.14ZM2440.64 1050.4L2439.34 1051.65L2439.36 1051.66L2439.37 1051.67L2440.64 1050.4ZM2452.34 1075.42V1077.22H2454.37L2454.13 1075.21L2452.34 1075.42ZM2439.92 1075.42H2438.12V1077.22H2439.92V1075.42ZM2441.7 1075.01C2441.07 1070.2 2439.55 1065.97 2437.09 1062.35L2434.11 1064.37C2436.21 1067.47 2437.57 1071.16 2438.14 1075.47L2441.7 1075.01ZM2437.11 1062.38C2432.01 1054.53 2423.61 1050.76 2412.38 1050.76V1054.36C2422.75 1054.36 2429.83 1057.79 2434.09 1064.34L2437.11 1062.38ZM2412.38 1050.76C2403.16 1050.76 2396.05 1052.84 2391.49 1057.41L2394.03 1059.95C2397.63 1056.36 2403.6 1054.36 2412.38 1054.36V1050.76ZM2391.47 1057.43C2387.35 1061.68 2385.38 1067.39 2385.38 1074.34H2388.98C2388.98 1068.09 2390.73 1063.36 2394.05 1059.93L2391.47 1057.43ZM2385.38 1074.34C2385.38 1081.95 2387.51 1087.71 2392.29 1090.95L2394.31 1087.97C2390.93 1085.69 2388.98 1081.37 2388.98 1074.34H2385.38ZM2392.29 1090.95C2396.72 1093.95 2402.77 1095.68 2410.25 1096.29L2410.55 1092.71C2403.4 1092.12 2398.04 1090.49 2394.31 1087.97L2392.29 1090.95ZM2410.25 1096.29C2417.14 1096.89 2422.9 1097.83 2427.56 1099.12L2428.52 1095.64C2423.58 1094.29 2417.58 1093.31 2410.55 1092.71L2410.25 1096.29ZM2427.6 1099.13C2432.26 1100.29 2436.07 1101.9 2439.1 1103.92L2441.1 1100.92C2437.65 1098.62 2433.43 1096.87 2428.48 1095.63L2427.6 1099.13ZM2439.15 1103.95C2447.07 1108.86 2451.08 1116.51 2451.08 1127.26H2454.68C2454.68 1115.45 2450.17 1106.54 2441.05 1100.89L2439.15 1103.95ZM2451.08 1127.26C2451.08 1131.45 2450.23 1135.39 2448.54 1139.12L2451.82 1140.6C2453.73 1136.41 2454.68 1131.95 2454.68 1127.26H2451.08ZM2448.52 1139.16C2446.94 1142.88 2444.63 1146.22 2441.55 1149.18L2444.05 1151.78C2447.46 1148.5 2450.06 1144.76 2451.84 1140.56L2448.52 1139.16ZM2441.54 1149.2C2434.63 1155.99 2425.11 1159.48 2412.74 1159.48V1163.08C2425.81 1163.08 2436.33 1159.37 2444.06 1151.76L2441.54 1149.2ZM2412.74 1159.48C2400.24 1159.48 2390.59 1156.04 2383.56 1149.36L2381.08 1151.96C2388.93 1159.44 2399.56 1163.08 2412.74 1163.08V1159.48ZM2383.54 1149.34C2377.54 1143.79 2373.86 1136.28 2372.58 1126.66L2369.02 1127.14C2370.38 1137.44 2374.38 1145.77 2381.1 1151.98L2383.54 1149.34ZM2370.8 1128.7H2383.22V1125.1H2370.8V1128.7ZM2381.45 1127.22C2382.59 1133.55 2385.27 1138.82 2389.53 1142.95L2392.03 1140.37C2388.37 1136.82 2386.01 1132.25 2384.99 1126.58L2381.45 1127.22ZM2389.55 1142.98C2395.15 1148.19 2403.03 1150.66 2412.92 1150.66V1147.06C2403.61 1147.06 2396.73 1144.73 2392.01 1140.34L2389.55 1142.98ZM2412.92 1150.66C2421.37 1150.66 2428.4 1148.61 2433.83 1144.34L2431.61 1141.5C2426.96 1145.15 2420.79 1147.06 2412.92 1147.06V1150.66ZM2433.84 1144.33C2439.41 1139.92 2442.26 1134.19 2442.26 1127.26H2438.66C2438.66 1133.05 2436.35 1137.76 2431.6 1141.51L2433.84 1144.33ZM2442.26 1127.26C2442.26 1122.94 2441.37 1119.22 2439.46 1116.21L2436.42 1118.15C2437.87 1120.42 2438.66 1123.42 2438.66 1127.26H2442.26ZM2439.51 1116.29C2437.65 1113.01 2434.14 1110.58 2429.38 1108.83L2428.14 1112.21C2432.5 1113.82 2435.11 1115.83 2436.37 1118.07L2439.51 1116.29ZM2429.38 1108.83C2424.6 1107.07 2417.94 1105.85 2409.47 1105.13L2409.17 1108.71C2417.51 1109.43 2423.8 1110.61 2428.14 1112.21L2429.38 1108.83ZM2409.48 1105.13C2398.18 1104.13 2389.99 1100.99 2384.64 1095.94C2379.32 1090.92 2376.56 1083.81 2376.56 1074.34H2372.96C2372.96 1084.55 2375.96 1092.71 2382.17 1098.55C2388.33 1104.36 2397.42 1107.67 2409.16 1108.71L2409.48 1105.13ZM2376.56 1074.34C2376.56 1069.61 2377.31 1065.33 2378.78 1061.48L2375.42 1060.2C2373.77 1064.51 2372.96 1069.23 2372.96 1074.34H2376.56ZM2378.77 1061.51C2380.37 1057.52 2382.58 1054.13 2385.39 1051.31L2382.85 1048.77C2379.66 1051.95 2377.19 1055.76 2375.43 1060.17L2378.77 1061.51ZM2385.39 1051.31C2391.56 1045.14 2400.41 1041.94 2412.2 1041.94V1038.34C2399.75 1038.34 2389.88 1041.74 2382.85 1048.77L2385.39 1051.31ZM2412.2 1041.94H2412.38V1038.34H2412.2V1041.94ZM2412.36 1041.94C2424.4 1042.06 2433.3 1045.38 2439.34 1051.65L2441.94 1049.15C2435.02 1041.98 2425.08 1038.46 2412.4 1038.34L2412.36 1041.94ZM2439.37 1051.67C2445.66 1057.96 2449.4 1065.92 2450.55 1075.63L2454.13 1075.21C2452.88 1064.76 2448.82 1056.04 2441.91 1049.13L2439.37 1051.67ZM2452.34 1073.62H2439.92V1077.22H2452.34V1073.62ZM2441.72 1075.42V1075.24H2438.12V1075.42H2441.72Z" fill="white"/>
<defs>
<linearGradient id="paint0_linear" x1="0" y1="0" x2="3840" y2="2160" gradientUnits="userSpaceOnUse">
<stop stop-color="#C00000"/>
<stop offset="1" stop-color="#FF4300"/>
</linearGradient>
<linearGradient id="paint1_linear" x1="26.4804" y1="1452.28" x2="1099.89" y2="2763" gradientUnits="userSpaceOnUse">
<stop stop-color="#FF4300"/>
<stop offset="1" stop-color="#C00000"/>
</linearGradient>
<linearGradient id="paint2_linear" x1="-399.634" y1="1566.71" x2="501.668" y2="2658.15" gradientUnits="userSpaceOnUse">
<stop stop-color="#FF4300"/>
<stop offset="1" stop-color="#C00000"/>
</linearGradient>
<linearGradient id="paint3_linear" x1="1041.98" y1="1205.17" x2="1148.03" y2="2182.3" gradientUnits="userSpaceOnUse">
<stop stop-color="#FF4300"/>
<stop offset="1" stop-color="#C00000"/>
</linearGradient>
<linearGradient id="paint4_linear" x1="2880.48" y1="1452.28" x2="3953.89" y2="2763" gradientUnits="userSpaceOnUse">
<stop stop-color="#FF4300"/>
<stop offset="1" stop-color="#C00000"/>
</linearGradient>
<linearGradient id="paint5_linear" x1="1019.11" y1="1235.93" x2="2404.55" y2="3018.13" gradientUnits="userSpaceOnUse">
<stop stop-color="#FF4300"/>
<stop offset="1" stop-color="#C00000"/>
</linearGradient>
<linearGradient id="paint6_linear" x1="1859.84" y1="1334.01" x2="3112.63" y2="2863.77" gradientUnits="userSpaceOnUse">
<stop stop-color="#FF4300"/>
<stop offset="1" stop-color="#C00000"/>
</linearGradient>
<linearGradient id="paint7_linear" x1="1167.18" y1="1926.73" x2="2240.59" y2="3237.44" gradientUnits="userSpaceOnUse">
<stop stop-color="#FF4300"/>
<stop offset="1" stop-color="#C00000"/>
</linearGradient>
<linearGradient id="paint8_linear" x1="2141.18" y1="2033.63" x2="3214.59" y2="3344.34" gradientUnits="userSpaceOnUse">
<stop stop-color="#FF4300"/>
<stop offset="1" stop-color="#C00000"/>
</linearGradient>
<linearGradient id="paint9_linear" x1="1439.61" y1="1018.89" x2="1617.53" y2="1197.11" gradientUnits="userSpaceOnUse">
<stop stop-color="#C00000"/>
<stop offset="1" stop-color="#FF4300"/>
</linearGradient>
<linearGradient id="paint10_linear" x1="1439.61" y1="1018.89" x2="1617.53" y2="1197.11" gradientUnits="userSpaceOnUse">
<stop stop-color="#C00000"/>
<stop offset="1" stop-color="#FF4300"/>
</linearGradient>
<clipPath id="clip0">
<rect width="3840" height="2105" fill="white" transform="translate(0 55)"/>
</clipPath>
</defs>
</svg>
