<svg width="3840" height="2160" viewBox="0 0 3840 2160" fill="none" xmlns="http://www.w3.org/2000/svg">
<g clip-path="url(#clip0_3_29)">
<rect width="3840" height="2160" fill="white"/>
<g filter="url(#filter0_d_3_29)">
<path fill-rule="evenodd" clip-rule="evenodd" d="M3840 80L4132.89 372.893H4547.11V787.106L4840 1080L4547.11 1372.89V1787.11H4132.89L3840 2080L3547.11 1787.11H3132.89V1372.89L2840 1080L3132.89 787.107V372.893H3547.11L3840 80ZM3841.1 1540.72C4094.94 1540.72 4300.72 1334.95 4300.72 1081.1C4300.72 827.264 4094.94 621.485 3841.1 621.485C3587.26 621.485 3381.48 827.264 3381.48 1081.1C3381.48 1334.95 3587.26 1540.72 3841.1 1540.72Z" fill="url(#paint0_linear_3_29)"/>
</g>
</g>
<defs>
<filter id="filter0_d_3_29" x="2630" y="-70" width="2300" height="2300" filterUnits="userSpaceOnUse" color-interpolation-filters="sRGB">
<feFlood flood-opacity="0" result="BackgroundImageFix"/>
<feColorMatrix in="SourceAlpha" type="matrix" values="0 0 0 0 0 0 0 0 0 0 0 0 0 0 0 0 0 0 127 0" result="hardAlpha"/>
<feOffset dx="-60"/>
<feGaussianBlur stdDeviation="75"/>
<feComposite in2="hardAlpha" operator="out"/>
<feColorMatrix type="matrix" values="0 0 0 0 0.976471 0 0 0 0 0.203922 0 0 0 0 0.00392157 0 0 0 0.4 0"/>
<feBlend mode="normal" in2="BackgroundImageFix" result="effect1_dropShadow_3_29"/>
<feBlend mode="normal" in="SourceGraphic" in2="effect1_dropShadow_3_29" result="shape"/>
</filter>
<linearGradient id="paint0_linear_3_29" x1="2922.97" y1="185.068" x2="5784.54" y2="2996.92" gradientUnits="userSpaceOnUse">
<stop stop-color="#FF3D00"/>
<stop offset="1" stop-color="#D50000"/>
</linearGradient>
<clipPath id="clip0_3_29">
<rect width="3840" height="2160" fill="white"/>
</clipPath>
</defs>
</svg>
